<svg width="548" height="398" viewBox="0 0 548 398" fill="none" xmlns="http://www.w3.org/2000/svg">
<g filter="url(#filter0_d_400_17)">
<rect x="34" y="34" width="479.2" height="329.6" rx="3.2" fill="#EDEBE8"/>
<path d="M262.858 295.472C263.491 296.451 264.086 297.526 264.662 298.717L263.472 299.312C262.915 298.083 262.301 297.008 261.648 296.048L262.858 295.472ZM265.642 300.867H259.229V299.542H266.89V294.723H259.978V293.398H266.89V291.19H268.31V293.398H275.376V294.723H268.31V299.542H270.23C270.979 298.237 271.613 296.816 272.15 295.299L273.494 295.779C272.938 297.181 272.304 298.429 271.594 299.542H275.933V300.867H269.52C270.883 303.056 273.206 304.995 276.47 306.704L275.53 307.894C272.131 305.802 269.75 303.459 268.387 300.867H268.31V308.682H266.89V300.867H266.774C265.546 303.594 263.107 305.936 259.459 307.914L258.691 306.685C262.147 304.976 264.47 303.037 265.642 300.867ZM293.251 293.398V308.701H291.85V307.51H281.75V308.701H280.349V293.398H284.458C284.88 292.63 285.206 291.862 285.398 291.056L286.8 291.248C286.589 292.016 286.282 292.746 285.898 293.398H293.251ZM281.75 306.186H291.85V303.056H281.75V306.186ZM281.75 301.789H291.85V298.851H281.75V301.789ZM281.75 297.584H291.85V294.723H281.75V297.584ZM303.293 300.061H307.69V296.49H309.091V300.061H313.68V301.405H309.091V306.704H314.544V308.067H302.506V306.704H307.69V301.405H303.293V300.061ZM300.202 300.906C299.491 301.635 298.742 302.346 297.936 303.018L297.072 301.885C299.472 299.907 301.334 297.642 302.678 295.088H297.744V293.725H303.331C303.715 292.842 304.061 291.92 304.33 290.979L305.77 291.152C305.501 292.035 305.213 292.899 304.867 293.725H314.525V295.088H304.253C303.504 296.605 302.602 298.026 301.565 299.331V308.778H300.202V300.906ZM323.453 291.037H324.835V294.397H330.461V295.069L330.077 299.562H332.803C332.784 303.248 332.477 305.398 331.901 306.032C331.632 306.32 331.248 306.512 330.749 306.627C330.326 306.704 329.923 306.762 329.501 306.762H328.234L327.869 305.456C328.522 305.456 329.155 305.475 329.731 305.475C330.307 305.456 330.71 305.302 330.96 304.995C331.229 304.669 331.382 303.306 331.44 300.886H324.835V308.739H323.453V300.886H316.637V299.562H323.453V295.722H317.731V294.397H323.453V291.037ZM324.835 299.562H328.733L329.098 295.722H324.835V299.562ZM329.674 291.114C331.094 291.843 332.4 292.707 333.571 293.706L332.842 294.858C331.574 293.706 330.288 292.803 328.963 292.15L329.674 291.114ZM344.842 295.146H346.243V297.43H352.579V298.736H346.243V301.539H351.293V308.701H349.93V307.741H341.827V308.701H340.464V301.539H344.842V295.146ZM341.827 306.435H349.93V302.826H341.827V306.435ZM344.957 291.018C345.264 291.594 345.571 292.266 345.878 292.995H352.944V294.339H338.794V298.544C338.736 302.73 338.045 306.09 336.701 308.624L335.664 307.702C336.797 305.514 337.392 302.461 337.43 298.544V292.995H344.477C344.189 292.362 343.862 291.786 343.517 291.248L344.957 291.018ZM356.227 297.008L357.744 291.67L359.107 291.901L358.013 295.683H361.373C361.757 294.186 362.064 292.63 362.294 290.979L363.696 291.152C363.446 292.765 363.139 294.262 362.794 295.683H371.779V297.008H362.429C362.198 297.776 361.968 298.506 361.699 299.197H369.552V300.387C369.034 302.038 367.997 303.536 366.422 304.88C367.978 305.802 369.878 306.646 372.106 307.414L371.395 308.701C368.938 307.798 366.902 306.819 365.29 305.763C363.715 306.877 361.757 307.875 359.434 308.778L358.704 307.491C360.854 306.704 362.64 305.84 364.08 304.899C362.582 303.747 361.526 302.499 360.893 301.155C359.491 304.189 357.686 306.589 355.498 308.374L354.787 307.107C357.59 304.65 359.645 301.29 360.989 297.008H356.227ZM361.93 300.464C362.582 301.77 363.677 302.979 365.213 304.093C366.634 302.979 367.613 301.77 368.15 300.464H361.93ZM366.922 291.133C368.304 292.189 369.437 293.245 370.358 294.301L369.379 295.28C368.573 294.262 367.44 293.187 366 292.035L366.922 291.133ZM376.81 291.978H388.752V298.525H376.81V291.978ZM387.389 297.2V293.322H378.173V297.2H387.389ZM374.544 300.867H382.09V299.024H383.51V300.867H391.056V302.173H384.874C386.179 304.035 388.406 305.706 391.517 307.165L390.557 308.374C387.274 306.512 384.97 304.438 383.645 302.173H383.51V308.758H382.09V302.173H381.955C380.534 304.707 378.192 306.8 374.909 308.432L374.122 307.165C377.136 305.859 379.325 304.189 380.688 302.173H374.544V300.867ZM400.157 294.435V307.53H398.813V306.435H395.318V308.086H393.974V294.435H395.76C396.144 293.36 396.413 292.246 396.586 291.094L397.968 291.286C397.738 292.419 397.45 293.475 397.066 294.435H400.157ZM395.318 305.149H398.813V300.944H395.318V305.149ZM395.318 299.696H398.813V295.741H395.318V299.696ZM403.498 298.89C404.88 300.483 405.917 301.885 406.646 303.075L405.552 303.843C404.765 302.576 403.709 301.155 402.384 299.581L403.498 298.89ZM410.083 294.454C410.083 300.829 409.987 304.784 409.795 306.282C409.603 307.741 408.72 308.49 407.107 308.49C406.723 308.49 406.07 308.451 405.149 308.413L404.822 307.146C405.629 307.184 406.32 307.203 406.915 307.203C407.818 307.203 408.336 306.704 408.49 305.725C408.605 304.65 408.682 301.328 408.72 295.798H403.44C402.902 297.008 402.269 298.102 401.52 299.082L400.694 297.987C402.038 296.106 402.941 293.802 403.44 291.075L404.803 291.248C404.573 292.381 404.304 293.456 403.958 294.454H410.083ZM420.278 308.509H417.341L417.014 307.069C417.974 307.146 418.896 307.184 419.76 307.184C420.47 307.184 420.835 306.819 420.835 306.109V291.402H422.256V306.474C422.256 307.818 421.584 308.509 420.278 308.509ZM415.69 295.856L417.072 296.394C416.15 300.234 414.941 303.152 413.443 305.149L412.253 304.093C413.789 302.058 414.922 299.312 415.69 295.856ZM426.595 295.395C428.112 298.832 429.283 301.827 430.09 304.381L428.861 305.245C427.997 302.518 426.826 299.504 425.347 296.182L426.595 295.395ZM440.17 302.288L441.283 302.826C440.342 304.746 439.248 306.397 437.981 307.779L436.925 307.03C438.173 305.706 439.248 304.131 440.17 302.288ZM446.717 302.23C447.619 303.747 448.483 305.398 449.309 307.203L448.157 307.76C447.35 305.898 446.506 304.246 445.584 302.787L446.717 302.23ZM442.416 308.643H440.63L440.342 307.338C440.899 307.395 441.437 307.434 441.955 307.434C442.589 307.434 442.915 307.107 442.915 306.454V300.925H438.806L438.518 299.696C439.44 298.429 440.285 296.835 441.034 294.915H438.173V293.571H441.514C441.782 292.765 442.051 291.92 442.301 291.037L443.587 291.325C443.357 292.093 443.107 292.842 442.877 293.571H448.733V294.915H442.397C441.706 296.72 440.918 298.294 440.074 299.677H442.915V296.797H444.259V299.677H448.31V300.925H444.259V306.8C444.259 308.029 443.645 308.643 442.416 308.643ZM432.413 291.92H437.75V293.014C437.27 294.742 436.694 296.547 436.003 298.429C437.04 300.003 437.616 301.443 437.712 302.73C437.693 303.632 437.52 304.285 437.213 304.669C436.714 305.168 435.888 305.418 434.717 305.437L434.275 304.016C434.563 304.054 434.813 304.093 435.024 304.093C435.542 304.054 435.888 303.939 436.061 303.747C436.214 303.555 436.31 303.21 436.31 302.73C436.31 301.501 435.734 300.138 434.621 298.64C435.35 296.643 435.926 294.838 436.349 293.226H433.757V308.739H432.413V291.92Z" fill="#111111" fill-opacity="0.5"/>
<path d="M94.32 127.536C94.2986 126.661 94.0106 126.043 93.456 125.68C92.9013 125.296 91.856 124.933 90.32 124.592L90.416 124.048L94.576 124.304C95.408 124.347 95.984 124.197 96.304 123.856C96.6453 123.493 96.848 122.757 96.912 121.648C97.0186 119.408 97.0933 117.456 97.136 115.792H92.496C91.984 118.288 91.1733 120.485 90.064 122.384C89.0613 124.112 87.5786 125.957 85.616 127.92L85.232 127.568C86.4693 125.52 87.4293 123.632 88.112 121.904C88.88 119.984 89.4453 117.947 89.808 115.792H86.16V114.928H89.936C90.1706 113.2 90.3413 111.141 90.448 108.752H86.48V107.888H90.48C90.5013 107.248 90.512 106.235 90.512 104.848V101.744H86.032V100.88H96.848L97.968 99.088L100.976 100.528C101.296 100.699 101.456 100.88 101.456 101.072C101.456 101.435 100.997 101.851 100.08 102.32C100.101 108.571 99.984 115.184 99.728 122.16C99.6426 124.037 99.184 125.371 98.352 126.16C97.5626 126.907 96.2186 127.365 94.32 127.536ZM109.552 124.496C109.488 123.515 109.232 122.821 108.784 122.416C108.421 122.075 107.579 121.68 106.256 121.232L106.352 120.688L109.776 120.912C110.459 120.955 110.96 120.805 111.28 120.464C111.621 120.101 111.792 119.483 111.792 118.608C111.877 116.325 110.608 113.712 107.984 110.768L110.576 101.744H106.096V126.768C106.096 127.216 105.915 127.493 105.552 127.6C104.827 127.792 104.016 127.899 103.12 127.92C103.227 124.933 103.28 121.381 103.28 117.264V106.672C103.28 103.963 103.237 101.637 103.152 99.696L106.704 100.88H110.16L111.376 98.992L114.896 100.912C115.195 101.061 115.344 101.232 115.344 101.424C115.344 101.851 114.821 102.203 113.776 102.48L109.008 110.544C111.056 112.037 112.528 113.445 113.424 114.768C114.299 116.069 114.736 117.467 114.736 118.96C114.736 120.731 114.331 122.032 113.52 122.864C112.731 123.675 111.408 124.219 109.552 124.496ZM93.232 108.752C93.1253 111.312 92.9333 113.371 92.656 114.928H97.136C97.1786 113.669 97.2213 111.611 97.264 108.752H93.232ZM93.328 104.816C93.328 105.584 93.3066 106.608 93.264 107.888H97.264C97.3066 104.773 97.328 102.725 97.328 101.744H93.328V104.816ZM144.848 126.16C142.971 124.475 141.573 122.821 140.656 121.2C139.803 119.685 139.067 117.648 138.448 115.088C137.659 115.408 136.827 115.728 135.952 116.048C136.293 117.285 136.464 118.789 136.464 120.56C136.464 123.12 136.027 124.955 135.152 126.064C134.341 127.109 132.912 127.749 130.864 127.984C130.736 127.045 130.416 126.395 129.904 126.032C129.413 125.669 128.411 125.328 126.896 125.008L127.024 124.496L130.96 124.656C131.856 124.699 132.507 124.421 132.912 123.824C133.381 123.12 133.616 121.936 133.616 120.272C133.616 119.419 133.605 118.8 133.584 118.416C131.28 120.272 129.019 121.797 126.8 122.992C124.453 124.251 121.787 125.317 118.8 126.192L118.576 125.712C121.584 124.219 124.325 122.587 126.8 120.816C129.019 119.216 131.152 117.392 133.2 115.344C133.029 114.725 132.827 114.16 132.592 113.648C130.395 115.355 128.283 116.741 126.256 117.808C124.08 118.96 121.68 119.941 119.056 120.752L118.864 120.272C123.792 117.712 127.909 114.811 131.216 111.568C131.003 111.291 130.757 111.013 130.48 110.736C127.237 112.656 123.525 114.192 119.344 115.344L119.152 114.864C123.824 112.56 127.387 110.341 129.84 108.208H123.216V107.344H138.96L140.656 105.136L143.696 107.344C143.867 107.493 143.952 107.621 143.952 107.728C143.931 108.005 143.6 108.165 142.96 108.208H134.16C133.029 109.083 132.059 109.765 131.248 110.256C133.467 111.685 134.928 113.307 135.632 115.12C139.195 112.837 141.531 110.907 142.64 109.328L145.616 111.6C145.851 111.771 145.968 111.92 145.968 112.048C145.968 112.283 145.808 112.443 145.488 112.528C145.147 112.613 144.624 112.571 143.92 112.4C142.491 113.253 140.912 114.043 139.184 114.768C140.272 116.816 141.499 118.491 142.864 119.792C144.336 121.2 146.192 122.363 148.432 123.28L148.24 123.792C146.832 123.963 145.701 124.752 144.848 126.16ZM120.432 108.432C120.005 108.432 119.643 108.283 119.344 107.984C119.045 107.685 118.896 107.323 118.896 106.896C118.875 106.149 119.184 105.552 119.824 105.104C121.104 104.08 121.979 102.672 122.448 100.88L122.8 100.912C122.928 101.723 123.003 102.32 123.024 102.704H132.4C132.251 102.512 132.144 102.277 132.08 102C131.781 100.741 131.205 99.6107 130.352 98.608L130.576 98.352C133.669 98.928 135.216 99.888 135.216 101.232C135.216 101.872 134.949 102.363 134.416 102.704H143.44L144.912 100.912L148.144 103.216C148.485 103.472 148.656 103.685 148.656 103.856C148.656 104.219 148.016 104.432 146.736 104.496C145.563 105.285 144.293 105.979 142.928 106.576L142.576 106.32L143.952 103.568H123.056C123.056 103.931 123.013 104.517 122.928 105.328C122.843 106.181 122.544 106.917 122.032 107.536C121.541 108.133 121.008 108.432 120.432 108.432ZM176.208 127.6V124.816H166.096V126.512C166.096 126.981 165.883 127.269 165.456 127.376C164.667 127.568 163.835 127.664 162.96 127.664C163.067 123.931 163.12 120.464 163.12 117.264V106.96C163.099 104.741 163.067 102.523 163.024 100.304L166.96 101.552H175.504L176.72 99.568L180.144 101.2C180.485 101.349 180.656 101.52 180.656 101.712C180.656 102.075 180.187 102.512 179.248 103.024V114.512C179.248 119.397 179.291 123.344 179.376 126.352C179.376 126.651 179.333 126.864 179.248 126.992C179.163 127.12 179.003 127.216 178.768 127.28C177.979 127.451 177.125 127.557 176.208 127.6ZM166.096 113.104V123.856H176.208V113.104H166.096ZM176.208 102.416H166.096V112.24H176.208V102.416ZM154.544 127.888C154.672 124.112 154.736 120.208 154.736 116.176V106.768C154.736 104.272 154.693 101.829 154.608 99.44L158.736 99.76C159.077 99.7814 159.248 99.9094 159.248 100.144C159.248 100.613 158.736 100.997 157.712 101.296V113.456C157.712 118.64 157.765 123.024 157.872 126.608C157.893 127.163 157.68 127.483 157.232 127.568C156.293 127.781 155.397 127.888 154.544 127.888ZM196.08 127.888C196.208 123.664 196.272 120.059 196.272 117.072V115.088H185.904V114.224H196.272V106.128H187.952V105.264H196.272V105.136C196.272 103.664 196.229 101.435 196.144 98.448L200.208 98.768C200.571 98.8107 200.752 98.9494 200.752 99.184C200.752 99.6534 200.24 100.037 199.216 100.336V105.264H205.808L206.896 103.44L210.032 104.976C210.309 105.104 210.448 105.253 210.448 105.424C210.448 105.787 210 106.181 209.104 106.608L208.592 114.224H209.808L210.928 112.304L214.384 113.84C214.64 113.947 214.768 114.096 214.768 114.288C214.768 114.672 214.267 115.12 213.264 115.632C213.264 117.595 213.168 119.451 212.976 121.2C212.784 122.672 212.293 123.728 211.504 124.368C210.693 125.029 209.317 125.435 207.376 125.584C207.269 124.624 206.928 123.952 206.352 123.568C205.755 123.163 204.688 122.811 203.152 122.512L203.248 122L208.08 122.224C208.741 122.267 209.211 122.149 209.488 121.872C209.787 121.595 209.979 121.061 210.064 120.272C210.256 119.035 210.352 117.307 210.352 115.088H199.216V116.496C199.216 119.781 199.269 123.205 199.376 126.768C199.397 127.259 199.216 127.547 198.832 127.632C197.765 127.803 196.848 127.888 196.08 127.888ZM206.352 106.128H199.216V114.224H205.872L206.352 106.128ZM213.136 106.384C212.923 106.384 212.72 106.32 212.528 106.192C212.336 106.064 212.112 105.829 211.856 105.488C210.384 103.461 208.261 101.605 205.488 99.92L205.68 99.568C211.653 100.699 214.64 102.309 214.64 104.4C214.64 104.955 214.469 105.435 214.128 105.84C213.829 106.203 213.499 106.384 213.136 106.384ZM242.064 127.952V125.584H229.552V126.8C229.552 127.248 229.349 127.525 228.944 127.632C228.155 127.803 227.355 127.888 226.544 127.888C226.629 125.157 226.672 122.885 226.672 121.072V119.216C226.672 118.704 226.651 117.317 226.608 115.056L230.448 116.176H233.712V109.616C233.712 107.611 233.669 105.925 233.584 104.56L237.552 104.88C237.872 104.923 238.032 105.04 238.032 105.232C238.032 105.68 237.541 106.053 236.56 106.352V110H242.48L244.176 107.664L247.344 109.968C247.493 110.117 247.568 110.245 247.568 110.352C247.547 110.651 247.205 110.811 246.544 110.832H236.56V116.176H241.584L242.64 114.384L245.872 115.856C246.171 116.027 246.32 116.187 246.32 116.336C246.32 116.528 246.235 116.709 246.064 116.88C245.851 117.093 245.499 117.328 245.008 117.584V120.56C245.008 121.947 245.051 124.048 245.136 126.864C245.136 127.099 245.093 127.28 245.008 127.408C244.944 127.515 244.805 127.589 244.592 127.632C244.016 127.803 243.173 127.909 242.064 127.952ZM218.896 128.016L218.448 127.728C219.621 124.848 220.421 122.128 220.848 119.568C221.296 116.923 221.52 113.467 221.52 109.2V107.184C221.52 105.115 221.488 103.28 221.424 101.68L225.328 102.704H234.064C233.851 102.555 233.691 102.277 233.584 101.872C233.179 100.699 232.528 99.5787 231.632 98.512L231.856 98.256C235.099 98.7467 236.72 99.7067 236.72 101.136C236.72 101.861 236.411 102.384 235.792 102.704H243.088L244.88 100.336L248.08 102.672C248.272 102.843 248.368 102.992 248.368 103.12C248.368 103.397 248.027 103.536 247.344 103.536H224.432V108.912C224.432 113.776 224.027 117.563 223.216 120.272C222.448 122.832 221.008 125.413 218.896 128.016ZM242.064 117.04H229.552V124.72H242.064V117.04ZM262.096 125.328V123.216H256.432V125.648C256.432 126.053 256.165 126.309 255.632 126.416C255.099 126.544 254.405 126.629 253.552 126.672C253.659 123.728 253.712 120.859 253.712 118.064V109.712C253.712 107.515 253.68 105.552 253.616 103.824L256.752 104.784C257.072 102.715 257.2 100.603 257.136 98.448L261.168 98.928C261.509 98.9707 261.68 99.1094 261.68 99.344C261.68 99.728 261.179 100.037 260.176 100.272C259.429 102.107 258.651 103.664 257.84 104.944H261.52L262.576 103.248L265.488 104.592C265.808 104.763 265.968 104.944 265.968 105.136C265.968 105.349 265.904 105.531 265.776 105.68C265.627 105.851 265.296 106.096 264.784 106.416V115.92C264.784 118.224 264.827 121.04 264.912 124.368C264.912 124.731 264.731 124.955 264.368 125.04C263.899 125.189 263.141 125.285 262.096 125.328ZM266.096 112.624L265.584 112.336C267.077 109.072 268.208 105.541 268.976 101.744C269.211 100.549 269.339 99.4614 269.36 98.48L273.584 99.216C273.883 99.28 274.032 99.4187 274.032 99.632C274.032 100.059 273.477 100.379 272.368 100.592C271.899 102.043 271.387 103.429 270.832 104.752H276.592L277.68 102.864L280.88 104.368C281.179 104.517 281.328 104.677 281.328 104.848C281.328 105.083 281.243 105.296 281.072 105.488C280.901 105.68 280.56 105.925 280.048 106.224C280.048 109.915 279.941 115.173 279.728 122C279.643 124.005 279.195 125.403 278.384 126.192C277.552 127.003 276.016 127.525 273.776 127.76C273.691 126.715 273.36 126 272.784 125.616C272.208 125.232 270.907 124.837 268.88 124.432L268.976 123.888L274.128 124.176C275.088 124.24 275.76 124.08 276.144 123.696C276.528 123.312 276.741 122.544 276.784 121.392C276.997 117.232 277.136 111.973 277.2 105.616H270.448C269.808 107.045 269.093 108.379 268.304 109.616L268.464 109.456C270.427 110.779 271.813 111.92 272.624 112.88C273.392 113.797 273.776 114.725 273.776 115.664C273.776 116.261 273.605 116.752 273.264 117.136C272.923 117.52 272.475 117.712 271.92 117.712C271.365 117.712 270.992 117.317 270.8 116.528C270.352 114.181 269.477 111.941 268.176 109.808C267.643 110.619 266.949 111.557 266.096 112.624ZM256.432 114.096V122.352H262.096V114.096H256.432ZM262.096 105.808H256.432V113.232H262.096V105.808ZM288.272 104.752V103.888H296.464C296.421 101.968 296.379 100.187 296.336 98.544L300.208 98.864C300.528 98.9067 300.688 99.0347 300.688 99.248C300.688 99.632 300.251 99.9734 299.376 100.272V103.888H301.488L303.088 101.776L305.872 103.856C306.043 104.027 306.128 104.165 306.128 104.272C306.128 104.592 305.787 104.752 305.104 104.752H299.376V110.384H301.04C302.747 108.891 304.315 107.259 305.744 105.488C307.28 103.525 308.411 101.744 309.136 100.144L312.784 101.808C313.04 101.936 313.168 102.085 313.168 102.256C313.168 102.747 312.56 102.96 311.344 102.896C309.339 105.691 307.131 108.187 304.72 110.384H309.776L311.664 107.92L314.832 110.352C315.024 110.48 315.12 110.619 315.12 110.768C315.099 111.067 314.747 111.227 314.064 111.248H303.76C301.328 113.36 298.64 115.205 295.696 116.784V120.112C299.387 118.853 302.416 117.477 304.784 115.984C305.744 115.387 306.576 114.757 307.28 114.096L310.192 116.368C310.427 116.539 310.544 116.731 310.544 116.944C310.544 117.243 310.32 117.392 309.872 117.392C309.445 117.392 309.029 117.317 308.624 117.168C304.997 118.789 300.688 120.048 295.696 120.944V123.184C295.696 123.611 295.792 123.92 295.984 124.112C296.155 124.283 296.464 124.368 296.912 124.368H308.144C309.125 124.368 309.787 123.899 310.128 122.96L311.472 118.832L311.92 118.896L312.112 122.704C312.133 123.301 312.325 123.749 312.688 124.048C313.115 124.347 313.328 124.699 313.328 125.104C313.328 125.701 312.976 126.171 312.272 126.512C311.525 126.875 310.427 127.056 308.976 127.056H295.76C294.672 127.056 293.904 126.821 293.456 126.352C293.008 125.883 292.784 125.104 292.784 124.016V119.92V118.224C290.331 119.312 287.824 120.229 285.264 120.976L284.976 120.368C287.92 118.917 290.512 117.541 292.752 116.24C292.731 115.557 292.709 114.875 292.688 114.192L295.44 114.576C296.955 113.595 298.469 112.485 299.984 111.248H285.552V110.384H296.464V104.912V104.752H288.272ZM330.896 128.176L330.576 127.696C334.011 125.136 336.624 122.693 338.416 120.368C336.88 117.829 335.792 114.459 335.152 110.256H333.84C333.733 114.544 333.221 117.968 332.304 120.528C331.365 123.088 329.723 125.595 327.376 128.048L326.896 127.728C328.517 124.699 329.627 121.904 330.224 119.344C330.8 116.891 331.088 113.851 331.088 110.224V106.576C331.088 104.805 331.056 103.024 330.992 101.232L334.16 102.192C336.784 101.595 339.131 100.944 341.2 100.24C342.757 99.728 344.016 99.1414 344.976 98.48L347.44 100.944C347.653 101.136 347.76 101.307 347.76 101.456C347.76 101.776 347.568 101.915 347.184 101.872C346.8 101.872 346.341 101.755 345.808 101.52C342.565 102.203 338.587 102.736 333.872 103.12V108.496V109.36H342.512L343.76 107.504L347.152 109.36C347.472 109.552 347.632 109.723 347.632 109.872C347.632 110.277 347.077 110.651 345.968 110.992C344.923 114.832 343.525 117.915 341.776 120.24C343.589 121.968 345.936 123.493 348.816 124.816L348.656 125.456C347.973 125.477 347.397 125.669 346.928 126.032C346.48 126.395 346.064 126.971 345.68 127.76C343.227 125.989 341.296 124.229 339.888 122.48C337.712 124.635 334.715 126.533 330.896 128.176ZM328.528 115.792C328.016 115.792 327.717 115.525 327.632 114.992C327.291 113.2 326.725 111.685 325.936 110.448V126.8C325.936 127.291 325.701 127.579 325.232 127.664C324.507 127.835 323.781 127.92 323.056 127.92C323.163 123.995 323.216 119.824 323.216 115.408V112.752C322.043 115.419 320.368 118.096 318.192 120.784L317.776 120.496C320.037 115.803 321.659 111.291 322.64 106.96H318.512V106.128H323.216V104.24C323.216 101.659 323.184 99.7067 323.12 98.384L326.896 98.704C327.216 98.7467 327.376 98.8747 327.376 99.088C327.376 99.472 326.896 99.824 325.936 100.144V106.128H326.608L328.016 104.144L330.512 106.128C330.704 106.299 330.8 106.427 330.8 106.512C330.757 106.811 330.427 106.96 329.808 106.96H325.936V109.584C328.645 111.205 330 112.667 330 113.968C329.915 115.163 329.424 115.771 328.528 115.792ZM342.96 110.256H335.856C336.944 113.499 338.288 116.133 339.888 118.16C341.189 115.984 342.213 113.349 342.96 110.256ZM363.696 127.888L363.408 127.44C366.843 124.965 369.371 122.533 370.992 120.144C369.413 117.691 368.229 114.491 367.44 110.544C366.416 112.229 365.243 113.851 363.92 115.408L363.472 115.12C365.371 111.173 366.768 107.248 367.664 103.344C368.069 101.616 368.347 99.9947 368.496 98.48L372.752 99.344C373.051 99.408 373.2 99.5467 373.2 99.76C373.2 100.208 372.656 100.517 371.568 100.688C371.013 102.629 370.395 104.4 369.712 106H376.688L378.416 103.664L381.488 106C381.68 106.171 381.776 106.299 381.776 106.384C381.755 106.683 381.403 106.843 380.72 106.864H378.256C377.723 112.325 376.4 116.624 374.288 119.76C376.336 121.659 378.917 123.248 382.032 124.528L381.808 125.072C381.147 125.2 380.624 125.445 380.24 125.808C379.856 126.171 379.451 126.811 379.024 127.728C376.187 125.829 373.989 123.952 372.432 122.096C370.448 124.208 367.536 126.139 363.696 127.888ZM359.792 127.888C359.835 125.563 359.888 122.043 359.952 117.328C358.224 118.715 356.4 120.059 354.48 121.36C354.587 122.427 354.405 122.96 353.936 122.96C353.744 122.96 353.584 122.8 353.456 122.48L351.888 119.248C352.784 118.885 353.211 118.256 353.168 117.36V109.008C353.168 106.171 353.147 103.952 353.104 102.352L356.784 102.672C357.125 102.715 357.296 102.843 357.296 103.056C357.296 103.461 356.837 103.813 355.92 104.112V117.968L359.952 116.304V105.52C359.952 103.259 359.909 100.965 359.824 98.64L363.824 98.96C364.165 99.0027 364.336 99.1414 364.336 99.376C364.336 99.568 364.229 99.7494 364.016 99.92C363.781 100.112 363.387 100.304 362.832 100.496V126.704C362.832 127.152 362.619 127.44 362.192 127.568C361.403 127.781 360.603 127.888 359.792 127.888ZM369.36 106.864C368.869 107.952 368.411 108.859 367.984 109.584C369.221 112.976 370.693 115.696 372.4 117.744C373.787 114.971 374.704 111.344 375.152 106.864H369.36ZM386.608 128.144L386.416 127.664C388.912 126.341 390.672 125.029 391.696 123.728C392.72 122.427 393.232 120.869 393.232 119.056C393.232 118.693 393.189 117.829 393.104 116.464C391.099 117.787 388.421 119.088 385.072 120.368L384.848 119.888C389.179 117.435 392.315 114.917 394.256 112.336H385.392V111.504H394.864C395.568 110.416 396.155 109.243 396.624 107.984H388.752V107.152H396.88C397.2 106.149 397.456 105.019 397.648 103.76H386.736V102.928H394.928C394.608 102.843 394.384 102.555 394.256 102.064C393.936 100.933 393.328 99.8134 392.432 98.704L392.688 98.384C395.653 99.0027 397.136 99.9627 397.136 101.264C397.093 102.117 396.656 102.672 395.824 102.928H402.032C402.736 101.221 403.227 99.632 403.504 98.16L407.024 99.024C407.344 99.1094 407.504 99.248 407.504 99.44C407.504 99.6534 407.419 99.8134 407.248 99.92C407.013 100.069 406.608 100.165 406.032 100.208C405.115 101.232 404.208 102.139 403.312 102.928H408.72L410.288 100.88L413.168 102.896C413.339 103.045 413.424 103.184 413.424 103.312C413.424 103.568 413.072 103.717 412.368 103.76H400.688C400.517 104.848 400.272 105.979 399.952 107.152H406.992L408.464 105.2L411.216 107.12C411.387 107.227 411.472 107.365 411.472 107.536C411.451 107.792 411.099 107.941 410.416 107.984H399.696C399.269 109.285 398.725 110.459 398.064 111.504H409.36L411.088 109.2L414.192 111.472C414.363 111.6 414.448 111.728 414.448 111.856C414.427 112.155 414.085 112.315 413.424 112.336H403.696C405.211 113.637 406.8 114.608 408.464 115.248C410.192 115.909 412.421 116.357 415.152 116.592L415.024 117.136C414.085 117.456 413.275 118.373 412.592 119.888C410.288 119.184 408.453 118.363 407.088 117.424C406.811 117.573 406.523 117.701 406.224 117.808V121.36C406.224 122.789 406.256 124.592 406.32 126.768C406.341 127.301 406.128 127.6 405.68 127.664C404.869 127.835 404.069 127.92 403.28 127.92C403.387 125.701 403.44 123.6 403.44 121.616V120.08C403.44 119.056 403.408 117.723 403.344 116.08L405.648 116.272C404.496 115.248 403.483 113.936 402.608 112.336H397.488C396.485 113.744 395.152 115.024 393.488 116.176L396.912 116.464C397.189 116.485 397.328 116.613 397.328 116.848C397.328 117.232 396.88 117.573 395.984 117.872V118.896C395.984 121.392 395.291 123.333 393.904 124.72C392.475 126.149 390.043 127.291 386.608 128.144ZM429.84 127.984C429.733 127.003 429.339 126.299 428.656 125.872C428.037 125.467 426.757 125.061 424.816 124.656L424.944 124.08L430.576 124.336C431.515 124.4 431.984 124.005 431.984 123.152V113.456C431.984 112.197 431.931 110.256 431.824 107.632L434.48 107.92L440.72 102.032H420.176V101.136H440.496L442.384 99.376L445.904 102C446.203 102.235 446.352 102.469 446.352 102.704C446.352 103.195 445.648 103.397 444.24 103.312C441.509 104.997 438.725 106.587 435.888 108.08L436.176 108.112C436.496 108.155 436.656 108.283 436.656 108.496C436.656 108.901 436.144 109.285 435.12 109.648V116.464C435.12 117.616 435.163 120.283 435.248 124.464C435.269 125.531 434.875 126.331 434.064 126.864C433.232 127.419 431.824 127.792 429.84 127.984ZM89.072 170.744V169.816H106.736L108.528 167.352L111.696 169.816C111.867 169.944 111.952 170.083 111.952 170.232C111.909 170.552 111.568 170.723 110.928 170.744H89.072ZM85.648 182.616V181.688H109.424L111.536 178.904L115.12 181.688C115.291 181.795 115.376 181.923 115.376 182.072C115.355 182.392 115.003 182.573 114.32 182.616H85.648ZM87.152 160.376V159.448H108.528L110.352 156.888L113.648 159.416C113.819 159.565 113.904 159.704 113.904 159.832C113.883 160.152 113.531 160.333 112.848 160.376H87.152ZM141.2 173.848V171.704H126.224V173.4C126.224 173.699 126.181 173.901 126.096 174.008C126.011 174.136 125.829 174.221 125.552 174.264C124.763 174.435 123.92 174.52 123.024 174.52C123.131 172.451 123.184 169.741 123.184 166.392V161.624C123.184 159.597 123.152 158.029 123.088 156.92L127.152 158.296H140.528L141.712 156.344L145.072 157.912C145.413 158.061 145.584 158.243 145.584 158.456C145.584 158.84 145.125 159.277 144.208 159.768V163.96C144.208 166.093 144.251 169.016 144.336 172.728C144.336 173.219 144.133 173.496 143.728 173.56C142.917 173.752 142.075 173.848 141.2 173.848ZM141.2 159.192H126.224V170.808H141.2V159.192ZM120.016 185.24L119.632 184.76C122.619 182.328 125.115 179.715 127.12 176.92C127.867 175.768 128.411 174.787 128.752 173.976L132.816 176.088C133.072 176.216 133.2 176.365 133.2 176.536C133.2 177.112 132.528 177.336 131.184 177.208C129.605 179.064 127.963 180.611 126.256 181.848C124.528 183.085 122.448 184.216 120.016 185.24ZM144.656 184.696C144.123 184.675 143.653 184.269 143.248 183.48C141.776 180.557 139.408 177.656 136.144 174.776L136.464 174.328C143.184 177.059 146.544 179.725 146.544 182.328C146.416 183.864 145.787 184.653 144.656 184.696ZM177.136 184.856V182.904H165.776V183.896C165.776 184.173 165.744 184.355 165.68 184.44C165.616 184.547 165.456 184.621 165.2 184.664C164.496 184.835 163.749 184.92 162.96 184.92C163.045 181.891 163.088 179.245 163.088 176.984V171.608C163.088 169.176 163.056 167.416 162.992 166.328L166.64 167.416H176.624L177.68 165.656L180.72 167.064C180.997 167.213 181.136 167.373 181.136 167.544C181.136 167.928 180.709 168.344 179.856 168.792V176.248C179.899 178.765 179.941 181.283 179.984 183.8C179.984 184.056 179.952 184.237 179.888 184.344C179.824 184.451 179.685 184.525 179.472 184.568C178.875 184.717 178.096 184.813 177.136 184.856ZM152.048 176.664L151.696 176.216C152.997 174.637 154.053 173.208 154.864 171.928C155.824 170.413 156.709 168.696 157.52 166.776C157.328 165.624 157.072 164.568 156.752 163.608C155.408 164.739 153.861 165.763 152.112 166.68L151.76 166.232C153.381 164.781 154.768 163.299 155.92 161.784C155.216 160.504 154.011 158.968 152.304 157.176L152.688 156.76C154.608 158.125 156.027 159.32 156.944 160.344C157.861 158.957 158.619 157.475 159.216 155.896L162.448 157.432C162.725 157.517 162.864 157.656 162.864 157.848C162.864 158.296 162.32 158.509 161.232 158.488C160.315 159.811 159.344 161.027 158.32 162.136C159.963 164.611 160.741 168.995 160.656 175.288C160.656 178.531 160.368 180.835 159.792 182.2C159.152 183.821 157.723 184.717 155.504 184.888C155.419 183.992 155.195 183.384 154.832 183.064C154.512 182.787 153.701 182.456 152.4 182.072L152.464 181.592L155.6 181.752C156.411 181.901 157.019 181.549 157.424 180.696C157.808 179.843 158 177.901 158 174.872C158 173.421 157.968 172.12 157.904 170.968C156.283 173.272 154.331 175.171 152.048 176.664ZM173.584 165.72V161.304H169.168V164.952C169.168 165.379 168.976 165.635 168.592 165.72C167.845 165.869 167.163 165.944 166.544 165.944V161.304H161.648V160.44H166.544V159.16C166.544 157.539 166.523 156.301 166.48 155.448L169.968 155.768C170.267 155.811 170.416 155.939 170.416 156.152C170.416 156.515 170 156.856 169.168 157.176V160.44H173.584V159.16C173.584 157.816 173.552 156.579 173.488 155.448L176.976 155.768C177.275 155.811 177.424 155.939 177.424 156.152C177.424 156.515 177.008 156.856 176.176 157.176V160.44H177.616L179.152 158.296L182.032 160.44C182.181 160.568 182.256 160.696 182.256 160.824C182.256 161.101 181.925 161.261 181.264 161.304H176.176C176.176 161.368 176.208 162.52 176.272 164.76C176.272 165.144 176.101 165.379 175.76 165.464C175.141 165.635 174.416 165.72 173.584 165.72ZM172.72 175.448V182.04H177.136V175.448H172.72ZM165.776 175.448V182.04H170.096V175.448H165.776ZM177.136 168.28H172.72V174.584H177.136V168.28ZM165.776 168.28V174.584H170.096V168.28H165.776ZM190.224 185.08L189.616 184.312C191.259 183.373 192.123 182.531 192.208 181.784C192.293 181.229 192.037 180.92 191.44 180.856C190.864 180.792 190.405 180.568 190.064 180.184C189.723 179.8 189.552 179.32 189.552 178.744C189.552 178.104 189.787 177.56 190.256 177.112C190.747 176.643 191.344 176.408 192.048 176.408C192.816 176.408 193.435 176.664 193.904 177.176C194.395 177.709 194.64 178.413 194.64 179.288C194.64 181.869 193.168 183.8 190.224 185.08ZM244.752 184.824C244.325 184.824 243.92 184.568 243.536 184.056C241.467 181.581 238.491 179.299 234.608 177.208C233.371 179.171 231.547 180.781 229.136 182.04C226.725 183.277 223.472 184.301 219.376 185.112L219.152 184.536C223.184 183 226.235 181.475 228.304 179.96C230.373 178.467 231.856 176.696 232.752 174.648H218.672V173.752H233.104C233.232 173.368 233.328 173.069 233.392 172.856C233.925 171.064 234.213 168.675 234.256 165.688C234.256 163.619 234.203 161.944 234.096 160.664L238.416 160.984C238.736 161.027 238.896 161.165 238.896 161.4C238.896 161.848 238.384 162.2 237.36 162.456C237.36 165.208 237.2 167.608 236.88 169.656C236.731 171.128 236.475 172.493 236.112 173.752H242.928L244.976 171.128L248.336 173.752C248.507 173.859 248.592 173.987 248.592 174.136C248.571 174.456 248.219 174.627 247.536 174.648H235.824C235.589 175.288 235.28 175.96 234.896 176.664C238.565 177.453 241.477 178.381 243.632 179.448C245.488 180.365 246.416 181.464 246.416 182.744C246.416 183.32 246.245 183.811 245.904 184.216C245.563 184.621 245.179 184.824 244.752 184.824ZM241.616 162.936L241.2 162.616L243.12 158.936H220.08V158.072H242.768L244.176 156.344L247.568 158.648C247.845 158.861 247.984 159.064 247.984 159.256C247.984 159.789 247.365 160.024 246.128 159.96C244.805 161.048 243.301 162.04 241.616 162.936ZM225.68 172.152C225.403 172.152 225.179 172.088 225.008 171.96C224.837 171.811 224.667 171.555 224.496 171.192C223.835 169.571 222.715 168.024 221.136 166.552L221.36 166.2C223.408 166.584 224.944 167.139 225.968 167.864C226.907 168.525 227.376 169.283 227.376 170.136C227.269 171.437 226.704 172.109 225.68 172.152ZM229.296 166.552C228.827 166.552 228.443 166.253 228.144 165.656C227.355 164.056 226.192 162.605 224.656 161.304L224.88 160.984C226.907 161.304 228.443 161.784 229.488 162.424C230.469 163.043 230.96 163.757 230.96 164.568C230.832 165.848 230.277 166.509 229.296 166.552ZM262.64 184.888C262.768 180.664 262.832 177.059 262.832 174.072V172.088H252.464V171.224H262.832V163.128H254.512V162.264H262.832V162.136C262.832 160.664 262.789 158.435 262.704 155.448L266.768 155.768C267.131 155.811 267.312 155.949 267.312 156.184C267.312 156.653 266.8 157.037 265.776 157.336V162.264H272.368L273.456 160.44L276.592 161.976C276.869 162.104 277.008 162.253 277.008 162.424C277.008 162.787 276.56 163.181 275.664 163.608L275.152 171.224H276.368L277.488 169.304L280.944 170.84C281.2 170.947 281.328 171.096 281.328 171.288C281.328 171.672 280.827 172.12 279.824 172.632C279.824 174.595 279.728 176.451 279.536 178.2C279.344 179.672 278.853 180.728 278.064 181.368C277.253 182.029 275.877 182.435 273.936 182.584C273.829 181.624 273.488 180.952 272.912 180.568C272.315 180.163 271.248 179.811 269.712 179.512L269.808 179L274.64 179.224C275.301 179.267 275.771 179.149 276.048 178.872C276.347 178.595 276.539 178.061 276.624 177.272C276.816 176.035 276.912 174.307 276.912 172.088H265.776V173.496C265.776 176.781 265.829 180.205 265.936 183.768C265.957 184.259 265.776 184.547 265.392 184.632C264.325 184.803 263.408 184.888 262.64 184.888ZM272.912 163.128H265.776V171.224H272.432L272.912 163.128ZM279.696 163.384C279.483 163.384 279.28 163.32 279.088 163.192C278.896 163.064 278.672 162.829 278.416 162.488C276.944 160.461 274.821 158.605 272.048 156.92L272.24 156.568C278.213 157.699 281.2 159.309 281.2 161.4C281.2 161.955 281.029 162.435 280.688 162.84C280.389 163.203 280.059 163.384 279.696 163.384ZM286.768 182.424C286.853 179.267 286.896 176.248 286.896 173.368V164.408C286.896 161.72 286.864 159.565 286.8 157.944L290.256 159.032H293.968L295.024 157.304L298.032 158.712C298.331 158.861 298.48 159.011 298.48 159.16C298.48 159.501 298.043 159.896 297.168 160.344V163.448H307.376V162.936C307.376 160.781 307.333 158.296 307.248 155.48L311.184 155.8C311.525 155.821 311.696 155.949 311.696 156.184C311.696 156.589 311.227 156.941 310.288 157.24V163.448H310.832L312.368 161.304L315.088 163.448C315.259 163.555 315.344 163.683 315.344 163.832C315.323 164.131 314.971 164.291 314.288 164.312H310.288V171C310.288 173.155 310.331 176.6 310.416 181.336C310.437 182.467 310.096 183.299 309.392 183.832C308.688 184.365 307.429 184.717 305.616 184.888C305.531 183.992 305.2 183.352 304.624 182.968C304.112 182.627 303.013 182.275 301.328 181.912L301.424 181.4L306.064 181.528C306.533 181.549 306.864 181.464 307.056 181.272C307.269 181.08 307.376 180.76 307.376 180.312V164.312H297.168V170.872C297.168 174.072 297.211 177.165 297.296 180.152C297.296 180.536 297.115 180.771 296.752 180.856C296.091 180.984 295.344 181.069 294.512 181.112V178.424H289.552V181.368C289.552 181.795 289.317 182.051 288.848 182.136C288.293 182.285 287.6 182.381 286.768 182.424ZM289.552 169.112V177.56H294.512V169.112H289.552ZM294.512 159.864H289.552V168.248H294.512V159.864ZM302.736 174.488C302.096 174.488 301.723 174.115 301.616 173.368C301.189 171.299 300.379 169.261 299.184 167.256L299.472 167C301.328 168.088 302.629 169.091 303.376 170.008C304.144 170.904 304.517 171.736 304.496 172.504C304.496 173.101 304.315 173.592 303.952 173.976C303.632 174.317 303.227 174.488 302.736 174.488ZM333.104 183.768C331.781 183.768 330.832 183.48 330.256 182.904C329.701 182.349 329.424 181.443 329.424 180.184V167.48L326.448 168.312L326.192 167.608L329.424 166.68V165.016C329.424 163.16 329.392 161.08 329.328 158.776L333.264 159.096C333.584 159.139 333.744 159.267 333.744 159.48C333.744 159.907 333.253 160.28 332.272 160.6V165.88L336.272 164.728V160.76C336.272 159.843 336.24 158.104 336.176 155.544L340.08 155.832C340.379 155.853 340.528 155.981 340.528 156.216C340.528 156.621 340.027 156.995 339.024 157.336V163.96L342.64 162.904L343.664 160.984L346.896 162.392C347.195 162.541 347.344 162.701 347.344 162.872C347.344 163.277 346.907 163.725 346.032 164.216C345.989 167.864 345.925 170.531 345.84 172.216C345.797 173.347 345.499 174.157 344.944 174.648C344.347 175.181 343.291 175.544 341.776 175.736C341.733 174.947 341.531 174.371 341.168 174.008C340.848 173.688 340.208 173.368 339.248 173.048L339.344 172.536L341.968 172.76C342.672 172.824 343.035 172.493 343.056 171.768C343.184 169.699 343.248 166.957 343.248 163.544L339.024 164.76V177.016C339.024 177.485 338.811 177.784 338.384 177.912C337.723 178.083 336.965 178.189 336.112 178.232C336.219 173.923 336.272 170.712 336.272 168.6V165.528L332.272 166.68V179.672C332.272 180.163 332.379 180.515 332.592 180.728C332.805 180.941 333.168 181.048 333.68 181.048H343.44C343.995 181.048 344.421 180.952 344.72 180.76C345.019 180.568 345.243 180.237 345.392 179.768L346.928 174.648L347.376 174.744L347.344 179.384C347.323 179.96 347.525 180.419 347.952 180.76C348.272 181.059 348.432 181.421 348.432 181.848C348.432 182.403 348.08 182.851 347.376 183.192C346.587 183.576 345.467 183.768 344.016 183.768H333.104ZM322.128 184.92C322.256 179.715 322.32 175.917 322.32 173.528V167.48C321.232 168.931 319.963 170.392 318.512 171.864L318.064 171.512C320.731 167.267 322.619 163.171 323.728 159.224C324.112 157.901 324.389 156.611 324.56 155.352L328.592 156.312C328.912 156.376 329.072 156.515 329.072 156.728C329.072 157.197 328.507 157.507 327.376 157.656C326.587 159.917 325.701 161.955 324.72 163.768L326.032 163.928C326.416 163.992 326.608 164.141 326.608 164.376C326.608 164.739 326.117 165.08 325.136 165.4V183.736C325.136 184.035 325.093 184.248 325.008 184.376C324.923 184.504 324.752 184.6 324.496 184.664C323.557 184.877 322.768 184.963 322.128 184.92ZM375.92 184.792C375.408 184.792 375.024 184.451 374.768 183.768C374.384 182.808 374.021 182.008 373.68 181.368C368.176 182.307 362.864 183.085 357.744 183.704C357.637 184.6 357.371 185.048 356.944 185.048C356.731 185.048 356.581 184.888 356.496 184.568L355.344 180.76C356.475 180.803 357.435 180.387 358.224 179.512C359.525 178.019 360.848 176.013 362.192 173.496H352.624V172.632H375.056L376.944 170.008L380.304 172.6C380.496 172.771 380.592 172.909 380.592 173.016C380.549 173.315 380.208 173.475 379.568 173.496H366.416C363.643 176.717 361.211 179.128 359.12 180.728C363.109 180.557 367.749 180.365 373.04 180.152C372.293 178.851 371.163 177.325 369.648 175.576L369.936 175.224C375.163 177.955 377.776 180.387 377.776 182.52C377.776 183.16 377.584 183.704 377.2 184.152C376.837 184.579 376.411 184.792 375.92 184.792ZM351.824 169.304L351.504 168.76C356.603 165.389 360.389 161.955 362.864 158.456C363.611 157.347 364.176 156.312 364.56 155.352L368.816 156.344C369.115 156.429 369.264 156.579 369.264 156.792C369.264 157.261 368.677 157.517 367.504 157.56C369.573 159.48 371.707 161.016 373.904 162.168C376.187 163.363 378.843 164.291 381.872 164.952L381.744 165.592C381.061 165.699 380.496 165.965 380.048 166.392C379.621 166.797 379.216 167.427 378.832 168.28C376.016 166.893 373.733 165.453 371.984 163.96C370.277 162.488 368.603 160.557 366.96 158.168C364.763 160.899 362.459 163.139 360.048 164.888C357.744 166.552 355.003 168.024 351.824 169.304ZM358.704 167.704V166.84H369.04L370.704 164.568L373.776 166.84C373.925 166.968 374 167.085 374 167.192C373.979 167.491 373.648 167.661 373.008 167.704H358.704ZM398.736 183.992C398.821 182.307 398.885 178.829 398.928 173.56H391.44C391.12 176.013 390.48 178.104 389.52 179.832C388.603 181.496 387.163 183.213 385.2 184.984L384.816 184.664C386.309 182.104 387.355 179.597 387.952 177.144C388.571 174.648 388.88 171.64 388.88 168.12V161.944C388.88 159.683 388.848 158.019 388.784 156.952L392.848 158.2H408.464L409.616 156.376L412.976 157.88C413.253 158.029 413.392 158.189 413.392 158.36C413.392 158.808 412.923 159.245 411.984 159.672V168.984C411.984 173.72 412.037 177.923 412.144 181.592C412.187 182.68 411.877 183.448 411.216 183.896C410.555 184.344 409.285 184.685 407.408 184.92C407.323 183.96 407.024 183.299 406.512 182.936C406.064 182.595 405.061 182.253 403.504 181.912L403.6 181.368L408.016 181.656C408.4 181.677 408.677 181.603 408.848 181.432C408.997 181.283 409.072 181.016 409.072 180.632V173.56H401.808V182.872C401.808 183.405 401.552 183.715 401.04 183.8C400.464 183.928 399.696 183.992 398.736 183.992ZM401.808 166.296V172.696H409.072V166.296H401.808ZM409.072 159.064H401.808V165.432H409.072V159.064ZM391.76 167.864C391.76 169.741 391.685 171.352 391.536 172.696H398.928V166.296H391.76V167.864ZM391.76 159.064V165.432H398.928V159.064H391.76ZM442.544 184.856C442.459 183.917 442.171 183.267 441.68 182.904C441.232 182.563 440.272 182.221 438.8 181.88L438.896 181.368L442.96 181.56C443.771 181.624 444.176 181.251 444.176 180.44V158.872H433.232V183.704C433.232 184.195 433.029 184.493 432.624 184.6C431.856 184.792 431.109 184.888 430.384 184.888C430.469 181.645 430.512 177.784 430.512 173.304V163.256C430.512 162.552 430.48 160.376 430.416 156.728L434 158.008H443.568L444.688 156.184L447.76 157.688C448.059 157.837 448.208 157.997 448.208 158.168C448.208 158.339 448.123 158.509 447.952 158.68C447.76 158.893 447.419 159.139 446.928 159.416V168.408C446.928 173.677 446.96 177.976 447.024 181.304C447.067 182.456 446.789 183.277 446.192 183.768C445.595 184.259 444.379 184.621 442.544 184.856ZM418.352 169.848L417.904 169.624C419.269 166.296 420.283 162.861 420.944 159.32C421.179 157.848 421.317 156.568 421.36 155.48L425.232 156.152C425.509 156.216 425.648 156.355 425.648 156.568C425.669 156.973 425.147 157.304 424.08 157.56C423.675 158.968 423.333 160.088 423.056 160.92H426L427.408 158.968L429.872 160.92C430.043 161.027 430.128 161.165 430.128 161.336C430.128 161.571 429.797 161.709 429.136 161.752H422.768C422.277 163.096 421.659 164.451 420.912 165.816H425.616L426.928 163.96L429.328 165.848C429.499 165.997 429.584 166.125 429.584 166.232C429.584 166.509 429.253 166.648 428.592 166.648H425.2V171.576H426.032L427.408 169.688L429.776 171.608C429.925 171.715 430 171.832 430 171.96C430 172.259 429.68 172.408 429.04 172.408H425.2V179.32L429.456 177.656L429.712 178.104C428.091 179.64 426.235 181.133 424.144 182.584C424.165 183.565 423.973 184.056 423.568 184.056C423.376 184.056 423.205 183.907 423.056 183.608L421.584 180.664C422.011 180.408 422.299 180.152 422.448 179.896C422.576 179.661 422.64 179.309 422.64 178.84V172.408H418.16V171.576H422.64V166.648H420.432C419.856 167.629 419.163 168.696 418.352 169.848ZM441.648 177.784C441.179 177.784 440.859 177.453 440.688 176.792C440.133 174.957 439.525 173.293 438.864 171.8C437.605 174.317 435.92 176.664 433.808 178.84L433.392 178.488C435.205 175.437 436.624 172.365 437.648 169.272C436.667 167.395 435.344 165.293 433.68 162.968L434 162.648C435.621 164.141 437.061 165.635 438.32 167.128C438.597 166.083 438.779 165.389 438.864 165.048C439.141 163.747 439.333 162.413 439.44 161.048L443.024 161.752C443.216 161.773 443.333 161.891 443.376 162.104C443.376 162.509 442.885 162.819 441.904 163.032C441.307 165.443 440.677 167.523 440.016 169.272C440.464 169.912 440.88 170.52 441.264 171.096C442.501 173.08 443.12 174.669 443.12 175.864C443.077 177.123 442.587 177.763 441.648 177.784ZM87.088 231.88L86.992 230.984L97.872 229.832V226.664C94.3733 227.091 90.9173 227.389 87.504 227.56L87.408 227.016C93.872 225.843 99.0453 224.68 102.928 223.528C104.677 222.995 105.872 222.493 106.512 222.024L109.072 224.36C109.328 224.595 109.456 224.787 109.456 224.936C109.435 225.192 109.221 225.341 108.816 225.384C108.496 225.384 108.059 225.256 107.504 225C104.965 225.512 102.736 225.928 100.816 226.248V229.512L107.536 228.776L108.848 226.728L111.824 228.392C111.995 228.52 112.091 228.637 112.112 228.744C112.112 229.021 111.792 229.213 111.152 229.32L100.816 230.408V234.024L110 233.032L111.344 230.824L114.48 232.584C114.672 232.712 114.779 232.829 114.8 232.936C114.8 233.213 114.469 233.416 113.808 233.544L100.816 234.92V238.184C100.816 238.696 100.901 239.037 101.072 239.208C101.221 239.357 101.541 239.432 102.032 239.432H110.544C111.056 239.432 111.408 239.368 111.6 239.24C111.792 239.112 111.973 238.824 112.144 238.376L113.328 234.824L113.84 234.92L114.064 237.832C114.085 238.387 114.277 238.792 114.64 239.048C115.024 239.325 115.216 239.667 115.216 240.072C115.216 240.605 114.928 241.064 114.352 241.448C113.755 241.811 112.805 242.003 111.504 242.024H101.296C100.037 242.024 99.152 241.789 98.64 241.32C98.128 240.851 97.872 239.997 97.872 238.76V235.24L85.552 236.52L85.488 235.656L97.872 234.344V230.728L87.088 231.88ZM85.712 225L85.328 224.648C87.3333 221.747 88.752 219.005 89.584 216.424C89.904 215.421 90.128 214.419 90.256 213.416L94.224 214.216C94.5226 214.259 94.672 214.387 94.672 214.6C94.672 215.069 94.1173 215.368 93.008 215.496C92.624 216.371 92.24 217.171 91.856 217.896H96.432L97.968 215.688L100.848 217.832C101.061 218.003 101.168 218.152 101.168 218.28C101.147 218.536 100.805 218.685 100.144 218.728H93.328C95.6746 219.773 96.848 220.883 96.848 222.056C96.848 222.568 96.6773 223.005 96.336 223.368C95.9946 223.731 95.6 223.912 95.152 223.912C94.64 223.912 94.32 223.603 94.192 222.984C93.8293 221.384 93.2746 219.965 92.528 218.728H91.376C90.0106 220.989 88.1226 223.08 85.712 225ZM99.12 223.944L98.736 223.624C100.464 221.043 101.744 218.557 102.576 216.168C102.875 215.208 103.109 214.28 103.28 213.384L107.184 214.312C107.461 214.376 107.6 214.515 107.6 214.728C107.621 215.155 107.035 215.443 105.84 215.592C105.499 216.339 105.093 217.107 104.624 217.896H110.384L112.048 215.624L115.12 217.864C115.269 217.992 115.344 218.12 115.344 218.248C115.323 218.547 114.981 218.707 114.32 218.728H107.536C108.816 219.219 109.755 219.752 110.352 220.328C110.885 220.84 111.152 221.363 111.152 221.896C111.152 222.408 110.992 222.835 110.672 223.176C110.373 223.496 109.979 223.656 109.488 223.656C109.04 223.656 108.72 223.347 108.528 222.728C107.952 221.107 107.301 219.773 106.576 218.728H104.112C102.896 220.563 101.232 222.301 99.12 223.944ZM119.408 219.656V218.792H128.336C128.485 218.429 128.635 218.056 128.784 217.672C129.232 216.413 129.573 215.016 129.808 213.48L134.256 214.44C134.555 214.504 134.704 214.643 134.704 214.856C134.704 215.048 134.565 215.24 134.288 215.432C133.989 215.603 133.52 215.72 132.88 215.784C132.496 216.808 132.08 217.811 131.632 218.792H143.152L145.008 216.232L148.304 218.76C148.453 218.888 148.528 219.027 148.528 219.176C148.507 219.475 148.165 219.635 147.504 219.656H131.248C129.925 222.6 128.443 225.107 126.8 227.176V241.736C126.8 242.291 126.565 242.611 126.096 242.696C125.307 242.867 124.507 242.952 123.696 242.952C123.845 238.131 123.92 234.621 123.92 232.424V230.248C122.469 231.571 120.709 232.925 118.64 234.312L118.32 233.896C120.517 231.571 122.384 229.299 123.92 227.08V224.872L125.2 225.096C126.288 223.325 127.216 221.512 127.984 219.656H119.408ZM128.912 229.8V228.936H135.664V227.144C135.664 224.989 135.632 223.123 135.568 221.544L139.664 221.832C139.984 221.875 140.144 222.003 140.144 222.216C140.144 222.707 139.632 223.091 138.608 223.368V228.936H142.448L144.112 226.632L147.152 228.904C147.323 229.011 147.408 229.128 147.408 229.256C147.387 229.576 147.045 229.757 146.384 229.8H138.608V239.784H143.12L145.104 237.128L148.56 239.752C148.709 239.88 148.784 240.019 148.784 240.168C148.784 240.445 148.443 240.605 147.76 240.648H127.664V239.784H135.664V229.8H128.912ZM162.8 242.888C162.928 238.664 162.992 235.059 162.992 232.072V230.088H152.624V229.224H162.992V221.128H154.672V220.264H162.992V220.136C162.992 218.664 162.949 216.435 162.864 213.448L166.928 213.768C167.291 213.811 167.472 213.949 167.472 214.184C167.472 214.653 166.96 215.037 165.936 215.336V220.264H172.528L173.616 218.44L176.752 219.976C177.029 220.104 177.168 220.253 177.168 220.424C177.168 220.787 176.72 221.181 175.824 221.608L175.312 229.224H176.528L177.648 227.304L181.104 228.84C181.36 228.947 181.488 229.096 181.488 229.288C181.488 229.672 180.987 230.12 179.984 230.632C179.984 232.595 179.888 234.451 179.696 236.2C179.504 237.672 179.013 238.728 178.224 239.368C177.413 240.029 176.037 240.435 174.096 240.584C173.989 239.624 173.648 238.952 173.072 238.568C172.475 238.163 171.408 237.811 169.872 237.512L169.968 237L174.8 237.224C175.461 237.267 175.931 237.149 176.208 236.872C176.507 236.595 176.699 236.061 176.784 235.272C176.976 234.035 177.072 232.307 177.072 230.088H165.936V231.496C165.936 234.781 165.989 238.205 166.096 241.768C166.117 242.259 165.936 242.547 165.552 242.632C164.485 242.803 163.568 242.888 162.8 242.888ZM173.072 221.128H165.936V229.224H172.592L173.072 221.128ZM179.856 221.384C179.643 221.384 179.44 221.32 179.248 221.192C179.056 221.064 178.832 220.829 178.576 220.488C177.104 218.461 174.981 216.605 172.208 214.92L172.4 214.568C178.373 215.699 181.36 217.309 181.36 219.4C181.36 219.955 181.189 220.435 180.848 220.84C180.549 221.203 180.219 221.384 179.856 221.384ZM192.848 230.376V230.12C190.885 231.251 188.432 232.328 185.488 233.352L185.2 232.84C190.192 230.067 194.021 227.037 196.688 223.752C197.584 222.664 198.267 221.608 198.736 220.584L199.696 220.904C200.528 219.667 201.317 218.205 202.064 216.52C202.512 215.517 202.821 214.493 202.992 213.448L206.736 214.408C206.992 214.472 207.12 214.589 207.12 214.76C207.12 215.165 206.587 215.453 205.52 215.624C204.944 216.563 204.485 217.256 204.144 217.704H210.32L211.888 215.624L214.768 217.704C214.939 217.853 215.024 217.981 215.024 218.088C215.003 218.344 214.683 218.493 214.064 218.536H206.608C207.611 219.069 208.389 219.656 208.944 220.296C209.413 220.851 209.648 221.363 209.648 221.832C209.648 222.344 209.488 222.771 209.168 223.112C208.869 223.432 208.485 223.592 208.016 223.592C207.717 223.592 207.493 223.517 207.344 223.368C207.195 223.219 207.077 222.941 206.992 222.536C206.736 221.277 206.256 219.944 205.552 218.536H203.504C202.693 219.517 201.765 220.413 200.72 221.224L202.352 221.736C202.672 221.843 202.811 221.992 202.768 222.184C202.768 222.675 202.224 222.931 201.136 222.952C204.848 226.045 209.573 227.891 215.312 228.488L215.216 229.096C214.619 229.267 214.139 229.555 213.776 229.96C213.413 230.365 213.051 231.005 212.688 231.88C209.787 230.899 207.397 229.725 205.52 228.36C203.621 227.016 201.989 225.363 200.624 223.4C198.597 225.939 196.293 227.997 193.712 229.576H201.84L203.216 227.688L205.936 229.576C206.107 229.725 206.192 229.853 206.192 229.96C206.171 230.216 205.851 230.355 205.232 230.376H192.848ZM186.128 241.64V240.808H202.544C203.845 237.864 204.731 234.813 205.2 231.656L208.88 232.616C209.157 232.68 209.296 232.819 209.296 233.032C209.296 233.416 208.763 233.715 207.696 233.928C206.693 236.339 205.339 238.632 203.632 240.808H209.392L211.312 238.312L214.512 240.776C214.683 240.925 214.768 241.053 214.768 241.16C214.768 241.48 214.427 241.64 213.744 241.64H186.128ZM194.576 223.656C194.299 223.656 194.085 223.581 193.936 223.432C193.787 223.283 193.68 223.016 193.616 222.632C193.317 221.288 192.805 219.923 192.08 218.536H191.248C189.797 220.477 187.952 222.291 185.712 223.976L185.36 223.624C187.152 221.384 188.571 219.027 189.616 216.552C190.064 215.507 190.384 214.472 190.576 213.448L194.352 214.376C194.629 214.44 194.768 214.568 194.768 214.76C194.768 215.208 194.224 215.485 193.136 215.592C192.752 216.296 192.315 217 191.824 217.704H196.336L197.808 215.688L200.528 217.704C200.699 217.853 200.784 217.981 200.784 218.088C200.763 218.344 200.432 218.493 199.792 218.536H192.848C194 219.069 194.864 219.656 195.44 220.296C195.952 220.851 196.208 221.395 196.208 221.928C196.208 222.397 196.037 222.803 195.696 223.144C195.355 223.485 194.981 223.656 194.576 223.656ZM199.856 238.408C199.259 238.408 198.907 238.013 198.8 237.224C198.501 235.368 197.861 233.491 196.88 231.592L197.264 231.336C200.059 233.107 201.456 234.813 201.456 236.456C201.349 237.715 200.816 238.365 199.856 238.408ZM193.968 239.752C193.371 239.752 193.019 239.368 192.912 238.6C192.613 236.915 191.952 235.133 190.928 233.256L191.28 232.968C194.117 234.717 195.536 236.339 195.536 237.832C195.536 238.408 195.376 238.877 195.056 239.24C194.757 239.581 194.395 239.752 193.968 239.752ZM218.64 241.256V240.36H230.768V220.488C230.768 217.885 230.725 215.549 230.64 213.48L235.024 213.8C235.365 213.821 235.536 213.949 235.536 214.184C235.536 214.675 235.003 215.069 233.936 215.368V225.064H240.688L242.544 222.536L245.776 225.032C245.925 225.181 246 225.32 246 225.448C245.957 225.725 245.616 225.885 244.976 225.928H233.936V240.36H242.896L244.848 237.704L248.24 240.328C248.411 240.435 248.496 240.573 248.496 240.744C248.453 241.043 248.112 241.213 247.472 241.256H218.64ZM269.84 242.888C269.755 241.907 269.381 241.203 268.72 240.776C268.101 240.392 266.821 239.997 264.88 239.592L264.976 239.016L270.608 239.304C271.525 239.347 272.165 239.208 272.528 238.888C272.869 238.589 273.115 237.949 273.264 236.968C273.648 234.067 273.904 231.453 274.032 229.128H260.912L259.888 230.504C258.779 229.992 257.819 229.384 257.008 228.68C256.795 228.424 256.816 228.211 257.072 228.04C257.584 227.741 257.915 227.304 258.064 226.728L259.28 221.736C259.557 220.456 259.739 219.325 259.824 218.344L263.6 218.984C263.877 219.005 264.016 219.133 264.016 219.368C264.016 219.773 263.547 220.093 262.608 220.328L262 222.792H273.648L275.344 220.552L278.512 222.76C278.661 222.888 278.736 223.016 278.736 223.144C278.715 223.443 278.373 223.613 277.712 223.656H261.776L260.656 228.264H273.424L274.544 226.408L277.84 227.912C278.181 228.083 278.352 228.253 278.352 228.424C278.352 228.808 277.883 229.245 276.944 229.736C276.709 232.723 276.453 235.357 276.176 237.64C275.92 239.539 275.397 240.829 274.608 241.512C273.776 242.237 272.187 242.696 269.84 242.888ZM253.872 221.928C253.424 221.928 253.061 221.779 252.784 221.48C252.507 221.181 252.368 220.808 252.368 220.36C252.368 219.72 252.656 219.144 253.232 218.632C254.384 217.544 255.205 216.093 255.696 214.28L256.08 214.312C256.208 215.101 256.283 215.645 256.304 215.944H276.592L278.032 214.248L281.296 216.648C281.552 216.819 281.68 216.989 281.68 217.16C281.68 217.373 281.563 217.533 281.328 217.64C281.072 217.768 280.635 217.843 280.016 217.864C278.992 218.568 277.637 219.379 275.952 220.296L275.536 219.976L277.008 216.808H256.368C256.389 217.533 256.357 218.248 256.272 218.952C256.187 219.827 255.899 220.552 255.408 221.128C254.96 221.661 254.448 221.928 253.872 221.928ZM251.792 234.728V233.864H266.224L268.016 231.464L271.28 233.832C271.429 233.981 271.504 234.109 271.504 234.216C271.461 234.515 271.12 234.685 270.48 234.728H251.792ZM285.552 228.392V227.464H308.432L310.704 224.424L314.64 227.464C314.832 227.592 314.928 227.72 314.928 227.848C314.928 228.168 314.565 228.349 313.84 228.392H285.552ZM319.44 227.88L319.056 227.464C321.616 223.837 323.504 220.264 324.72 216.744C325.211 215.293 325.52 214.131 325.648 213.256L329.968 214.312C330.288 214.419 330.448 214.568 330.448 214.76C330.448 215.229 329.851 215.528 328.656 215.656C328.144 216.851 327.6 217.971 327.024 219.016H342.352L343.536 216.936L347.088 218.632C347.408 218.803 347.568 218.973 347.568 219.144C347.568 219.549 347.077 220.008 346.096 220.52C346.053 228.541 345.968 233.928 345.84 236.68C345.733 238.771 345.211 240.275 344.272 241.192C343.312 242.109 341.584 242.707 339.088 242.984C338.939 241.981 338.459 241.245 337.648 240.776C336.859 240.328 335.269 239.859 332.88 239.368L332.976 238.792L339.728 239.112C340.795 239.155 341.552 238.941 342 238.472C342.469 237.96 342.736 237.032 342.8 235.688C343.035 230.739 343.099 225.469 342.992 219.88H326.512C324.763 222.76 322.405 225.427 319.44 227.88ZM334.224 236.072V234.216H327.088V236.008C327.088 236.413 326.864 236.68 326.416 236.808C325.648 237 324.859 237.096 324.048 237.096C324.133 235.027 324.176 232.979 324.176 230.952V227.368C324.176 225.704 324.155 224.531 324.112 223.848L327.664 225H333.68L334.768 223.176L337.968 224.648C338.288 224.797 338.448 224.968 338.448 225.16C338.448 225.523 338.032 225.939 337.2 226.408V228.648C337.2 229.949 337.243 232.051 337.328 234.952C337.328 235.229 337.296 235.421 337.232 235.528C337.168 235.635 337.029 235.72 336.816 235.784C335.963 235.976 335.099 236.072 334.224 236.072ZM334.224 225.832H327.088V233.32H334.224V225.832ZM360.72 230.632V229.768H373.136C373.115 228.829 373.083 227.56 373.04 225.96L377.008 226.28C377.328 226.323 377.488 226.451 377.488 226.664C377.488 227.048 377.008 227.389 376.048 227.688V229.768H377.424L378.832 227.816L381.424 229.768C381.595 229.917 381.68 230.056 381.68 230.184C381.659 230.44 381.339 230.589 380.72 230.632H376.048V233.512C376.091 235.581 376.133 237.651 376.176 239.72C376.197 240.723 375.888 241.459 375.248 241.928C374.565 242.419 373.307 242.771 371.472 242.984C371.365 242.088 371.045 241.459 370.512 241.096C369.979 240.733 368.912 240.381 367.312 240.04L367.376 239.56L371.824 239.688C372.315 239.709 372.656 239.624 372.848 239.432C373.04 239.261 373.136 238.952 373.136 238.504V230.728V230.632H360.72ZM361.904 219.4V218.536H368.688V218.312C368.688 216.883 368.645 215.293 368.56 213.544L372.56 213.864C372.88 213.885 373.04 214.013 373.04 214.248C373.04 214.675 372.539 215.037 371.536 215.336V218.536H375.376L376.944 216.52L379.76 218.568C379.931 218.717 380.016 218.845 380.016 218.952C380.016 219.208 379.685 219.357 379.024 219.4H371.536V224.328H376.72L378.384 222.088L381.456 224.328C381.627 224.456 381.712 224.584 381.712 224.712C381.712 225.032 381.371 225.192 380.688 225.192H360.624V224.328H368.688V219.4H361.904ZM356.656 241.608C356.485 241.608 356.315 241.469 356.144 241.192L354.224 238.216C355.099 237.597 355.515 236.861 355.472 236.008V225.448H351.632V224.584H354.864L355.984 222.76L359.216 224.232C359.515 224.403 359.664 224.573 359.664 224.744C359.664 225.107 359.184 225.523 358.224 225.992V235.944L362.096 233.48L362.448 233.896C360.784 236.136 359.024 238.152 357.168 239.944C357.253 241.053 357.083 241.608 356.656 241.608ZM357.936 220.04C357.317 220.04 356.912 219.667 356.72 218.92C356.208 217.171 355.365 215.549 354.192 214.056L354.448 213.768C356.283 214.451 357.616 215.144 358.448 215.848C359.259 216.531 359.664 217.277 359.664 218.088C359.664 218.664 359.493 219.133 359.152 219.496C358.811 219.859 358.405 220.04 357.936 220.04ZM366.704 237.256C366.107 237.256 365.733 236.925 365.584 236.264C365.157 234.493 364.411 232.915 363.344 231.528L363.632 231.24C365.211 231.773 366.437 232.435 367.312 233.224C368.08 233.928 368.464 234.643 368.464 235.368C368.464 235.88 368.283 236.328 367.92 236.712C367.579 237.075 367.173 237.256 366.704 237.256ZM391.92 241.864C390.619 241.864 389.563 241.448 388.752 240.616C387.941 239.784 387.536 238.728 387.536 237.448C387.536 236.232 387.952 235.208 388.784 234.376C389.637 233.523 390.683 233.096 391.92 233.096C393.136 233.096 394.171 233.523 395.024 234.376C395.877 235.229 396.304 236.264 396.304 237.48C396.304 238.76 395.867 239.816 394.992 240.648C394.139 241.459 393.115 241.864 391.92 241.864ZM391.92 240.2C392.688 240.2 393.328 239.955 393.84 239.464C394.373 238.952 394.64 238.301 394.64 237.512C394.64 236.701 394.384 236.04 393.872 235.528C393.339 234.995 392.688 234.728 391.92 234.728C391.109 234.728 390.448 234.995 389.936 235.528C389.424 236.061 389.168 236.723 389.168 237.512C389.168 238.28 389.424 238.92 389.936 239.432C390.448 239.944 391.109 240.2 391.92 240.2Z" fill="black"/>
</g>
<defs>
<filter id="filter0_d_400_17" x="0" y="-1.43051e-06" width="547.2" height="397.6" filterUnits="userSpaceOnUse" color-interpolation-filters="sRGB">
<feFlood flood-opacity="0" result="BackgroundImageFix"/>
<feColorMatrix in="SourceAlpha" type="matrix" values="0 0 0 0 0 0 0 0 0 0 0 0 0 0 0 0 0 0 127 0" result="hardAlpha"/>
<feOffset/>
<feGaussianBlur stdDeviation="17"/>
<feComposite in2="hardAlpha" operator="out"/>
<feColorMatrix type="matrix" values="0 0 0 0 0 0 0 0 0 0 0 0 0 0 0 0 0 0 0.03 0"/>
<feBlend mode="normal" in2="BackgroundImageFix" result="effect1_dropShadow_400_17"/>
<feBlend mode="normal" in="SourceGraphic" in2="effect1_dropShadow_400_17" result="shape"/>
</filter>
</defs>
</svg>
