<svg width="692" height="476" viewBox="0 0 692 476" fill="none" xmlns="http://www.w3.org/2000/svg">
<rect width="692" height="476" rx="4" fill="white"/>
<path d="M310.072 397.84C310.864 399.064 311.608 400.408 312.328 401.896L310.84 402.64C310.144 401.104 309.376 399.76 308.56 398.56L310.072 397.84ZM313.552 404.584H305.536V402.928H315.112V396.904H306.472V395.248H315.112V392.488H316.888V395.248H325.72V396.904H316.888V402.928H319.288C320.224 401.296 321.016 399.52 321.688 397.624L323.368 398.224C322.672 399.976 321.88 401.536 320.992 402.928H326.416V404.584H318.4C320.104 407.32 323.008 409.744 327.088 411.88L325.912 413.368C321.664 410.752 318.688 407.824 316.984 404.584H316.888V414.352H315.112V404.584H314.968C313.432 407.992 310.384 410.92 305.824 413.392L304.864 411.856C309.184 409.72 312.088 407.296 313.552 404.584ZM348.064 395.248V414.376H346.312V412.888H333.688V414.376H331.936V395.248H337.072C337.6 394.288 338.008 393.328 338.248 392.32L340 392.56C339.736 393.52 339.352 394.432 338.872 395.248H348.064ZM333.688 411.232H346.312V407.32H333.688V411.232ZM333.688 405.736H346.312V402.064H333.688V405.736ZM333.688 400.48H346.312V396.904H333.688V400.48ZM353.464 398.704H362.8C362.992 397.312 363.088 395.872 363.112 394.36V392.416H364.888V393.976C364.888 395.656 364.768 397.216 364.576 398.704H374.536V400.384H365.08C366.76 405.808 370.072 409.984 374.992 412.912L373.912 414.304C369.088 411.328 365.776 407.152 363.976 401.728C362.488 407.56 359.176 411.808 354.064 414.472L352.984 413.032C358.096 410.512 361.264 406.288 362.512 400.384H353.464V398.704ZM387.352 392.464H388.648C391.576 396.16 394.936 399.064 398.752 401.176L397.84 402.784C394 400.552 390.712 397.624 388 394.024C385.456 397.432 382.12 400.36 377.992 402.832L377.104 401.224C381.208 398.872 384.616 395.968 387.352 392.464ZM382.768 400.888H384.424C384.424 402.568 384.304 404.08 384.088 405.424C385.576 406.816 386.848 408.208 387.904 409.6L386.68 410.824C385.912 409.624 384.928 408.4 383.752 407.104L383.536 407.848C382.768 410.32 381.04 412.36 378.304 413.944L377.224 412.624C379.576 411.256 381.112 409.552 381.88 407.488C382.456 405.76 382.768 403.576 382.768 400.888ZM391.192 400.672H392.848C392.848 402.112 392.776 403.456 392.632 404.68C393.832 408.04 395.92 410.704 398.92 412.672L397.792 413.992C395.296 412.216 393.424 410.032 392.152 407.44L392.056 407.824C391.384 410.368 389.8 412.456 387.328 414.088L386.272 412.792C388.336 411.376 389.728 409.6 390.4 407.488C390.904 405.712 391.168 403.432 391.192 400.672ZM410.752 392.44H412.456V394.768H421.768V396.4H412.456V399.448H420.112V407.152H404.224V399.448H410.752V392.44ZM418.384 405.544V401.08H405.952V405.544H418.384ZM404.176 408.208L405.64 408.904C404.728 410.992 403.696 412.792 402.496 414.328L401.08 413.296C402.28 411.88 403.312 410.176 404.176 408.208ZM409.408 408.904C409.888 410.488 410.32 412.216 410.704 414.064L408.976 414.448C408.64 412.48 408.256 410.752 407.8 409.24L409.408 408.904ZM414.424 408.664C415.144 410.296 415.768 412.096 416.296 414.016L414.592 414.4C414.112 412.36 413.512 410.56 412.792 409L414.424 408.664ZM419.344 408.184C420.88 410.2 422.032 411.952 422.848 413.44L421.408 414.448C420.568 412.816 419.416 411.04 417.952 409.072L419.344 408.184ZM433.336 393.496H446.344V395.128H440.656V404.176H447.064V405.832H440.656V414.4H438.976V405.832H432.664V404.176H438.976V395.128H433.336V393.496ZM444.16 396.328L445.672 396.736C445.168 399.064 444.52 401.104 443.752 402.856L442.288 402.352C443.008 400.768 443.632 398.752 444.16 396.328ZM435.184 396.472C435.904 398.224 436.528 400.24 437.104 402.52L435.616 402.904C435.136 400.84 434.488 398.848 433.696 396.952L435.184 396.472ZM427.888 392.632C429.52 393.856 430.888 395.08 431.992 396.328L430.816 397.528C429.808 396.352 428.416 395.104 426.688 393.808L427.888 392.632ZM425.008 399.736H430.192V410.368C430.96 409.696 431.776 408.928 432.664 408.04L433.144 409.864C431.728 411.256 430.24 412.48 428.656 413.56L427.984 412.024C428.344 411.688 428.536 411.352 428.536 410.968V401.392H425.008V399.736ZM449.728 394.864H451.672V410.296H461.584V412H449.728V394.864ZM462.229 399.592H464.341L467.893 409.6L471.445 399.592H473.557L468.853 412H466.909L462.229 399.592ZM476.208 394.864H486.168V396.616H477.816L477.24 402.352H477.336C477.816 401.776 478.44 401.344 479.184 401.056C479.855 400.768 480.576 400.648 481.368 400.648C483 400.648 484.32 401.152 485.328 402.184C486.336 403.24 486.864 404.68 486.864 406.528C486.864 408.256 486.24 409.672 485.016 410.776C483.864 411.808 482.424 412.336 480.743 412.336C479.232 412.336 477.936 411.928 476.88 411.112C475.68 410.2 475.032 408.952 474.912 407.392H476.855C476.952 408.472 477.384 409.312 478.152 409.888C478.824 410.392 479.712 410.656 480.768 410.656C481.968 410.656 482.952 410.272 483.744 409.504C484.512 408.736 484.92 407.752 484.92 406.552C484.92 405.184 484.536 404.128 483.816 403.384C483.12 402.616 482.136 402.256 480.888 402.256C480.072 402.256 479.352 402.424 478.704 402.784C478.032 403.12 477.504 403.648 477.168 404.32H475.296L476.208 394.864ZM497.414 393.496H510.422V395.128H504.734V404.176H511.142V405.832H504.734V414.4H503.054V405.832H496.742V404.176H503.054V395.128H497.414V393.496ZM508.238 396.328L509.75 396.736C509.246 399.064 508.598 401.104 507.83 402.856L506.366 402.352C507.086 400.768 507.71 398.752 508.238 396.328ZM499.262 396.472C499.982 398.224 500.606 400.24 501.182 402.52L499.694 402.904C499.214 400.84 498.566 398.848 497.774 396.952L499.262 396.472ZM491.966 392.632C493.598 393.856 494.966 395.08 496.07 396.328L494.894 397.528C493.886 396.352 492.494 395.104 490.766 393.808L491.966 392.632ZM489.086 399.736H494.27V410.368C495.038 409.696 495.854 408.928 496.742 408.04L497.222 409.864C495.806 411.256 494.318 412.48 492.734 413.56L492.062 412.024C492.422 411.688 492.614 411.352 492.614 410.968V401.392H489.086V399.736ZM513.854 395.704H520.454C520.598 394.648 520.718 393.544 520.838 392.416H522.566C522.446 393.568 522.326 394.672 522.182 395.704H534.638V397.384H521.942C521.726 398.68 521.51 399.88 521.27 400.984H532.262V402.496C531.302 405.136 529.766 407.416 527.678 409.336C529.67 410.848 532.118 411.976 534.998 412.744L534.134 414.328C530.99 413.416 528.398 412.12 526.358 410.464C524.246 412.048 521.678 413.368 518.702 414.4L517.79 412.768C520.694 411.88 523.118 410.728 525.086 409.336C523.19 407.464 521.846 405.208 521.054 402.592H520.886C520.598 403.744 520.262 404.776 519.926 405.688C518.678 408.856 516.806 411.664 514.31 414.16L513.23 412.768C515.486 410.44 517.19 407.848 518.342 405.016C519.11 402.952 519.734 400.408 520.214 397.384H513.854V395.704ZM522.662 402.592C523.478 404.824 524.726 406.72 526.406 408.28C528.254 406.648 529.598 404.752 530.438 402.592H522.662ZM554.894 392.176L556.79 392.44C556.598 393.04 556.334 393.592 555.998 394.12H564.11V405.928H562.454V395.632H549.71V405.928H548.054V394.12H554.102C554.438 393.496 554.702 392.848 554.894 392.176ZM555.23 405.592L557.006 405.76C556.91 406.288 556.814 406.792 556.67 407.272H566.318V408.904H557.966C559.934 410.8 562.982 412.096 567.11 412.816L566.102 414.424C561.542 413.464 558.182 411.616 556.022 408.904H555.974C555.446 409.888 554.726 410.752 553.862 411.472C552.326 412.72 549.614 413.728 545.726 414.472L545.03 412.84C548.462 412.264 550.934 411.4 552.446 410.296C553.022 409.864 553.502 409.408 553.886 408.904H545.846V407.272H554.774C554.966 406.744 555.134 406.168 555.23 405.592ZM551.03 399.712H552.758C552.422 398.872 552.038 398.104 551.606 397.408L552.878 396.928C553.31 397.696 553.694 398.608 554.078 399.712H555.326V396.472H556.814V399.712H558.062C558.542 398.8 558.95 397.816 559.286 396.76L560.606 397.216C560.246 398.128 559.838 398.968 559.406 399.712H561.182V401.104H556.814V401.488C558.302 402.208 559.79 403.048 561.326 404.008L560.462 405.304C559.022 404.128 557.798 403.216 556.814 402.592V405.016H555.326V402.352C554.174 403.504 552.878 404.512 551.414 405.352L550.598 403.984C552.422 403.24 553.982 402.28 555.326 401.104H551.03V399.712ZM569.462 398.872H574.238V395.608C572.87 395.848 571.478 396.04 570.062 396.136L569.534 394.528C573.446 394.216 576.71 393.544 579.326 392.488L580.166 393.952C578.822 394.48 577.43 394.912 575.99 395.248V398.872H580.43V400.528H575.99V401.632C577.478 402.928 579.014 404.392 580.598 406.048L579.566 407.584C578.174 405.808 576.974 404.416 575.99 403.408V414.4H574.238V403.624C573.086 405.952 571.574 408.064 569.702 409.96L568.934 407.968C571.406 405.808 573.182 403.336 574.238 400.576V400.528H569.462V398.872ZM582.422 394.648H584.15V409.48H582.422V394.648ZM587.582 414.184H584.054L583.694 412.504C584.846 412.552 585.95 412.6 587.006 412.6C587.702 412.6 588.062 412.192 588.062 411.424V392.464H589.814V411.856C589.814 413.392 589.07 414.184 587.582 414.184ZM599.51 394.504V409H595.574V410.752H593.966V394.504H599.51ZM595.574 407.464H597.926V396.04H595.574V407.464ZM600.47 393.328H614.51V394.864H607.886C607.694 395.392 607.478 395.92 607.238 396.4H612.782V404.776H610.886L611.774 406.48L614.678 406.168L614.918 407.56L606.734 408.424C607.07 409.12 607.406 409.696 607.742 410.128C607.838 410.224 607.91 410.344 607.982 410.44C609.662 409.744 611.126 409 612.35 408.184L613.166 409.264C611.99 410.08 610.622 410.824 609.062 411.496C609.494 411.832 609.902 412.072 610.334 412.264C611.15 412.576 611.894 412.744 612.542 412.744C613.118 412.696 613.526 411.856 613.718 410.2L615.038 410.872C614.75 413.128 614.006 414.28 612.758 414.28C611.822 414.28 610.838 414.064 609.83 413.68C609.014 413.344 608.246 412.84 607.526 412.12C605.342 412.936 602.846 413.68 600.062 414.304L599.294 412.96C602.03 412.384 604.43 411.712 606.518 410.992C606.038 410.32 605.606 409.528 605.174 408.592L600.398 409.072L600.182 407.68L604.622 407.224C604.334 406.48 604.07 405.688 603.806 404.824L604.19 404.776H601.766V396.4H605.486C605.75 395.896 605.966 395.392 606.11 394.864H600.47V393.328ZM609.278 404.776H605.414C605.654 405.64 605.894 406.384 606.158 407.056L610.286 406.624L609.278 404.776ZM611.198 403.528V402.376H603.326V403.528H611.198ZM603.326 401.152H611.198V400H603.326V401.152ZM603.326 398.8H611.198V397.624H603.326V398.8ZM623.51 394.504V409H619.574V410.752H617.966V394.504H623.51ZM619.574 407.464H621.926V396.04H619.574V407.464ZM624.47 393.328H638.51V394.864H631.886C631.694 395.392 631.478 395.92 631.238 396.4H636.782V404.776H634.886L635.774 406.48L638.678 406.168L638.918 407.56L630.734 408.424C631.07 409.12 631.406 409.696 631.742 410.128C631.838 410.224 631.91 410.344 631.982 410.44C633.662 409.744 635.126 409 636.35 408.184L637.166 409.264C635.99 410.08 634.622 410.824 633.062 411.496C633.494 411.832 633.902 412.072 634.334 412.264C635.15 412.576 635.894 412.744 636.542 412.744C637.118 412.696 637.526 411.856 637.718 410.2L639.038 410.872C638.75 413.128 638.006 414.28 636.758 414.28C635.822 414.28 634.838 414.064 633.83 413.68C633.014 413.344 632.246 412.84 631.526 412.12C629.342 412.936 626.846 413.68 624.062 414.304L623.294 412.96C626.03 412.384 628.43 411.712 630.518 410.992C630.038 410.32 629.606 409.528 629.174 408.592L624.398 409.072L624.182 407.68L628.622 407.224C628.334 406.48 628.07 405.688 627.806 404.824L628.19 404.776H625.766V396.4H629.486C629.75 395.896 629.966 395.392 630.11 394.864H624.47V393.328ZM633.278 404.776H629.414C629.654 405.64 629.894 406.384 630.158 407.056L634.286 406.624L633.278 404.776ZM635.198 403.528V402.376H627.326V403.528H635.198ZM627.326 401.152H635.198V400H627.326V401.152ZM627.326 398.8H635.198V397.624H627.326V398.8Z" fill="#111111" fill-opacity="0.5"/>
<path d="M70 117.16L69.6 116.52C73.7867 113.8 76.84 111.187 78.76 108.68C77.4267 107.853 75.6133 106.96 73.32 106C74.0933 103.973 74.7733 101.907 75.36 99.8H71.72C71.48 103.72 70.8133 107 69.72 109.64C68.5733 112.387 66.7733 114.987 64.32 117.44L63.76 117.08C65.5733 113.453 66.8 110.16 67.44 107.2C68.0533 104.32 68.36 100.52 68.36 95.8V91.96C68.36 90.4667 68.32 88.2933 68.24 85.44L73.12 86.88H88C87.9733 84.9067 87.8533 82.7067 87.64 80.28L92.6 80.68C92.9467 80.7067 93.12 80.8533 93.12 81.12C93.12 81.3867 93.0133 81.6133 92.8 81.8C92.56 82.0133 92.12 82.2267 91.48 82.44V86.64V86.88H96.76L98.68 84.44L101.8 86.88C102.013 87.0667 102.12 87.24 102.12 87.4C102.093 87.72 101.693 87.9067 100.92 87.96H91.48C91.5067 94.3333 92.0667 99.36 93.16 103.04C93.8 101.707 94.4267 100.067 95.04 98.12C95.52 96.4933 95.9333 94.56 96.28 92.32L101.16 93.64C101.48 93.72 101.64 93.88 101.64 94.12C101.64 94.7867 100.96 95.16 99.6 95.24C98.08 100.227 96.4267 104.093 94.64 106.84C95.4133 108.44 96.4533 109.973 97.76 111.44C98.0533 111.733 98.2933 111.867 98.48 111.84C98.6667 111.813 98.8267 111.627 98.96 111.28L101.08 105.32L101.64 105.44L101.36 111.2C101.28 112.213 101.427 112.973 101.8 113.48C102.307 114.067 102.56 114.707 102.56 115.4C102.56 115.96 102.387 116.4 102.04 116.72C101.693 117.04 101.2 117.2 100.56 117.2C99.6267 117.2 98.76 116.973 97.96 116.52C97.0533 116.013 96.1333 115.16 95.2 113.96C94.0267 112.867 93 111.56 92.12 110.04C89.7467 112.6 86.3067 114.973 81.8 117.16L81.36 116.64C85.5467 113.467 88.6933 110.32 90.8 107.2C89.12 102.933 88.1867 96.52 88 87.96H71.84V95.44C71.84 96.2667 71.8133 97.3733 71.76 98.76H75.64C75.6667 98.6533 75.7333 98.4 75.84 98C76.24 96.24 76.5067 94.76 76.64 93.56L80.92 94.28C81.24 94.36 81.4 94.5333 81.4 94.8C81.4 95.3067 80.8 95.6933 79.6 95.96C79.3333 96.8933 79.0667 97.8267 78.8 98.76H82.04L83.36 96.76L86.88 98.56C87.2267 98.7467 87.4 98.9467 87.4 99.16C87.4 99.6133 86.8267 100.08 85.68 100.56C85.0667 103.413 84.16 105.827 82.96 107.8C84.9867 108.707 86 109.76 86 110.96C85.8667 112.32 85.3333 113.027 84.4 113.08C83.9733 113.08 83.5333 112.84 83.08 112.36C82.4133 111.587 81.72 110.907 81 110.32C78.7067 112.853 75.04 115.133 70 117.16ZM82.56 99.8H78.48C77.76 102.147 77.08 104.133 76.44 105.76C77.2933 105.973 78.5067 106.307 80.08 106.76C81.2 104.813 82.0267 102.493 82.56 99.8ZM72.48 93V91.96H82.24L84.04 89.56L87.16 91.96C87.3733 92.0933 87.48 92.2533 87.48 92.44C87.48 92.8133 87.08 93 86.28 93H72.48ZM95.84 86.04C95.2533 86.04 94.88 85.76 94.72 85.2C94.4267 84.1067 93.9067 83.0933 93.16 82.16L93.44 81.8C96.08 82.2533 97.4 83.12 97.4 84.4C97.2667 85.44 96.7467 85.9867 95.84 86.04ZM114.88 101.24V100.2H119.28L119.96 94.16C119.96 94 120.027 93.1467 120.16 91.6C119.253 92.6933 118.16 93.88 116.88 95.16L116.28 94.76C119.4 89.4267 121.293 84.6667 121.96 80.48L126.72 81.52C127.12 81.6267 127.32 81.8 127.32 82.04C127.32 82.5733 126.68 82.9467 125.4 83.16C125.133 83.7467 124.6 84.7733 123.8 86.24H136.08L138.12 83.4L141.96 86.16C142.173 86.32 142.28 86.48 142.28 86.64C142.307 87.0133 141.893 87.2133 141.04 87.24H123.2C122.613 88.2533 121.96 89.24 121.24 90.2L124.6 91.28H134.72L136.08 89.08L139.96 90.88C140.333 91.04 140.52 91.2267 140.52 91.44C140.52 91.68 140.413 91.9067 140.2 92.12C139.907 92.4133 139.44 92.72 138.8 93.04C138.72 95.76 138.64 98.1467 138.56 100.2H139L140.6 97.92L143.44 100.2C143.653 100.387 143.76 100.56 143.76 100.72C143.76 101.067 143.347 101.24 142.52 101.24H138.52C138.467 103.427 138.36 106.173 138.2 109.48H138.24L139.96 107.16L142.84 109.48C143.08 109.64 143.2 109.813 143.2 110C143.2 110.347 142.773 110.52 141.92 110.52H138.12C138.12 110.813 138.107 111.093 138.08 111.36C137.947 113.467 137.453 114.933 136.6 115.76C135.72 116.613 134.08 117.173 131.68 117.44C131.573 116.427 131.227 115.707 130.64 115.28C130.107 114.88 128.907 114.453 127.04 114L127.2 113.36L131.88 113.64C132.867 113.693 133.56 113.533 133.96 113.16C134.36 112.813 134.587 112.147 134.64 111.16C134.64 110.893 134.653 110.68 134.68 110.52H122.16L120.72 112.24C119.413 111.44 118.293 110.653 117.36 109.88C117.093 109.587 117.12 109.307 117.44 109.04C118.08 108.667 118.427 108.16 118.48 107.52L119.16 101.24H114.88ZM121.68 109.48H134.72C134.827 107.267 134.947 104.52 135.08 101.24H122.56L121.68 109.48ZM135.36 92.32H123.52L122.68 100.2H135.12C135.147 99.3467 135.227 96.72 135.36 92.32ZM110.2 116.88C109.587 116.88 109.093 116.68 108.72 116.28C108.32 115.853 108.12 115.267 108.12 114.52C108.12 113.773 108.267 112.76 108.56 111.48C108.8 110.493 108.92 109.507 108.92 108.52C108.92 107.587 108.733 106.893 108.36 106.44C107.96 105.96 107.12 105.48 105.84 105L106 104.32C106.987 104.453 107.68 104.52 108.08 104.52C108.987 104.52 109.627 104.08 110 103.2L116.88 87L117.56 87.28L112.64 103.16C112.16 104.707 111.92 106.187 111.92 107.6C111.92 108.88 112.08 110.173 112.4 111.48C112.667 112.733 112.8 113.72 112.8 114.44C112.8 115.24 112.56 115.853 112.08 116.28C111.627 116.68 111 116.88 110.2 116.88ZM109.76 96.92C109.147 96.92 108.72 96.5333 108.48 95.76C107.813 93.7333 106.827 91.84 105.52 90.08L105.88 89.68C108.013 90.4533 109.56 91.24 110.52 92.04C111.373 92.76 111.8 93.56 111.8 94.44C111.64 96.04 110.96 96.8667 109.76 96.92ZM113.04 88.12C112.427 88.12 112 87.76 111.76 87.04C110.933 85.04 109.867 83.2533 108.56 81.68L108.88 81.24C111.04 81.88 112.64 82.6 113.68 83.4C114.613 84.12 115.08 84.92 115.08 85.8C115.08 86.44 114.88 86.9867 114.48 87.44C114.08 87.8933 113.6 88.12 113.04 88.12ZM129.28 108.64C128.667 108.64 128.28 108.267 128.12 107.52C127.72 105.813 127.053 104.24 126.12 102.8L126.48 102.4C129.68 103.6 131.28 104.947 131.28 106.44C131.28 107.107 131.093 107.64 130.72 108.04C130.347 108.44 129.867 108.64 129.28 108.64ZM129.48 99.44C128.867 99.44 128.48 99.0667 128.32 98.32C127.893 96.6933 127.213 95.16 126.28 93.72L126.64 93.36C129.867 94.4533 131.48 95.7467 131.48 97.24C131.48 97.9067 131.293 98.44 130.92 98.84C130.547 99.24 130.067 99.44 129.48 99.44ZM148.68 116.96C148.44 116.96 148.267 116.773 148.16 116.4L146.96 111.84C147.653 111.787 148.387 111.707 149.16 111.6V104.6C149.16 102.493 149.107 100.373 149 98.24L153 98.64C153.373 98.6933 153.56 98.84 153.56 99.08C153.56 99.56 153.08 99.9733 152.12 100.32V111.12C153.107 110.933 154.093 110.747 155.08 110.56V101.88C155.08 99.5067 155.04 97.2533 154.96 95.12L159.2 95.48C159.573 95.5333 159.76 95.6933 159.76 95.96C159.707 96.4933 159.187 96.92 158.2 97.24V101.16H159.44L161.08 99.04L163.88 101.16C164.04 101.32 164.12 101.453 164.12 101.56C167.107 99.6667 169.507 97.7867 171.32 95.92C169.987 94.4267 168.813 92.5733 167.8 90.36C166.52 92.2 164.973 93.9867 163.16 95.72L162.64 95.32C164.667 91.8 166.227 88.2133 167.32 84.56C167.72 83.3333 168 82.0267 168.16 80.64L173 81.76C173.32 81.84 173.48 82 173.48 82.24C173.48 82.8533 172.813 83.2267 171.48 83.36C171.107 84.32 170.773 85.0667 170.48 85.6H176.96L178.56 83.56L182.52 85.96C182.867 86.1733 183.04 86.3867 183.04 86.6C183.04 87.1333 182.32 87.5467 180.88 87.84C179.227 91.1467 177.493 93.76 175.68 95.68C178.16 96.9067 181.48 97.84 185.64 98.48L185.48 99.12C184.76 99.3067 184.2 99.6267 183.8 100.08C183.373 100.56 182.987 101.307 182.64 102.32C178.64 101.067 175.547 99.5733 173.36 97.84C171.28 99.5467 168.707 101.053 165.64 102.36L170.12 103.56H176.92L178.2 101.56L182.08 103.32C182.48 103.507 182.68 103.707 182.68 103.92C182.68 104.16 182.587 104.373 182.4 104.56C182.187 104.773 181.773 105.013 181.16 105.28V108.84C181.16 110.04 181.2 112.44 181.28 116.04C181.28 116.36 181.24 116.587 181.16 116.72C181.053 116.88 180.867 116.987 180.6 117.04C179.533 117.28 178.56 117.4 177.68 117.4V114.84H169.16V116.12C169.16 116.707 168.893 117.04 168.36 117.12C167.587 117.28 166.64 117.387 165.52 117.44C165.627 114.8 165.68 112.307 165.68 109.96V106.84C165.68 105.053 165.653 103.56 165.6 102.36C164.693 102.76 163.4 103.253 161.72 103.84L161.4 103.24C162.093 102.867 162.707 102.493 163.24 102.12H162.96H158.2V109.96C161.08 109.293 162.827 108.88 163.44 108.72L163.68 109.36C159.413 111.52 154.72 113.467 149.6 115.2C149.44 116.373 149.133 116.96 148.68 116.96ZM149.36 96.12C149.467 93.6667 149.52 91.64 149.52 90.04V87.12C149.52 85.92 149.493 84.3333 149.44 82.36L153.72 83.6H158L159.12 81.64L162.72 83.32C163.04 83.4533 163.2 83.64 163.2 83.88C163.2 84.3067 162.72 84.7733 161.76 85.28V87.6C161.76 89.3333 161.8 91.36 161.88 93.68C161.88 94.1867 161.68 94.48 161.28 94.56C160.373 94.8 159.48 94.92 158.6 94.92V93.68H152.72V94.88C152.72 95.36 152.467 95.6667 151.96 95.8C151 95.9867 150.133 96.0933 149.36 96.12ZM177.68 104.64H169.16V113.76H177.68V104.64ZM158.6 84.6H152.72V92.72H158.6V84.6ZM169.96 86.64C169.507 87.5733 168.987 88.5067 168.4 89.44C169.973 91.3867 171.507 92.9067 173 94C174.68 91.92 176.093 89.4667 177.24 86.64H169.96ZM189.2 115.32V114.2H204.36V89.36C204.36 86.1067 204.307 83.1867 204.2 80.6L209.68 81C210.107 81.0267 210.32 81.1867 210.32 81.48C210.32 82.0933 209.653 82.5867 208.32 82.96V95.08H216.76L219.08 91.92L223.12 95.04C223.307 95.2267 223.4 95.4 223.4 95.56C223.347 95.9067 222.92 96.1067 222.12 96.16H208.32V114.2H219.52L221.96 110.88L226.2 114.16C226.413 114.293 226.52 114.467 226.52 114.68C226.467 115.053 226.04 115.267 225.24 115.32H189.2ZM261.68 96.68V94.96H249.24V95.6C249.24 96.08 249.027 96.36 248.6 96.44C247.693 96.6267 246.773 96.7467 245.84 96.8C245.92 92 245.96 89.44 245.96 89.12V86.68C245.96 85.2133 245.933 83.4933 245.88 81.52L250.04 82.92H261L262.32 80.76L266.12 82.52C266.44 82.7067 266.6 82.8933 266.6 83.08C266.6 83.3467 266.507 83.5733 266.32 83.76C266.08 84 265.627 84.3067 264.96 84.68V87.44C264.96 88.9067 265.013 91.5867 265.12 95.48C265.12 95.9867 264.92 96.28 264.52 96.36C263.533 96.5733 262.587 96.68 261.68 96.68ZM260 116.4C258.48 116.4 257.44 116.093 256.88 115.48C256.293 114.84 256 113.693 256 112.04V104.56C256 102.133 255.947 99.7067 255.84 97.28L260.48 97.68C260.907 97.7067 261.12 97.8667 261.12 98.16C261.12 98.6933 260.507 99.1467 259.28 99.52V105.52C260.613 104.213 261.707 102.987 262.56 101.84C263.333 100.747 263.92 99.7867 264.32 98.96L267.96 101.16C268.28 101.373 268.44 101.573 268.44 101.76C268.44 102.187 268.08 102.4 267.36 102.4C266.987 102.4 266.627 102.347 266.28 102.24C264.493 103.973 262.16 105.467 259.28 106.72V111.64C259.28 112.28 259.4 112.72 259.64 112.96C259.853 113.173 260.253 113.28 260.84 113.28H262.96C264 113.333 264.627 112.84 264.84 111.8L266.28 106.36L266.88 106.48L267 111.12C267.027 111.947 267.267 112.533 267.72 112.88C268.2 113.253 268.44 113.68 268.44 114.16C268.44 114.853 268.067 115.387 267.32 115.76C266.493 116.187 265.307 116.4 263.76 116.4H260ZM246.44 117.52C246.253 117.52 246.067 117.32 245.88 116.92L243.96 112.96C244.6 112.72 245.053 112.427 245.32 112.08C245.56 111.707 245.68 111.2 245.68 110.56V104.04C245.68 102.36 245.64 100.2 245.56 97.56L250.2 97.96C250.6 98.0133 250.8 98.1733 250.8 98.44C250.8 98.9467 250.2 99.4 249 99.8V103.96H250.52L252.2 101.64L255.2 104.04C255.413 104.227 255.52 104.373 255.52 104.48C255.52 104.773 255.107 104.933 254.28 104.96H249V111.68L255.32 110.12L255.56 110.76C252.707 112.6 249.96 114.2 247.32 115.56C247.293 116.867 247 117.52 246.44 117.52ZM237 116.24C236.787 116.24 236.56 116.027 236.32 115.6L234.08 111.88C235.147 111.293 235.68 110.493 235.68 109.48V100.12C235.68 97.96 235.64 96.16 235.56 94.72L240 95.08C240.347 95.1067 240.52 95.2667 240.52 95.56C240.52 96.0667 239.96 96.5067 238.84 96.88V109.6L243.96 106.64L244.36 107.2C242.547 109.333 240.307 111.653 237.64 114.16C237.827 115.547 237.613 116.24 237 116.24ZM239.6 94.32L239.04 94.08L240.44 89.24H236.24C235.04 92.7867 233.32 96.3067 231.08 99.8L230.48 99.44C232.053 94.96 233.173 90.4267 233.84 85.84C234.107 84 234.253 82.2933 234.28 80.72L239.32 81.6C239.72 81.6533 239.92 81.8133 239.92 82.08C239.92 82.6933 239.24 83.1067 237.88 83.32C237.48 84.9733 237.04 86.6 236.56 88.2H240L241.48 86.16L245.12 88.48C245.413 88.6667 245.56 88.8667 245.56 89.08C245.56 89.56 244.933 89.84 243.68 89.92C242.16 91.7067 240.8 93.1733 239.6 94.32ZM249.24 89.44V93.92H261.68V89.44H249.24ZM261.68 84H249.24V88.4H261.68V84ZM302.76 106.32V104.28H298.2V111.24C298.2 111.827 298.32 112.24 298.56 112.48C298.8 112.72 299.2 112.84 299.76 112.84H303.92C305.04 112.893 305.747 112.32 306.04 111.12L307.68 105.04L308.28 105.16L308.4 110.52C308.427 111.507 308.707 112.16 309.24 112.48C309.64 112.853 309.84 113.253 309.84 113.68C309.84 114.373 309.44 114.947 308.64 115.4C307.76 115.907 306.547 116.16 305 116.16H299.04C297.493 116.16 296.387 115.84 295.72 115.2C295.08 114.587 294.76 113.533 294.76 112.04V104.28H290.72L289.24 106C288.12 105.413 287.093 104.76 286.16 104.04C285.84 103.773 285.853 103.507 286.2 103.24C286.707 102.867 286.96 102.4 286.96 101.84V96.96C286.96 94.9067 286.933 93.3467 286.88 92.28L291.4 92.68C291.72 92.7333 291.88 92.8933 291.88 93.16C291.88 93.64 291.32 94.08 290.2 94.48V103.2H294.76V89.8V88.8H286.48C286.533 88.9067 286.56 89 286.56 89.08C286.56 89.3467 286.453 89.5467 286.24 89.68C285.973 89.84 285.467 89.96 284.72 90.04C283.413 91.5333 282.04 92.9467 280.6 94.28L280 93.96L281.56 89.36H277.68C276.427 92.8533 274.667 96.24 272.4 99.52L271.84 99.16C273.44 95.1067 274.667 90.5867 275.52 85.6C275.733 84.1067 275.907 82.4667 276.04 80.68L280.92 81.52C281.293 81.6 281.48 81.76 281.48 82C281.48 82.56 280.827 82.9867 279.52 83.28C279.093 84.9867 278.613 86.64 278.08 88.24H281.12L282.6 86.16L286.08 88.44C286.133 88.4933 286.173 88.52 286.2 88.52V87.72H294.76C294.733 85.2933 294.68 82.92 294.6 80.6L299.44 81C299.76 81.0267 299.92 81.1867 299.92 81.48C299.92 81.96 299.347 82.4133 298.2 82.84V87.72H303L305.12 84.88L308.84 87.68C309.027 87.8667 309.12 88.0267 309.12 88.16C309.093 88.5333 308.68 88.7467 307.88 88.8H298.2V103.2H302.76V97.24C302.733 95.6133 302.707 93.9733 302.68 92.32L307.12 92.72C307.467 92.7467 307.64 92.9067 307.64 93.2C307.64 93.68 307.08 94.1067 305.96 94.48V97.76C305.96 99.04 306 101.52 306.08 105.2C306.107 105.573 305.933 105.827 305.56 105.96C304.733 106.2 303.8 106.32 302.76 106.32ZM278.44 116C278.253 116 278.053 115.813 277.84 115.44L275.6 111.4C276.64 110.813 277.16 110.027 277.16 109.04V100.08C277.16 97.8133 277.12 95.96 277.04 94.52L281.6 94.92C281.973 94.9733 282.16 95.12 282.16 95.36C282.16 95.8933 281.587 96.3333 280.44 96.68V109.24L285.84 106.24L286.28 106.8C284.2 109.227 281.827 111.613 279.16 113.96C279.24 114.68 279.2 115.213 279.04 115.56C278.907 115.853 278.707 116 278.44 116ZM329.08 87.96V86.92H337.6C337.6 84.2 337.547 82.0933 337.44 80.6L342.16 81C342.507 81.0267 342.68 81.1867 342.68 81.48C342.68 82.0133 342.107 82.48 340.96 82.88V86.92H347.12L348.8 84.68L351.64 86.92C351.827 87.1067 351.92 87.2667 351.92 87.4C351.92 87.72 351.493 87.9067 350.64 87.96H340.96V92.44H345.28L346.6 90.24L350.24 92.04C350.587 92.2533 350.76 92.44 350.76 92.6C350.76 92.84 350.653 93.0667 350.44 93.28C350.173 93.5467 349.773 93.8133 349.24 94.08V101.4C349.24 105.933 349.28 109.853 349.36 113.16C349.387 114.493 349.08 115.453 348.44 116.04C347.8 116.653 346.56 117.093 344.72 117.36C344.613 116.373 344.293 115.64 343.76 115.16C343.253 114.733 342.32 114.333 340.96 113.96V114.96C340.96 115.52 340.747 115.853 340.32 115.96C339.627 116.093 338.72 116.187 337.6 116.24V106.72H332.84V115.96C332.84 116.28 332.8 116.533 332.72 116.72C332.613 116.88 332.413 117 332.12 117.08C331.587 117.267 330.68 117.387 329.4 117.44C329.507 113.493 329.56 109.787 329.56 106.32V97.88C329.56 95.9333 329.533 93.6533 329.48 91.04L333.92 92.44H337.6V87.96H329.08ZM314.32 98.64L313.8 98.36C315.427 93.7733 316.573 89.5333 317.24 85.64C317.587 83.7467 317.787 82.0533 317.84 80.56L322.68 81.4C323.027 81.48 323.2 81.6533 323.2 81.92C323.227 82.4267 322.573 82.84 321.24 83.16C320.92 84.36 320.56 85.5867 320.16 86.84H323.8L325.52 84.48L328.48 86.84C328.693 87.0267 328.8 87.2 328.8 87.36C328.773 87.6533 328.36 87.8267 327.56 87.88H319.8C319.133 89.88 318.427 91.6267 317.68 93.12H323.24L325.04 90.68L328 93.08C328.213 93.2667 328.32 93.44 328.32 93.6C328.32 93.92 327.907 94.1067 327.08 94.16H322.64V100.24H323.76L325.56 97.72L328.64 100.2C328.853 100.387 328.96 100.56 328.96 100.72C328.96 101.04 328.547 101.227 327.72 101.28H322.64V110.28L328.52 107.32L328.92 107.88C326.547 110.28 324.067 112.467 321.48 114.44C321.507 115.747 321.253 116.4 320.72 116.4C320.533 116.4 320.333 116.227 320.12 115.88L318.12 112.12C318.653 111.8 319.027 111.467 319.24 111.12C319.427 110.8 319.52 110.387 319.52 109.88V101.28H313.84V100.24H319.52V94.16H317.12C316.4 95.4933 315.467 96.9867 314.32 98.64ZM344.48 113.48C345.013 113.507 345.387 113.413 345.6 113.2C345.84 112.987 345.96 112.627 345.96 112.12V106.72H340.96V113.28L344.48 113.48ZM340.96 100.08V105.6H345.96V100.08H340.96ZM345.96 93.48H340.96V98.96H345.96V93.48ZM332.84 100.08V105.6H337.6V100.08H332.84ZM332.84 93.48V98.96H337.6V93.48H332.84ZM346.08 86.2C345.44 86.2 345.04 85.88 344.88 85.24C344.56 84.04 343.973 82.8533 343.12 81.68L343.44 81.28C345.04 81.7333 346.173 82.2133 346.84 82.72C347.453 83.2 347.76 83.7867 347.76 84.48C347.76 84.9867 347.6 85.4 347.28 85.72C346.96 86.04 346.56 86.2 346.08 86.2ZM361.68 117.6L360.92 116.64C362.973 115.467 364.053 114.413 364.16 113.48C364.267 112.787 363.947 112.4 363.2 112.32C362.48 112.24 361.907 111.96 361.48 111.48C361.053 111 360.84 110.4 360.84 109.68C360.84 108.88 361.133 108.2 361.72 107.64C362.333 107.053 363.08 106.76 363.96 106.76C364.92 106.76 365.693 107.08 366.28 107.72C366.893 108.387 367.2 109.267 367.2 110.36C367.2 113.587 365.36 116 361.68 117.6ZM414.32 116.24C414.427 114.133 414.507 109.787 414.56 103.2H405.2C404.8 106.267 404 108.88 402.8 111.04C401.653 113.12 399.853 115.267 397.4 117.48L396.92 117.08C398.787 113.88 400.093 110.747 400.84 107.68C401.613 104.56 402 100.8 402 96.4V88.68C402 85.8533 401.96 83.7733 401.88 82.44L406.96 84H426.48L427.92 81.72L432.12 83.6C432.467 83.7867 432.64 83.9867 432.64 84.2C432.64 84.76 432.053 85.3067 430.88 85.84V97.48C430.88 103.4 430.947 108.653 431.08 113.24C431.133 114.6 430.747 115.56 429.92 116.12C429.093 116.68 427.507 117.107 425.16 117.4C425.053 116.2 424.68 115.373 424.04 114.92C423.48 114.493 422.227 114.067 420.28 113.64L420.4 112.96L425.92 113.32C426.4 113.347 426.747 113.253 426.96 113.04C427.147 112.853 427.24 112.52 427.24 112.04V103.2H418.16V114.84C418.16 115.507 417.84 115.893 417.2 116C416.48 116.16 415.52 116.24 414.32 116.24ZM418.16 94.12V102.12H427.24V94.12H418.16ZM427.24 85.08H418.16V93.04H427.24V85.08ZM405.6 96.08C405.6 98.4267 405.507 100.44 405.32 102.12H414.56V94.12H405.6V96.08ZM405.6 85.08V93.04H414.56V85.08H405.6ZM474.08 116.48C473.333 116.507 472.853 116.013 472.64 115C472.293 113.747 471.88 112.52 471.4 111.32C466.493 112.44 460.64 113.587 453.84 114.76C453.707 115.987 453.373 116.64 452.84 116.72C452.52 116.72 452.307 116.48 452.2 116L450.96 111.2C452.8 111.2 454.627 111.147 456.44 111.04C457.373 110.987 459.107 110.88 461.64 110.72V102.28H456.6V103.72C456.6 104.28 456.333 104.613 455.8 104.72C454.787 104.933 453.853 105.04 453 105.04C453.107 102.16 453.16 98.8933 453.16 95.24V93.52C453.16 91.0667 453.133 89.2667 453.08 88.12L457.52 89.56H461.64V88.16C461.64 86.0533 461.6 83.52 461.52 80.56L466.36 80.96C466.76 81.0133 466.96 81.1867 466.96 81.48C466.96 82.0133 466.347 82.4667 465.12 82.84V89.56H469.56L470.96 87.28L474.8 89.08C475.147 89.2667 475.32 89.48 475.32 89.72C475.32 90.1733 474.773 90.7067 473.68 91.32V93.4C473.68 95.1867 473.733 98.3467 473.84 102.88C473.84 103.173 473.787 103.4 473.68 103.56C473.573 103.72 473.387 103.827 473.12 103.88C472.32 104.093 471.36 104.2 470.24 104.2V102.28H465.12V110.4C467.867 110.16 469.747 109.987 470.76 109.88C470.147 108.627 469.227 107.12 468 105.36L468.36 105C473.613 108.36 476.24 111.253 476.24 113.68C476.213 114.56 476 115.253 475.6 115.76C475.173 116.24 474.667 116.48 474.08 116.48ZM438.92 95.12L438.44 94.56C440.413 92.7467 442.227 90.84 443.88 88.84C443 87.24 441.573 85.48 439.6 83.56L440.08 83.04C442.267 84.3733 444 85.7067 445.28 87.04C446.933 84.8267 448.133 82.7467 448.88 80.8L452.88 82.88C453.2 83.0133 453.36 83.2133 453.36 83.48C453.36 84.0933 452.68 84.3067 451.32 84.12C450.12 85.9067 448.667 87.6133 446.96 89.24C448.88 92.12 449.827 96.84 449.8 103.4C449.853 108.6 449.36 112.12 448.32 113.96C447.333 115.72 445.507 116.733 442.84 117C442.733 115.853 442.373 115.027 441.76 114.52C441.2 114.067 440.133 113.627 438.56 113.2L438.68 112.52L442.76 112.72C444.067 112.907 444.987 112.387 445.52 111.16C446.107 109.88 446.387 107.107 446.36 102.84C446.36 101.987 446.347 101.12 446.32 100.24C444.267 102.773 441.733 105.08 438.72 107.16L438.28 106.6C441.56 102.787 444.08 98.88 445.84 94.88C445.6 93.44 445.28 92.16 444.88 91.04C442.907 92.64 440.92 94 438.92 95.12ZM470.24 90.64H465.12V101.2H470.24V90.64ZM456.6 90.64V101.2H461.64V90.64H456.6ZM480.4 115.48V114.32H499.96C503.16 105.573 505.067 98.16 505.68 92.08L512 93.64C512.373 93.7467 512.56 93.96 512.56 94.28C512.533 94.84 511.76 95.2267 510.24 95.44C508.08 102.16 505.173 108.453 501.52 114.32H510.6L513.16 110.8L517.6 114.24C517.84 114.453 517.96 114.653 517.96 114.84C517.96 115.267 517.52 115.48 516.64 115.48H480.4ZM492.52 111.52C491.693 111.52 491.2 110.947 491.04 109.8C490.213 103.853 488.68 98.28 486.44 93.08L486.92 92.8C489.667 95.44 491.787 98.2 493.28 101.08C494.613 103.64 495.293 105.933 495.32 107.96C495.347 109.053 495.067 109.933 494.48 110.6C493.947 111.213 493.293 111.52 492.52 111.52ZM482.28 89.72V88.56H509.2L511.56 85.32L515.72 88.52C515.933 88.7067 516.04 88.9067 516.04 89.12C516.013 89.4933 515.587 89.6933 514.76 89.72H482.28ZM498.76 87.92C497.853 87.9733 497.267 87.44 497 86.32C496.387 84.0533 495.507 82.16 494.36 80.64L494.68 80.24C499.133 81.3867 501.36 83.0267 501.36 85.16C501.36 85.9333 501.107 86.5867 500.6 87.12C500.093 87.6533 499.48 87.92 498.76 87.92ZM531.88 113.12V110.08H528.08V114C528.08 114.507 527.827 114.827 527.32 114.96C526.6 115.147 525.733 115.267 524.72 115.32C524.827 112.68 524.88 109.867 524.88 106.88V99.96C524.027 101.187 523 102.507 521.8 103.92L521.32 103.52C524.227 97.92 526.187 91.7067 527.2 84.88H521.88V83.84H532.28L534.28 81L538.12 83.8C538.333 83.9867 538.44 84.1467 538.44 84.28C538.44 84.6533 538.027 84.8533 537.2 84.88H530.92C530.227 88.4 529.227 91.6133 527.92 94.52L529 94.8H531.2L532.48 92.68L536.04 94.36C536.413 94.5467 536.6 94.7733 536.6 95.04C536.6 95.4933 536.08 95.9867 535.04 96.52V102.6C535.04 105.96 535.093 109.013 535.2 111.76C535.2 112.08 535.147 112.32 535.04 112.48C534.933 112.64 534.733 112.747 534.44 112.8C533.72 113.013 532.867 113.12 531.88 113.12ZM532.56 117.48L532.2 116.84C537.08 114.867 541.067 112.72 544.16 110.4C547.173 108.16 549.613 105.533 551.48 102.52C552.653 100.733 553.52 98.9733 554.08 97.24L558.56 99.2C558.96 99.3867 559.16 99.6 559.16 99.84C559.16 100.427 558.44 100.707 557 100.68C554.44 105.267 551.347 108.867 547.72 111.48C544.093 114.093 539.04 116.093 532.56 117.48ZM545.72 103.72C545.8 99 545.84 95.3733 545.84 92.84V86.08C545.84 84.96 545.813 83.12 545.76 80.56L550.56 80.96C550.933 81.0133 551.12 81.1733 551.12 81.44C551.12 81.9467 550.533 82.4133 549.36 82.84V91.56C549.36 92.3333 549.387 95.8933 549.44 102.24C549.44 102.56 549.387 102.8 549.28 102.96C549.2 103.093 549.013 103.213 548.72 103.32C547.92 103.587 546.92 103.72 545.72 103.72ZM531.88 95.84H528.08V109.04H531.88V95.84ZM536.44 103.32L535.72 103C537.347 98.8667 538.533 95.16 539.28 91.88C539.627 90.28 539.853 88.7067 539.96 87.16L544.56 88.28C544.933 88.36 545.12 88.5333 545.12 88.8C545.12 89.36 544.52 89.7067 543.32 89.84C542.04 94.6667 539.747 99.16 536.44 103.32ZM557.4 96.84C556.787 96.84 556.32 96.44 556 95.64C554.827 92.7067 552.893 89.9067 550.2 87.24L550.56 86.76C553.707 88.2267 556.027 89.64 557.52 91C558.827 92.2 559.48 93.3333 559.48 94.4C559.48 95.12 559.28 95.7067 558.88 96.16C558.48 96.6133 557.987 96.84 557.4 96.84ZM563.72 98.56L563.12 98.24C564.933 93.4933 566.173 89.24 566.84 85.48C567.107 83.9867 567.32 82.32 567.48 80.48L572.2 81.36C572.6 81.44 572.8 81.6267 572.8 81.92C572.8 82.4267 572.173 82.84 570.92 83.16C570.493 84.6533 570.08 85.9467 569.68 87.04H573.92L575.8 84.36L579.28 87.04C579.467 87.2 579.56 87.3733 579.56 87.56C579.533 87.8533 579.133 88.0267 578.36 88.08H569.32C568.627 89.9467 567.84 91.6933 566.96 93.32H573.04L574.88 90.76L578.2 93.32C578.413 93.5067 578.52 93.68 578.52 93.84C578.52 94.1867 578.107 94.36 577.28 94.36H572.16V100.76H573.28L575.08 98.2L578.44 100.8C578.493 100.853 578.547 100.907 578.6 100.96C578.6 100.133 578.573 98.8667 578.52 97.16L583 98.56H587.28C587.36 97.44 587.4 96.1867 587.4 94.8V92.92H583.8V94.16C583.8 94.6933 583.56 95.0133 583.08 95.12C582.147 95.3333 581.24 95.44 580.36 95.44C580.467 93.6267 580.52 91.7467 580.52 89.8V86.88C580.52 85.5733 580.493 83.96 580.44 82.04L584.84 83.36H593.44L594.72 81.28L598.4 82.96C598.747 83.12 598.92 83.3067 598.92 83.52C598.92 83.9733 598.413 84.4667 597.4 85V87.84C597.4 89.1733 597.453 91.04 597.56 93.44C597.56 93.9733 597.32 94.32 596.84 94.48C596.013 94.6667 595.107 94.7867 594.12 94.84V92.92H590.8V94.8C590.8 96.0533 590.733 97.3067 590.6 98.56H595.4L596.76 96.4L600.4 98.12C600.8 98.3067 601 98.5067 601 98.72C601 99.1733 600.48 99.6933 599.44 100.28V103.08C599.44 106.92 599.48 110.24 599.56 113.04C599.613 114.347 599.227 115.333 598.4 116C597.547 116.693 596.093 117.16 594.04 117.4C593.987 116.307 593.667 115.56 593.08 115.16C592.547 114.787 591.307 114.387 589.36 113.96L589.48 113.28L594.48 113.48C595.547 113.507 596.08 113.013 596.08 112V99.6H590.48C590.373 100.293 590.2 101.12 589.96 102.08C593.693 104.107 595.56 105.987 595.56 107.72C595.453 109.107 594.867 109.8 593.8 109.8C593.16 109.8 592.773 109.453 592.64 108.76C592.027 106.6 591.04 104.667 589.68 102.96C589.067 104.613 588.16 106.107 586.96 107.44C585.813 108.693 584.24 109.973 582.24 111.28L581.92 110.84V115.96C581.92 116.547 581.653 116.92 581.12 117.08C580.213 117.32 579.32 117.44 578.44 117.44C578.547 114.027 578.6 110.707 578.6 107.48V103.8V101.52C578.36 101.707 577.987 101.8 577.48 101.8H572.16V110.68L577.72 107.92L578.08 108.48C575.813 110.72 573.413 112.84 570.88 114.84C570.88 116.173 570.627 116.84 570.12 116.84C569.907 116.84 569.693 116.653 569.48 116.28L567.4 112.6C568.387 111.987 568.88 111.107 568.88 109.96V101.8H563.44V100.76H568.88V94.36H566.4C565.52 95.8533 564.627 97.2533 563.72 98.56ZM594.12 84.4H583.8V91.88H594.12V84.4ZM581.92 110.72C583.627 108.8 584.853 107.067 585.6 105.52C586.4 103.867 586.92 101.893 587.16 99.6H581.92V110.72ZM77.44 161.12L77.24 160.12L83.76 159.12C83.6 158.64 83.4933 158.28 83.44 158.04C82.48 154.813 81.9333 153 81.8 152.6L86.72 152.92C87.0933 152.947 87.28 153.08 87.28 153.32C87.28 153.56 87.1733 153.773 86.96 153.96C86.7467 154.147 86.3067 154.373 85.64 154.64C85.9867 156.133 86.3867 157.467 86.84 158.64L93.88 157.56L95.36 154.68L99.36 156.64C99.68 156.853 99.84 157.013 99.84 157.12C99.8667 157.28 99.7867 157.427 99.6 157.56C99.3867 157.72 99.1067 157.813 98.76 157.84L87.24 159.64C88.04 161.533 89.0133 163.107 90.16 164.36L91.24 163.4C92.6 162.093 93.64 160.84 94.36 159.64L97.92 161.72C98.1867 161.88 98.32 162.067 98.32 162.28C98.32 162.707 97.9467 162.933 97.2 162.96C96.9067 162.96 96.5733 162.92 96.2 162.84C95.0533 164.173 93.7733 165.333 92.36 166.32C93.72 167.28 95.2667 167.96 97 168.36C97.6133 168.52 98.04 168.293 98.28 167.68L99.68 163.28L100.24 163.36L100.32 167.32C100.32 167.96 100.533 168.493 100.96 168.92C101.36 169.32 101.56 169.747 101.56 170.2C101.507 171.24 100.72 171.827 99.2 171.96C95.5467 172.013 92.28 170.76 89.4 168.2C86.1733 169.96 82.2267 171.32 77.56 172.28L77.28 171.6C81.0933 170.213 84.5333 168.453 87.6 166.32C86.2133 164.64 85.0533 162.573 84.12 160.12L77.44 161.12ZM76.88 175.44V174.36H94.52L96.56 171.92L100.16 174.32C100.373 174.48 100.48 174.64 100.48 174.8C100.48 175.173 100.067 175.387 99.24 175.44H93.12V184.2C93.12 184.653 93.2133 184.973 93.4 185.16C93.5867 185.347 93.9333 185.44 94.44 185.44H96.56C97.6 185.44 98.2667 184.907 98.56 183.84L99.84 179.2L100.4 179.28L100.56 183.24C100.587 184.12 100.84 184.733 101.32 185.08C101.8 185.4 102.04 185.773 102.04 186.2C102.04 186.813 101.667 187.347 100.92 187.8C100.067 188.307 98.9333 188.56 97.52 188.56H93.48C92.0667 188.56 91.08 188.293 90.52 187.76C89.96 187.227 89.68 186.307 89.68 185V175.44H85.76V175.96C85.76 179.88 84.8533 182.853 83.04 184.88C81.2533 186.88 78.1333 188.48 73.68 189.68L73.36 189.04C76.64 187.2 78.92 185.373 80.2 183.56C81.56 181.64 82.24 179.16 82.24 176.12V175.44H76.88ZM76.44 183.64C75.88 183.64 75.4933 183.28 75.28 182.56C74.6933 180.267 73.8133 178.227 72.64 176.44C72.0533 178.92 71.12 181.16 69.84 183.16C68.64 185.027 66.88 187.053 64.56 189.24L64.08 188.76C66.5867 184.973 68.2667 181.547 69.12 178.48C70 175.36 70.44 171.187 70.44 165.96V160.32C70.44 156.773 70.3867 154.213 70.28 152.64L74.76 153.04C75.1867 153.067 75.4 153.227 75.4 153.52C75.4 154.053 74.8133 154.493 73.64 154.84V164.68C73.64 165.587 73.6267 166.48 73.6 167.36C75.4133 165.067 76.6267 163.08 77.24 161.4L80.64 163.56C80.9067 163.72 81.04 163.907 81.04 164.12C81.04 164.627 80.4133 164.84 79.16 164.76C77.72 166.013 75.8533 167.24 73.56 168.44C73.48 171.08 73.24 173.4 72.84 175.4C76.6 177.373 78.48 179.347 78.48 181.32C78.48 182.013 78.28 182.573 77.88 183C77.48 183.427 77 183.64 76.44 183.64ZM65.64 172.4C65.16 172.4 64.7867 172.213 64.52 171.84C64.2533 171.493 64.12 171.013 64.12 170.4C64.12 169.653 64.3867 168.973 64.92 168.36C66.36 166.68 67.1467 164.6 67.28 162.12H67.76C68.2133 163.853 68.44 165.533 68.44 167.16C68.44 168.813 68.16 170.12 67.6 171.08C67.0933 171.96 66.44 172.4 65.64 172.4ZM118.72 186.16V183.52H111.64V186.56C111.64 187.067 111.307 187.387 110.64 187.52C109.973 187.68 109.107 187.787 108.04 187.84C108.173 184.16 108.24 180.573 108.24 177.08V166.64C108.24 163.893 108.2 161.44 108.12 159.28L112.04 160.48C112.44 157.893 112.6 155.253 112.52 152.56L117.56 153.16C117.987 153.213 118.2 153.387 118.2 153.68C118.2 154.16 117.573 154.547 116.32 154.84C115.387 157.133 114.413 159.08 113.4 160.68H118L119.32 158.56L122.96 160.24C123.36 160.453 123.56 160.68 123.56 160.92C123.56 161.187 123.48 161.413 123.32 161.6C123.133 161.813 122.72 162.12 122.08 162.52V174.4C122.08 177.28 122.133 180.8 122.24 184.96C122.24 185.413 122.013 185.693 121.56 185.8C120.973 185.987 120.027 186.107 118.72 186.16ZM123.72 170.28L123.08 169.92C124.947 165.84 126.36 161.427 127.32 156.68C127.613 155.187 127.773 153.827 127.8 152.6L133.08 153.52C133.453 153.6 133.64 153.773 133.64 154.04C133.64 154.573 132.947 154.973 131.56 155.24C130.973 157.053 130.333 158.787 129.64 160.44H136.84L138.2 158.08L142.2 159.96C142.573 160.147 142.76 160.347 142.76 160.56C142.76 160.853 142.653 161.12 142.44 161.36C142.227 161.6 141.8 161.907 141.16 162.28C141.16 166.893 141.027 173.467 140.76 182C140.653 184.507 140.093 186.253 139.08 187.24C138.04 188.253 136.12 188.907 133.32 189.2C133.213 187.893 132.8 187 132.08 186.52C131.36 186.04 129.733 185.547 127.2 185.04L127.32 184.36L133.76 184.72C134.96 184.8 135.8 184.6 136.28 184.12C136.76 183.64 137.027 182.68 137.08 181.24C137.347 176.04 137.52 169.467 137.6 161.52H129.16C128.36 163.307 127.467 164.973 126.48 166.52L126.68 166.32C129.133 167.973 130.867 169.4 131.88 170.6C132.84 171.747 133.32 172.907 133.32 174.08C133.32 174.827 133.107 175.44 132.68 175.92C132.253 176.4 131.693 176.64 131 176.64C130.307 176.64 129.84 176.147 129.6 175.16C129.04 172.227 127.947 169.427 126.32 166.76C125.653 167.773 124.787 168.947 123.72 170.28ZM111.64 172.12V182.44H118.72V172.12H111.64ZM118.72 161.76H111.64V171.04H118.72V161.76ZM153.68 189.6L152.92 188.64C154.973 187.467 156.053 186.413 156.16 185.48C156.267 184.787 155.947 184.4 155.2 184.32C154.48 184.24 153.907 183.96 153.48 183.48C153.053 183 152.84 182.4 152.84 181.68C152.84 180.88 153.133 180.2 153.72 179.64C154.333 179.053 155.08 178.76 155.96 178.76C156.92 178.76 157.693 179.08 158.28 179.72C158.893 180.387 159.2 181.267 159.2 182.36C159.2 185.587 157.36 188 153.68 189.6ZM217.24 189.56C217.133 188.44 216.787 187.653 216.2 187.2C215.613 186.747 214.413 186.307 212.6 185.88L212.76 185.16L217.84 185.44C218.827 185.493 219.52 185.32 219.92 184.92C220.32 184.52 220.573 183.72 220.68 182.52C221.027 177.64 221.213 173.027 221.24 168.68H218.56C217.573 173.853 215.84 177.933 213.36 180.92C210.8 184.013 206.693 186.88 201.04 189.52L200.6 188.96C205.16 185.573 208.493 182.4 210.6 179.44C212.707 176.48 214.12 172.893 214.84 168.68H211.64C210.467 172.307 209 175.16 207.24 177.24C205.507 179.32 202.787 181.467 199.08 183.68L198.64 183.12C201.413 180.347 203.44 177.973 204.72 176C206.053 173.973 207.147 171.533 208 168.68H206.8L204.64 170.2C203.733 169.427 202.88 168.6 202.08 167.72C201.947 167.533 201.907 167.373 201.96 167.24C202.013 167.133 202.147 167.053 202.36 167C203.16 166.867 203.84 166.52 204.4 165.96L215.88 156.56H202V155.36H215.92L218 153.44L221.84 155.96C222.187 156.2 222.36 156.427 222.36 156.64C222.36 157.147 221.467 157.507 219.68 157.72L207.2 167.64H220.52L221.92 165.28L226 167.24C226.347 167.4 226.52 167.587 226.52 167.8C226.52 168.28 225.933 168.8 224.76 169.36C224.653 174.587 224.467 179.32 224.2 183.56C224.067 185.587 223.547 187 222.64 187.8C221.68 188.653 219.88 189.24 217.24 189.56ZM194.04 188.84C193.427 188.84 192.907 188.627 192.48 188.2C192.027 187.747 191.8 187.147 191.8 186.4C191.8 185.867 191.947 184.92 192.24 183.56C192.507 182.413 192.64 181.373 192.64 180.44C192.667 179.347 192.507 178.587 192.16 178.16C191.787 177.68 190.987 177.227 189.76 176.8L189.92 176.08C190.8 176.213 191.427 176.28 191.8 176.28C192.227 176.28 192.587 176.173 192.88 175.96C193.173 175.747 193.44 175.4 193.68 174.92L201.52 159.72L202.24 160L196.76 174.32C196.093 176.16 195.76 177.787 195.76 179.2C195.76 180.533 195.92 181.907 196.24 183.32C196.48 184.573 196.6 185.587 196.6 186.36C196.6 187.16 196.373 187.773 195.92 188.2C195.467 188.627 194.84 188.84 194.04 188.84ZM193.76 168.8C193.12 168.8 192.667 168.413 192.4 167.64C191.653 165.587 190.573 163.693 189.16 161.96L189.44 161.56C193.68 162.867 195.8 164.453 195.8 166.32C195.773 167.067 195.56 167.667 195.16 168.12C194.733 168.573 194.267 168.8 193.76 168.8ZM197.36 159.88C196.667 159.907 196.187 159.533 195.92 158.76C195.04 156.653 193.867 154.84 192.4 153.32L192.68 152.92C194.947 153.507 196.64 154.2 197.76 155C198.8 155.747 199.32 156.547 199.32 157.4C199.293 158.147 199.093 158.747 198.72 159.2C198.32 159.653 197.867 159.88 197.36 159.88ZM233.6 179.48V178.44H247.2V171.84H238.64V173.2C238.64 173.813 238.373 174.173 237.84 174.28C237.12 174.467 236.12 174.587 234.84 174.64C234.947 172.107 235 169.68 235 167.36V159.68C235 158.133 234.96 156.28 234.88 154.12L239.64 155.6H258.8L260.16 153.32L264.28 155.16C264.707 155.347 264.92 155.56 264.92 155.8C264.92 156.04 264.8 156.267 264.56 156.48C264.32 156.72 263.88 157 263.24 157.32V166.04C263.24 166.173 263.293 168.373 263.4 172.64C263.4 173.227 263.147 173.573 262.64 173.68C261.787 173.867 260.747 173.987 259.52 174.04V171.84H250.92V178.44H259.2L261.4 175.56L265.2 178.4C265.413 178.533 265.52 178.693 265.52 178.88C265.52 179.28 265.093 179.48 264.24 179.48H250.92V186.64H261.36L263.8 183.52L267.92 186.6C268.133 186.733 268.24 186.893 268.24 187.08C268.213 187.453 267.787 187.653 266.96 187.68H230.76V186.64H247.2V179.48H233.6ZM259.52 156.64H250.92V163.2H259.52V156.64ZM250.92 164.24V170.8H259.52V164.24H250.92ZM238.64 164.24V170.8H247.2V164.24H238.64ZM238.64 156.64V163.2H247.2V156.64H238.64ZM302.6 189.24C301.96 189.24 301.48 188.813 301.16 187.96C300.68 186.76 300.227 185.76 299.8 184.96C292.92 186.133 286.28 187.107 279.88 187.88C279.747 189 279.413 189.56 278.88 189.56C278.613 189.56 278.427 189.36 278.32 188.96L276.88 184.2C278.293 184.253 279.493 183.733 280.48 182.64C282.107 180.773 283.76 178.267 285.44 175.12H273.48V174.04H301.52L303.88 170.76L308.08 174C308.32 174.213 308.44 174.387 308.44 174.52C308.387 174.893 307.96 175.093 307.16 175.12H290.72C287.253 179.147 284.213 182.16 281.6 184.16C286.587 183.947 292.387 183.707 299 183.44C298.067 181.813 296.653 179.907 294.76 177.72L295.12 177.28C301.653 180.693 304.92 183.733 304.92 186.4C304.92 187.2 304.68 187.88 304.2 188.44C303.747 188.973 303.213 189.24 302.6 189.24ZM272.48 169.88L272.08 169.2C278.453 164.987 283.187 160.693 286.28 156.32C287.213 154.933 287.92 153.64 288.4 152.44L293.72 153.68C294.093 153.787 294.28 153.973 294.28 154.24C294.28 154.827 293.547 155.147 292.08 155.2C294.667 157.6 297.333 159.52 300.08 160.96C302.933 162.453 306.253 163.613 310.04 164.44L309.88 165.24C309.027 165.373 308.32 165.707 307.76 166.24C307.227 166.747 306.72 167.533 306.24 168.6C302.72 166.867 299.867 165.067 297.68 163.2C295.547 161.36 293.453 158.947 291.4 155.96C288.653 159.373 285.773 162.173 282.76 164.36C279.88 166.44 276.453 168.28 272.48 169.88ZM281.08 167.88V166.8H294L296.08 163.96L299.92 166.8C300.107 166.96 300.2 167.107 300.2 167.24C300.173 167.613 299.76 167.827 298.96 167.88H281.08ZM345.8 187.92V184.6H338.92V187.2C338.947 187.787 338.667 188.133 338.08 188.24C337.173 188.427 336.227 188.547 335.24 188.6C335.373 183.32 335.44 178.227 335.44 173.32V167C335.44 163.373 335.4 160.32 335.32 157.84L339.8 159.32H345.08L346.48 157.04L350.32 158.88C350.72 159.067 350.92 159.28 350.92 159.52C350.92 159.76 350.827 159.987 350.64 160.2C350.4 160.467 349.96 160.773 349.32 161.12V170.88C349.32 174.373 349.4 179.613 349.56 186.6C349.56 187.107 349.32 187.413 348.84 187.52C348.04 187.733 347.027 187.867 345.8 187.92ZM324.84 188.6C324.68 187.48 324.253 186.693 323.56 186.24C322.973 185.84 321.707 185.427 319.76 185L319.88 184.4L324.96 184.64C326.027 184.693 326.747 184.507 327.12 184.08C327.52 183.627 327.76 182.693 327.84 181.28C328.187 176.533 328.36 170.213 328.36 162.32H323.64C323.507 168.827 322.707 174.16 321.24 178.32C319.8 182.427 317.44 186.147 314.16 189.48L313.64 189.08C315.933 185.24 317.56 181.387 318.52 177.52C319.533 173.44 320.08 168.373 320.16 162.32H314.24V161.24H320.2V160.12V158.24C320.2 156 320.147 154.133 320.04 152.64L324.88 153.08C325.28 153.133 325.48 153.293 325.48 153.56C325.48 154.067 324.88 154.507 323.68 154.88V159.88V161.24H327.68L329.08 159L332.84 160.8C333.187 160.987 333.36 161.187 333.36 161.4C333.36 161.853 332.827 162.4 331.76 163.04C331.76 169.76 331.613 176.053 331.32 181.92C331.213 184.32 330.707 185.973 329.8 186.88C328.92 187.76 327.267 188.333 324.84 188.6ZM345.8 160.44H338.92V183.52H345.8V160.44ZM385.32 189.36V186.84H374.8V188.04C374.8 188.627 374.533 188.973 374 189.08C373.173 189.293 372.24 189.4 371.2 189.4C371.307 186.52 371.36 183.733 371.36 181.04V176.12V174.32C370.16 174.933 368.6 175.64 366.68 176.44L366.44 175.92C366.547 181.36 366.067 184.893 365 186.52C364.04 188.04 362.293 188.933 359.76 189.2C359.733 188.107 359.44 187.347 358.88 186.92C358.347 186.52 357.173 186.08 355.36 185.6L355.48 184.92L360.24 185.16C361.173 185.32 361.88 184.787 362.36 183.56C362.84 182.307 363.08 179.56 363.08 175.32C363.08 174.413 363.053 173.24 363 171.8C361.107 174.2 358.573 176.493 355.4 178.68L354.96 178.16C358.24 174.56 360.76 170.773 362.52 166.8C362.307 165.413 361.96 164.053 361.48 162.72C359.933 164 358 165.347 355.68 166.76L355.32 166.2C357.267 164.36 359 162.48 360.52 160.56C359.587 158.827 358.133 156.987 356.16 155.04L356.6 154.56C358.84 156.053 360.56 157.48 361.76 158.84C362.24 158.147 362.653 157.52 363 156.96C363.987 155.333 364.653 153.973 365 152.88L369.12 154.88C369.467 155.04 369.64 155.24 369.64 155.48C369.64 156.04 368.933 156.307 367.52 156.28C366.267 158.04 364.893 159.627 363.4 161.04C365.507 164.24 366.52 169.16 366.44 175.8C367.8 174.973 369.427 173.907 371.32 172.6C371.267 171.64 371.24 170.867 371.24 170.28L373.52 171C375.333 169.64 376.973 168.24 378.44 166.8H366.28V165.72H374.84V159.92H368.72V158.88H374.84C374.84 156.667 374.787 154.56 374.68 152.56L379.4 152.96C379.8 153.013 380 153.173 380 153.44C380 153.893 379.427 154.333 378.28 154.76V158.88H379.8L381.32 156.76L384.08 158.88C384.32 159.067 384.44 159.24 384.44 159.4C384.44 159.747 384.013 159.92 383.16 159.92H378.28V165.72H379.48C381.4 163.747 383.067 161.68 384.48 159.52C385.547 157.893 386.387 156.2 387 154.44L391.28 156.44C391.627 156.6 391.8 156.787 391.8 157C391.8 157.56 391.107 157.827 389.72 157.8C387.933 160.733 385.893 163.373 383.6 165.72H387.28L389.28 163.16L392.76 165.72C393 165.88 393.12 166.04 393.12 166.2C393.093 166.573 392.667 166.773 391.84 166.8H382.44C380.6 168.56 378.48 170.187 376.08 171.68H384.68L386 169.52L389.76 171.2C390.187 171.387 390.4 171.6 390.4 171.84C390.4 172.133 390.307 172.373 390.12 172.56C389.933 172.747 389.507 173.027 388.84 173.4V180.48C388.84 182.32 388.88 184.813 388.96 187.96C389.013 188.547 388.773 188.893 388.24 189C387.52 189.187 386.547 189.307 385.32 189.36ZM374.8 179.72V185.8H385.32V179.72H374.8ZM385.32 172.72H374.8V178.68H385.32V172.72ZM409.64 189.28C409.8 183.467 409.88 178.76 409.88 175.16V169.52C409.88 165.733 409.84 162.72 409.76 160.48L414.52 161.96H419.32V161.08C419.32 157.507 419.267 154.64 419.16 152.48L424.04 152.84C424.44 152.893 424.64 153.053 424.64 153.32C424.64 153.853 424.027 154.307 422.8 154.68V161.96H428.16L429.56 159.56L433.64 161.52C433.987 161.707 434.16 161.92 434.16 162.16C434.16 162.4 434.04 162.627 433.8 162.84C433.533 163.08 433.08 163.373 432.44 163.72V171.96C432.44 176.04 432.533 181.347 432.72 187.88C432.72 188.413 432.453 188.76 431.92 188.92C430.96 189.16 429.96 189.293 428.92 189.32V185.88H413.32V187.84C413.32 188.4 413.067 188.747 412.56 188.88C411.227 189.147 410.253 189.28 409.64 189.28ZM402.04 188.72C400.733 188.72 400.027 187.933 399.92 186.36C399.92 185.853 400.067 184.893 400.36 183.48C400.653 182.387 400.8 181.36 400.8 180.4C400.8 179.44 400.587 178.72 400.16 178.24C399.68 177.707 398.76 177.2 397.4 176.72L397.6 176.04C398.48 176.173 399.28 176.24 400 176.24C400.907 176.213 401.547 175.76 401.92 174.88L408.08 162.52L408.76 162.84L404.84 174.2C404.2 176.147 403.88 177.773 403.88 179.08C403.88 180.467 404.04 181.84 404.36 183.2C404.6 184.453 404.72 185.48 404.72 186.28C404.72 187.08 404.467 187.693 403.96 188.12C403.507 188.52 402.867 188.72 402.04 188.72ZM422.8 174.12V184.84H428.92V174.12H422.8ZM413.32 174.12V184.84H419.32V174.12H413.32ZM428.92 163H422.8V173.08H428.92V163ZM413.32 163V173.08H419.32V163H413.32ZM401.64 168.8C400.973 168.827 400.507 168.44 400.24 167.64C399.52 165.587 398.44 163.693 397 161.96L397.32 161.56C401.533 162.867 403.64 164.453 403.64 166.32C403.64 167.013 403.427 167.613 403 168.12C402.6 168.573 402.147 168.8 401.64 168.8ZM405 159.96C404.307 159.96 403.84 159.56 403.6 158.76C402.88 156.84 401.773 155.027 400.28 153.32L400.56 152.92C402.72 153.48 404.373 154.2 405.52 155.08C406.56 155.88 407.08 156.72 407.08 157.6C406.92 159.12 406.227 159.907 405 159.96ZM452.04 184.52C452.147 181.373 452.2 179.053 452.2 177.56V173.96C452.2 171.427 452.173 169.667 452.12 168.68L456.6 170H466.76L468 167.92L471.96 169.6C472.333 169.76 472.52 169.973 472.52 170.24C472.52 170.48 472.413 170.693 472.2 170.88C471.96 171.12 471.533 171.387 470.92 171.68V174.52C470.973 177.24 471.027 179.947 471.08 182.64C471.08 183.147 470.88 183.44 470.48 183.52C469.653 183.733 468.64 183.84 467.44 183.84V182.12H455.6V183.28C455.6 183.733 455.333 184.027 454.8 184.16C453.893 184.347 452.973 184.467 452.04 184.52ZM449.2 159.04V158H459.8C459.8 155.573 459.773 153.733 459.72 152.48L464.24 152.88C464.64 152.933 464.84 153.093 464.84 153.36C464.84 153.813 464.307 154.2 463.24 154.52V158H469.72L471.72 155.2L475.4 157.92C475.64 158.107 475.76 158.28 475.76 158.44C475.707 158.813 475.28 159.013 474.48 159.04H464.8C467.76 162.187 471.653 164.333 476.48 165.48L476.28 166.28C474.84 166.493 473.76 167.427 473.04 169.08C468.533 166.68 465.4 163.333 463.64 159.04H463.24C463.24 159.573 463.267 162.347 463.32 167.36C463.32 167.68 463.28 167.893 463.2 168C463.12 168.133 462.947 168.227 462.68 168.28C461.853 168.467 460.853 168.56 459.68 168.56C459.707 165.627 459.747 163.24 459.8 161.4C457.213 165.027 453.32 168.133 448.12 170.72L447.68 170.16C452.107 166.507 455.32 162.8 457.32 159.04H449.2ZM442.96 188.96C441.733 188.933 441.08 188.12 441 186.52C441 185.587 441.133 184.627 441.4 183.64C441.64 182.653 441.76 181.72 441.76 180.84C441.76 179.907 441.56 179.2 441.16 178.72C440.707 178.187 439.853 177.68 438.6 177.2L438.76 176.52C439.773 176.627 440.44 176.68 440.76 176.68C441.24 176.68 441.627 176.587 441.92 176.4C442.24 176.187 442.507 175.84 442.72 175.36L449.2 161.72L449.84 162L445.64 174.68C444.973 176.787 444.64 178.413 444.64 179.56C444.64 180.813 444.8 182.147 445.12 183.56C445.333 184.707 445.44 185.693 445.44 186.52C445.44 187.347 445.227 187.96 444.8 188.36C444.373 188.76 443.76 188.96 442.96 188.96ZM455.6 176.56V181.12H467.44V176.56H455.6ZM467.44 171H455.6V175.56H467.44V171ZM447.08 187.44V186.4H470.52L472.76 183.56L476.44 186.4C476.653 186.533 476.76 186.693 476.76 186.88C476.76 187.2 476.333 187.387 475.48 187.44H447.08ZM443 168.68C442.333 168.707 441.867 168.32 441.6 167.52C440.827 165.413 439.747 163.507 438.36 161.8L438.68 161.44C442.893 162.773 445 164.36 445 166.2C445 166.893 444.787 167.493 444.36 168C443.96 168.453 443.507 168.68 443 168.68ZM446 160C445.627 160 445.333 159.92 445.12 159.76C444.907 159.6 444.72 159.307 444.56 158.88C443.68 156.747 442.493 154.933 441 153.44L441.32 153.04C443.533 153.627 445.213 154.333 446.36 155.16C447.4 155.907 447.92 156.707 447.92 157.56C447.76 159.107 447.12 159.92 446 160ZM482.24 177.28L482.64 176.64C486.64 178.293 489.533 179.8 491.32 181.16C493.08 182.493 493.96 183.84 493.96 185.2C493.96 186 493.76 186.693 493.36 187.28C492.96 187.867 492.493 188.16 491.96 188.16C491.507 188.16 491.12 187.893 490.8 187.36C488.96 184 486.107 180.64 482.24 177.28ZM522.2 189.16L521.68 188.64C525.52 185.013 528.267 181.68 529.92 178.64C528.587 177.707 526.573 176.56 523.88 175.2C524.707 171.76 525.52 167.587 526.32 162.68H521.8V161.6H526.48C526.747 159.787 526.933 158.453 527.04 157.6C527.28 155.493 527.4 153.787 527.4 152.48L532.24 153.28C532.64 153.333 532.84 153.507 532.84 153.8C532.84 154.333 532.187 154.747 530.88 155.04C530.587 157.067 530.24 159.253 529.84 161.6H533.56L534.88 159.4L538.76 161.2C539.16 161.413 539.36 161.627 539.36 161.84C539.36 162.347 538.8 162.88 537.68 163.44C536.96 169.413 535.68 174.187 533.84 177.76C536.96 179.227 538.52 180.8 538.52 182.48C538.387 184.053 537.8 184.88 536.76 184.96C536.44 184.96 536.187 184.893 536 184.76C535.84 184.653 535.627 184.387 535.36 183.96C534.373 182.52 533.333 181.333 532.24 180.4C530.053 183.573 526.707 186.493 522.2 189.16ZM537.04 171.12V170.04H545.64V168.72C545.64 166.64 545.587 164.533 545.48 162.4L548.56 162.68L552.44 156.64H538V155.56H552.28L554.28 153.36L558.4 156.16C558.72 156.4 558.88 156.64 558.88 156.88C558.88 157.2 558.733 157.427 558.44 157.56C558.147 157.72 557.547 157.813 556.64 157.84C554.693 159.573 552.547 161.24 550.2 162.84L550.72 162.88C551.12 162.933 551.32 163.093 551.32 163.36C551.32 163.92 550.68 164.413 549.4 164.84V170.04H553.24L555.48 167.12L559.4 170C559.613 170.133 559.72 170.293 559.72 170.48C559.693 170.88 559.267 171.093 558.44 171.12H549.4V175.96C549.4 177.56 549.453 180.653 549.56 185.24C549.613 186.52 549.253 187.453 548.48 188.04C547.68 188.68 546.187 189.133 544 189.4C543.867 188.253 543.48 187.453 542.84 187C542.227 186.547 541 186.133 539.16 185.76L539.28 185.16L544 185.32C544.56 185.347 544.973 185.24 545.24 185C545.507 184.76 545.64 184.36 545.64 183.8V171.12H537.04ZM527.16 175.28C528.147 175.573 529.413 176 530.96 176.56C532.507 173.147 533.6 168.52 534.24 162.68H529.64C528.733 167.88 527.907 172.08 527.16 175.28ZM578.28 166.4C577.72 166.4 577.32 166.027 577.08 165.28C576.573 163.787 575.827 162.453 574.84 161.28C572.467 162.853 569.533 164.307 566.04 165.64L565.72 165.08C572.467 160.653 576.827 156.373 578.8 152.24L583.64 153.52C583.987 153.627 584.16 153.8 584.16 154.04C584.16 154.573 583.413 154.907 581.92 155.04C581.547 155.493 580.96 156.12 580.16 156.92H588.64L590.64 154.68L595.08 157.4C595.427 157.64 595.6 157.867 595.6 158.08C595.6 158.613 594.827 158.987 593.28 159.2C590.32 162.24 587.32 164.72 584.28 166.64L588.36 167.88C588.707 167.987 588.88 168.16 588.88 168.4C588.88 168.96 588.187 169.28 586.8 169.36C586.16 170.08 585.52 170.76 584.88 171.4H593.48L595.44 169.16L599.76 171.84C600.107 172.08 600.28 172.32 600.28 172.56C600.28 173.067 599.493 173.44 597.92 173.68C594.427 178.48 590.107 182.2 584.96 184.84C579.84 187.453 573.16 189.16 564.92 189.96L564.76 189.32C572.413 187.4 578.493 185.107 583 182.44C587.293 179.907 590.92 176.587 593.88 172.48H583.76C582.32 173.787 580.867 174.893 579.4 175.8C582.68 176.92 584.32 178.24 584.32 179.76C584.32 180.427 584.12 180.973 583.72 181.4C583.32 181.827 582.84 182.04 582.28 182.04C581.64 182.04 581.2 181.653 580.96 180.88C580.4 179.2 579.56 177.693 578.44 176.36C575.56 178.067 571.88 179.587 567.4 180.92L567.12 180.32C573.093 177.173 577.693 173.893 580.92 170.48C581.907 169.387 582.76 168.267 583.48 167.12C578.573 170.053 572.373 172.24 564.88 173.68L564.64 173.04C570.987 170.72 576.027 168.4 579.76 166.08C583.44 163.813 586.533 161.12 589.04 158H579.04C577.92 158.987 576.84 159.853 575.8 160.6C577.32 161.107 578.467 161.68 579.24 162.32C579.933 162.907 580.28 163.52 580.28 164.16C580.28 164.773 580.067 165.307 579.64 165.76C579.24 166.187 578.787 166.4 578.28 166.4ZM67.2 262C66.9333 262 66.76 261.76 66.68 261.28L65.8 256.8C67.96 256.933 70.6533 256.973 73.88 256.92C76.44 256.92 78.9733 256.88 81.48 256.8V252.28H73.52V253.48C73.52 253.96 73.2667 254.267 72.76 254.4C71.7467 254.587 70.8 254.68 69.92 254.68C70.0267 252.44 70.08 250.773 70.08 249.68V247.72C70.08 247.267 70.0533 246.027 70 244L74.68 245.28H81.48V241.84L86.16 242.2C86.56 242.253 86.76 242.413 86.76 242.68C86.76 243.16 86.1733 243.573 85 243.92V245.28H92.32L93.6 243.16L97.56 244.84C97.9333 244.973 98.12 245.173 98.12 245.44C98.12 245.867 97.5733 246.373 96.48 246.96V248.68C96.48 249.773 96.5067 251.04 96.56 252.48C96.56 252.987 96.3333 253.28 95.88 253.36C95.0267 253.547 94.0667 253.64 93 253.64V252.28H85V256.72C87.4267 256.667 90.2133 256.56 93.36 256.4C92.4533 255.653 91.2267 254.813 89.68 253.88L89.96 253.36C94.04 254.4 96.92 255.413 98.6 256.4C100.013 257.227 100.72 258.187 100.72 259.28C100.64 260.64 100.013 261.347 98.84 261.4C98.3867 261.427 97.92 261.093 97.44 260.4C96.5067 259.253 95.6133 258.307 94.76 257.56C86.44 258.84 77.6 259.8 68.24 260.44C68.0267 261.48 67.68 262 67.2 262ZM64.96 244.44L64.44 243.84C69.0267 239.627 71.3467 235.08 71.4 230.2L76.4 231.12C76.8 231.2 77 231.373 77 231.64C77 232.2 76.3333 232.6 75 232.84C74.8667 233.32 74.72 233.787 74.56 234.24C76.4 236.08 78.76 237.24 81.64 237.72V228.16H65.96V227.12H94.52L96.28 225.08L100.48 227.8C100.773 228.013 100.92 228.24 100.92 228.48C100.92 229.013 100.133 229.28 98.56 229.28C97.1733 230.16 95.8933 230.867 94.72 231.4L97.6 233.4C97.7867 233.507 97.88 233.653 97.88 233.84C97.88 234.187 97.4667 234.36 96.64 234.36H85.32V238.12C85.9067 238.147 86.8533 238.16 88.16 238.16C92.9333 238.213 97.4 237.947 101.56 237.36L101.48 238.12C100.867 238.333 100.413 238.667 100.12 239.12C99.8267 239.573 99.5867 240.267 99.4 241.2C97.4267 241.28 93.9067 241.32 88.84 241.32C84.7067 241.347 81.5733 240.907 79.44 240C77.28 239.093 75.5067 237.52 74.12 235.28C73.32 237.147 72.24 238.773 70.88 240.16C69.44 241.6 67.4667 243.027 64.96 244.44ZM95.12 228.16H85.32V233.4H92.16L93.8 231.36L93.72 231.28L95.12 228.16ZM93 246.32H85V251.24H93V246.32ZM73.52 246.32V251.24H81.48V246.32H73.52ZM140.24 261.08C134.027 259.8 129.347 258.013 126.2 255.72C122.387 258.173 116.973 260.04 109.96 261.32L109.76 260.72C115.973 258.4 120.64 256.053 123.76 253.68C121.36 251.28 119.173 247.653 117.2 242.8H114.48C114.16 246.987 113.347 250.48 112.04 253.28C110.787 255.947 108.76 258.653 105.96 261.4L105.4 261.04C107.427 257.68 108.84 254.36 109.64 251.08C110.467 247.72 110.88 243.493 110.88 238.4V235.4C110.88 233.907 110.84 232.053 110.76 229.84L115.64 231.4H123.76C123.707 229.133 123.653 226.853 123.6 224.56L128.72 224.96C129.093 225.013 129.28 225.187 129.28 225.48C129.28 225.987 128.68 226.427 127.48 226.8V231.4H135.92L137.72 229.12L141.76 232C142.213 232.293 142.44 232.56 142.44 232.8C142.44 233.387 141.68 233.693 140.16 233.72C138.32 235.267 136.707 236.48 135.32 237.36L134.76 236.96L136.48 232.48H127.48V241.72H131.92L133.72 239.32L138.2 242C138.6 242.293 138.8 242.56 138.8 242.8C138.8 243.307 138.027 243.707 136.48 244C134.293 247.973 131.867 251.133 129.2 253.48C132.453 255 137.2 256.08 143.44 256.72L143.32 257.4C141.907 257.933 140.88 259.16 140.24 261.08ZM114.64 237.8C114.64 238.813 114.613 240.12 114.56 241.72H123.76V232.48H114.64V237.8ZM132.28 242.8H118.24C120.56 246.693 123.187 249.667 126.12 251.72C128.52 249.453 130.573 246.48 132.28 242.8ZM168.16 253.92C167.893 253.92 167.72 253.773 167.64 253.48L166.32 248.92C167.493 248.813 168.467 248.32 169.24 247.44C171 245.44 172.707 242.933 174.36 239.92C171.8 240.64 169.6 241.187 167.76 241.56C167.76 242.653 167.48 243.2 166.92 243.2C166.68 243.2 166.52 243.053 166.44 242.76L165.2 238.4C166.293 238.24 167.08 237.8 167.56 237.08C169.107 234.733 170.467 232 171.64 228.88C172.147 227.627 172.533 226.293 172.8 224.88L177.96 226.68C178.307 226.813 178.48 227.013 178.48 227.28C178.48 227.84 177.707 228.173 176.16 228.28C174.133 231.8 171.72 235.147 168.92 238.32L175.16 238.36C175.427 237.88 175.773 237.16 176.2 236.2C176.84 234.733 177.267 233.48 177.48 232.44L182.32 234.48C182.693 234.64 182.88 234.827 182.88 235.04C182.88 235.547 182.133 235.893 180.64 236.08C177.627 241.04 174.307 245.267 170.68 248.76L182.48 248.48L182.6 249.2C177.88 250.453 173.347 251.453 169 252.2C168.973 253.347 168.693 253.92 168.16 253.92ZM152.36 254.08C152.12 254.08 151.947 253.92 151.84 253.6L150.56 249.12C151.707 248.987 152.6 248.48 153.24 247.6C154.893 245.387 156.467 242.853 157.96 240C156.013 240.587 153.96 241.12 151.8 241.6C151.8 242.64 151.52 243.16 150.96 243.16C150.72 243.16 150.547 242.973 150.44 242.6L149.08 238.48C150.2 238.347 151 237.84 151.48 236.96C153 234.48 154.293 231.8 155.36 228.92C155.84 227.64 156.213 226.293 156.48 224.88L161.6 226.6C161.947 226.733 162.12 226.92 162.12 227.16C162.12 227.72 161.387 228.067 159.92 228.2C158.053 231.533 155.653 234.907 152.72 238.32L158.84 238.28C159.053 237.853 159.44 236.987 160 235.68C160.533 234.453 160.973 233.173 161.32 231.84L166.2 233.68C166.6 233.813 166.8 234.013 166.8 234.28C166.8 234.84 166.04 235.2 164.52 235.36C161.933 239.973 158.68 244.467 154.76 248.84L164.48 248.16L164.6 248.92C160.04 250.467 156.253 251.613 153.24 252.36C153.187 253.507 152.893 254.08 152.36 254.08ZM147.6 259.08V257.96H177.64L180.28 254.4L184.76 257.88C184.973 258.067 185.08 258.24 185.08 258.4C185.053 258.8 184.613 259.027 183.76 259.08H147.6ZM208.48 259.68C208.587 253.867 208.64 249.293 208.64 245.96V237.76C208.64 235.147 208.613 232.187 208.56 228.88L213.16 230.28H220.6L221.88 228L225.96 229.8C226.36 230.013 226.56 230.227 226.56 230.44C226.56 230.92 226 231.467 224.88 232.08V244.2C224.88 244.467 224.947 248.96 225.08 257.68C225.08 258.213 224.84 258.533 224.36 258.64C223.347 258.853 222.32 258.987 221.28 259.04V254.6H212.2V258.24C212.227 258.8 211.933 259.147 211.32 259.28C210.493 259.493 209.547 259.627 208.48 259.68ZM204.44 249.4C203.8 249.4 203.373 249 203.16 248.2C202.467 246.013 201.507 244.08 200.28 242.4V259.96C200.28 260.387 200.213 260.68 200.08 260.84C199.947 260.973 199.707 261.08 199.36 261.16C198.453 261.373 197.533 261.48 196.6 261.48C196.76 255.613 196.84 250.347 196.84 245.68V243.76C194.867 247.573 192.267 251.04 189.04 254.16L188.6 253.76C192.013 248.347 194.4 243.213 195.76 238.36H189.08V237.28H196.84V229.88C194.92 230.12 192.44 230.373 189.4 230.64L189.28 229.88C196.107 228.173 200.88 226.427 203.6 224.64L206.76 227.16C207.027 227.373 207.16 227.6 207.16 227.84C207.133 228.24 206.867 228.453 206.36 228.48C205.933 228.48 205.413 228.36 204.8 228.12C203.12 228.627 201.613 229.013 200.28 229.28V237.28H202.36L204.24 234.64L207.68 237.24C207.893 237.427 208 237.587 208 237.72C207.947 238.067 207.52 238.28 206.72 238.36H200.28V241.36C202.52 242.32 204.12 243.253 205.08 244.16C206.013 245.04 206.48 246.013 206.48 247.08C206.48 247.72 206.267 248.267 205.84 248.72C205.413 249.173 204.947 249.4 204.44 249.4ZM221.28 231.4H212.2V253.36H221.28V231.4ZM236.2 253.36C235.907 253.36 235.707 253.147 235.6 252.72L234.36 248.72C236.387 248.64 238.027 248.387 239.28 247.96C241.68 247.107 244.84 245.76 248.76 243.92C244.253 244.4 241.04 244.693 239.12 244.8C239.04 245.813 238.787 246.32 238.36 246.32C238.093 246.32 237.893 246.12 237.76 245.72L236.56 242.24C237.787 242.16 238.84 241.893 239.72 241.44C242.307 240.213 244.387 238.813 245.96 237.24L249.12 239.08C249.387 239.24 249.52 239.413 249.52 239.6C249.52 239.973 249.147 240.16 248.4 240.16C248.053 240.16 247.68 240.107 247.28 240C246 240.64 243.907 241.453 241 242.44L251.56 242.52C251.693 242.467 251.827 242.4 251.96 242.32C253.693 241.387 255.12 240.4 256.24 239.36L259.92 241.68C260.267 241.92 260.44 242.147 260.44 242.36C260.44 242.787 260.013 242.987 259.16 242.96C258.947 242.987 258.507 242.92 257.84 242.76C252.827 245.107 247.293 247.147 241.24 248.88L259.48 248.24C258.52 247.307 257.253 246.32 255.68 245.28L255.96 244.84C262.6 246.627 265.907 248.6 265.88 250.76C265.747 252.147 265.173 252.88 264.16 252.96C263.6 252.96 263.133 252.653 262.76 252.04C262.093 251.053 261.453 250.24 260.84 249.6C255.693 250.133 252.747 250.44 252 250.52V253.2C252 254.133 252.027 255.693 252.08 257.88C252.08 259 251.76 259.8 251.12 260.28C250.427 260.813 249.107 261.187 247.16 261.4C247.027 260.44 246.667 259.76 246.08 259.36C245.547 258.987 244.44 258.613 242.76 258.24L242.88 257.6L247.28 257.8C247.76 257.827 248.093 257.747 248.28 257.56C248.467 257.373 248.56 257.053 248.56 256.6V250.8C244.453 251.173 240.613 251.48 237.04 251.72C236.96 252.813 236.68 253.36 236.2 253.36ZM233 241.92C232.733 241.92 232.547 241.733 232.44 241.36L231.32 237.28C232.867 237.227 233.947 237.173 234.56 237.12V232.4C234.56 230.32 234.52 228.573 234.44 227.16L238.8 227.56C239.173 227.587 239.36 227.747 239.36 228.04C239.36 228.52 238.787 228.947 237.64 229.32V236.84C239.507 236.653 240.733 236.52 241.32 236.44V229.8C241.32 228.173 241.267 226.427 241.16 224.56L245.8 224.96C246.173 224.987 246.36 225.16 246.36 225.48C246.36 225.987 245.76 226.427 244.56 226.8V230.32H246.2L247.8 228.16L250.6 230.32C250.813 230.507 250.92 230.667 250.92 230.8C250.92 231.12 250.493 231.28 249.64 231.28H244.56V236C246.613 235.707 248.547 235.387 250.36 235.04L250.6 235.68C245.293 237.44 239.707 238.987 233.84 240.32C233.733 241.387 233.453 241.92 233 241.92ZM255.36 239.2C254 239.2 253.027 238.92 252.44 238.36C251.853 237.8 251.56 236.867 251.56 235.56V230C251.56 228.133 251.52 226.32 251.44 224.56L256.04 224.96C256.44 225.013 256.64 225.173 256.64 225.44C256.64 225.92 256.04 226.36 254.84 226.76V231.56C258.493 229.587 261.12 227.68 262.72 225.84L266.12 228.32C266.387 228.56 266.52 228.787 266.52 229C266.52 229.347 266.253 229.52 265.72 229.52C265.32 229.52 264.88 229.44 264.4 229.28C261.68 230.587 258.493 231.68 254.84 232.56V235C254.84 235.507 254.933 235.853 255.12 236.04C255.307 236.227 255.68 236.32 256.24 236.32H261.92C263.013 236.32 263.733 235.8 264.08 234.76L265.48 230.68L266.08 230.76L266.24 234.44C266.24 235.027 266.453 235.48 266.88 235.8C267.333 236.173 267.56 236.587 267.56 237.04C267.56 237.653 267.187 238.16 266.44 238.56C265.64 238.987 264.547 239.2 263.16 239.2H255.36ZM263.6 259.92C263.227 259.92 262.76 259.64 262.2 259.08C259.853 256.627 257.187 254.56 254.2 252.88L254.4 252.44C257.68 253 260.267 253.707 262.16 254.56C264.347 255.493 265.44 256.56 265.44 257.76C265.36 259.147 264.747 259.867 263.6 259.92ZM232.08 260.44L231.8 259.88C234.493 258.253 236.813 256.52 238.76 254.68C239.72 253.773 240.493 252.893 241.08 252.04L244.84 254.04C245.133 254.253 245.28 254.467 245.28 254.68C245.28 254.893 245.12 255.053 244.8 255.16C244.427 255.293 243.853 255.307 243.08 255.2C240.36 257.28 236.693 259.027 232.08 260.44ZM306.16 259.56C302.8 258.147 300.173 256.64 298.28 255.04C296.387 253.44 294.653 251.28 293.08 248.56H292.64V252.16C292.64 252.8 292.68 255.48 292.76 260.2C292.76 260.733 292.533 261.053 292.08 261.16C291.093 261.373 290.053 261.48 288.96 261.48C289.067 258.173 289.12 255.44 289.12 253.28V250.36C286.933 252.707 284.547 254.627 281.96 256.12C279.507 257.533 276.293 258.893 272.32 260.2L272 259.56C275.333 257.72 278.027 256.027 280.08 254.48C282.347 252.747 284.387 250.773 286.2 248.56H273.32V247.56H289.12C289.093 246.467 289.053 245.413 289 244.4L293.84 244.8C294.24 244.853 294.44 245 294.44 245.24C294.44 245.773 293.84 246.213 292.64 246.56V247.56H302.84L304.96 244.76L308.76 247.48C308.973 247.693 309.08 247.853 309.08 247.96C309.027 248.333 308.6 248.533 307.8 248.56H294.16C296.613 250.613 298.933 252.16 301.12 253.2C303.413 254.293 306.333 255.213 309.88 255.96L309.68 256.68C308.133 256.84 306.96 257.8 306.16 259.56ZM294.56 233.2V230.08H286V232.88C286 233.413 285.747 233.747 285.24 233.88C284.44 234.093 283.547 234.2 282.56 234.2C282.587 232.84 282.613 231.467 282.64 230.08H272.56V229.04H282.64V228.2C282.64 226.68 282.613 225.453 282.56 224.52L287.04 224.88C287.44 224.933 287.64 225.093 287.64 225.36C287.64 225.813 287.093 226.24 286 226.64V229.04H294.56V228.8C294.56 227.28 294.533 225.867 294.48 224.56L299 224.92C299.4 224.973 299.6 225.133 299.6 225.4C299.6 225.853 299.04 226.267 297.92 226.64V227.64V229.04H303.08L305.24 226.2L309.12 229C309.36 229.213 309.48 229.387 309.48 229.52C309.427 229.867 308.987 230.053 308.16 230.08H297.92C297.947 230.693 297.973 231.307 298 231.92C298.027 232.427 297.8 232.747 297.32 232.88C296.387 233.093 295.467 233.2 294.56 233.2ZM274.76 237.6L274.68 236.88C285.453 235.627 292.907 234.573 297.04 233.72C298.853 233.347 300.467 232.867 301.88 232.28L304.76 234.92C305.08 235.24 305.24 235.52 305.24 235.76C305.24 236.08 305 236.24 304.52 236.24C304.013 236.24 303.427 236.08 302.76 235.76C294.36 236.88 285.027 237.493 274.76 237.6ZM296.16 246.04L295.64 245.6C297.88 242.613 299.373 239.867 300.12 237.36L304.36 239.36C304.733 239.52 304.92 239.733 304.92 240C304.92 240.267 304.76 240.453 304.44 240.56C304.067 240.693 303.52 240.707 302.8 240.6C301.04 242.467 298.827 244.28 296.16 246.04ZM281.64 245.48C281.027 245.48 280.627 245.093 280.44 244.32C279.987 242.507 279.12 240.827 277.84 239.28L278.16 238.92C280.213 239.587 281.707 240.307 282.64 241.08C283.44 241.747 283.84 242.467 283.84 243.24C283.84 243.907 283.64 244.44 283.24 244.84C282.813 245.267 282.28 245.48 281.64 245.48ZM290.8 243.84C290.16 243.84 289.76 243.453 289.6 242.68C289.253 240.92 288.493 239.28 287.32 237.76L287.64 237.4C291.24 238.573 293.04 239.96 293.04 241.56C293.04 242.253 292.827 242.813 292.4 243.24C292 243.64 291.467 243.84 290.8 243.84ZM320.08 261.6L319.32 260.64C321.373 259.467 322.453 258.413 322.56 257.48C322.667 256.787 322.347 256.4 321.6 256.32C320.88 256.24 320.307 255.96 319.88 255.48C319.453 255 319.24 254.4 319.24 253.68C319.24 252.88 319.533 252.2 320.12 251.64C320.733 251.053 321.48 250.76 322.36 250.76C323.32 250.76 324.093 251.08 324.68 251.72C325.293 252.387 325.6 253.267 325.6 254.36C325.6 257.587 323.76 260 320.08 261.6ZM362.28 241.84C362.387 239.2 362.44 236.973 362.44 235.16V230.72C362.44 229.413 362.4 227.733 362.32 225.68L366.72 227.04H381.84L383.12 224.92L386.92 226.64C387.32 226.853 387.52 227.067 387.52 227.28C387.52 227.733 387 228.24 385.96 228.8V233.12C385.96 234.32 386 236.613 386.08 240C386.107 240.587 385.867 240.933 385.36 241.04C384.613 241.227 383.653 241.347 382.48 241.4V239.44H365.88V240.44C365.88 241.053 365.613 241.413 365.08 241.52C364.093 241.733 363.16 241.84 362.28 241.84ZM355.52 244.72V243.64H386.48L388.8 240.6L392.8 243.6C393.04 243.813 393.16 243.973 393.16 244.08C393.133 244.453 392.693 244.667 391.84 244.72H376.48V250.28H383.24L385.44 247.44L389.16 250.24C389.373 250.373 389.48 250.533 389.48 250.72C389.48 251.093 389.067 251.293 388.24 251.32H376.48V256.92C376.907 256.947 377.573 256.96 378.48 256.96C383.707 256.96 388.587 256.707 393.12 256.2V256.76C391.893 257.347 391.213 258.56 391.08 260.4C388.333 260.507 384.333 260.533 379.08 260.48C375.507 260.427 372.627 259.787 370.44 258.56C368.253 257.333 366.547 255.4 365.32 252.76C364.493 254.733 363.333 256.427 361.84 257.84C360.373 259.227 358.413 260.52 355.96 261.72L355.52 261.2C357.52 259.36 359.013 257.68 360 256.16C360.96 254.693 361.707 252.96 362.24 250.96C362.64 249.413 362.84 247.88 362.84 246.36L367.88 247.36C368.2 247.44 368.36 247.6 368.36 247.84C368.36 248.133 368.24 248.36 368 248.52C367.68 248.733 367.16 248.92 366.44 249.08C366.253 249.96 366.013 250.813 365.72 251.64C367.507 254.04 369.893 255.613 372.88 256.36V244.72H355.52ZM365.88 233.72V238.4H382.48V233.72H365.88ZM382.48 228.08H365.88V232.68H382.48V228.08ZM411.8 261.4C411.667 260.147 411.187 259.253 410.36 258.72C409.587 258.213 407.907 257.667 405.32 257.08L405.4 256.44L412.6 256.68C413.187 256.707 413.6 256.6 413.84 256.36C414.107 256.12 414.24 255.72 414.24 255.16V233.16C414.24 230.36 414.173 227.507 414.04 224.6L419.44 225C419.867 225.053 420.08 225.213 420.08 225.48C420.08 226.067 419.44 226.547 418.16 226.92V244C418.16 245.92 418.227 250.24 418.36 256.96C418.387 258.32 417.947 259.32 417.04 259.96C416.08 260.627 414.333 261.107 411.8 261.4ZM431.56 253.8C430.733 253.8 430.187 253.267 429.92 252.2C428.267 245.747 425.613 239.76 421.96 234.24L422.44 233.76C426.333 236.88 429.333 240.013 431.44 243.16C433.333 246.013 434.28 248.493 434.28 250.6C434.28 251.533 434 252.307 433.44 252.92C432.907 253.507 432.28 253.8 431.56 253.8ZM397.28 255.04L396.8 254.56C399.947 249.387 402.32 244.173 403.92 238.92C404.427 237.373 404.787 235.72 405 233.96L410.36 235.48C410.787 235.587 411 235.8 411 236.12C411 236.707 410.213 237.08 408.64 237.24C406.587 243.987 402.8 249.92 397.28 255.04ZM440.76 258.28C440.867 254.333 440.92 250.56 440.92 246.96V235.76C440.92 232.4 440.88 229.707 440.8 227.68L445.12 229.04H449.76L451.08 226.88L454.84 228.64C455.213 228.827 455.4 229.013 455.4 229.2C455.4 229.627 454.853 230.12 453.76 230.68V234.56H466.52V233.92C466.52 231.227 466.467 228.12 466.36 224.6L471.28 225C471.707 225.027 471.92 225.187 471.92 225.48C471.92 225.987 471.333 226.427 470.16 226.8V234.56H470.84L472.76 231.88L476.16 234.56C476.373 234.693 476.48 234.853 476.48 235.04C476.453 235.413 476.013 235.613 475.16 235.64H470.16V244C470.16 246.693 470.213 251 470.32 256.92C470.347 258.333 469.92 259.373 469.04 260.04C468.16 260.707 466.587 261.147 464.32 261.36C464.213 260.24 463.8 259.44 463.08 258.96C462.44 258.533 461.067 258.093 458.96 257.64L459.08 257L464.88 257.16C465.467 257.187 465.88 257.08 466.12 256.84C466.387 256.6 466.52 256.2 466.52 255.64V235.64H453.76V243.84C453.76 247.84 453.813 251.707 453.92 255.44C453.92 255.92 453.693 256.213 453.24 256.32C452.413 256.48 451.48 256.587 450.44 256.64V253.28H444.24V256.96C444.24 257.493 443.947 257.813 443.36 257.92C442.667 258.107 441.8 258.227 440.76 258.28ZM444.24 241.64V252.2H450.44V241.64H444.24ZM450.44 230.08H444.24V240.56H450.44V230.08ZM460.72 248.36C459.92 248.36 459.453 247.893 459.32 246.96C458.787 244.373 457.773 241.827 456.28 239.32L456.64 239C458.96 240.36 460.587 241.613 461.52 242.76C462.48 243.88 462.947 244.92 462.92 245.88C462.92 246.627 462.693 247.24 462.24 247.72C461.84 248.147 461.333 248.36 460.72 248.36ZM495.76 247.2L495.2 246.84C497.2 243.213 498.44 239.587 498.92 235.96L503.44 237.08C503.733 237.16 503.88 237.333 503.88 237.6C503.88 238.053 503.24 238.413 501.96 238.68C501.613 239.48 501.24 240.2 500.84 240.84H510.36L512.36 238.24L515.68 240.76C515.893 240.973 516 241.16 516 241.32C515.947 241.64 515.533 241.827 514.76 241.88H506.96V242.8C506.96 244.853 506.827 246.627 506.56 248.12H511.28L513.44 245.36L517.04 248.04C517.253 248.227 517.36 248.413 517.36 248.6C517.333 248.92 516.933 249.107 516.16 249.16H507.36C508.64 251.16 510.12 252.813 511.8 254.12C513.56 255.48 515.68 256.573 518.16 257.4L517.88 258.2C517.08 258.333 516.453 258.627 516 259.08C515.573 259.507 515.147 260.24 514.72 261.28C510.133 258.053 507.4 254.013 506.52 249.16H506.36C505.667 252.093 504.28 254.493 502.2 256.36C500.12 258.2 496.96 259.853 492.72 261.32L492.32 260.6C495.52 258.787 497.907 257.04 499.48 255.36C501.133 253.6 502.24 251.533 502.8 249.16H495.2V248.12H503.04C503.307 246.68 503.44 244.947 503.44 242.92V241.88H500.2C498.92 243.88 497.44 245.653 495.76 247.2ZM480.24 245.6L479.68 245.16C482.347 240.067 484.307 235.053 485.56 230.12C485.987 228.547 486.347 226.693 486.64 224.56L491.56 225.64C491.96 225.72 492.16 225.907 492.16 226.2C492.16 226.733 491.48 227.107 490.12 227.32C489.213 230.147 488.253 232.64 487.24 234.8L488.68 234.96C489.08 235.04 489.28 235.213 489.28 235.48C489.28 235.96 488.693 236.387 487.52 236.76V259.88C487.52 260.28 487.467 260.56 487.36 260.72C487.253 260.88 487.04 261 486.72 261.08C485.68 261.347 484.813 261.453 484.12 261.4C484.253 254.2 484.32 249.453 484.32 247.16V240.16C483.013 242.187 481.653 244 480.24 245.6ZM490.96 256.16V231.84L495.08 232.2C495.427 232.253 495.6 232.413 495.6 232.68C495.6 233.187 495.093 233.627 494.08 234V254.64C494.08 255.253 493.8 255.64 493.24 255.8C492.413 256.04 491.653 256.16 490.96 256.16ZM495.24 235.32V234.28H507.8L508.32 228.76H497.16V227.72H507.6L509.04 225.44L512.84 227.24C513.267 227.427 513.48 227.653 513.48 227.92C513.48 228.4 512.893 228.893 511.72 229.4L511.2 234.28H512.24L514.04 231.76L517.36 234.2C517.573 234.413 517.68 234.6 517.68 234.76C517.653 235.08 517.267 235.267 516.52 235.32H495.24ZM555.72 259.36C552.6 257.973 550.12 256.453 548.28 254.8C546.44 253.147 544.627 250.827 542.84 247.84H542.32V250.12C542.32 253.213 542.36 256.573 542.44 260.2C542.44 260.493 542.4 260.693 542.32 260.8C542.24 260.933 542.08 261.027 541.84 261.08C540.64 261.32 539.52 261.44 538.48 261.44C538.56 259.067 538.6 255.853 538.6 251.8V250.04C534.84 254.2 529.307 257.56 522 260.12L521.64 259.52C527.987 255.92 532.693 252.027 535.76 247.84H522.52V246.8H538.6C538.6 245.227 538.56 243.6 538.48 241.92L543.56 242.32C543.933 242.347 544.12 242.507 544.12 242.8C544.12 243.36 543.52 243.813 542.32 244.16V246.8H552.24L554.56 243.76L558.68 246.76C558.92 246.92 559.04 247.093 559.04 247.28C559.04 247.653 558.64 247.84 557.84 247.84H544C546.267 249.947 548.48 251.56 550.64 252.68C552.933 253.853 555.853 254.827 559.4 255.6L559.16 256.4C557.667 256.8 556.52 257.787 555.72 259.36ZM524.12 244.8C523.853 244.8 523.68 244.613 523.6 244.24L522.36 239.72C523.507 239.64 524.653 239.56 525.8 239.48V233.44C525.8 231.84 525.773 230.107 525.72 228.24L530.2 228.64C530.573 228.667 530.76 228.827 530.76 229.12C530.76 229.627 530.173 230.053 529 230.4V239.16C530.227 239 531.453 238.84 532.68 238.68V230.2C532.68 227.96 532.64 226.133 532.56 224.72L537.24 225.12C537.64 225.147 537.84 225.307 537.84 225.6C537.84 226.133 537.213 226.587 535.96 226.96V231.72H537.08L538.72 229.44L541.72 231.72C541.933 231.907 542.04 232.053 542.04 232.16C542.04 232.533 541.6 232.72 540.72 232.72H535.96V238.2C538.52 237.8 540.373 237.493 541.52 237.28L541.72 238C536.387 240.027 530.84 241.707 525.08 243.04C524.947 244.213 524.627 244.8 524.12 244.8ZM546.56 242.12C545.147 242.12 544.147 241.853 543.56 241.32C542.973 240.787 542.68 239.907 542.68 238.68V230.12C542.68 228.253 542.64 226.44 542.56 224.68L547.28 225.08C547.68 225.107 547.88 225.267 547.88 225.56C547.88 226.093 547.253 226.547 546 226.92V233.32C549.733 230.867 552.347 228.653 553.84 226.68L557.32 229.44C557.613 229.68 557.76 229.92 557.76 230.16C557.76 230.507 557.453 230.68 556.84 230.68C556.387 230.68 555.933 230.573 555.48 230.36C552.653 232.013 549.493 233.347 546 234.36V237.64C546 238.173 546.107 238.547 546.32 238.76C546.533 238.973 546.933 239.08 547.52 239.08H553.04C553.68 239.08 554.133 238.973 554.4 238.76C554.693 238.547 554.947 238.12 555.16 237.48L556.52 233.28L557.08 233.36L557.32 236.96C557.373 237.76 557.627 238.28 558.08 238.52C558.56 238.893 558.8 239.293 558.8 239.72C558.8 240.413 558.413 240.973 557.64 241.4C556.76 241.88 555.533 242.12 553.96 242.12H546.56ZM567.04 245.6V244.52H588.32V237.28H576.92L575.48 239.2C574.28 238.667 573.093 237.947 571.92 237.04C571.6 236.773 571.6 236.493 571.92 236.2C572.56 235.72 572.88 235.2 572.88 234.64V230.76C572.88 230.307 572.853 228.747 572.8 226.08L577.76 226.48C578.133 226.507 578.32 226.667 578.32 226.96C578.32 227.493 577.733 227.947 576.56 228.32V236.2H588.32V233.44C588.32 229.733 588.267 226.813 588.16 224.68L593.44 225.08C593.787 225.107 593.96 225.267 593.96 225.56C593.96 226.147 593.333 226.613 592.08 226.96V243.36C592.08 245.093 592.16 250.6 592.32 259.88C592.32 260.227 592.267 260.493 592.16 260.68C592.027 260.84 591.8 260.973 591.48 261.08C590.413 261.293 589.36 261.387 588.32 261.36V245.6H578.44C578.333 249.467 577.44 252.587 575.76 254.96C574.107 257.333 571.347 259.467 567.48 261.36L567.04 260.88C569.653 258.56 571.52 256.267 572.64 254C573.787 251.68 574.413 248.88 574.52 245.6H567.04ZM95.28 312.68V310.96H82.84V311.6C82.84 312.08 82.6267 312.36 82.2 312.44C81.2933 312.627 80.3733 312.747 79.44 312.8C79.52 308 79.56 305.44 79.56 305.12V302.68C79.56 301.213 79.5333 299.493 79.48 297.52L83.64 298.92H94.6L95.92 296.76L99.72 298.52C100.04 298.707 100.2 298.893 100.2 299.08C100.2 299.347 100.107 299.573 99.92 299.76C99.68 300 99.2267 300.307 98.56 300.68V303.44C98.56 304.907 98.6133 307.587 98.72 311.48C98.72 311.987 98.52 312.28 98.12 312.36C97.1333 312.573 96.1867 312.68 95.28 312.68ZM93.6 332.4C92.08 332.4 91.04 332.093 90.48 331.48C89.8933 330.84 89.6 329.693 89.6 328.04V320.56C89.6 318.133 89.5467 315.707 89.44 313.28L94.08 313.68C94.5067 313.707 94.72 313.867 94.72 314.16C94.72 314.693 94.1067 315.147 92.88 315.52V321.52C94.2133 320.213 95.3067 318.987 96.16 317.84C96.9333 316.747 97.52 315.787 97.92 314.96L101.56 317.16C101.88 317.373 102.04 317.573 102.04 317.76C102.04 318.187 101.68 318.4 100.96 318.4C100.587 318.4 100.227 318.347 99.88 318.24C98.0933 319.973 95.76 321.467 92.88 322.72V327.64C92.88 328.28 93 328.72 93.24 328.96C93.4533 329.173 93.8533 329.28 94.44 329.28H96.56C97.6 329.333 98.2267 328.84 98.44 327.8L99.88 322.36L100.48 322.48L100.6 327.12C100.627 327.947 100.867 328.533 101.32 328.88C101.8 329.253 102.04 329.68 102.04 330.16C102.04 330.853 101.667 331.387 100.92 331.76C100.093 332.187 98.9067 332.4 97.36 332.4H93.6ZM80.04 333.52C79.8533 333.52 79.6667 333.32 79.48 332.92L77.56 328.96C78.2 328.72 78.6533 328.427 78.92 328.08C79.16 327.707 79.28 327.2 79.28 326.56V320.04C79.28 318.36 79.24 316.2 79.16 313.56L83.8 313.96C84.2 314.013 84.4 314.173 84.4 314.44C84.4 314.947 83.8 315.4 82.6 315.8V319.96H84.12L85.8 317.64L88.8 320.04C89.0133 320.227 89.12 320.373 89.12 320.48C89.12 320.773 88.7067 320.933 87.88 320.96H82.6V327.68L88.92 326.12L89.16 326.76C86.3067 328.6 83.56 330.2 80.92 331.56C80.8933 332.867 80.6 333.52 80.04 333.52ZM70.6 332.24C70.3867 332.24 70.16 332.027 69.92 331.6L67.68 327.88C68.7467 327.293 69.28 326.493 69.28 325.48V316.12C69.28 313.96 69.24 312.16 69.16 310.72L73.6 311.08C73.9467 311.107 74.12 311.267 74.12 311.56C74.12 312.067 73.56 312.507 72.44 312.88V325.6L77.56 322.64L77.96 323.2C76.1467 325.333 73.9067 327.653 71.24 330.16C71.4267 331.547 71.2133 332.24 70.6 332.24ZM73.2 310.32L72.64 310.08L74.04 305.24H69.84C68.64 308.787 66.92 312.307 64.68 315.8L64.08 315.44C65.6533 310.96 66.7733 306.427 67.44 301.84C67.7067 300 67.8533 298.293 67.88 296.72L72.92 297.6C73.32 297.653 73.52 297.813 73.52 298.08C73.52 298.693 72.84 299.107 71.48 299.32C71.08 300.973 70.64 302.6 70.16 304.2H73.6L75.08 302.16L78.72 304.48C79.0133 304.667 79.16 304.867 79.16 305.08C79.16 305.56 78.5333 305.84 77.28 305.92C75.76 307.707 74.4 309.173 73.2 310.32ZM82.84 305.44V309.92H95.28V305.44H82.84ZM95.28 300H82.84V304.4H95.28V300ZM136.36 322.32V320.28H131.8V327.24C131.8 327.827 131.92 328.24 132.16 328.48C132.4 328.72 132.8 328.84 133.36 328.84H137.52C138.64 328.893 139.347 328.32 139.64 327.12L141.28 321.04L141.88 321.16L142 326.52C142.027 327.507 142.307 328.16 142.84 328.48C143.24 328.853 143.44 329.253 143.44 329.68C143.44 330.373 143.04 330.947 142.24 331.4C141.36 331.907 140.147 332.16 138.6 332.16H132.64C131.093 332.16 129.987 331.84 129.32 331.2C128.68 330.587 128.36 329.533 128.36 328.04V320.28H124.32L122.84 322C121.72 321.413 120.693 320.76 119.76 320.04C119.44 319.773 119.453 319.507 119.8 319.24C120.307 318.867 120.56 318.4 120.56 317.84V312.96C120.56 310.907 120.533 309.347 120.48 308.28L125 308.68C125.32 308.733 125.48 308.893 125.48 309.16C125.48 309.64 124.92 310.08 123.8 310.48V319.2H128.36V305.8V304.8H120.08C120.133 304.907 120.16 305 120.16 305.08C120.16 305.347 120.053 305.547 119.84 305.68C119.573 305.84 119.067 305.96 118.32 306.04C117.013 307.533 115.64 308.947 114.2 310.28L113.6 309.96L115.16 305.36H111.28C110.027 308.853 108.267 312.24 106 315.52L105.44 315.16C107.04 311.107 108.267 306.587 109.12 301.6C109.333 300.107 109.507 298.467 109.64 296.68L114.52 297.52C114.893 297.6 115.08 297.76 115.08 298C115.08 298.56 114.427 298.987 113.12 299.28C112.693 300.987 112.213 302.64 111.68 304.24H114.72L116.2 302.16L119.68 304.44C119.733 304.493 119.773 304.52 119.8 304.52V303.72H128.36C128.333 301.293 128.28 298.92 128.2 296.6L133.04 297C133.36 297.027 133.52 297.187 133.52 297.48C133.52 297.96 132.947 298.413 131.8 298.84V303.72H136.6L138.72 300.88L142.44 303.68C142.627 303.867 142.72 304.027 142.72 304.16C142.693 304.533 142.28 304.747 141.48 304.8H131.8V319.2H136.36V313.24C136.333 311.613 136.307 309.973 136.28 308.32L140.72 308.72C141.067 308.747 141.24 308.907 141.24 309.2C141.24 309.68 140.68 310.107 139.56 310.48V313.76C139.56 315.04 139.6 317.52 139.68 321.2C139.707 321.573 139.533 321.827 139.16 321.96C138.333 322.2 137.4 322.32 136.36 322.32ZM112.04 332C111.853 332 111.653 331.813 111.44 331.44L109.2 327.4C110.24 326.813 110.76 326.027 110.76 325.04V316.08C110.76 313.813 110.72 311.96 110.64 310.52L115.2 310.92C115.573 310.973 115.76 311.12 115.76 311.36C115.76 311.893 115.187 312.333 114.04 312.68V325.24L119.44 322.24L119.88 322.8C117.8 325.227 115.427 327.613 112.76 329.96C112.84 330.68 112.8 331.213 112.64 331.56C112.507 331.853 112.307 332 112.04 332ZM160.32 330.16V327.52H153.24V330.56C153.24 331.067 152.907 331.387 152.24 331.52C151.573 331.68 150.707 331.787 149.64 331.84C149.773 328.16 149.84 324.573 149.84 321.08V310.64C149.84 307.893 149.8 305.44 149.72 303.28L153.64 304.48C154.04 301.893 154.2 299.253 154.12 296.56L159.16 297.16C159.587 297.213 159.8 297.387 159.8 297.68C159.8 298.16 159.173 298.547 157.92 298.84C156.987 301.133 156.013 303.08 155 304.68H159.6L160.92 302.56L164.56 304.24C164.96 304.453 165.16 304.68 165.16 304.92C165.16 305.187 165.08 305.413 164.92 305.6C164.733 305.813 164.32 306.12 163.68 306.52V318.4C163.68 321.28 163.733 324.8 163.84 328.96C163.84 329.413 163.613 329.693 163.16 329.8C162.573 329.987 161.627 330.107 160.32 330.16ZM165.32 314.28L164.68 313.92C166.547 309.84 167.96 305.427 168.92 300.68C169.213 299.187 169.373 297.827 169.4 296.6L174.68 297.52C175.053 297.6 175.24 297.773 175.24 298.04C175.24 298.573 174.547 298.973 173.16 299.24C172.573 301.053 171.933 302.787 171.24 304.44H178.44L179.8 302.08L183.8 303.96C184.173 304.147 184.36 304.347 184.36 304.56C184.36 304.853 184.253 305.12 184.04 305.36C183.827 305.6 183.4 305.907 182.76 306.28C182.76 310.893 182.627 317.467 182.36 326C182.253 328.507 181.693 330.253 180.68 331.24C179.64 332.253 177.72 332.907 174.92 333.2C174.813 331.893 174.4 331 173.68 330.52C172.96 330.04 171.333 329.547 168.8 329.04L168.92 328.36L175.36 328.72C176.56 328.8 177.4 328.6 177.88 328.12C178.36 327.64 178.627 326.68 178.68 325.24C178.947 320.04 179.12 313.467 179.2 305.52H170.76C169.96 307.307 169.067 308.973 168.08 310.52L168.28 310.32C170.733 311.973 172.467 313.4 173.48 314.6C174.44 315.747 174.92 316.907 174.92 318.08C174.92 318.827 174.707 319.44 174.28 319.92C173.853 320.4 173.293 320.64 172.6 320.64C171.907 320.64 171.44 320.147 171.2 319.16C170.64 316.227 169.547 313.427 167.92 310.76C167.253 311.773 166.387 312.947 165.32 314.28ZM153.24 316.12V326.44H160.32V316.12H153.24ZM160.32 305.76H153.24V315.04H160.32V305.76ZM223 330.2C220.973 328.253 219.387 326.16 218.24 323.92C217.067 321.627 216.013 318.533 215.08 314.64H214.84V317.52C214.84 323.653 214.907 328.453 215.04 331.92C215.067 332.587 214.8 332.973 214.24 333.08C213.307 333.293 212.267 333.4 211.12 333.4C211.227 330.013 211.28 325.32 211.28 319.32V317.84C208.773 322.747 204.52 327.133 198.52 331L198.12 330.44C203.213 325.48 206.84 320.213 209 314.64H201.88V313.6H211.28V305.56H203.84V304.52H211.28C211.28 301.24 211.227 298.627 211.12 296.68L216.12 297.08C216.467 297.107 216.64 297.267 216.64 297.56C216.64 298.12 216.04 298.56 214.84 298.88V304.52H218.56L220.68 301.72L224.28 304.44C224.493 304.627 224.6 304.787 224.6 304.92C224.6 305.347 224.16 305.56 223.28 305.56H214.84V313.6H219.84L222.16 310.56L225.96 313.48C226.147 313.667 226.24 313.84 226.24 314C226.24 314.373 225.8 314.587 224.92 314.64H216.12C218.573 320.053 222.267 324.093 227.2 326.76L226.92 327.52C225.32 327.627 224.013 328.52 223 330.2ZM190.64 326.04C190.72 322.68 190.76 318.92 190.76 314.76V308.08C190.76 304.107 190.733 301.44 190.68 300.08L194.84 301.44H197.8L198.96 299.44L202.52 301.04C202.867 301.227 203.04 301.427 203.04 301.64C203.04 302.093 202.547 302.56 201.56 303.04V311.72C201.56 316.467 201.587 320.16 201.64 322.8C201.64 323.307 201.427 323.627 201 323.76C200.04 324 199.173 324.12 198.4 324.12V320.92H193.92V324.72C193.92 325.253 193.64 325.573 193.08 325.68C192.387 325.867 191.573 325.987 190.64 326.04ZM198.4 302.44H193.92V319.92H198.4V302.44ZM241.64 303.88V302.84H255.04C256.08 300.52 256.8 298.307 257.2 296.2L261.68 297.44C262.107 297.573 262.32 297.773 262.32 298.04C262.32 298.547 261.627 298.84 260.24 298.92C259.04 300.413 257.787 301.72 256.48 302.84H261.76L263.84 300L267.56 302.8C267.773 302.987 267.88 303.147 267.88 303.28C267.853 303.653 267.44 303.853 266.64 303.88H255.4C254.36 305.4 253.253 306.747 252.08 307.92H259.88L261.08 305.76L264.92 307.44C265.293 307.627 265.48 307.853 265.48 308.12C265.48 308.333 265.387 308.533 265.2 308.72C264.96 308.96 264.547 309.24 263.96 309.56V314.4C264.013 318.027 264.067 321.64 264.12 325.24C264.12 325.72 263.92 326.013 263.52 326.12C262.533 326.333 261.533 326.467 260.52 326.52V324.72H247.76V325.6C247.76 326.08 247.533 326.373 247.08 326.48C246.173 326.693 245.213 326.8 244.2 326.8C244.307 323.84 244.36 320.787 244.36 317.64V312.6C244.36 310.493 244.333 308.427 244.28 306.4L248.68 307.92H250.6C250.92 306.4 251.12 305.053 251.2 303.88H241.64ZM233.44 333.52C233.2 333.52 233 333.333 232.84 332.96L230.4 329.04C232.293 328.293 234.093 327.24 235.8 325.88V313.52H230.6V312.44H235L236.4 310.08L240.28 312C240.707 312.213 240.92 312.453 240.92 312.72C240.92 312.96 240.827 313.173 240.64 313.36C240.427 313.573 239.987 313.867 239.32 314.24V325.2C239.32 326.32 240.067 327.147 241.56 327.68C243.373 328.347 246.56 328.733 251.12 328.84C256.293 328.973 262.027 328.573 268.32 327.64V328.32C267.573 328.667 267.04 329.173 266.72 329.84C266.453 330.347 266.28 331.08 266.2 332.04C261.88 332.307 257.547 332.44 253.2 332.44C248.64 332.44 245.187 331.973 242.84 331.04C240.627 330.16 239.053 328.72 238.12 326.72C236.787 328.48 235.4 330.093 233.96 331.56C234.067 332.867 233.893 333.52 233.44 333.52ZM247.76 319.44V323.68H260.52V319.44H247.76ZM247.76 314.2V318.4H260.52V314.2H247.76ZM260.52 308.96H247.76V313.16H260.52V308.96ZM237.92 306.32C237.147 306.32 236.64 305.92 236.4 305.12C235.733 302.587 234.52 300.24 232.76 298.08L233.08 297.68C235.747 298.667 237.653 299.693 238.8 300.76C239.787 301.667 240.28 302.653 240.28 303.72C240.28 304.493 240.053 305.12 239.6 305.6C239.147 306.08 238.587 306.32 237.92 306.32ZM249.96 302.64C249.24 302.64 248.773 302.24 248.56 301.44C248.053 299.787 247.2 298.24 246 296.8L246.32 296.44C250.107 297.427 252 298.773 252 300.48C252 301.093 251.787 301.613 251.36 302.04C250.96 302.44 250.493 302.64 249.96 302.64ZM281 332.08C279.373 332.08 278.053 331.56 277.04 330.52C276.027 329.48 275.52 328.16 275.52 326.56C275.52 325.04 276.04 323.76 277.08 322.72C278.147 321.653 279.453 321.12 281 321.12C282.52 321.12 283.813 321.653 284.88 322.72C285.947 323.787 286.48 325.08 286.48 326.6C286.48 328.2 285.933 329.52 284.84 330.56C283.773 331.573 282.493 332.08 281 332.08ZM281 330C281.96 330 282.76 329.693 283.4 329.08C284.067 328.44 284.4 327.627 284.4 326.64C284.4 325.627 284.08 324.8 283.44 324.16C282.773 323.493 281.96 323.16 281 323.16C279.987 323.16 279.16 323.493 278.52 324.16C277.88 324.827 277.56 325.653 277.56 326.64C277.56 327.6 277.88 328.4 278.52 329.04C279.16 329.68 279.987 330 281 330Z" fill="black"/>
</svg>
