<svg width="527" height="384" viewBox="0 0 527 384" fill="none" xmlns="http://www.w3.org/2000/svg">
<g filter="url(#filter0_d_400_5)">
<rect x="34" y="34" width="458.235" height="315.18" rx="3.06" fill="#E7E7E7"/>
<path d="M227.6 284.258C228.206 285.194 228.775 286.222 229.326 287.36L228.188 287.93C227.655 286.755 227.068 285.726 226.443 284.808L227.6 284.258ZM230.262 289.417H224.13V288.15H231.456V283.542H224.846V282.275H231.456V280.163H232.814V282.275H239.571V283.542H232.814V288.15H234.65C235.366 286.901 235.972 285.543 236.486 284.092L237.771 284.551C237.239 285.892 236.633 287.085 235.954 288.15H240.103V289.417H233.971C235.275 291.51 237.496 293.364 240.617 294.998L239.718 296.137C236.468 294.135 234.191 291.895 232.888 289.417H232.814V296.889H231.456V289.417H231.345C230.17 292.024 227.839 294.264 224.35 296.155L223.616 294.98C226.921 293.346 229.142 291.491 230.262 289.417ZM256.664 282.275V296.908H255.324V295.769H245.666V296.908H244.326V282.275H248.255C248.659 281.54 248.971 280.806 249.155 280.035L250.495 280.218C250.293 280.953 249.999 281.65 249.632 282.275H256.664ZM245.666 294.502H255.324V291.51H245.666V294.502ZM245.666 290.298H255.324V287.489H245.666V290.298ZM245.666 286.277H255.324V283.542H245.666V286.277ZM260.483 284.827H262.135V280.182H263.42V284.827H265.054V286.075H263.42V291.657C263.934 291.4 264.43 291.124 264.926 290.83V292.116C263.604 292.887 262.172 293.548 260.63 294.062L260.299 292.813C260.923 292.648 261.548 292.446 262.135 292.226V286.075H260.483V284.827ZM267.331 287.856V287.893C267.258 291.565 266.413 294.521 264.797 296.724L263.824 295.861C265.238 293.952 265.972 291.308 266.046 287.893V282.899H271.37C271.334 282.018 271.334 281.081 271.334 280.108H272.545C272.545 281.1 272.564 282.036 272.6 282.899H276.731V284.092H272.637C272.747 286.369 272.913 288.187 273.17 289.509C273.225 289.876 273.298 290.206 273.372 290.537C274.051 289.16 274.583 287.581 274.987 285.8L276.07 286.259C275.52 288.572 274.767 290.555 273.812 292.171C273.996 292.795 274.216 293.309 274.436 293.731C274.877 294.594 275.244 295.035 275.501 295.035C275.758 295.017 275.979 294.117 276.181 292.354L277.282 292.96C276.915 295.42 276.401 296.651 275.74 296.651C275.116 296.651 274.473 296.1 273.794 294.998C273.5 294.539 273.243 294.007 273.004 293.383C271.958 294.815 270.728 295.898 269.332 296.651L268.543 295.641C270.14 294.815 271.48 293.603 272.545 291.987C272.343 291.363 272.178 290.684 272.031 289.949C271.719 288.389 271.517 286.442 271.407 284.092H267.331V286.736H270.507C270.507 290.041 270.36 292.061 270.103 292.795C269.846 293.493 269.369 293.86 268.69 293.897H267.441L267.111 292.813H268.378C268.782 292.777 269.02 292.465 269.13 291.895C269.241 291.308 269.296 289.968 269.314 287.856H267.331ZM274.749 279.961C275.244 280.677 275.667 281.43 276.034 282.238L275.061 282.66C274.657 281.779 274.234 281.008 273.775 280.347L274.749 279.961ZM279.081 282.201H286.499C286.205 281.43 285.875 280.751 285.544 280.127L286.958 279.906C287.252 280.586 287.545 281.357 287.839 282.201H295.348V283.468H287.894V285.873H293.861V292.538C293.861 293.64 293.292 294.209 292.191 294.209H290.355L290.024 292.942L291.768 293.015C292.282 293.015 292.539 292.758 292.539 292.244V287.14H287.894V296.889H286.536V287.14H282.111V294.337H280.807V285.873H286.536V283.468H279.081V282.201ZM308.641 284.166C308.494 284.68 308.329 285.157 308.164 285.616C308.641 287.636 309.247 289.38 309.981 290.867C310.863 288.958 311.34 286.736 311.413 284.166H308.641ZM309.32 292.134C308.586 290.739 307.962 289.141 307.448 287.36C307.117 288.04 306.75 288.664 306.383 289.215L305.593 288.223C306.86 286.204 307.723 283.468 308.164 280.035L309.449 280.255C309.302 281.191 309.137 282.073 308.953 282.899H313.782V284.166H312.607C312.515 287.305 311.891 289.968 310.716 292.152C311.689 293.731 312.846 294.961 314.204 295.806L313.451 296.908C312.111 296.026 310.973 294.833 310.018 293.327C309.063 294.76 307.833 295.953 306.346 296.944L305.63 295.824C307.172 294.87 308.402 293.64 309.32 292.134ZM297.699 281.908H299.461V280.053H300.673V281.908H303.207V280.035H304.418V281.908H306.162V283.083H304.418V284.992H306.42V286.204H297.423V284.992H299.461V283.083H297.699V281.908ZM300.673 284.992H303.207V283.083H300.673V284.992ZM299.957 291.179V292.63H303.941V291.179H299.957ZM303.941 290.059V288.554H299.957V290.059H303.941ZM299.957 293.731V296.908H298.69V287.379H305.208V295.292C305.208 296.32 304.694 296.853 303.666 296.853H302.031L301.701 295.659L303.28 295.714C303.721 295.714 303.941 295.476 303.941 295.017V293.731H299.957ZM323.366 280.053H324.706V282.275H330.269V283.542H324.706V286.075H332.087V287.36H324.798V292.905H323.476V287.36H315.783V286.075H318.592V281.485H319.932V286.075H323.366V280.053ZM329.351 288.701L330.563 289.343C328.25 294.429 323.806 296.981 317.27 296.999L316.793 295.733C323.145 295.733 327.332 293.383 329.351 288.701ZM320.19 288.187L321.126 289.031C320.024 290.739 318.684 292.226 317.068 293.493L316.242 292.428C317.803 291.216 319.125 289.802 320.19 288.187ZM349.914 284.606V287.636H348.556V285.8H336.071V287.636H334.712V284.606H337.503C337.319 283.982 337.117 283.413 336.897 282.881L338.201 282.679C338.403 283.248 338.605 283.89 338.807 284.606H341.818C341.616 283.909 341.395 283.285 341.157 282.734L342.442 282.532C342.681 283.138 342.901 283.835 343.103 284.606H345.453C345.93 283.835 346.334 283.009 346.665 282.146L347.931 282.605C347.601 283.358 347.234 284.019 346.83 284.606H349.914ZM348.923 280.365L349.584 281.522C346.004 282.073 341.248 282.367 335.3 282.367L334.896 281.136C340.532 281.118 345.214 280.861 348.923 280.365ZM339.596 286.259L340.9 286.424C340.826 286.865 340.734 287.269 340.643 287.673H348.519V288.884H340.312C340.147 289.398 339.982 289.912 339.798 290.39H347.876V291.381C347.013 292.538 345.967 293.548 344.737 294.392C346.353 295.017 348.097 295.457 350.006 295.678L349.419 296.871C347.252 296.577 345.306 295.99 343.543 295.127C341.928 296.008 340.184 296.632 338.329 296.963L337.742 295.788C339.449 295.512 340.955 295.072 342.258 294.447C341.083 293.75 340.018 292.942 339.064 292.006C337.999 294.025 336.622 295.586 334.914 296.724L334.272 295.586C336.475 294.007 338.054 291.785 338.972 288.884H336.126V287.673H339.302C339.412 287.195 339.504 286.736 339.596 286.259ZM340.055 291.528C341.083 292.409 342.203 293.181 343.433 293.805C344.553 293.107 345.508 292.354 346.297 291.528H340.055ZM355.386 279.888L356.689 279.998C356.469 281.283 356.249 282.495 356.028 283.597H359.205V284.349C359.039 287.25 358.433 289.784 357.405 291.932C358.47 292.758 359.333 293.511 360.012 294.172L359.113 295.219C358.488 294.558 357.699 293.86 356.781 293.089C355.863 294.613 354.688 295.916 353.274 296.999L352.375 295.898C353.77 294.888 354.89 293.676 355.753 292.244C354.908 291.565 353.954 290.849 352.925 290.096C353.495 288.48 353.99 286.736 354.431 284.863H352.485V283.597H354.706C354.963 282.385 355.184 281.155 355.386 279.888ZM356.34 291.124C357.222 289.307 357.736 287.214 357.901 284.863H355.753C355.312 286.81 354.853 288.425 354.376 289.711C355.074 290.206 355.734 290.684 356.34 291.124ZM359.829 287.801H363.978V285.488C364.97 284.625 365.906 283.578 366.806 282.33H360.361V281.045H368.311V282.33C367.43 283.597 366.42 284.79 365.318 285.892V287.801H369.064V289.086H365.318V294.961C365.318 296.137 364.823 296.724 363.868 296.724H361.224L360.875 295.476C361.628 295.476 362.454 295.494 363.336 295.494C363.758 295.494 363.978 295.182 363.978 294.558V289.086H359.829V287.801ZM372.516 281.999H377.546V280.053H378.905V281.999H383.238V283.229H378.905V285.414H381.218C382.944 284.184 384.468 282.789 385.771 281.247L386.781 281.981C385.698 283.266 384.541 284.423 383.311 285.414H387.24V286.663H381.64C381.365 286.846 381.09 287.012 380.814 287.195C379.97 287.709 378.997 288.205 377.932 288.701H384.872V296.963H383.55V296.137H375.6V296.963H374.26V290.206C373.268 290.573 372.24 290.922 371.175 291.271L370.624 290.041C373.764 289.307 376.628 288.168 379.235 286.663H370.881V285.414H377.546V283.229H372.516V281.999ZM375.6 292.96V294.961H383.55V292.96H375.6ZM383.55 291.785V289.857H375.6V291.785H383.55ZM402.608 296.724H399.799L399.487 295.347C400.405 295.42 401.286 295.457 402.112 295.457C402.791 295.457 403.14 295.108 403.14 294.429V280.365H404.499V294.778C404.499 296.063 403.856 296.724 402.608 296.724ZM398.22 284.625L399.542 285.139C398.66 288.811 397.504 291.602 396.072 293.511L394.933 292.501C396.402 290.555 397.485 287.93 398.22 284.625ZM408.648 284.184C410.099 287.471 411.219 290.335 411.99 292.777L410.815 293.603C409.988 290.996 408.868 288.113 407.455 284.937L408.648 284.184ZM414.817 280.273C415.955 281.21 416.929 282.146 417.718 283.083L416.782 284.019C416.084 283.138 415.111 282.183 413.862 281.191L414.817 280.273ZM414.358 284.753C415.607 285.69 416.671 286.626 417.516 287.562L416.58 288.48C415.827 287.599 414.78 286.663 413.422 285.671L414.358 284.753ZM416.543 289.619L417.7 290.059C416.892 292.428 415.992 294.668 415.001 296.761L413.771 296.21C414.835 294.062 415.772 291.859 416.543 289.619ZM418.03 284.919H430.093V286.13H426.457V288.095H429.523V295.108C429.523 296.21 429.009 296.761 427.981 296.761H426.457L426.127 295.586L427.596 295.641C428.073 295.641 428.33 295.365 428.33 294.851V289.27H426.457C426.457 289.6 426.439 289.912 426.402 290.206C426.898 290.904 427.412 291.657 427.945 292.501L427.339 293.401C426.916 292.483 426.549 291.748 426.255 291.198C425.925 292.795 425.246 294.264 424.199 295.586L423.336 294.815C424.64 293.199 425.319 291.345 425.356 289.27H422.932C422.914 289.509 422.896 289.747 422.859 289.968C423.336 290.592 423.85 291.271 424.364 292.024L423.758 292.924C423.355 292.116 422.987 291.455 422.694 290.941C422.381 292.263 421.831 293.474 421.023 294.576L420.142 293.805C421.151 292.446 421.72 290.941 421.831 289.27H419.958V296.834H418.765V288.095H421.849V286.13H418.03V284.919ZM422.951 288.095H425.356V286.13H422.951V288.095ZM418.434 281.595H421.188V280.145H422.473V281.595H425.631V280.145H426.916V281.595H429.817V282.844H426.916V284.129H425.631V282.844H422.473V284.147H421.188V282.844H418.434V281.595Z" fill="#111111" fill-opacity="0.5"/>
<path d="M108.848 121.511C106.196 119.41 104.135 117.155 102.666 114.748C101.259 112.463 100.055 109.485 99.0555 105.813L99.0555 111.137C99.0555 112.769 99.1065 115.86 99.2085 120.409C99.2493 121.429 98.9739 122.153 98.3823 122.582C97.7499 123.051 96.5361 123.388 94.7409 123.592C94.7205 122.633 94.4247 121.97 93.8535 121.603C93.3027 121.215 92.1501 120.858 90.3957 120.532L90.4569 120.103L95.1387 120.317C95.5875 120.358 95.9037 120.287 96.0873 120.103C96.2913 119.92 96.3933 119.603 96.3933 119.155L96.3933 102.631L87.5499 102.631L87.5499 101.804L95.8425 101.804L96.8829 100.183L99.8817 101.59C100.147 101.692 100.28 101.835 100.28 102.019C100.28 102.386 99.8715 102.784 99.0555 103.212L99.0555 103.732C99.8919 105.833 100.82 107.71 101.84 109.363C103.125 107.935 104.237 106.435 105.176 104.864C105.747 103.906 106.145 103.059 106.369 102.325L109.766 104.069C110.031 104.191 110.163 104.344 110.163 104.528C110.163 104.732 110.041 104.885 109.796 104.987C109.511 105.109 109.062 105.16 108.45 105.14C106.818 106.955 104.788 108.628 102.36 110.158C104.768 113.749 108.021 116.543 112.122 118.543L111.908 119.093C110.622 119.093 109.602 119.899 108.848 121.511ZM83.2353 122.031L82.9293 121.633C87.2745 117.798 90.0897 113.463 91.3749 108.628L84.0615 108.628L84.0615 107.802L90.9771 107.802L92.1093 106.15L94.9857 107.741C95.2917 107.924 95.4447 108.108 95.4447 108.292C95.4447 108.638 95.0061 108.944 94.1289 109.21C93.0885 112.208 91.7319 114.697 90.0591 116.676C88.3455 118.716 86.0709 120.501 83.2353 122.031ZM99.3003 100.06C98.9127 100.06 98.4945 99.8358 98.0457 99.387C96.6177 97.9998 94.8021 96.7554 92.5989 95.6538L92.7825 95.256C96.2301 95.5008 98.4435 95.9904 99.4227 96.7248C100.218 97.2552 100.616 97.8366 100.616 98.469C100.616 98.9586 100.463 99.3564 100.157 99.6624C99.8919 99.9276 99.6063 100.06 99.3003 100.06ZM115.182 112.514L115.182 111.78L124.729 111.78C124.566 111.678 124.454 111.484 124.392 111.199C124.066 110.321 123.566 109.536 122.893 108.842L123.107 108.506C125.596 108.873 126.84 109.556 126.84 110.556C126.84 111.148 126.575 111.556 126.045 111.78L131.553 111.78C132.063 110.556 132.389 109.444 132.532 108.445L135.714 109.148C135.98 109.21 136.112 109.332 136.112 109.516C136.112 109.883 135.674 110.107 134.796 110.189C134.266 110.719 133.603 111.25 132.807 111.78L138.897 111.78L140.549 109.577L143.487 111.749C143.67 111.872 143.762 111.994 143.762 112.117C143.762 112.382 143.426 112.514 142.752 112.514L123.046 112.514C122.985 113.432 122.873 114.371 122.709 115.33L125.708 115.33L126.657 113.769L129.319 115.054C129.584 115.197 129.717 115.35 129.717 115.513C129.717 115.84 129.329 116.186 128.554 116.554C128.554 117.614 128.493 118.787 128.37 120.073C128.268 121.133 127.932 121.888 127.361 122.337C126.749 122.827 125.678 123.143 124.148 123.286C124.066 122.551 123.811 122.041 123.383 121.756C122.975 121.47 122.138 121.205 120.873 120.96L120.965 120.501L124.484 120.654C124.974 120.674 125.321 120.593 125.525 120.409C125.729 120.226 125.871 119.858 125.953 119.308C126.096 118.247 126.167 117.155 126.167 116.033L122.556 116.033C122.108 117.91 121.292 119.44 120.108 120.623C118.966 121.786 117.283 122.816 115.059 123.714L114.784 123.286C116.314 122.123 117.477 120.991 118.272 119.889C119.109 118.747 119.69 117.461 120.017 116.033L115.824 116.033L115.824 115.33L120.17 115.33C120.333 114.473 120.425 113.534 120.445 112.514L115.182 112.514ZM135.806 109.057L135.806 108.261L122.618 108.261L122.618 108.445C122.618 108.873 122.403 109.128 121.975 109.21C121.343 109.332 120.649 109.393 119.894 109.393C119.955 108.332 119.986 107.353 119.986 106.456L119.986 105.844C119.986 104.987 119.976 104.13 119.955 103.273L123.413 104.222L135.286 104.222L136.204 102.692L139.111 103.916C139.397 104.059 139.539 104.212 139.539 104.375C139.539 104.701 139.172 105.058 138.438 105.446L138.438 105.874C138.438 106.445 138.468 107.17 138.53 108.047C138.53 108.414 138.356 108.659 138.009 108.781C137.418 108.924 136.683 109.016 135.806 109.057ZM138.56 122.857L138.56 121.511L133.389 121.511L133.389 122.153C133.389 122.521 133.236 122.745 132.93 122.827C132.277 122.99 131.583 123.071 130.849 123.071C130.931 120.991 130.971 119.328 130.971 118.084L130.971 117.013C130.971 116.033 130.951 115.054 130.91 114.075L134.154 115.085L138.04 115.085L139.019 113.432L141.773 114.748C142.079 114.911 142.232 115.085 142.232 115.268C142.232 115.574 141.834 115.921 141.039 116.309L141.039 117.166C141.039 117.839 141.069 119.43 141.131 121.939C141.151 122.266 140.998 122.48 140.672 122.582C140.039 122.765 139.335 122.857 138.56 122.857ZM115.702 99.3258L115.702 98.5914L127.667 98.5914C127.626 97.3674 127.605 96.3066 127.605 95.409L131.43 95.715C131.736 95.7558 131.889 95.8782 131.889 96.0822C131.889 96.4698 131.41 96.8166 130.451 97.1226L130.451 98.5914L138.071 98.5914L139.723 96.3576L142.752 98.5608C142.936 98.724 143.028 98.8566 143.028 98.9586C143.028 99.2034 142.691 99.3258 142.018 99.3258L130.451 99.3258L130.451 101.651L136.938 101.651L138.438 99.6624L141.222 101.651C141.406 101.774 141.498 101.896 141.498 102.019C141.498 102.263 141.171 102.386 140.519 102.386L117.324 102.386L117.324 101.651L127.667 101.651L127.667 99.693L127.667 99.3258L115.702 99.3258ZM135.806 104.895L122.618 104.895L122.618 107.588L135.806 107.588L135.806 104.895ZM138.56 115.789L133.389 115.789L133.389 120.776L138.56 120.776L138.56 115.789ZM147.74 123.224C147.557 123.224 147.424 123.082 147.342 122.796L146.424 119.308C146.955 119.267 147.516 119.206 148.107 119.124L148.107 113.769C148.107 112.157 148.067 110.536 147.985 108.904L151.045 109.21C151.331 109.25 151.473 109.363 151.473 109.546C151.473 109.913 151.106 110.23 150.372 110.495L150.372 118.757C151.127 118.614 151.881 118.471 152.636 118.328L152.636 111.688C152.636 109.873 152.606 108.149 152.544 106.517L155.788 106.792C156.074 106.833 156.216 106.955 156.216 107.159C156.176 107.567 155.778 107.894 155.023 108.139L155.023 111.137L155.972 111.137L157.226 109.516L159.368 111.137C159.491 111.26 159.552 111.362 159.552 111.443C161.837 109.995 163.673 108.557 165.06 107.129C164.04 105.986 163.142 104.569 162.367 102.875C161.388 104.283 160.205 105.65 158.817 106.976L158.42 106.67C159.97 103.977 161.163 101.233 162 98.4384C162.306 97.5 162.52 96.5004 162.642 95.4396L166.345 96.2964C166.59 96.3576 166.712 96.48 166.712 96.6636C166.712 97.1328 166.202 97.4184 165.182 97.5204C164.897 98.2548 164.642 98.826 164.417 99.234L169.374 99.234L170.598 97.6734L173.628 99.5094C173.893 99.6726 174.026 99.8358 174.026 99.999C174.026 100.407 173.475 100.723 172.373 100.948C171.108 103.477 169.782 105.476 168.395 106.945C170.292 107.884 172.832 108.598 176.015 109.087L175.892 109.577C175.341 109.72 174.913 109.964 174.607 110.311C174.281 110.678 173.985 111.25 173.72 112.025C170.66 111.066 168.293 109.924 166.62 108.598C165.029 109.903 163.061 111.056 160.715 112.055L164.142 112.973L169.344 112.973L170.323 111.443L173.291 112.79C173.597 112.933 173.75 113.086 173.75 113.249C173.75 113.432 173.679 113.596 173.536 113.738C173.373 113.902 173.057 114.085 172.587 114.289L172.587 117.013C172.587 117.931 172.618 119.767 172.679 122.521C172.679 122.765 172.649 122.939 172.587 123.041C172.506 123.163 172.363 123.245 172.159 123.286C171.343 123.469 170.598 123.561 169.925 123.561L169.925 121.603L163.407 121.603L163.407 122.582C163.407 123.031 163.203 123.286 162.795 123.347C162.204 123.469 161.48 123.551 160.623 123.592C160.704 121.572 160.745 119.665 160.745 117.869L160.745 115.483C160.745 114.116 160.725 112.973 160.684 112.055C159.99 112.361 159.001 112.739 157.716 113.188L157.471 112.729C158.001 112.443 158.471 112.157 158.879 111.872L158.664 111.872L155.023 111.872L155.023 117.869C157.226 117.359 158.562 117.043 159.032 116.921L159.215 117.41C155.951 119.063 152.361 120.552 148.444 121.878C148.322 122.776 148.087 123.224 147.74 123.224ZM148.26 107.282C148.342 105.405 148.383 103.855 148.383 102.631L148.383 100.397C148.383 99.4788 148.362 98.265 148.322 96.7554L151.596 97.704L154.87 97.704L155.727 96.2046L158.481 97.4898C158.726 97.5918 158.848 97.7346 158.848 97.9182C158.848 98.2446 158.481 98.6016 157.746 98.9892L157.746 100.764C157.746 102.09 157.777 103.64 157.838 105.415C157.838 105.803 157.685 106.027 157.379 106.088C156.686 106.272 156.002 106.364 155.329 106.364L155.329 105.415L150.831 105.415L150.831 106.333C150.831 106.7 150.637 106.935 150.249 107.037C149.515 107.18 148.852 107.261 148.26 107.282ZM169.925 113.8L163.407 113.8L163.407 120.776L169.925 120.776L169.925 113.8ZM155.329 98.469L150.831 98.469L150.831 104.681L155.329 104.681L155.329 98.469ZM164.019 100.03C163.673 100.744 163.275 101.458 162.826 102.172C164.03 103.661 165.203 104.824 166.345 105.66C167.63 104.069 168.711 102.192 169.589 100.03L164.019 100.03ZM185.348 123.622C185.429 119.95 185.47 117.217 185.47 115.421L185.47 108.261C183.675 110.138 181.441 111.913 178.769 113.585L178.493 113.157C182.349 109.465 185.327 105.436 187.428 101.07L178.677 101.07L178.677 100.213L187.826 100.213C188.112 99.6012 188.316 99.132 188.438 98.8056C188.948 97.5 189.275 96.3066 189.417 95.2254L193.518 96.1434C193.803 96.2046 193.946 96.3474 193.946 96.5718C193.946 97.0206 193.365 97.3164 192.202 97.4592C191.753 98.5404 191.345 99.4584 190.978 100.213L201.902 100.213L203.738 97.7958L206.951 100.183C207.114 100.346 207.196 100.478 207.196 100.58C207.176 100.866 206.839 101.029 206.186 101.07L190.55 101.07C189.897 102.355 189.091 103.681 188.132 105.048L188.989 105.293L199.24 105.293L200.28 103.457L203.555 104.895C203.861 105.038 204.014 105.191 204.014 105.354C204.014 105.742 203.565 106.17 202.667 106.639L202.667 111.964C202.667 113.086 202.698 115.88 202.759 120.348C202.779 121.327 202.473 122.051 201.841 122.521C201.188 123.01 200.015 123.388 198.322 123.653C198.22 122.816 197.883 122.204 197.312 121.817C196.741 121.429 195.711 121.093 194.222 120.807L194.313 120.287L198.567 120.409C199.016 120.43 199.332 120.348 199.515 120.164C199.719 119.981 199.821 119.675 199.821 119.246L199.821 115.758L188.255 115.758L188.255 122.582C188.255 122.99 188.091 123.235 187.765 123.316C186.908 123.52 186.102 123.622 185.348 123.622ZM199.821 106.15L188.255 106.15L188.255 110.097L199.821 110.097L199.821 106.15ZM188.255 110.954L188.255 114.901L199.821 114.901L199.821 110.954L188.255 110.954ZM235.47 121.878C233.675 120.266 232.339 118.685 231.462 117.135C230.646 115.687 229.942 113.738 229.35 111.29C228.596 111.596 227.8 111.902 226.964 112.208C227.29 113.392 227.453 114.83 227.453 116.523C227.453 118.971 227.035 120.725 226.199 121.786C225.423 122.786 224.057 123.398 222.098 123.622C221.976 122.725 221.67 122.102 221.18 121.756C220.711 121.409 219.752 121.082 218.304 120.776L218.426 120.287L222.19 120.44C223.047 120.481 223.669 120.215 224.057 119.644C224.505 118.971 224.73 117.839 224.73 116.248C224.73 115.432 224.72 114.84 224.699 114.473C222.496 116.248 220.334 117.706 218.212 118.849C215.968 120.052 213.418 121.072 210.562 121.909L210.348 121.45C213.224 120.022 215.846 118.461 218.212 116.768C220.334 115.238 222.374 113.494 224.332 111.535C224.169 110.944 223.975 110.403 223.751 109.913C221.649 111.545 219.63 112.871 217.692 113.891C215.611 114.993 213.316 115.931 210.807 116.707L210.623 116.248C215.336 113.8 219.273 111.025 222.435 107.924C222.231 107.659 221.996 107.394 221.731 107.129C218.63 108.965 215.081 110.434 211.082 111.535L210.899 111.076C215.366 108.873 218.773 106.751 221.119 104.711L214.785 104.711L214.785 103.885L229.84 103.885L231.462 101.774L234.369 103.885C234.532 104.028 234.614 104.15 234.614 104.252C234.593 104.518 234.277 104.671 233.665 104.711L225.25 104.711C224.169 105.548 223.241 106.201 222.465 106.67C224.587 108.037 225.984 109.587 226.658 111.321C230.064 109.138 232.298 107.292 233.359 105.782L236.205 107.955C236.429 108.118 236.541 108.261 236.541 108.383C236.541 108.608 236.388 108.761 236.082 108.842C235.756 108.924 235.256 108.883 234.583 108.72C233.216 109.536 231.707 110.291 230.054 110.984C231.095 112.943 232.268 114.544 233.573 115.789C234.981 117.135 236.756 118.247 238.898 119.124L238.714 119.614C237.368 119.777 236.286 120.532 235.47 121.878ZM212.123 104.926C211.715 104.926 211.368 104.783 211.082 104.497C210.797 104.212 210.654 103.865 210.654 103.457C210.633 102.743 210.929 102.172 211.541 101.743C212.765 100.764 213.602 99.4176 214.05 97.704L214.387 97.7346C214.509 98.5098 214.581 99.081 214.601 99.4482L223.567 99.4482C223.424 99.2646 223.322 99.0402 223.261 98.775C222.975 97.5714 222.425 96.4902 221.609 95.5314L221.823 95.2866C224.781 95.8374 226.26 96.7554 226.26 98.0406C226.26 98.6526 226.005 99.1218 225.495 99.4482L234.124 99.4482L235.532 97.7346L238.622 99.9378C238.949 100.183 239.112 100.387 239.112 100.55C239.112 100.897 238.5 101.101 237.276 101.162C236.154 101.917 234.94 102.58 233.634 103.151L233.298 102.906L234.614 100.274L214.632 100.274C214.632 100.621 214.591 101.182 214.509 101.957C214.428 102.773 214.142 103.477 213.653 104.069C213.183 104.64 212.673 104.926 212.123 104.926ZM267.111 122.582L267.111 119.675L264.387 119.675L264.387 121.909C264.387 122.133 264.347 122.306 264.265 122.429C264.183 122.551 264.03 122.643 263.806 122.704C263.357 122.827 262.735 122.908 261.939 122.949C262.062 118.053 262.123 114.208 262.123 111.413L262.123 105.905C262.123 104.803 262.082 102.58 262.001 99.234L264.969 100.274L266.621 100.274L267.662 98.6526L270.324 99.999C270.609 100.121 270.752 100.274 270.752 100.458C270.752 100.805 270.324 101.182 269.467 101.59L269.467 109.485C269.467 109.546 269.528 113.585 269.651 121.603C269.651 121.949 269.467 122.184 269.1 122.306C268.508 122.47 267.845 122.561 267.111 122.582ZM255.513 122.827C255.432 122.031 255.187 121.48 254.779 121.174C254.432 120.909 253.657 120.634 252.453 120.348L252.545 119.858L255.269 120.011C256.003 120.052 256.493 119.95 256.737 119.705C257.003 119.44 257.166 118.869 257.227 117.992C257.411 114.789 257.502 109.781 257.502 102.967L255.452 102.967C255.432 108.516 254.861 112.81 253.739 115.85C252.617 118.889 250.781 121.501 248.231 123.683L247.863 123.347C249.761 120.613 251.097 117.818 251.872 114.962C252.708 111.862 253.127 107.863 253.127 102.967L251.107 102.967L251.107 102.141L253.127 102.141L253.127 99.9378C253.127 98.3262 253.076 96.8268 252.974 95.4396L256.34 95.715C256.625 95.7558 256.768 95.8782 256.768 96.0822C256.768 96.4494 256.329 96.7758 255.452 97.0614L255.452 102.141L256.982 102.141L257.961 100.458L260.654 101.835C260.94 101.978 261.083 102.131 261.083 102.294C261.083 102.641 260.675 103.039 259.859 103.487C259.859 109.016 259.787 113.881 259.644 118.084C259.583 119.756 259.257 120.929 258.665 121.603C258.094 122.235 257.043 122.643 255.513 122.827ZM243.365 117.533C243.426 114.962 243.457 112.086 243.457 108.904L243.457 104.681C243.457 101.58 243.437 99.5094 243.396 98.469L246.303 99.54L247.68 99.54L248.598 97.9794L251.076 99.234C251.382 99.3972 251.535 99.5502 251.535 99.693C251.535 99.9786 251.138 100.336 250.342 100.764L250.342 106.884C250.383 109.638 250.413 112.382 250.434 115.115C250.434 115.503 250.271 115.738 249.944 115.819C249.332 115.962 248.741 116.054 248.169 116.095L248.169 113.8L245.691 113.8L245.691 116.523C245.691 116.931 245.487 117.176 245.079 117.257C244.589 117.38 244.018 117.472 243.365 117.533ZM267.111 101.101L264.387 101.101L264.387 118.849L267.111 118.849L267.111 101.101ZM248.169 100.305L245.691 100.305L245.691 113.035L248.169 113.035L248.169 100.305ZM284.002 102.263L284.002 101.437L288.194 101.437C288.174 100.009 288.133 97.9998 288.072 95.409L291.683 95.6538C291.989 95.6742 292.142 95.7966 292.142 96.021C292.142 96.429 291.683 96.786 290.765 97.092L290.765 122.398C290.765 122.908 290.571 123.214 290.183 123.316C289.408 123.5 288.694 123.581 288.041 123.561C288.082 120.848 288.123 118.135 288.164 115.421L283.084 115.421L283.084 116.217C283.084 116.584 282.911 116.809 282.564 116.89C281.87 117.074 281.187 117.176 280.514 117.196L280.514 114.534L277.821 114.534L277.821 117.655C277.821 118.063 277.617 118.318 277.209 118.42C276.556 118.604 275.883 118.696 275.189 118.696C275.291 114.371 275.342 111.321 275.342 109.546L275.342 104.742C275.342 102.62 275.312 100.56 275.25 98.5608L278.555 99.6012L280.055 99.6012L281.003 98.01L283.757 99.2952C284.063 99.4584 284.216 99.6216 284.216 99.7848C284.216 99.9684 284.135 100.142 283.971 100.305C283.808 100.468 283.482 100.672 282.992 100.917L282.992 107.006C282.992 108.598 283.013 111.127 283.053 114.595L288.164 114.595C288.184 114.085 288.194 113.422 288.194 112.606L288.194 108.536L284.094 108.536L284.094 107.71L288.194 107.71L288.194 102.784L288.194 102.263L284.002 102.263ZM293.794 123.53L293.794 102.814C293.794 100.183 293.753 97.7244 293.672 95.4396L297.313 95.715C297.619 95.7354 297.772 95.8476 297.772 96.0516C297.772 96.48 297.323 96.8472 296.426 97.1532L296.426 101.437L298.2 101.437L299.7 99.4176L302.362 101.437C302.525 101.539 302.607 101.662 302.607 101.804C302.586 102.09 302.28 102.243 301.689 102.263L296.426 102.263L296.426 107.71L298.292 107.71L299.7 105.874L302.117 107.71C302.28 107.853 302.362 107.986 302.362 108.108C302.342 108.353 302.036 108.496 301.444 108.536L296.426 108.536L296.426 110.893L296.426 114.595L298.782 114.595L300.281 112.545L302.943 114.565C303.107 114.707 303.188 114.84 303.188 114.962C303.168 115.228 302.862 115.381 302.27 115.421L296.456 115.421C296.497 118.849 296.538 121.154 296.579 122.337C296.579 122.827 296.354 123.133 295.905 123.255C295.089 123.439 294.386 123.53 293.794 123.53ZM280.514 100.397L277.821 100.397L277.821 113.738L280.514 113.738L280.514 100.397ZM328.433 123.592L328.433 121.327L316.469 121.327L316.469 122.49C316.469 122.918 316.275 123.184 315.887 123.286C315.132 123.449 314.367 123.53 313.592 123.53C313.674 120.919 313.715 118.747 313.715 117.013L313.715 115.238C313.715 114.748 313.694 113.422 313.653 111.26L317.325 112.331L320.447 112.331L320.447 106.058C320.447 104.14 320.406 102.529 320.324 101.223L324.119 101.529C324.425 101.57 324.578 101.682 324.578 101.866C324.578 102.294 324.108 102.651 323.17 102.937L323.17 106.425L328.831 106.425L330.453 104.191L333.482 106.394C333.625 106.537 333.696 106.66 333.696 106.762C333.676 107.047 333.35 107.2 332.717 107.221L323.17 107.221L323.17 112.331L327.974 112.331L328.984 110.617L332.075 112.025C332.36 112.188 332.503 112.341 332.503 112.484C332.503 112.667 332.421 112.841 332.258 113.004C332.054 113.208 331.718 113.432 331.248 113.677L331.248 116.523C331.248 117.849 331.289 119.858 331.371 122.551C331.371 122.776 331.33 122.949 331.248 123.071C331.187 123.173 331.055 123.245 330.851 123.286C330.3 123.449 329.494 123.551 328.433 123.592ZM306.279 123.653L305.85 123.377C306.972 120.623 307.737 118.022 308.145 115.574C308.574 113.045 308.788 109.74 308.788 105.66L308.788 103.732C308.788 101.753 308.757 99.999 308.696 98.469L312.429 99.4482L320.783 99.4482C320.579 99.3054 320.426 99.0402 320.324 98.6526C319.937 97.5306 319.314 96.4596 318.458 95.4396L318.672 95.1948C321.773 95.664 323.323 96.582 323.323 97.9488C323.323 98.6424 323.027 99.1422 322.436 99.4482L329.412 99.4482L331.126 97.1838L334.186 99.4176C334.37 99.5808 334.461 99.7236 334.461 99.846C334.461 100.111 334.135 100.244 333.482 100.244L311.573 100.244L311.573 105.385C311.573 110.036 311.185 113.657 310.41 116.248C309.675 118.696 308.298 121.164 306.279 123.653ZM328.433 113.157L316.469 113.157L316.469 120.501L328.433 120.501L328.433 113.157ZM342.509 123.714L341.928 122.98C343.498 122.082 344.325 121.276 344.406 120.562C344.488 120.032 344.243 119.736 343.672 119.675C343.121 119.614 342.682 119.399 342.356 119.032C342.03 118.665 341.866 118.206 341.866 117.655C341.866 117.043 342.091 116.523 342.54 116.095C343.009 115.646 343.58 115.421 344.253 115.421C344.988 115.421 345.579 115.666 346.028 116.156C346.497 116.666 346.732 117.339 346.732 118.175C346.732 120.644 345.324 122.49 342.509 123.714ZM391.591 123.53C391.551 122.674 391.296 122.072 390.826 121.725C390.418 121.419 389.511 121.093 388.103 120.746L388.195 120.226L391.653 120.348C392.469 120.389 392.877 120.042 392.877 119.308L392.877 103.977L385.196 103.977L385.196 112.973C385.196 115.544 385.227 118.42 385.288 121.603C385.288 122.031 385.094 122.286 384.706 122.368C383.972 122.572 383.187 122.653 382.35 122.612C382.432 119.573 382.473 116.513 382.473 113.432L382.473 103.977L374.945 103.977L374.945 122.521C374.945 122.949 374.761 123.204 374.394 123.286C373.782 123.428 373.038 123.52 372.16 123.561C372.242 120.317 372.283 117.053 372.283 113.769L372.283 107.343C372.283 105.16 372.252 103.375 372.191 101.988L375.832 103.151L382.473 103.151L382.473 98.5914L370.049 98.5914L370.049 97.7652L392.968 97.7652L394.743 95.409L398.079 97.704C398.262 97.8264 398.354 97.9488 398.354 98.0712C398.334 98.3772 398.017 98.5506 397.405 98.5914L385.196 98.5914L385.196 103.151L392.265 103.151L393.336 101.437L396.396 102.722C396.722 102.865 396.885 103.028 396.885 103.212C396.885 103.661 396.447 104.13 395.569 104.62L395.569 111.749C395.569 114.116 395.6 116.982 395.661 120.348C395.682 121.327 395.386 122.062 394.774 122.551C394.162 123.041 393.101 123.367 391.591 123.53ZM378.954 117.655C378.464 117.655 378.158 117.349 378.036 116.737C377.709 115.207 377.128 113.82 376.291 112.576L376.567 112.3C378.056 112.953 379.096 113.596 379.688 114.228C380.198 114.758 380.453 115.36 380.453 116.033C380.331 117.074 379.831 117.614 378.954 117.655ZM389.633 117.563C389.143 117.563 388.837 117.268 388.715 116.676C388.368 115.126 387.705 113.718 386.726 112.453L387.001 112.147C388.47 112.8 389.531 113.453 390.184 114.106C390.755 114.656 391.041 115.248 391.041 115.88C390.959 116.982 390.49 117.543 389.633 117.563ZM389.725 110.984C389.215 110.984 388.899 110.689 388.776 110.097C388.45 108.791 387.807 107.445 386.848 106.058L387.124 105.782C388.613 106.456 389.664 107.078 390.276 107.649C390.826 108.179 391.102 108.761 391.102 109.393C391.102 109.903 390.969 110.301 390.704 110.587C390.459 110.852 390.133 110.984 389.725 110.984ZM379.229 111.107C378.739 111.107 378.423 110.811 378.28 110.219C377.934 108.832 377.322 107.506 376.444 106.241L376.72 105.935C379.331 107.057 380.637 108.261 380.637 109.546C380.535 110.546 380.065 111.066 379.229 111.107ZM404.046 99.1728L404.046 98.3466L422.191 98.3466L423.905 96.0822L426.965 98.316C427.149 98.4384 427.24 98.571 427.24 98.7138C427.22 98.9994 426.894 99.1524 426.261 99.1728L416.255 99.1728L416.255 102.692C416.255 104.405 416.143 106.048 415.918 107.618L424.272 107.618L426.169 105.048L429.535 107.557C429.719 107.72 429.811 107.853 429.811 107.955C429.79 108.241 429.454 108.404 428.801 108.445L417.326 108.445C418.815 111.423 420.498 113.769 422.375 115.483C424.395 117.319 426.996 118.777 430.178 119.858L429.933 120.562C428.526 120.603 427.444 121.521 426.69 123.316C423.793 121.48 421.59 119.45 420.08 117.227C418.591 115.044 417.387 112.117 416.469 108.445L415.765 108.445C415.113 111.974 413.664 114.942 411.42 117.349C409.258 119.675 406.035 121.786 401.751 123.683L401.414 123.224C404.902 120.736 407.503 118.4 409.217 116.217C410.992 113.932 412.175 111.341 412.767 108.445L401.751 108.445L401.751 107.618L412.92 107.618C413.164 106.068 413.287 104.354 413.287 102.478L413.287 99.1728L404.046 99.1728ZM85.5609 169.84L85.5609 169.014L95.8731 169.014L95.8731 157.814C95.8731 156.529 95.8221 154.05 95.7201 150.378L99.6063 150.684C99.9123 150.725 100.065 150.858 100.065 151.082C100.065 151.47 99.6063 151.817 98.6883 152.123L98.6883 169.014L104.472 169.014L106.155 166.78L109.184 168.983C109.347 169.126 109.429 169.248 109.429 169.35C109.409 169.636 109.072 169.799 108.419 169.84L98.6883 169.84L98.6883 175.991L106.277 175.991L108.205 173.42L111.54 175.991C111.704 176.154 111.785 176.286 111.785 176.388C111.744 176.674 111.418 176.827 110.806 176.847L83.6025 176.847L83.6025 175.991L95.8731 175.991L95.8731 169.84L85.5609 169.84ZM99.5757 167.025L99.0861 166.719C100.902 163.047 102.167 159.62 102.881 156.437C103.166 155.172 103.34 154.01 103.401 152.949L107.226 153.806C107.552 153.867 107.715 154.02 107.715 154.265C107.715 154.713 107.205 155.019 106.185 155.183C105.777 156.651 105.278 158.079 104.686 159.467C108.542 161.262 110.5 162.894 110.561 164.363C110.439 165.566 109.908 166.199 108.97 166.26C108.48 166.28 108.103 165.954 107.838 165.281C106.981 163.343 105.839 161.619 104.411 160.109C103.207 162.618 101.595 164.924 99.5757 167.025ZM92.8131 165.923C92.2827 165.923 91.9461 165.587 91.8033 164.913C91.2729 163.098 90.5181 161.476 89.5389 160.048C88.2333 162.843 86.3157 165.546 83.7861 168.157L83.3883 167.82C85.6935 163.7 87.2745 159.864 88.1313 156.315C88.4781 154.887 88.7025 153.612 88.8045 152.49L92.5377 153.377C92.8437 153.479 92.9967 153.632 92.9967 153.836C92.9967 154.265 92.4867 154.571 91.4667 154.754C90.9975 156.427 90.4365 157.998 89.7837 159.467C92.9253 161.119 94.4757 162.69 94.4349 164.179C94.3125 165.301 93.7719 165.882 92.8131 165.923ZM116.069 162.037L115.855 161.547C118.874 160.181 121.261 158.834 123.015 157.508C123.872 156.876 124.607 156.223 125.219 155.55L128.034 156.927C128.319 157.09 128.462 157.263 128.462 157.447C128.462 157.773 128.166 157.937 127.575 157.937C127.391 157.937 127.136 157.916 126.81 157.875C124.26 159.283 121.842 160.354 119.558 161.088L121.975 161.853L125.525 161.853C125.729 160.772 125.861 159.711 125.922 158.671L129.197 159.283C129.482 159.344 129.625 159.467 129.625 159.65C129.625 160.038 129.176 160.272 128.279 160.354C127.83 160.905 127.35 161.405 126.84 161.853L136.694 161.853L137.734 160.201L140.672 161.547C140.957 161.69 141.1 161.843 141.1 162.006C141.1 162.394 140.692 162.782 139.876 163.169L139.876 168.555C139.876 171.635 139.917 174.654 139.998 177.612C139.998 177.959 139.835 178.184 139.509 178.286C138.836 178.428 138.081 178.52 137.244 178.561L137.244 176.572L121.271 176.572L121.271 177.643C121.271 177.847 121.23 178 121.149 178.102C121.067 178.204 120.935 178.275 120.751 178.316C120.037 178.479 119.292 178.561 118.517 178.561C118.599 175.562 118.64 172.533 118.64 169.473L118.64 165.801C118.64 163.781 118.629 162.302 118.609 161.364C117.997 161.547 117.15 161.772 116.069 162.037ZM137.244 162.649L121.271 162.649L121.271 175.776L137.244 175.776L137.244 162.649ZM122.097 175.195L121.853 174.705C124.79 173.318 127.065 171.911 128.676 170.483C127.799 169.993 126.616 169.432 125.127 168.8C124.352 169.616 123.413 170.462 122.312 171.339L121.883 171.003C124.086 168.045 125.494 165.362 126.106 162.955L129.197 163.567C129.482 163.628 129.625 163.751 129.625 163.934C129.625 164.301 129.176 164.536 128.279 164.638C127.932 165.209 127.697 165.576 127.575 165.74L131.767 165.74L132.899 164.301L135.531 165.77C135.837 165.954 135.99 166.117 135.99 166.26C135.99 166.627 135.572 166.882 134.735 167.025C133.919 168.208 133.093 169.208 132.257 170.024C134.745 170.962 135.99 172.023 135.99 173.206C135.888 174.185 135.439 174.695 134.643 174.736C134.297 174.736 133.96 174.542 133.634 174.155C132.654 173.155 131.614 172.288 130.512 171.554C128.513 173.063 125.708 174.277 122.097 175.195ZM116.865 159.008C116.457 159.008 116.12 158.875 115.855 158.61C115.59 158.345 115.457 157.988 115.457 157.539C115.457 157.008 115.733 156.498 116.283 156.009C117.405 155.091 118.119 153.867 118.425 152.337L118.793 152.367C118.976 153.061 119.088 153.612 119.129 154.02L128.217 154.02C128.095 153.897 128.003 153.683 127.942 153.377C127.656 152.296 127.167 151.327 126.473 150.47L126.718 150.164C128.309 150.47 129.421 150.817 130.053 151.205C130.686 151.592 131.002 152.092 131.002 152.704C131.002 153.255 130.737 153.693 130.206 154.02L138.774 154.02L140.121 152.52L143.181 154.571C143.466 154.775 143.609 154.958 143.609 155.121C143.609 155.55 143.048 155.754 141.926 155.733C140.151 156.651 139.05 157.202 138.621 157.386C138.866 157.467 139.213 157.59 139.662 157.753C140.927 158.243 141.559 158.906 141.559 159.742C141.498 160.599 141.11 161.048 140.396 161.088C140.029 161.088 139.672 160.946 139.325 160.66C137.367 159.069 134.45 157.702 130.574 156.56L130.757 156.101C133.797 156.386 136.163 156.753 137.856 157.202L139.111 154.815L119.221 154.815C119.241 155.305 119.221 155.856 119.16 156.468C119.078 157.243 118.813 157.865 118.364 158.334C117.936 158.783 117.436 159.008 116.865 159.008ZM127.055 166.505C126.443 167.321 125.953 167.922 125.586 168.31C127.116 168.596 128.554 168.922 129.9 169.289C130.757 168.351 131.461 167.423 132.012 166.505L127.055 166.505ZM155.451 173.481L155.054 173.053C157.42 170.523 159.052 168.218 159.95 166.137C160.949 163.812 161.49 160.844 161.571 157.233L156.431 157.233L156.431 156.407L161.602 156.407L161.602 156.345L161.602 155.06C161.602 153.408 161.561 151.817 161.48 150.287L165.427 150.593C165.733 150.613 165.886 150.746 165.886 150.99C165.886 151.358 165.407 151.715 164.448 152.061L164.448 155.427L164.448 156.407L169.436 156.407L170.568 154.509L173.689 155.978C173.995 156.141 174.148 156.315 174.148 156.498C174.148 156.906 173.709 157.335 172.832 157.784C172.832 160.762 172.74 164.138 172.557 167.912C172.496 169.646 172.067 170.891 171.272 171.645C170.476 172.421 169.068 172.92 167.049 173.145C166.967 172.288 166.661 171.666 166.131 171.278C165.621 170.911 164.57 170.544 162.979 170.177L163.101 169.626L167.294 169.901C168.212 169.962 168.834 169.82 169.16 169.473C169.487 169.126 169.68 168.361 169.742 167.178C169.925 164.342 170.017 161.027 170.017 157.233L164.417 157.233C164.274 161.517 163.52 164.842 162.153 167.208C160.908 169.371 158.675 171.462 155.451 173.481ZM148.689 178.53C148.526 178.53 148.362 178.388 148.199 178.102L146.516 175.042C147.924 174.512 149.321 173.726 150.708 172.686L150.708 163.108L146.792 163.108L146.792 162.282L150.127 162.282L151.198 160.476L154.258 161.945C154.544 162.108 154.686 162.272 154.686 162.435C154.686 162.639 154.595 162.822 154.411 162.986C154.248 163.149 153.911 163.363 153.401 163.628L153.401 172.104C153.401 172.982 154.013 173.645 155.237 174.093C156.686 174.624 159.103 174.93 162.489 175.011C166.202 175.073 170.588 174.787 175.647 174.155L175.647 174.736C174.689 175.103 174.138 176.001 173.995 177.429C170.507 177.653 167.202 177.755 164.081 177.735C160.613 177.714 158.001 177.347 156.247 176.633C154.635 175.98 153.391 174.858 152.514 173.267C151.535 174.471 150.402 175.705 149.117 176.97C149.24 178.01 149.097 178.53 148.689 178.53ZM152.453 157.875C151.922 157.875 151.555 157.569 151.351 156.957C150.78 154.877 149.841 153.051 148.536 151.48L148.781 151.174C150.841 151.929 152.3 152.694 153.156 153.469C153.932 154.163 154.319 154.958 154.319 155.856C154.319 156.427 154.136 156.906 153.768 157.294C153.401 157.682 152.963 157.875 152.453 157.875ZM187.643 178.071C187.581 177.235 187.398 176.684 187.092 176.419C186.745 176.093 185.939 175.797 184.674 175.532L184.766 175.073L187.918 175.195C188.285 175.215 188.55 175.144 188.714 174.981C188.877 174.818 188.958 174.552 188.958 174.185L188.958 170.789L183.359 170.789L183.359 177.123C183.359 177.368 183.328 177.541 183.267 177.643C183.206 177.745 183.083 177.816 182.9 177.857C182.206 178.02 181.451 178.122 180.635 178.163C180.737 175.368 180.788 172.268 180.788 168.861L180.788 164.454C180.788 163.781 180.758 162.618 180.696 160.966L184.215 161.945L188.469 161.945L189.448 160.354L192.263 161.67C192.549 161.833 192.692 161.996 192.692 162.159C192.692 162.486 192.294 162.863 191.498 163.292L191.498 174.767C191.519 175.848 191.274 176.613 190.764 177.062C190.233 177.531 189.193 177.867 187.643 178.071ZM197.435 177.184C196.292 177.184 195.497 176.96 195.048 176.511C194.579 176.042 194.344 175.226 194.344 174.063L194.344 167.698C194.344 166.229 194.313 164.985 194.252 163.965L197.741 164.271C198.047 164.312 198.2 164.434 198.2 164.638C198.2 164.985 197.771 165.311 196.914 165.617L196.914 170.024C199.832 168.208 201.892 166.433 203.096 164.699L205.911 166.627C206.135 166.79 206.247 166.933 206.247 167.055C206.247 167.545 205.697 167.678 204.595 167.453C202.698 168.84 200.138 170.003 196.914 170.942L196.914 173.328C196.914 173.838 197.006 174.185 197.19 174.369C197.373 174.552 197.7 174.644 198.169 174.644L202.361 174.644C202.81 174.644 203.157 174.563 203.402 174.399C203.646 174.236 203.84 173.961 203.983 173.573L205.085 170.024L205.574 170.115L205.697 173.298C205.717 173.889 205.921 174.318 206.309 174.583C206.737 174.869 206.951 175.205 206.951 175.593C206.951 176.654 205.799 177.184 203.493 177.184L197.435 177.184ZM197.465 162.404C196.323 162.404 195.517 162.18 195.048 161.731C194.558 161.262 194.313 160.436 194.313 159.252L194.313 153.959C194.313 152.531 194.283 151.449 194.222 150.715L197.71 151.021C198.016 151.062 198.169 151.184 198.169 151.388C198.169 151.755 197.741 152.082 196.884 152.367L196.884 156.376C199.658 154.805 201.627 153.194 202.79 151.541L205.666 153.408C205.89 153.551 206.003 153.704 206.003 153.867C206.003 154.377 205.442 154.499 204.32 154.234C202.361 155.54 199.883 156.57 196.884 157.325L196.884 158.579C196.884 159.069 196.976 159.416 197.159 159.62C197.343 159.824 197.659 159.926 198.108 159.926L202.453 159.926C202.861 159.926 203.187 159.854 203.432 159.711C203.657 159.548 203.83 159.283 203.952 158.916L204.962 155.948L205.391 156.009L205.544 158.61C205.564 159.181 205.758 159.599 206.125 159.864C206.574 160.15 206.798 160.476 206.798 160.844C206.798 161.292 206.533 161.66 206.003 161.945C205.452 162.251 204.585 162.404 203.402 162.404L197.465 162.404ZM191.651 160.14C191.121 160.14 190.774 159.854 190.611 159.283L190.152 157.998C186.786 158.855 183.716 159.477 180.941 159.864C180.839 160.64 180.605 161.027 180.237 161.027C180.033 161.027 179.891 160.864 179.809 160.538L178.952 157.569C179.911 157.529 180.645 157.1 181.155 156.284C182.522 154.265 183.45 152.327 183.94 150.47L187.551 151.358C187.796 151.419 187.918 151.541 187.918 151.725C187.918 152.153 187.388 152.408 186.327 152.49C185.001 154.305 183.512 155.988 181.859 157.539L189.754 157.019C189.285 155.937 188.601 154.815 187.704 153.653L187.979 153.347C189.917 154.305 191.284 155.203 192.08 156.039C192.773 156.774 193.12 157.569 193.12 158.426C193.018 159.528 192.528 160.099 191.651 160.14ZM188.958 162.71L183.359 162.71L183.359 165.984L188.958 165.984L188.958 162.71ZM183.359 166.749L183.359 170.024L188.958 170.024L188.958 166.749L183.359 166.749ZM216.437 158.671L216.437 157.906L228.983 157.906L230.36 156.07L232.931 157.875C233.114 158.039 233.206 158.171 233.206 158.273C233.206 158.538 232.869 158.671 232.196 158.671L229.626 158.671L229.626 168.494L229.626 169.901L230.33 169.84L231.37 168.065L233.818 169.534C234.002 169.697 234.093 169.82 234.093 169.901C234.093 170.146 233.808 170.299 233.237 170.36L229.626 170.697C229.667 172.227 229.697 173.757 229.718 175.287L233.298 175.44C233.767 175.46 234.093 175.379 234.277 175.195C234.461 175.032 234.552 174.726 234.552 174.277L234.552 153.714L222.649 153.714L222.649 152.888L233.94 152.888L235.011 151.082L238.071 152.551C238.337 152.694 238.469 152.837 238.469 152.979C238.469 153.204 238.388 153.398 238.224 153.561C238.061 153.744 237.725 153.979 237.215 154.265L237.215 163.169C237.276 167.106 237.327 171.044 237.368 174.981C237.368 176.103 237.102 176.909 236.572 177.398C235.98 177.949 234.828 178.357 233.114 178.622C233.012 177.745 232.737 177.123 232.288 176.756C231.88 176.409 231.033 176.082 229.748 175.776C229.687 176.103 229.503 176.307 229.197 176.388C228.381 176.572 227.667 176.664 227.055 176.664L227.055 170.911L215.886 171.89L215.825 171.095L219.069 170.819L219.069 158.671L216.437 158.671ZM212.153 178.561C212.276 173.624 212.337 170.217 212.337 168.341L212.337 160.079C212.337 158.1 212.306 156.233 212.245 154.479L215.948 154.785C216.233 154.826 216.376 154.948 216.376 155.152C216.376 155.56 215.917 155.907 214.999 156.192L214.999 177.429C214.999 177.898 214.785 178.194 214.356 178.316C213.642 178.479 212.908 178.561 212.153 178.561ZM221.547 166.933L221.547 170.605L227.055 170.146L227.055 166.933L221.547 166.933ZM221.547 162.802L221.547 166.199L227.055 166.199L227.055 162.802L221.547 162.802ZM221.547 158.671L221.547 162.068L227.055 162.068L227.055 158.671L221.547 158.671ZM219.161 155.519C218.63 155.519 218.253 155.152 218.028 154.418C217.6 153.132 216.855 151.827 215.795 150.501L216.009 150.225C217.784 150.633 219.059 151.113 219.834 151.664C220.548 152.174 220.905 152.796 220.905 153.53C220.905 154.101 220.721 154.581 220.354 154.968C220.007 155.336 219.609 155.519 219.161 155.519ZM265.03 178.561C264.928 177.663 264.653 177.062 264.204 176.756C263.775 176.45 262.704 176.103 260.991 175.715L261.083 175.134L265.397 175.348C265.826 175.368 266.142 175.277 266.346 175.073C266.55 174.869 266.652 174.563 266.652 174.155L266.652 156.223C266.652 153.551 266.611 151.602 266.529 150.378L270.201 150.715C270.548 150.756 270.722 150.878 270.722 151.082C270.722 151.47 270.263 151.817 269.345 152.123L269.345 164.393C269.345 167.78 269.385 171.431 269.467 175.348C269.487 176.368 269.192 177.102 268.58 177.551C267.947 178.02 266.764 178.357 265.03 178.561ZM256.829 163.108C256.36 163.108 256.044 162.833 255.881 162.282C255.697 161.751 255.483 161.18 255.238 160.568C252.056 161.343 248.771 161.996 245.385 162.527C245.303 163.037 245.191 163.394 245.048 163.598C244.926 163.781 244.752 163.873 244.528 163.873C244.365 163.873 244.232 163.72 244.13 163.414L243.029 160.17C243.661 160.089 244.161 159.936 244.528 159.711C244.854 159.507 245.16 159.191 245.446 158.763C246.568 157.131 247.435 155.468 248.047 153.775L242.417 153.775L242.417 152.949L254.595 152.949L256.217 150.807L259.216 152.918C259.379 153.061 259.461 153.194 259.461 153.316C259.44 153.602 259.114 153.755 258.482 153.775L251.474 153.775C250.189 155.897 248.496 157.988 246.395 160.048L254.779 159.558C254.289 158.6 253.514 157.467 252.453 156.162L252.759 155.825C254.779 156.784 256.278 157.753 257.258 158.732C258.135 159.609 258.573 160.456 258.573 161.272C258.573 161.802 258.4 162.241 258.053 162.588C257.706 162.935 257.298 163.108 256.829 163.108ZM242.906 167.973L242.906 167.147L249.24 167.147C249.2 165.026 249.159 163.587 249.118 162.833L252.851 163.139C253.116 163.159 253.29 163.292 253.371 163.536C253.29 163.965 252.831 164.322 251.994 164.607L251.994 167.147L254.351 167.147L255.881 165.097L258.604 167.117C258.767 167.259 258.849 167.392 258.849 167.514C258.828 167.8 258.502 167.953 257.87 167.973L251.994 167.973L251.994 172.747C254.198 172.482 256.503 172.166 258.91 171.798L259.063 172.38C253.922 174.032 249.036 175.348 244.406 176.327C244.304 177.245 244.038 177.704 243.61 177.704C243.406 177.704 243.253 177.551 243.151 177.245L242.111 173.634C243.212 173.594 244.365 173.522 245.568 173.42C246.752 173.318 247.976 173.196 249.24 173.053L249.24 167.973L242.906 167.973ZM260.379 171.676C260.46 168.249 260.501 165.434 260.501 163.23L260.501 158.946C260.501 157.049 260.481 155.478 260.44 154.234L263.837 154.54C264.163 154.581 264.326 154.703 264.326 154.907C264.326 155.315 263.898 155.662 263.041 155.948L263.041 170.483C263.041 171.013 262.827 171.319 262.398 171.401C261.725 171.584 261.052 171.676 260.379 171.676ZM284.308 153.438L284.308 152.643L297.466 152.643L299.027 150.593L301.903 152.612C302.066 152.755 302.148 152.877 302.148 152.979C302.127 153.265 301.821 153.418 301.23 153.438L292.111 153.438L291.346 157.845L295.63 157.845L296.67 156.162L299.577 157.508C299.843 157.651 299.975 157.804 299.975 157.967C299.975 158.334 299.557 158.753 298.721 159.222L298.721 164.057L299.118 164.057L300.465 162.221L302.882 164.057C303.025 164.179 303.096 164.301 303.096 164.424C303.096 164.709 302.78 164.852 302.148 164.852L284.614 164.852C284.594 165.342 284.451 165.74 284.186 166.046C283.941 166.311 283.635 166.443 283.268 166.443C282.819 166.443 282.533 166.127 282.411 165.495C282.044 163.965 281.513 162.567 280.82 161.303L280.82 177.49C280.82 177.918 280.605 178.194 280.177 178.316C279.483 178.479 278.82 178.561 278.188 178.561C278.31 173.787 278.372 170.003 278.372 167.208L278.372 164.454C277.352 166.8 275.944 169.116 274.149 171.401L273.751 171.125C275.73 166.78 277.168 162.465 278.066 158.181L274.149 158.181L274.149 157.386L278.372 157.386L278.372 155.978C278.372 153.877 278.331 152.01 278.249 150.378L281.707 150.684C282.013 150.725 282.166 150.848 282.166 151.052C282.166 151.46 281.717 151.827 280.82 152.153L280.82 157.386L281.309 157.386L282.503 155.642L284.859 157.386C285.022 157.488 285.104 157.61 285.104 157.753C285.104 158.039 284.798 158.181 284.186 158.181L280.82 158.181L280.82 160.507C282.962 161.833 284.186 163.016 284.492 164.057L287.643 164.057L288.561 158.64L285.471 158.64L285.471 157.845L288.684 157.845L289.449 153.438L284.308 153.438ZM297.282 178.53L297.282 176.358L288.286 176.358L288.286 177.582C288.286 177.969 288.102 178.204 287.735 178.286C287.062 178.449 286.297 178.53 285.44 178.53C285.522 176.164 285.563 174.369 285.563 173.145L285.563 170.727C285.563 169.259 285.542 168.014 285.501 166.994L289.112 168.096L296.762 168.096L297.803 166.352L300.771 167.759C301.097 167.902 301.26 168.065 301.26 168.249C301.26 168.575 300.852 168.973 300.036 169.442L300.036 171.829C300.036 173.665 300.077 175.572 300.159 177.551C300.159 177.959 299.985 178.204 299.639 178.286C298.986 178.449 298.2 178.53 297.282 178.53ZM297.282 168.891L288.286 168.891L288.286 175.562L297.282 175.562L297.282 168.891ZM296.12 158.64L291.193 158.64L290.275 164.057L296.12 164.057L296.12 158.64ZM316.591 178.561C316.673 175.562 316.713 171.9 316.713 167.576L316.713 156.651C316.713 154.55 316.683 152.806 316.622 151.419L320.202 152.49L329.841 152.49L330.881 150.807L333.758 152.123C334.084 152.265 334.247 152.418 334.247 152.582C334.247 152.969 333.839 153.367 333.023 153.775L333.023 166.321C333.023 168.83 333.054 171.809 333.115 175.256C333.156 176.215 332.87 176.949 332.258 177.459C331.626 177.99 330.585 178.357 329.137 178.561C329.117 177.765 328.872 177.194 328.403 176.847C327.933 176.501 326.985 176.164 325.557 175.838L325.649 175.348L329.168 175.501C329.984 175.521 330.392 175.154 330.392 174.399L330.392 153.285L319.223 153.285L319.223 177.521C319.223 177.949 319.029 178.214 318.641 178.316C317.927 178.479 317.244 178.561 316.591 178.561ZM314.724 166.26C314.316 166.26 314.051 165.954 313.929 165.342C313.684 164.036 313.225 162.761 312.552 161.517L312.552 177.49C312.552 177.939 312.348 178.214 311.94 178.316C311.369 178.479 310.665 178.561 309.828 178.561C309.951 173.787 310.012 170.003 310.012 167.208L310.012 164.638C309.033 166.821 307.676 169.075 305.942 171.401L305.514 171.125C307.37 167.045 308.778 162.751 309.737 158.243L306.034 158.243L306.034 157.447L310.012 157.447L310.012 155.978C310.012 154.081 309.981 152.214 309.92 150.378L313.531 150.715C313.837 150.756 313.99 150.878 313.99 151.082C313.99 151.511 313.511 151.878 312.552 152.184L312.552 157.447L313.194 157.447L314.357 155.703L316.407 157.416C316.571 157.559 316.652 157.682 316.652 157.784C316.632 158.069 316.326 158.222 315.734 158.243L312.552 158.243L312.552 160.844C313.817 161.558 314.724 162.221 315.275 162.833C315.785 163.404 316.04 163.995 316.04 164.607C316.04 165.097 315.897 165.505 315.612 165.831C315.367 166.117 315.071 166.26 314.724 166.26ZM326.169 172.563L326.169 171.125L323.415 171.125L323.415 172.319C323.415 172.686 323.221 172.931 322.833 173.053C322.303 173.216 321.742 173.298 321.15 173.298C321.232 171.503 321.273 169.718 321.273 167.943L321.273 164.822C321.273 163.23 321.252 161.843 321.212 160.66L323.996 161.517L325.71 161.517L326.597 160.079L328.984 161.241C329.29 161.384 329.443 161.547 329.443 161.731C329.443 162.037 329.076 162.374 328.341 162.741L328.341 166.321C328.341 167.525 328.372 169.269 328.433 171.554C328.433 171.962 328.26 172.217 327.913 172.319C327.301 172.482 326.72 172.563 326.169 172.563ZM326.169 162.282L323.415 162.282L323.415 170.33L326.169 170.33L326.169 162.282ZM320.171 157.937L320.171 157.141L326.108 157.141L327.393 155.366L329.81 157.11C329.953 157.233 330.024 157.355 330.024 157.478C330.004 157.763 329.678 157.916 329.045 157.937L320.171 157.937ZM338.99 174.185C339.072 170.574 339.112 167.341 339.112 164.485L339.112 159.497C339.112 156.192 339.092 153.887 339.051 152.582L342.54 153.836L345.018 153.836L346.12 152.061L349.149 153.469C349.476 153.612 349.639 153.775 349.639 153.959C349.639 154.142 349.547 154.316 349.363 154.479C349.159 154.662 348.782 154.897 348.231 155.183L348.231 163.292C348.231 165.842 348.282 168.83 348.384 172.257C348.384 172.625 348.201 172.859 347.833 172.961C347.058 173.165 346.314 173.267 345.6 173.267L345.6 170.33L341.744 170.33L341.744 173.084C341.744 173.288 341.693 173.451 341.591 173.573C341.489 173.696 341.316 173.798 341.071 173.879C340.438 174.083 339.745 174.185 338.99 174.185ZM348.904 162.557L348.904 161.731L355.483 161.731L355.483 156.223C355.483 154.183 355.432 152.225 355.33 150.348L359.247 150.654C359.553 150.674 359.706 150.797 359.706 151.021C359.706 151.49 359.247 151.868 358.329 152.153L358.329 161.731L361.665 161.731L363.348 159.344L366.438 161.7C366.601 161.823 366.683 161.955 366.683 162.098C366.663 162.384 366.346 162.537 365.734 162.557L358.329 162.557L358.329 166.474C358.329 170.024 358.37 173.736 358.452 177.612C358.452 177.837 358.421 177.99 358.36 178.071C358.299 178.173 358.166 178.245 357.962 178.286C357.105 178.51 356.228 178.602 355.33 178.561C355.432 175.195 355.483 171.696 355.483 168.065L355.483 162.557L348.904 162.557ZM345.6 154.662L341.744 154.662L341.744 169.503L345.6 169.503L345.6 154.662ZM384.431 177.245C384.513 172.798 384.553 169.299 384.553 166.749L384.553 160.476C384.553 158.477 384.533 156.213 384.492 153.683L388.011 154.754L393.703 154.754L394.682 153.01L397.803 154.387C398.109 154.55 398.262 154.713 398.262 154.877C398.262 155.244 397.834 155.662 396.977 156.131L396.977 165.403C396.977 165.607 397.028 169.044 397.13 175.715C397.13 176.123 396.946 176.368 396.579 176.45C395.804 176.613 395.019 176.715 394.223 176.756L394.223 173.359L387.277 173.359L387.277 176.144C387.297 176.572 387.073 176.837 386.604 176.939C385.971 177.102 385.247 177.204 384.431 177.245ZM381.34 169.381C380.851 169.381 380.524 169.075 380.361 168.463C379.831 166.79 379.096 165.311 378.158 164.026L378.158 177.459C378.158 177.786 378.107 178.01 378.005 178.133C377.903 178.235 377.719 178.316 377.454 178.377C376.761 178.541 376.057 178.622 375.343 178.622C375.465 174.134 375.526 170.105 375.526 166.535L375.526 165.066C374.017 167.984 372.028 170.636 369.559 173.022L369.223 172.716C371.834 168.575 373.66 164.648 374.7 160.935L369.59 160.935L369.59 160.109L375.526 160.109L375.526 154.448C374.058 154.632 372.16 154.826 369.835 155.03L369.743 154.448C374.965 153.143 378.617 151.806 380.698 150.44L383.115 152.367C383.319 152.531 383.421 152.704 383.421 152.888C383.401 153.194 383.197 153.357 382.809 153.377C382.483 153.377 382.085 153.285 381.616 153.102C380.331 153.489 379.178 153.785 378.158 153.989L378.158 160.109L379.749 160.109L381.187 158.09L383.819 160.079C383.982 160.221 384.064 160.344 384.064 160.446C384.023 160.711 383.697 160.874 383.085 160.935L378.158 160.935L378.158 163.23C379.872 163.965 381.096 164.679 381.83 165.372C382.544 166.046 382.901 166.79 382.901 167.606C382.901 168.096 382.738 168.514 382.411 168.861C382.085 169.208 381.728 169.381 381.34 169.381ZM394.223 155.611L387.277 155.611L387.277 172.41L394.223 172.41L394.223 155.611ZM412.43 155.948L412.43 155.213L416.714 155.213L416.714 154.754C416.714 152.959 416.683 151.521 416.622 150.44L420.141 150.746C420.386 150.786 420.508 150.899 420.508 151.082C420.508 151.429 420.09 151.755 419.254 152.061L419.254 155.213L420.172 155.213L421.304 153.622L423.415 155.213C423.538 155.315 423.619 155.417 423.66 155.519C423.742 155.397 423.823 155.274 423.905 155.152C424.639 154.071 425.221 153 425.649 151.939L428.893 153.469C429.138 153.591 429.26 153.734 429.26 153.897C429.26 154.346 428.74 154.54 427.699 154.479C426.129 156.743 424.588 158.62 423.079 160.109L425.925 160.109L427.363 158.243L429.933 160.109C430.096 160.252 430.178 160.374 430.178 160.476C430.178 160.742 429.872 160.874 429.26 160.874L422.253 160.874C420.825 162.221 419.162 163.445 417.265 164.546L424.18 164.546L425.619 162.527L428.373 164.577C428.536 164.679 428.617 164.791 428.617 164.913C428.617 165.179 428.311 165.311 427.699 165.311L418.428 165.311L417.173 168.922L423.599 168.922L424.639 167.27L427.852 168.677C428.118 168.8 428.25 168.942 428.25 169.106C428.25 169.31 428.158 169.493 427.975 169.656C427.791 169.82 427.424 170.024 426.873 170.268C426.832 171.88 426.72 173.359 426.537 174.705C426.373 176.072 425.935 177.021 425.221 177.551C424.507 178.082 423.181 178.408 421.243 178.53C421.161 177.776 420.845 177.225 420.294 176.878C419.743 176.511 418.703 176.164 417.173 175.838L417.295 175.317L421.885 175.593C423.007 175.736 423.65 175.195 423.813 173.971C423.997 172.788 424.109 171.37 424.15 169.718L417.479 169.718L416.622 170.942C415.745 170.574 414.878 170.115 414.021 169.565C413.817 169.381 413.817 169.187 414.021 168.983C414.388 168.8 414.664 168.443 414.847 167.912L415.674 165.434C413.878 166.372 411.93 167.229 409.829 168.004L409.584 167.545C413.481 165.24 416.602 163.016 418.948 160.874L410.655 160.874L410.655 160.109L416.714 160.109L416.714 155.948L412.43 155.948ZM411.053 174.461C410.543 174.461 410.206 174.124 410.043 173.451C409.635 171.778 408.911 170.044 407.871 168.249C407.442 170.452 406.759 172.339 405.82 173.91C404.923 175.399 403.597 176.929 401.842 178.5L401.414 178.163C403.107 175.45 404.28 172.849 404.933 170.36C405.606 167.79 405.943 164.526 405.943 160.568L405.943 156.345C405.943 154.244 405.902 152.296 405.82 150.501L409.37 150.807C409.696 150.827 409.86 150.95 409.86 151.174C409.86 151.582 409.401 151.919 408.483 152.184L408.483 159.405C409.36 158.1 410.084 156.743 410.655 155.336L413.134 156.804C413.338 156.927 413.44 157.059 413.44 157.202C413.399 157.651 412.889 157.814 411.91 157.692C410.971 158.63 409.829 159.487 408.483 160.262C408.442 163.159 408.279 165.597 407.993 167.576C411.053 169.35 412.583 171.044 412.583 172.655C412.481 173.818 411.971 174.42 411.053 174.461ZM402.546 164.975C402.179 164.975 401.863 164.832 401.598 164.546C401.332 164.261 401.2 163.904 401.2 163.475C401.2 163.006 401.404 162.496 401.812 161.945C402.73 160.742 403.332 159.069 403.617 156.927L403.984 156.927C404.372 158.212 404.566 159.538 404.566 160.905C404.566 162.272 404.352 163.322 403.923 164.057C403.556 164.669 403.097 164.975 402.546 164.975ZM419.743 160.109C421.029 158.844 422.253 157.427 423.415 155.856C423.273 155.917 423.038 155.948 422.712 155.948L419.254 155.948L419.254 160.109L419.743 160.109ZM84.7041 210.183L84.7041 209.418L91.5585 209.418C91.5381 208.092 91.5075 206.766 91.4667 205.44L95.1387 205.746C95.4447 205.786 95.5977 205.909 95.5977 206.113C95.5977 206.5 95.1387 206.847 94.2207 207.153L94.2207 209.418L100.616 209.418C100.575 207.541 100.555 206.215 100.555 205.44L104.166 205.746C104.513 205.786 104.686 205.909 104.686 206.113C104.686 206.5 104.227 206.847 103.309 207.153L103.309 209.418L105.818 209.418L107.44 207.306L110.316 209.418C110.48 209.54 110.561 209.662 110.561 209.785C110.561 210.05 110.225 210.183 109.551 210.183L103.309 210.183L103.309 213.885L106.828 213.885L108.542 211.651L111.54 213.855C111.704 213.997 111.785 214.13 111.785 214.252C111.785 214.518 111.449 214.65 110.775 214.65L98.7801 214.65L98.7801 217.649L104.411 217.649L105.42 215.997L108.297 217.312C108.582 217.455 108.725 217.598 108.725 217.741C108.725 217.945 108.654 218.118 108.511 218.261C108.348 218.424 108.032 218.638 107.562 218.904L107.562 221.658C107.603 223.453 107.634 225.238 107.654 227.013C107.654 227.359 107.501 227.574 107.195 227.655C106.461 227.839 105.696 227.931 104.9 227.931L104.9 226.676L90.1203 226.676L90.1203 227.166C90.1203 227.574 89.9469 227.808 89.6001 227.869C88.9473 228.033 88.2027 228.114 87.3663 228.114C87.4479 226.319 87.4887 224.565 87.4887 222.851L87.4887 220.923C87.4683 219.495 87.4479 218.067 87.4275 216.639L90.9159 217.649L96.0873 217.649L96.0873 214.65L83.2353 214.65L83.2353 213.885L91.5585 213.885L91.5585 210.978L91.5585 210.183L84.7041 210.183ZM83.8167 233.775L83.6025 233.316C86.4177 231.97 88.7943 230.603 90.7323 229.216C91.7115 228.502 92.4561 227.849 92.9661 227.257L96.0567 229.216C96.3015 229.359 96.4239 229.522 96.4239 229.705C96.4239 230.073 96.1383 230.256 95.5671 230.256C95.2611 230.256 94.8939 230.195 94.4655 230.073C91.3239 231.684 87.7743 232.918 83.8167 233.775ZM100.616 213.885L100.616 210.948L100.616 210.183L94.2207 210.183L94.2207 213.885L100.616 213.885ZM109.215 233.592C108.848 233.592 108.44 233.408 107.991 233.041C105.91 231.348 103.074 229.777 99.4839 228.328L99.6675 227.9C103.442 228.39 106.124 228.91 107.715 229.461C109.551 230.113 110.469 230.96 110.469 232C110.469 232.449 110.347 232.827 110.102 233.133C109.857 233.439 109.562 233.592 109.215 233.592ZM98.7801 222.484L98.7801 225.942L104.9 225.942L104.9 222.484L98.7801 222.484ZM90.1203 222.484L90.1203 225.942L96.0873 225.942L96.0873 222.484L90.1203 222.484ZM104.9 218.383L98.7801 218.383L98.7801 221.749L104.9 221.749L104.9 218.383ZM90.1203 218.383L90.1203 221.749L96.0873 221.749L96.0873 218.383L90.1203 218.383ZM124.607 233.469C124.729 229.022 124.79 225.421 124.79 222.667L124.79 218.353C124.79 215.456 124.76 213.151 124.698 211.437L128.34 212.569L132.012 212.569L132.012 211.896C132.012 209.163 131.971 206.97 131.889 205.317L135.623 205.593C135.929 205.633 136.082 205.756 136.082 205.96C136.082 206.368 135.612 206.715 134.674 207L134.674 212.569L138.774 212.569L139.845 210.733L142.967 212.233C143.232 212.376 143.364 212.539 143.364 212.722C143.364 212.906 143.273 213.079 143.089 213.243C142.885 213.426 142.538 213.651 142.049 213.916L142.049 220.219C142.049 223.341 142.12 227.4 142.263 232.398C142.263 232.806 142.059 233.071 141.651 233.194C140.916 233.377 140.151 233.479 139.356 233.5L139.356 230.868L127.422 230.868L127.422 232.368C127.422 232.796 127.228 233.061 126.84 233.163C125.82 233.367 125.076 233.469 124.607 233.469ZM118.793 233.041C117.793 233.041 117.252 232.439 117.171 231.235C117.171 230.848 117.283 230.113 117.507 229.032C117.732 228.196 117.844 227.41 117.844 226.676C117.844 225.942 117.681 225.391 117.354 225.024C116.987 224.616 116.283 224.228 115.243 223.861L115.396 223.341C116.069 223.443 116.681 223.494 117.232 223.494C117.926 223.473 118.415 223.126 118.701 222.453L123.413 212.998L123.933 213.243L120.935 221.933C120.445 223.422 120.2 224.667 120.2 225.666C120.2 226.727 120.323 227.778 120.567 228.818C120.751 229.777 120.843 230.562 120.843 231.174C120.843 231.786 120.649 232.255 120.261 232.582C119.915 232.888 119.425 233.041 118.793 233.041ZM134.674 221.872L134.674 230.073L139.356 230.073L139.356 221.872L134.674 221.872ZM127.422 221.872L127.422 230.073L132.012 230.073L132.012 221.872L127.422 221.872ZM139.356 213.365L134.674 213.365L134.674 221.076L139.356 221.076L139.356 213.365ZM127.422 213.365L127.422 221.076L132.012 221.076L132.012 213.365L127.422 213.365ZM118.487 217.802C117.977 217.822 117.62 217.527 117.416 216.915C116.865 215.344 116.039 213.895 114.937 212.569L115.182 212.263C118.405 213.263 120.017 214.477 120.017 215.905C120.017 216.435 119.853 216.894 119.527 217.282C119.221 217.629 118.874 217.802 118.487 217.802ZM121.057 211.039C120.527 211.039 120.17 210.733 119.986 210.121C119.435 208.653 118.589 207.265 117.446 205.96L117.66 205.654C119.313 206.082 120.578 206.633 121.455 207.306C122.25 207.918 122.648 208.561 122.648 209.234C122.526 210.397 121.995 210.999 121.057 211.039ZM156.645 231.082L156.645 229.063L151.229 229.063L151.229 231.388C151.229 231.776 150.974 232.021 150.464 232.123C149.954 232.245 149.291 232.327 148.475 232.368C148.577 229.552 148.628 226.809 148.628 224.136L148.628 216.15C148.628 214.048 148.597 212.172 148.536 210.519L151.535 211.437C151.841 209.458 151.963 207.439 151.902 205.378L155.757 205.837C156.084 205.878 156.247 206.011 156.247 206.235C156.247 206.602 155.768 206.898 154.809 207.123C154.095 208.877 153.35 210.366 152.575 211.59L156.094 211.59L157.104 209.968L159.888 211.254C160.194 211.417 160.347 211.59 160.347 211.774C160.347 211.978 160.286 212.151 160.164 212.294C160.021 212.457 159.705 212.692 159.215 212.998L159.215 222.086C159.215 224.289 159.256 226.982 159.338 230.164C159.338 230.511 159.164 230.725 158.817 230.807C158.369 230.95 157.644 231.042 156.645 231.082ZM160.47 218.934L159.98 218.659C161.408 215.538 162.489 212.161 163.224 208.53C163.448 207.388 163.571 206.347 163.591 205.409L167.63 206.113C167.916 206.174 168.059 206.307 168.059 206.511C168.059 206.919 167.528 207.225 166.467 207.429C166.019 208.816 165.529 210.142 164.999 211.407L170.507 211.407L171.547 209.601L174.607 211.039C174.893 211.182 175.035 211.335 175.035 211.498C175.035 211.723 174.954 211.927 174.791 212.11C174.627 212.294 174.301 212.529 173.811 212.814C173.811 216.343 173.709 221.372 173.505 227.9C173.424 229.818 172.995 231.154 172.22 231.909C171.425 232.684 169.956 233.184 167.814 233.408C167.732 232.408 167.416 231.725 166.865 231.358C166.314 230.991 165.07 230.613 163.132 230.226L163.224 229.705L168.15 229.981C169.068 230.042 169.711 229.889 170.078 229.522C170.445 229.155 170.649 228.42 170.69 227.319C170.894 223.341 171.027 218.312 171.088 212.233L164.631 212.233C164.019 213.6 163.336 214.875 162.581 216.058L162.734 215.905C164.611 217.17 165.937 218.261 166.712 219.179C167.447 220.056 167.814 220.944 167.814 221.841C167.814 222.412 167.651 222.882 167.324 223.249C166.998 223.616 166.569 223.8 166.039 223.8C165.509 223.8 165.152 223.422 164.968 222.667C164.54 220.423 163.703 218.281 162.459 216.241C161.949 217.017 161.286 217.914 160.47 218.934ZM151.229 220.342L151.229 228.237L156.645 228.237L156.645 220.342L151.229 220.342ZM156.645 212.416L151.229 212.416L151.229 219.516L156.645 219.516L156.645 212.416ZM204.595 231.113C203.045 229.624 201.831 228.022 200.954 226.309C200.056 224.554 199.25 222.188 198.536 219.21L198.353 219.21L198.353 221.413C198.353 226.105 198.404 229.777 198.506 232.429C198.526 232.939 198.322 233.235 197.894 233.316C197.18 233.479 196.384 233.561 195.507 233.561C195.588 230.97 195.629 227.38 195.629 222.79L195.629 221.658C193.712 225.411 190.458 228.767 185.868 231.725L185.562 231.297C189.458 227.502 192.233 223.473 193.885 219.21L188.438 219.21L188.438 218.414L195.629 218.414L195.629 212.263L189.938 212.263L189.938 211.468L195.629 211.468C195.629 208.959 195.588 206.959 195.507 205.47L199.332 205.776C199.597 205.797 199.73 205.919 199.73 206.143C199.73 206.572 199.271 206.908 198.353 207.153L198.353 211.468L201.198 211.468L202.82 209.326L205.574 211.407C205.737 211.549 205.819 211.672 205.819 211.774C205.819 212.1 205.482 212.263 204.809 212.263L198.353 212.263L198.353 218.414L202.178 218.414L203.952 216.088L206.859 218.322C207.002 218.465 207.074 218.598 207.074 218.72C207.074 219.006 206.737 219.169 206.064 219.21L199.332 219.21C201.209 223.351 204.034 226.441 207.808 228.481L207.594 229.063C206.37 229.144 205.37 229.828 204.595 231.113ZM179.84 227.931C179.901 225.36 179.931 222.484 179.931 219.301L179.931 214.191C179.931 211.152 179.911 209.112 179.87 208.071L183.053 209.112L185.317 209.112L186.204 207.582L188.928 208.806C189.193 208.948 189.326 209.101 189.326 209.265C189.326 209.611 188.948 209.968 188.193 210.336L188.193 216.976C188.193 220.607 188.214 223.432 188.255 225.452C188.255 225.84 188.091 226.084 187.765 226.186C187.031 226.37 186.368 226.462 185.776 226.462L185.776 224.014L182.349 224.014L182.349 226.921C182.349 227.329 182.135 227.574 181.706 227.655C181.176 227.798 180.554 227.89 179.84 227.931ZM185.776 209.877L182.349 209.877L182.349 223.249L185.776 223.249L185.776 209.877ZM218.855 210.978L218.855 210.183L229.106 210.183C229.901 208.408 230.452 206.715 230.758 205.103L234.185 206.052C234.512 206.154 234.675 206.307 234.675 206.511C234.675 206.898 234.144 207.123 233.084 207.184C232.166 208.326 231.207 209.326 230.207 210.183L234.246 210.183L235.838 208.01L238.683 210.152C238.847 210.295 238.928 210.417 238.928 210.519C238.908 210.805 238.592 210.958 237.98 210.978L229.381 210.978C228.585 212.141 227.739 213.171 226.841 214.069L232.808 214.069L233.726 212.416L236.664 213.702C236.949 213.844 237.092 214.018 237.092 214.222C237.092 214.385 237.021 214.538 236.878 214.681C236.694 214.864 236.378 215.079 235.929 215.323L235.929 219.026C235.97 221.8 236.011 224.565 236.052 227.319C236.052 227.686 235.899 227.91 235.593 227.992C234.838 228.155 234.073 228.257 233.298 228.298L233.298 226.921L223.536 226.921L223.536 227.594C223.536 227.961 223.363 228.186 223.016 228.267C222.323 228.43 221.588 228.512 220.813 228.512C220.895 226.248 220.935 223.912 220.935 221.505L220.935 217.649C220.935 216.037 220.915 214.456 220.874 212.906L224.24 214.069L225.709 214.069C225.954 212.906 226.107 211.876 226.168 210.978L218.855 210.978ZM212.582 233.653C212.398 233.653 212.245 233.51 212.123 233.224L210.256 230.226C211.704 229.654 213.081 228.849 214.387 227.808L214.387 218.353L210.409 218.353L210.409 217.527L213.775 217.527L214.846 215.721L217.814 217.19C218.141 217.353 218.304 217.537 218.304 217.741C218.304 217.924 218.232 218.088 218.09 218.23C217.926 218.394 217.59 218.618 217.08 218.904L217.08 227.288C217.08 228.145 217.651 228.777 218.793 229.185C220.181 229.695 222.618 229.991 226.107 230.073C230.064 230.175 234.45 229.869 239.265 229.155L239.265 229.675C238.694 229.94 238.286 230.328 238.041 230.838C237.837 231.225 237.704 231.786 237.643 232.521C234.338 232.725 231.023 232.827 227.698 232.827C224.21 232.827 221.568 232.47 219.773 231.756C218.079 231.082 216.876 229.981 216.162 228.451C215.142 229.797 214.081 231.031 212.979 232.153C213.061 233.153 212.928 233.653 212.582 233.653ZM223.536 222.882L223.536 226.125L233.298 226.125L233.298 222.882L223.536 222.882ZM223.536 218.873L223.536 222.086L233.298 222.086L233.298 218.873L223.536 218.873ZM233.298 214.864L223.536 214.864L223.536 218.077L233.298 218.077L233.298 214.864ZM216.009 212.845C215.417 212.845 215.03 212.539 214.846 211.927C214.336 209.989 213.408 208.194 212.061 206.541L212.306 206.235C214.346 206.99 215.805 207.775 216.682 208.591C217.437 209.285 217.814 210.04 217.814 210.856C217.814 211.447 217.641 211.927 217.294 212.294C216.947 212.661 216.519 212.845 216.009 212.845ZM225.219 210.03C224.669 210.03 224.312 209.724 224.148 209.112C223.761 207.847 223.108 206.664 222.19 205.562L222.435 205.287C225.332 206.041 226.78 207.072 226.78 208.377C226.78 208.846 226.617 209.244 226.29 209.571C225.984 209.877 225.627 210.03 225.219 210.03ZM248.965 232.551C247.721 232.551 246.711 232.153 245.936 231.358C245.16 230.562 244.773 229.552 244.773 228.328C244.773 227.166 245.171 226.186 245.966 225.391C246.782 224.575 247.782 224.167 248.965 224.167C250.128 224.167 251.117 224.575 251.933 225.391C252.749 226.207 253.157 227.196 253.157 228.359C253.157 229.583 252.739 230.593 251.903 231.388C251.087 232.164 250.107 232.551 248.965 232.551ZM248.965 230.96C249.699 230.96 250.311 230.725 250.801 230.256C251.311 229.767 251.566 229.144 251.566 228.39C251.566 227.614 251.321 226.982 250.832 226.492C250.322 225.982 249.699 225.727 248.965 225.727C248.19 225.727 247.557 225.982 247.068 226.492C246.578 227.002 246.333 227.635 246.333 228.39C246.333 229.124 246.578 229.736 247.068 230.226C247.557 230.715 248.19 230.96 248.965 230.96Z" fill="black"/>
</g>
<defs>
<filter id="filter0_d_400_5" x="0" y="-3.8147e-06" width="526.235" height="383.18" filterUnits="userSpaceOnUse" color-interpolation-filters="sRGB">
<feFlood flood-opacity="0" result="BackgroundImageFix"/>
<feColorMatrix in="SourceAlpha" type="matrix" values="0 0 0 0 0 0 0 0 0 0 0 0 0 0 0 0 0 0 127 0" result="hardAlpha"/>
<feOffset/>
<feGaussianBlur stdDeviation="17"/>
<feComposite in2="hardAlpha" operator="out"/>
<feColorMatrix type="matrix" values="0 0 0 0 0 0 0 0 0 0 0 0 0 0 0 0 0 0 0.03 0"/>
<feBlend mode="normal" in2="BackgroundImageFix" result="effect1_dropShadow_400_5"/>
<feBlend mode="normal" in="SourceGraphic" in2="effect1_dropShadow_400_5" result="shape"/>
</filter>
</defs>
</svg>
