<svg width="608" height="439" viewBox="0 0 608 439" fill="none" xmlns="http://www.w3.org/2000/svg">
<g filter="url(#filter0_d_400_9)">
<rect x="34" y="34" width="539.1" height="370.8" rx="3.6" fill="#FFF6E1"/>
<path d="M288.765 328.656C289.478 329.758 290.147 330.967 290.795 332.306L289.456 332.976C288.83 331.594 288.138 330.384 287.404 329.304L288.765 328.656ZM291.897 334.726H284.682V333.235H293.301V327.814H285.525V326.323H293.301V323.839H294.899V326.323H302.848V327.814H294.899V333.235H297.059C297.902 331.766 298.614 330.168 299.219 328.462L300.731 329.002C300.105 330.578 299.392 331.982 298.593 333.235H303.474V334.726H296.26C297.794 337.188 300.407 339.37 304.079 341.292L303.021 342.631C299.198 340.277 296.519 337.642 294.986 334.726H294.899V343.517H293.301V334.726H293.171C291.789 337.793 289.046 340.428 284.942 342.653L284.078 341.27C287.966 339.348 290.579 337.166 291.897 334.726ZM322.958 326.323V343.538H321.381V342.199H310.019V343.538H308.442V326.323H313.065C313.54 325.459 313.907 324.595 314.123 323.688L315.7 323.904C315.462 324.768 315.117 325.589 314.685 326.323H322.958ZM310.019 340.709H321.381V337.188H310.019V340.709ZM310.019 335.762H321.381V332.458H310.019V335.762ZM310.019 331.032H321.381V327.814H310.019V331.032ZM339.093 331.507H337.97V332.026C337.883 337.102 336.911 340.925 335.032 343.495L333.65 342.804C335.486 340.255 336.458 336.648 336.544 332.026V325.308C340.238 325.222 343.37 324.79 345.94 324.055L346.718 325.438C344.104 326.129 341.188 326.518 337.948 326.626L337.97 330.038H346.026V331.183C345.832 334.034 344.99 336.562 343.499 338.722C344.536 340.061 345.832 341.184 347.387 342.134L346.61 343.495C344.968 342.502 343.607 341.335 342.527 339.974C341.361 341.314 339.935 342.523 338.25 343.582L337.257 342.437C339.05 341.357 340.518 340.104 341.642 338.722C340.324 336.67 339.482 334.272 339.093 331.507ZM342.57 337.426C343.694 335.654 344.385 333.689 344.644 331.507H340.475C340.821 333.754 341.512 335.719 342.57 337.426ZM330.561 328.699C329.999 330.427 329.286 331.874 328.444 333.062L327.45 331.831C328.768 329.822 329.654 327.101 330.129 323.688L331.641 323.947C331.468 325.157 331.23 326.258 330.971 327.274H335.378V328.483C334.838 329.866 334.254 331.054 333.606 332.004L332.462 331.118C332.937 330.427 333.369 329.606 333.758 328.699H330.561ZM330.539 331.572H332.051V339.953C332.829 339.521 333.585 338.981 334.362 338.311L334.665 339.78C333.498 340.687 332.138 341.443 330.626 342.026L329.978 340.687C330.345 340.514 330.539 340.234 330.539 339.866V331.572ZM355.228 335.093H362.853V340.536H355.228V335.093ZM361.449 339.218V336.389H356.632V339.218H361.449ZM365.056 326.064H353.219V328.44H365.056V326.064ZM353.219 329.844V331.745H367.626C367.626 337.08 367.518 340.385 367.302 341.638C367.108 342.826 366.222 343.43 364.667 343.43C364.127 343.43 363.198 343.409 361.881 343.366L361.535 342.048C362.68 342.091 363.652 342.113 364.473 342.113C365.25 342.113 365.726 341.767 365.877 341.076C366.006 340.212 366.071 337.577 366.114 333.149H353.219C353.176 337.145 352.182 340.579 350.238 343.452L349.029 342.372C350.8 339.974 351.686 336.864 351.707 333.062V324.595H366.568V329.844H353.219ZM375.23 327.252C374.214 329.023 373.048 330.578 371.73 331.874L370.737 330.665C372.551 328.872 374.042 326.518 375.208 323.623L376.785 323.969C376.526 324.595 376.288 325.178 376.029 325.74H388.622V327.252H375.23ZM388.038 343.517C386.937 343.495 386.116 342.955 385.598 341.875C385.079 340.795 384.82 338.592 384.82 335.266V333.97H372.594V332.479H386.224V335.266C386.224 338.074 386.375 339.845 386.678 340.622C386.937 341.4 387.347 341.81 387.909 341.81C388.19 341.81 388.449 341.422 388.686 340.644C388.859 339.996 389.032 339.175 389.226 338.203L390.522 338.83C390.177 340.687 389.81 341.962 389.399 342.61C388.989 343.214 388.535 343.517 388.038 343.517ZM374.97 329.153H387.563V330.6H374.97V329.153ZM397.391 332.738L398.579 333.494C397.845 334.531 397.089 335.395 396.333 336.086C396.074 336.302 395.814 336.518 395.534 336.734H404.325C403.029 335.784 401.884 334.726 400.912 333.581L402.014 332.717C403.353 334.229 405.081 335.568 407.241 336.778L406.442 338.095C405.707 337.663 405.016 337.231 404.411 336.799C404.368 339.996 404.109 341.897 403.634 342.545C403.137 343.171 402.273 343.495 401.042 343.495C400.696 343.495 400.286 343.474 399.81 343.43L399.422 342.048C399.94 342.091 400.372 342.113 400.718 342.134C401.625 342.113 402.208 341.897 402.446 341.465C402.683 341.033 402.834 339.931 402.878 338.117H399.098C398.709 339.348 398.234 340.342 397.629 341.119C396.808 342.026 395.577 342.847 393.978 343.582L393.006 342.35C394.454 341.767 395.555 341.119 396.29 340.406C396.873 339.802 397.326 339.024 397.629 338.117H394.994V337.123C394.432 337.512 393.806 337.879 393.158 338.268L392.358 336.972C393.438 336.497 394.41 335.87 395.274 335.114C396.052 334.445 396.743 333.646 397.391 332.738ZM396.743 326.647C395.814 328.008 394.605 329.218 393.093 330.276L392.142 329.023C394.346 327.554 395.836 325.74 396.614 323.602L398.169 323.796C397.974 324.336 397.758 324.854 397.521 325.33H410.718V326.647H396.743ZM396.095 328.073H408.904V329.326H396.095V328.073ZM410.114 343.43C409.25 343.409 408.623 342.89 408.234 341.854C407.802 340.817 407.608 338.7 407.608 335.503V332.112H393.978V330.773H409.12V335.503C409.12 338.138 409.185 339.802 409.336 340.536C409.466 341.27 409.66 341.638 409.941 341.638C410.135 341.638 410.308 341.27 410.459 340.558C410.567 339.931 410.675 339.154 410.805 338.246L412.101 338.873C411.842 340.687 411.561 341.897 411.215 342.545C410.87 343.128 410.502 343.43 410.114 343.43ZM421.41 338.722V340.19C419.38 341.141 417.047 341.918 414.412 342.48L414.218 340.946C416.982 340.385 419.38 339.65 421.41 338.722ZM418.019 323.774L419.488 324.358C418.322 327.036 417.155 329.174 415.967 330.773C417.004 330.686 418.019 330.535 419.056 330.362C419.51 329.563 419.985 328.699 420.482 327.77L421.886 328.31C419.812 332.026 418.106 334.661 416.745 336.238C418.343 335.892 419.942 335.417 421.54 334.812V336.238C419.186 337.08 416.939 337.663 414.779 337.966L414.369 336.518C414.65 336.389 414.887 336.238 415.082 336.065C415.946 335.222 416.982 333.797 418.214 331.788C416.961 331.982 415.708 332.155 414.412 332.328L414.023 330.881C414.261 330.794 414.477 330.6 414.693 330.298C415.967 328.397 417.069 326.237 418.019 323.774ZM431.692 324.768V341.292H433.528V342.804H421.043V341.292H422.922V324.768H431.692ZM424.456 341.292H430.158V337.188H424.456V341.292ZM424.456 335.719H430.158V331.637H424.456V335.719ZM424.456 330.168H430.158V326.258H424.456V330.168ZM443.248 325.978H445.451L451.197 339.132H451.262L456.986 325.978H459.189V341.4H457.418V329.131H457.353L452.018 341.4H450.419L445.084 329.131H445.019V341.4H443.248V325.978ZM467.069 329.93C468.733 329.93 470.072 330.492 471.065 331.658C472.016 332.76 472.491 334.142 472.491 335.827C472.491 337.49 472.016 338.873 471.087 339.953C470.072 341.119 468.733 341.702 467.069 341.702C465.385 341.702 464.067 341.119 463.073 339.953C462.123 338.873 461.648 337.49 461.648 335.827C461.648 334.142 462.123 332.76 463.073 331.658C464.067 330.492 465.385 329.93 467.069 329.93ZM467.069 331.378C465.881 331.378 464.953 331.831 464.305 332.738C463.7 333.559 463.419 334.574 463.419 335.827C463.419 337.058 463.7 338.074 464.305 338.894C464.953 339.802 465.881 340.255 467.069 340.255C468.236 340.255 469.165 339.802 469.856 338.894C470.439 338.074 470.741 337.037 470.741 335.827C470.741 334.574 470.439 333.559 469.856 332.738C469.165 331.831 468.236 331.378 467.069 331.378ZM479.618 329.93C481.324 329.93 482.491 330.622 483.117 332.047C483.549 331.313 484.067 330.773 484.672 330.449C485.212 330.103 485.86 329.93 486.638 329.93C487.804 329.93 488.733 330.298 489.467 331.032C490.159 331.788 490.526 332.803 490.526 334.078V341.4H488.798V334.358C488.798 333.365 488.582 332.63 488.171 332.155C487.739 331.637 487.048 331.399 486.098 331.399C485.363 331.399 484.737 331.658 484.262 332.22C483.743 332.782 483.506 333.494 483.506 334.402V341.4H481.778V334.358C481.778 332.371 480.914 331.399 479.207 331.399C478.408 331.399 477.76 331.702 477.242 332.35C476.723 332.954 476.464 333.71 476.464 334.596V341.4H474.736V330.233H476.464V331.723C477.307 330.514 478.365 329.93 479.618 329.93ZM498.204 329.93C499.867 329.93 501.206 330.492 502.2 331.658C503.15 332.76 503.625 334.142 503.625 335.827C503.625 337.49 503.15 338.873 502.221 339.953C501.206 341.119 499.867 341.702 498.204 341.702C496.519 341.702 495.201 341.119 494.208 339.953C493.257 338.873 492.782 337.49 492.782 335.827C492.782 334.142 493.257 332.76 494.208 331.658C495.201 330.492 496.519 329.93 498.204 329.93ZM498.204 331.378C497.016 331.378 496.087 331.831 495.439 332.738C494.834 333.559 494.553 334.574 494.553 335.827C494.553 337.058 494.834 338.074 495.439 338.894C496.087 339.802 497.016 340.255 498.204 340.255C499.37 340.255 500.299 339.802 500.99 338.894C501.573 338.074 501.876 337.037 501.876 335.827C501.876 334.574 501.573 333.559 500.99 332.738C500.299 331.831 499.37 331.378 498.204 331.378Z" fill="#111111" fill-opacity="0.5"/>
<path d="M96.4961 119.392V118.42H116.584L118.528 115.864L122.02 118.384C122.212 118.528 122.308 118.672 122.308 118.816C122.308 119.152 121.924 119.344 121.156 119.392H110.896V126.232H116.368L118.384 123.712L121.732 126.196C121.924 126.364 122.02 126.52 122.02 126.664C122.02 126.976 121.648 127.156 120.904 127.204H110.896V135.232C111.136 135.256 111.532 135.268 112.084 135.268C116.548 135.316 120.916 135.1 125.188 134.62V135.232C124.228 135.616 123.628 136.672 123.388 138.4C121.9 138.52 118.672 138.556 113.704 138.508C109.864 138.508 107.032 137.92 105.208 136.744C103.408 135.592 101.788 133.312 100.348 129.904C98.9081 134.032 96.3041 137.32 92.5361 139.768L92.0321 139.336C94.9361 135.808 96.8681 131.836 97.8281 127.42C98.1881 125.788 98.3921 124.144 98.4401 122.488L102.868 123.208C103.18 123.28 103.336 123.412 103.336 123.604C103.336 124.084 102.796 124.48 101.716 124.792C101.404 126.28 101.08 127.588 100.744 128.716C101.968 130.492 103.072 131.824 104.056 132.712C105.088 133.648 106.24 134.308 107.512 134.692V119.392H96.4961ZM94.1921 117.88C93.6641 117.88 93.2441 117.712 92.9321 117.376C92.6201 117.04 92.4641 116.608 92.4641 116.08C92.4641 115.384 92.8121 114.748 93.5081 114.172C94.8761 113.068 95.8361 111.556 96.3881 109.636L96.7841 109.708C96.9521 110.476 97.0481 111.136 97.0721 111.688H108.772C108.148 111.664 107.752 111.256 107.584 110.464C107.2 109.072 106.564 107.824 105.676 106.72L105.928 106.36C109.408 107.032 111.148 108.1 111.148 109.564C111.148 110.14 110.956 110.632 110.572 111.04C110.188 111.424 109.708 111.64 109.132 111.688H119.968L121.588 109.78L125.224 112.192C125.56 112.432 125.728 112.672 125.728 112.912C125.728 113.368 125.08 113.608 123.784 113.632C122.44 114.712 121.06 115.66 119.644 116.476L119.14 116.116L120.436 112.696H97.1441C97.1441 113.104 97.0961 113.74 97.0001 114.604C96.9041 115.564 96.5681 116.356 95.9921 116.98C95.4401 117.58 94.8401 117.88 94.1921 117.88ZM129.364 110.572V109.6H157.048L159.208 106.72L162.952 109.564C163.12 109.708 163.204 109.852 163.204 109.996C163.18 110.308 162.796 110.5 162.052 110.572H151.648V117.34H156.22L157.48 115.288L160.972 116.98C161.356 117.172 161.548 117.364 161.548 117.556C161.548 118.012 161.056 118.468 160.072 118.924V125.8C160.072 130.744 160.12 134.836 160.216 138.076C160.216 138.628 159.988 138.964 159.532 139.084C158.716 139.252 157.828 139.36 156.868 139.408V136.348H135.34V138.4C135.34 138.832 135.1 139.12 134.62 139.264C133.924 139.456 133.036 139.552 131.956 139.552C132.076 135.592 132.136 132.076 132.136 129.004V122.704C132.136 119.248 132.1 116.968 132.028 115.864L136.24 117.34H140.308V117.196V110.572H129.364ZM135.88 131.596L135.52 131.128C137.32 129.184 138.544 127.372 139.192 125.692C139.888 123.892 140.26 121.432 140.308 118.312H135.34V135.376H156.868V118.312H151.648V125.44C151.648 125.752 151.708 125.98 151.828 126.124C151.948 126.244 152.14 126.304 152.404 126.304H153.232C153.688 126.304 154.072 126.136 154.384 125.8C154.6 125.512 154.864 125.512 155.176 125.8C155.608 126.136 156.028 126.556 156.436 127.06C156.676 127.372 156.796 127.636 156.796 127.852C156.796 128.188 156.544 128.464 156.04 128.68C155.44 128.944 154.612 129.076 153.556 129.076H151.18C150.196 129.076 149.5 128.872 149.092 128.464C148.684 128.056 148.48 127.348 148.48 126.34V118.312H143.368C143.32 121.768 142.72 124.48 141.568 126.448C140.44 128.416 138.544 130.132 135.88 131.596ZM143.404 117.196V117.34H148.48V110.572H143.404V117.196ZM167.812 139.264C167.596 139.264 167.44 139.096 167.344 138.76L166.264 134.656C166.888 134.608 167.548 134.536 168.244 134.44V128.14C168.244 126.244 168.196 124.336 168.1 122.416L171.7 122.776C172.036 122.824 172.204 122.956 172.204 123.172C172.204 123.604 171.772 123.976 170.908 124.288V134.008C171.796 133.84 172.684 133.672 173.572 133.504V125.692C173.572 123.556 173.536 121.528 173.464 119.608L177.28 119.932C177.616 119.98 177.784 120.124 177.784 120.364C177.736 120.844 177.268 121.228 176.38 121.516V125.044H177.496L178.972 123.136L181.492 125.044C181.636 125.188 181.708 125.308 181.708 125.404C184.396 123.7 186.556 122.008 188.188 120.328C186.988 118.984 185.932 117.316 185.02 115.324C183.868 116.98 182.476 118.588 180.844 120.148L180.376 119.788C182.2 116.62 183.604 113.392 184.588 110.104C184.948 109 185.2 107.824 185.344 106.576L189.7 107.584C189.988 107.656 190.132 107.8 190.132 108.016C190.132 108.568 189.532 108.904 188.332 109.024C187.996 109.888 187.696 110.56 187.432 111.04H193.264L194.704 109.204L198.268 111.364C198.58 111.556 198.736 111.748 198.736 111.94C198.736 112.42 198.088 112.792 196.792 113.056C195.304 116.032 193.744 118.384 192.112 120.112C194.344 121.216 197.332 122.056 201.076 122.632L200.932 123.208C200.284 123.376 199.78 123.664 199.42 124.072C199.036 124.504 198.688 125.176 198.376 126.088C194.776 124.96 191.992 123.616 190.024 122.056C188.152 123.592 185.836 124.948 183.076 126.124L187.108 127.204H193.228L194.38 125.404L197.872 126.988C198.232 127.156 198.412 127.336 198.412 127.528C198.412 127.744 198.328 127.936 198.16 128.104C197.968 128.296 197.596 128.512 197.044 128.752V131.956C197.044 133.036 197.08 135.196 197.152 138.436C197.152 138.724 197.116 138.928 197.044 139.048C196.948 139.192 196.78 139.288 196.54 139.336C195.58 139.552 194.704 139.66 193.912 139.66V137.356H186.244V138.508C186.244 139.036 186.004 139.336 185.524 139.408C184.828 139.552 183.976 139.648 182.968 139.696C183.064 137.32 183.112 135.076 183.112 132.964V130.156C183.112 128.548 183.088 127.204 183.04 126.124C182.224 126.484 181.06 126.928 179.548 127.456L179.26 126.916C179.884 126.58 180.436 126.244 180.916 125.908H180.664H176.38V132.964C178.972 132.364 180.544 131.992 181.096 131.848L181.312 132.424C177.472 134.368 173.248 136.12 168.64 137.68C168.496 138.736 168.22 139.264 167.812 139.264ZM168.424 120.508C168.52 118.3 168.568 116.476 168.568 115.036V112.408C168.568 111.328 168.544 109.9 168.496 108.124L172.348 109.24H176.2L177.208 107.476L180.448 108.988C180.736 109.108 180.88 109.276 180.88 109.492C180.88 109.876 180.448 110.296 179.584 110.752V112.84C179.584 114.4 179.62 116.224 179.692 118.312C179.692 118.768 179.512 119.032 179.152 119.104C178.336 119.32 177.532 119.428 176.74 119.428V118.312H171.448V119.392C171.448 119.824 171.22 120.1 170.764 120.22C169.9 120.388 169.12 120.484 168.424 120.508ZM193.912 128.176H186.244V136.384H193.912V128.176ZM176.74 110.14H171.448V117.448H176.74V110.14ZM186.964 111.976C186.556 112.816 186.088 113.656 185.56 114.496C186.976 116.248 188.356 117.616 189.7 118.6C191.212 116.728 192.484 114.52 193.516 111.976H186.964ZM214.18 139.228C214.156 138.244 213.832 137.548 213.208 137.14C212.584 136.708 211.408 136.3 209.68 135.916L209.788 135.304L214.468 135.592C215.404 135.64 216.052 135.472 216.412 135.088C216.796 134.68 217.024 133.852 217.096 132.604C217.216 130.084 217.3 127.888 217.348 126.016H212.128C211.552 128.824 210.64 131.296 209.392 133.432C208.264 135.376 206.596 137.452 204.388 139.66L203.956 139.264C205.348 136.96 206.428 134.836 207.196 132.892C208.06 130.732 208.696 128.44 209.104 126.016H205V125.044H209.248C209.512 123.1 209.704 120.784 209.824 118.096H205.36V117.124H209.86C209.884 116.404 209.896 115.264 209.896 113.704V110.212H204.856V109.24H217.024L218.284 107.224L221.668 108.844C222.028 109.036 222.208 109.24 222.208 109.456C222.208 109.864 221.692 110.332 220.66 110.86C220.684 117.892 220.552 125.332 220.264 133.18C220.168 135.292 219.652 136.792 218.716 137.68C217.828 138.52 216.316 139.036 214.18 139.228ZM231.316 135.808C231.244 134.704 230.956 133.924 230.452 133.468C230.044 133.084 229.096 132.64 227.608 132.136L227.716 131.524L231.568 131.776C232.336 131.824 232.9 131.656 233.26 131.272C233.644 130.864 233.836 130.168 233.836 129.184C233.932 126.616 232.504 123.676 229.552 120.364L232.468 110.212H227.428V138.364C227.428 138.868 227.224 139.18 226.816 139.3C226 139.516 225.088 139.636 224.08 139.66C224.2 136.3 224.26 132.304 224.26 127.672V115.756C224.26 112.708 224.212 110.092 224.116 107.908L228.112 109.24H232L233.368 107.116L237.328 109.276C237.664 109.444 237.832 109.636 237.832 109.852C237.832 110.332 237.244 110.728 236.068 111.04L230.704 120.112C233.008 121.792 234.664 123.376 235.672 124.864C236.656 126.328 237.148 127.9 237.148 129.58C237.148 131.572 236.692 133.036 235.78 133.972C234.892 134.884 233.404 135.496 231.316 135.808ZM212.956 118.096C212.836 120.976 212.62 123.292 212.308 125.044H217.348C217.396 123.628 217.444 121.312 217.492 118.096H212.956ZM213.064 113.668C213.064 114.532 213.04 115.684 212.992 117.124H217.492C217.54 113.62 217.564 111.316 217.564 110.212H213.064V113.668ZM271.024 137.68C268.912 135.784 267.34 133.924 266.308 132.1C265.348 130.396 264.52 128.104 263.824 125.224C262.936 125.584 262 125.944 261.016 126.304C261.4 127.696 261.592 129.388 261.592 131.38C261.592 134.26 261.1 136.324 260.116 137.572C259.204 138.748 257.596 139.468 255.292 139.732C255.148 138.676 254.788 137.944 254.212 137.536C253.66 137.128 252.532 136.744 250.828 136.384L250.972 135.808L255.4 135.988C256.408 136.036 257.14 135.724 257.596 135.052C258.124 134.26 258.388 132.928 258.388 131.056C258.388 130.096 258.376 129.4 258.352 128.968C255.76 131.056 253.216 132.772 250.72 134.116C248.08 135.532 245.08 136.732 241.72 137.716L241.468 137.176C244.852 135.496 247.936 133.66 250.72 131.668C253.216 129.868 255.616 127.816 257.92 125.512C257.728 124.816 257.5 124.18 257.236 123.604C254.764 125.524 252.388 127.084 250.108 128.284C247.66 129.58 244.96 130.684 242.008 131.596L241.792 131.056C247.336 128.176 251.968 124.912 255.688 121.264C255.448 120.952 255.172 120.64 254.86 120.328C251.212 122.488 247.036 124.216 242.332 125.512L242.116 124.972C247.372 122.38 251.38 119.884 254.14 117.484H246.688V116.512H264.4L266.308 114.028L269.728 116.512C269.92 116.68 270.016 116.824 270.016 116.944C269.992 117.256 269.62 117.436 268.9 117.484H259C257.728 118.468 256.636 119.236 255.724 119.788C258.22 121.396 259.864 123.22 260.656 125.26C264.664 122.692 267.292 120.52 268.54 118.744L271.888 121.3C272.152 121.492 272.284 121.66 272.284 121.804C272.284 122.068 272.104 122.248 271.744 122.344C271.36 122.44 270.772 122.392 269.98 122.2C268.372 123.16 266.596 124.048 264.652 124.864C265.876 127.168 267.256 129.052 268.792 130.516C270.448 132.1 272.536 133.408 275.056 134.44L274.84 135.016C273.256 135.208 271.984 136.096 271.024 137.68ZM243.556 117.736C243.076 117.736 242.668 117.568 242.332 117.232C241.996 116.896 241.828 116.488 241.828 116.008C241.804 115.168 242.152 114.496 242.872 113.992C244.312 112.84 245.296 111.256 245.824 109.24L246.22 109.276C246.364 110.188 246.448 110.86 246.472 111.292H257.02C256.852 111.076 256.732 110.812 256.66 110.5C256.324 109.084 255.676 107.812 254.716 106.684L254.968 106.396C258.448 107.044 260.188 108.124 260.188 109.636C260.188 110.356 259.888 110.908 259.288 111.292H269.44L271.096 109.276L274.732 111.868C275.116 112.156 275.308 112.396 275.308 112.588C275.308 112.996 274.588 113.236 273.148 113.308C271.828 114.196 270.4 114.976 268.864 115.648L268.468 115.36L270.016 112.264H246.508C246.508 112.672 246.46 113.332 246.364 114.244C246.268 115.204 245.932 116.032 245.356 116.728C244.804 117.4 244.204 117.736 243.556 117.736ZM292.3 139.66C292.18 138.532 291.748 137.728 291.004 137.248C290.308 136.792 288.796 136.3 286.468 135.772L286.54 135.196L293.02 135.412C293.548 135.436 293.92 135.34 294.136 135.124C294.376 134.908 294.496 134.548 294.496 134.044V114.244C294.496 111.724 294.436 109.156 294.316 106.54L299.176 106.9C299.56 106.948 299.752 107.092 299.752 107.332C299.752 107.86 299.176 108.292 298.024 108.628V124C298.024 125.728 298.084 129.616 298.204 135.664C298.228 136.888 297.832 137.788 297.016 138.364C296.152 138.964 294.58 139.396 292.3 139.66ZM310.084 132.82C309.34 132.82 308.848 132.34 308.608 131.38C307.12 125.572 304.732 120.184 301.444 115.216L301.876 114.784C305.38 117.592 308.08 120.412 309.976 123.244C311.68 125.812 312.532 128.044 312.532 129.94C312.532 130.78 312.28 131.476 311.776 132.028C311.296 132.556 310.732 132.82 310.084 132.82ZM279.232 133.936L278.8 133.504C281.632 128.848 283.768 124.156 285.208 119.428C285.664 118.036 285.988 116.548 286.18 114.964L291.004 116.332C291.388 116.428 291.58 116.62 291.58 116.908C291.58 117.436 290.872 117.772 289.456 117.916C287.608 123.988 284.2 129.328 279.232 133.936ZM327.868 134.548C327.34 134.548 326.992 134.212 326.824 133.54C326.248 131.332 325.408 129.484 324.304 127.996C323.752 130.18 322.864 132.196 321.64 134.044C320.488 135.772 318.808 137.668 316.6 139.732L316.132 139.372C318.58 135.772 320.236 132.46 321.1 129.436C321.94 126.484 322.36 122.56 322.36 117.664V113.416C322.36 110.224 322.312 107.92 322.216 106.504L326.356 106.864C326.74 106.912 326.932 107.056 326.932 107.296C326.932 107.752 326.404 108.172 325.348 108.556V116.368V117.736C326.836 115.552 327.904 113.596 328.552 111.868L331.648 113.956C331.888 114.124 332.008 114.292 332.008 114.46C332.008 114.988 331.408 115.168 330.208 115C328.984 116.32 327.352 117.652 325.312 118.996C325.24 122.38 324.976 125.092 324.52 127.132C326.44 128.116 327.832 129.052 328.696 129.94C329.44 130.708 329.812 131.488 329.812 132.28C329.812 132.928 329.62 133.468 329.236 133.9C328.852 134.332 328.396 134.548 327.868 134.548ZM325.96 139.732L325.672 139.12C330.232 137.296 333.892 135.376 336.652 133.36C339.412 131.32 341.68 128.872 343.456 126.016C344.416 124.456 345.124 122.944 345.58 121.48L349.648 123.208C349.984 123.352 350.152 123.532 350.152 123.748C350.152 124.3 349.504 124.576 348.208 124.576C345.952 128.656 343.192 131.884 339.928 134.26C336.664 136.636 332.008 138.46 325.96 139.732ZM337.804 127.456C337.876 124.936 337.912 121.96 337.912 118.528V111.472C337.912 109.888 337.876 108.232 337.804 106.504L342.016 106.864C342.4 106.912 342.592 107.056 342.592 107.296C342.592 107.752 342.088 108.16 341.08 108.52V116.728C341.08 119.68 341.116 122.812 341.188 126.124C341.188 126.604 340.96 126.928 340.504 127.096C339.784 127.336 338.884 127.456 337.804 127.456ZM329.2 126.88L328.624 126.592C330.184 123.04 331.288 119.812 331.936 116.908C332.248 115.468 332.476 114.052 332.62 112.66L336.832 113.812C337.168 113.884 337.336 114.028 337.336 114.244C337.336 114.772 336.772 115.096 335.644 115.216C334.3 119.56 332.152 123.448 329.2 126.88ZM348.46 121.264C347.932 121.264 347.524 120.928 347.236 120.256C346.132 117.52 344.344 115.024 341.872 112.768L342.196 112.336C345.124 113.656 347.248 114.892 348.568 116.044C349.72 117.052 350.296 118.048 350.296 119.032C350.176 120.472 349.564 121.216 348.46 121.264ZM317.752 124C317.32 124 316.984 123.844 316.744 123.532C316.504 123.244 316.384 122.848 316.384 122.344C316.384 121.696 316.648 121.072 317.176 120.472C318.304 119.056 318.952 117.22 319.12 114.964H319.588C320.092 116.5 320.344 117.94 320.344 119.284C320.344 120.844 320.08 122.044 319.552 122.884C319.096 123.628 318.496 124 317.752 124ZM361.456 124.216L361.06 123.64C365.092 120.424 367.528 117.16 368.368 113.848H360.016V138.508C360.016 139.012 359.788 139.312 359.332 139.408C358.492 139.6 357.544 139.696 356.488 139.696C356.608 135.424 356.668 131.008 356.668 126.448V118.42C356.668 115.324 356.632 112.96 356.56 111.328L361.024 112.876H368.584C368.728 112.204 368.824 111.64 368.872 111.184C369.04 109.864 369.1 108.304 369.052 106.504L373.66 106.864C373.948 106.912 374.092 107.068 374.092 107.332C374.092 107.764 373.54 108.148 372.436 108.484C372.316 110.236 372.112 111.7 371.824 112.876H380.896L382.192 110.68L386.008 112.444C386.344 112.612 386.512 112.792 386.512 112.984C386.512 113.44 385.996 113.944 384.964 114.496V125.26C384.964 127.732 385.012 131.248 385.108 135.808C385.132 136.96 384.772 137.8 384.028 138.328C383.212 138.904 381.688 139.312 379.456 139.552C379.336 138.496 378.964 137.752 378.34 137.32C377.74 136.912 376.456 136.492 374.488 136.06L374.596 135.484L380.14 135.736C380.668 135.76 381.052 135.652 381.292 135.412C381.508 135.196 381.616 134.824 381.616 134.296V113.848H371.572C371.428 114.424 371.2 115.06 370.888 115.756C373.936 116.596 376.228 117.532 377.764 118.564C379.06 119.428 379.708 120.28 379.708 121.12C379.588 122.536 379.072 123.268 378.16 123.316C377.632 123.316 377.212 123.04 376.9 122.488C376.156 121.36 375.316 120.34 374.38 119.428C373.396 118.444 372.148 117.412 370.636 116.332C369.22 119.236 366.16 121.864 361.456 124.216ZM377.908 133.324C377.428 133.324 377.008 133.048 376.648 132.496C375.376 130.456 373.468 128.548 370.924 126.772C370.18 128.26 369.136 129.568 367.792 130.696C366.352 131.92 364.384 133.108 361.888 134.26L361.492 133.72C365.428 130.648 367.792 127.636 368.584 124.684C368.968 123.436 369.196 122.128 369.268 120.76L373.444 121.372C373.732 121.42 373.876 121.576 373.876 121.84C373.876 122.056 373.756 122.26 373.516 122.452C373.252 122.668 372.832 122.836 372.256 122.956C371.896 124.324 371.56 125.356 371.248 126.052C374.104 126.796 376.24 127.636 377.656 128.572C378.88 129.388 379.492 130.228 379.492 131.092C379.372 132.508 378.844 133.252 377.908 133.324ZM396.952 139.84L396.268 138.976C398.116 137.92 399.088 136.972 399.184 136.132C399.28 135.508 398.992 135.16 398.32 135.088C397.672 135.016 397.156 134.764 396.772 134.332C396.388 133.9 396.196 133.36 396.196 132.712C396.196 131.992 396.46 131.38 396.988 130.876C397.54 130.348 398.212 130.084 399.004 130.084C399.868 130.084 400.564 130.372 401.092 130.948C401.644 131.548 401.92 132.34 401.92 133.324C401.92 136.228 400.264 138.4 396.952 139.84ZM457.18 127.168V125.62H451.456C450.592 129.196 448.984 132.112 446.632 134.368C444.328 136.6 441.112 138.412 436.984 139.804L436.66 139.3C440.092 137.14 442.672 135.076 444.4 133.108C446.296 130.972 447.616 128.476 448.36 125.62H444.868V126.628C444.868 127.156 444.64 127.456 444.184 127.528C443.416 127.72 442.648 127.816 441.88 127.816C441.952 125.656 441.988 123.892 441.988 122.524V119.644V117.484C440.884 118.444 440.044 119.14 439.468 119.572L439.36 119.464V124.936C439.36 126.856 439.396 129.592 439.468 133.144C439.468 133.672 439.228 133.996 438.748 134.116C438.1 134.308 437.38 134.416 436.588 134.44V132.388H433.024V135.016C433.024 135.496 432.784 135.808 432.304 135.952C431.608 136.12 430.864 136.228 430.072 136.276C430.168 133.084 430.216 130.096 430.216 127.312V116.476C430.216 113.524 430.192 111.208 430.144 109.528L433.888 110.716H436.012L437.164 108.844L440.224 110.32C440.56 110.464 440.728 110.656 440.728 110.896C440.728 111.328 440.272 111.784 439.36 112.264V118.78C442.696 114.34 444.808 110.2 445.696 106.36L449.836 107.44C450.196 107.56 450.376 107.728 450.376 107.944C450.376 108.448 449.752 108.76 448.504 108.88C448.264 109.336 447.904 109.972 447.424 110.788H451.78L453.4 108.844L456.748 111.076C457.084 111.34 457.252 111.568 457.252 111.76C457.252 112.264 456.604 112.564 455.308 112.66C453.7 114.34 452.38 115.66 451.348 116.62H456.532L457.72 114.712L460.96 116.26C461.296 116.404 461.464 116.596 461.464 116.836C461.464 117.052 461.368 117.244 461.176 117.412C460.96 117.604 460.588 117.844 460.06 118.132V120.544C460.06 121.768 460.108 123.568 460.204 125.944C460.228 126.4 460.012 126.7 459.556 126.844C458.692 127.06 457.9 127.168 457.18 127.168ZM454.732 139.048C453.436 139.048 452.56 138.808 452.104 138.328C451.672 137.872 451.456 137.008 451.456 135.736V130.66C451.456 128.98 451.432 127.66 451.384 126.7L455.236 127.06C455.596 127.108 455.776 127.252 455.776 127.492C455.776 127.876 455.308 128.248 454.372 128.608V134.944C454.372 135.4 454.468 135.724 454.66 135.916C454.852 136.108 455.164 136.204 455.596 136.204H457.756C458.188 136.204 458.536 136.096 458.8 135.88C459.04 135.688 459.22 135.364 459.34 134.908L460.636 129.292L461.212 129.364L461.392 134.512C461.416 135.16 461.644 135.664 462.076 136.024C462.508 136.384 462.724 136.78 462.724 137.212C462.724 138.436 461.416 139.048 458.8 139.048H454.732ZM452.356 117.556C452.308 120.244 452.08 122.62 451.672 124.684H457.18V117.556H452.356ZM433.024 122.02V131.38H436.588V122.02H433.024ZM436.588 111.652H433.024V121.012H436.588V111.652ZM448.576 124.684C448.984 122.692 449.212 120.316 449.26 117.556H444.868V124.684H448.576ZM452.176 111.76H446.848C445.84 113.32 444.712 114.736 443.464 116.008L445.588 116.62H450.016L452.176 111.76ZM466.756 123.316V122.272H492.496L495.052 118.852L499.48 122.272C499.696 122.416 499.804 122.56 499.804 122.704C499.804 123.064 499.396 123.268 498.58 123.316H466.756ZM97.3241 194.588C97.4441 190.82 97.5041 188.624 97.5041 188V185.66C97.5041 184.412 97.4681 182.888 97.3961 181.088L102.004 182.384H106.612V176.804C106.612 175.508 106.576 173.42 106.504 170.54L111.04 170.9C111.376 170.948 111.544 171.092 111.544 171.332C111.544 171.812 111.016 172.22 109.96 172.556V176.228H118.096L120.076 173.564L123.496 176.192C123.688 176.36 123.784 176.516 123.784 176.66C123.784 176.996 123.388 177.164 122.596 177.164H109.96V182.384H115.9L117.088 180.368L120.724 181.988C121.084 182.108 121.264 182.3 121.264 182.564C121.264 183.02 120.772 183.488 119.788 183.968V186.092C119.788 187.292 119.836 189.692 119.932 193.292C119.932 193.676 119.74 193.916 119.356 194.012C118.612 194.204 117.664 194.324 116.512 194.372V192.716H100.744V193.436C100.744 193.868 100.528 194.144 100.096 194.264C99.2081 194.48 98.2841 194.588 97.3241 194.588ZM116.512 183.356H100.744V191.636H116.512V183.356ZM122.344 203.3C121.648 203.3 121.192 202.916 120.976 202.148C120.352 199.844 119.272 197.732 117.736 195.812L118.096 195.416C120.4 196.352 122.056 197.276 123.064 198.188C123.976 199.028 124.432 199.952 124.432 200.96C124.432 201.656 124.228 202.22 123.82 202.652C123.412 203.084 122.92 203.3 122.344 203.3ZM94.1201 203.588C93.6161 203.588 93.1961 203.408 92.8601 203.048C92.5241 202.688 92.3561 202.22 92.3561 201.644C92.3561 200.876 92.7641 200.264 93.5801 199.808C95.3801 198.776 96.6641 197.336 97.4321 195.488L98.0441 195.596C97.9961 196.892 97.8761 198.056 97.6841 199.088C97.4921 200.552 97.0601 201.68 96.3881 202.472C95.7641 203.216 95.0081 203.588 94.1201 203.588ZM113.092 202.976C112.444 202.976 112.048 202.496 111.904 201.536C111.472 199.352 110.788 197.444 109.852 195.812L110.248 195.452C113.536 197.252 115.18 199.064 115.18 200.888C115.18 201.488 114.988 201.98 114.604 202.364C114.196 202.772 113.692 202.976 113.092 202.976ZM104.596 203.192C103.876 203.168 103.48 202.7 103.408 201.788C103.264 199.604 102.856 197.672 102.184 195.992L102.58 195.668C105.316 197.54 106.684 199.34 106.684 201.068C106.684 201.668 106.48 202.172 106.072 202.58C105.664 202.988 105.172 203.192 104.596 203.192ZM158.2 203.48C157.552 203.48 157.06 203.048 156.724 202.184C156.268 201.056 155.68 199.892 154.96 198.692C150.256 199.652 143.764 200.744 135.484 201.968C135.364 203 135.052 203.516 134.548 203.516C134.284 203.516 134.104 203.312 134.008 202.904L132.64 198.548C134.056 198.476 135.1 197.996 135.772 197.108C138.052 194.252 140.068 191.144 141.82 187.784H129.544V186.812H144.052V179.036H132.136V178.064H144.052C144.052 174.968 144.004 172.472 143.908 170.576L148.66 170.936C148.996 170.96 149.164 171.104 149.164 171.368C149.164 171.872 148.6 172.292 147.472 172.628V178.064H154.132L156.148 175.364L159.892 178.028C160.108 178.22 160.216 178.376 160.216 178.496C160.192 178.832 159.808 179.012 159.064 179.036H147.472V186.812H156.544L158.74 183.896L162.664 186.776C162.88 186.92 162.988 187.052 162.988 187.172C162.964 187.532 162.568 187.736 161.8 187.784H146.5C143.356 191.984 140.152 195.56 136.888 198.512C143.008 198.128 148.768 197.78 154.168 197.468C152.992 195.716 151.36 193.772 149.272 191.636L149.632 191.204C153.4 193.1 156.196 194.924 158.02 196.676C159.58 198.164 160.36 199.544 160.36 200.816C160.36 201.68 160.144 202.352 159.712 202.832C159.328 203.264 158.824 203.48 158.2 203.48ZM184.48 203.66C184.408 202.46 184 201.62 183.256 201.14C182.488 200.636 181.012 200.18 178.828 199.772L178.936 199.124L185.38 199.412C186.028 199.436 186.472 199.34 186.712 199.124C186.928 198.932 187.036 198.572 187.036 198.044V181.34C184.588 185.684 181.84 189.308 178.792 192.212C175.624 195.236 171.664 197.912 166.912 200.24L166.588 199.736C170.812 196.4 174.136 193.34 176.56 190.556C179.08 187.676 181.348 184.316 183.364 180.476H167.812V179.432H187.036V177.2C187.036 174.704 186.988 172.46 186.892 170.468L191.68 170.828C192.064 170.876 192.256 171.032 192.256 171.296C192.256 171.824 191.68 172.256 190.528 172.592V179.432H194.02L196.216 176.408L200.14 179.396C200.38 179.612 200.5 179.78 200.5 179.9C200.452 180.26 200.032 180.452 199.24 180.476H190.528V188C190.528 191.48 190.588 195.236 190.708 199.268C190.732 200.588 190.324 201.56 189.484 202.184C188.572 202.88 186.904 203.372 184.48 203.66ZM212.056 203.732C212.152 199.412 212.2 196.196 212.2 194.084V185.66C210.088 187.868 207.46 189.956 204.316 191.924L203.992 191.42C208.528 187.076 212.032 182.336 214.504 177.2H204.208V176.192H214.972C215.308 175.472 215.548 174.92 215.692 174.536C216.292 173 216.676 171.596 216.844 170.324L221.668 171.404C222.004 171.476 222.172 171.644 222.172 171.908C222.172 172.436 221.488 172.784 220.12 172.952C219.592 174.224 219.112 175.304 218.68 176.192H231.532L233.692 173.348L237.472 176.156C237.664 176.348 237.76 176.504 237.76 176.624C237.736 176.96 237.34 177.152 236.572 177.2H218.176C217.408 178.712 216.46 180.272 215.332 181.88L216.34 182.168H228.4L229.624 180.008L233.476 181.7C233.836 181.868 234.016 182.048 234.016 182.24C234.016 182.696 233.488 183.2 232.432 183.752V190.016C232.432 191.336 232.468 194.624 232.54 199.88C232.564 201.032 232.204 201.884 231.46 202.436C230.692 203.012 229.312 203.456 227.32 203.768C227.2 202.784 226.804 202.064 226.132 201.608C225.46 201.152 224.248 200.756 222.496 200.42L222.604 199.808L227.608 199.952C228.136 199.976 228.508 199.88 228.724 199.664C228.964 199.448 229.084 199.088 229.084 198.584V194.48H215.476V202.508C215.476 202.988 215.284 203.276 214.9 203.372C213.892 203.612 212.944 203.732 212.056 203.732ZM229.084 183.176H215.476V187.82H229.084V183.176ZM215.476 188.828V193.472H229.084V188.828H215.476ZM242.188 179.612V178.748H245.068L244.744 178.568C246.28 175.76 247.252 173.24 247.66 171.008L251.656 171.908C251.968 171.98 252.124 172.124 252.124 172.34C252.124 172.82 251.584 173.108 250.504 173.204C250.264 173.588 249.904 174.116 249.424 174.788H256.732C256.684 172.82 256.648 171.392 256.624 170.504L260.944 170.864C261.328 170.888 261.52 171.032 261.52 171.296C261.52 171.8 260.968 172.22 259.864 172.556V174.788H266.56L268.396 172.484L271.492 174.752C271.708 174.944 271.816 175.1 271.816 175.22C271.816 175.508 271.432 175.652 270.664 175.652H259.864V178.748H269.26L271.096 176.3L274.588 178.712C274.804 178.904 274.912 179.06 274.912 179.18C274.912 179.468 274.528 179.612 273.76 179.612H242.188ZM266.56 187.964V186.956H250.108V187.424C250.108 187.712 250.06 187.916 249.964 188.036C249.892 188.156 249.724 188.24 249.46 188.288C248.716 188.48 247.912 188.576 247.048 188.576C247.12 187.208 247.156 185.936 247.156 184.76V183.752C247.156 182.408 247.132 181.364 247.084 180.62L251.368 181.808H265.984L267.064 179.972L270.484 181.448C270.796 181.592 270.952 181.772 270.952 181.988C270.952 182.348 270.496 182.756 269.584 183.212V183.752C269.584 184.4 269.608 185.42 269.656 186.812C269.68 187.268 269.488 187.556 269.08 187.676C268.408 187.868 267.568 187.964 266.56 187.964ZM260.44 203.552C260.512 200.6 260.548 197.768 260.548 195.056V192.248C260.548 192.008 260.512 190.556 260.44 187.892L264.796 188.216C265.06 188.264 265.192 188.408 265.192 188.648C265.192 189.08 264.688 189.452 263.68 189.764V190.268H270.088L271.744 188.18L274.588 190.268C274.756 190.388 274.84 190.52 274.84 190.664C274.84 190.976 274.48 191.132 273.76 191.132H263.68V194.048H269.476L271.024 192.032L273.76 194.048C273.952 194.168 274.048 194.3 274.048 194.444C274.048 194.756 273.676 194.912 272.932 194.912H263.68C263.68 196.112 263.692 197.096 263.716 197.864H270.484L272.176 195.632L275.2 197.864C275.392 197.984 275.488 198.116 275.488 198.26C275.488 198.572 275.128 198.728 274.408 198.728H263.716C263.74 199.976 263.764 201.224 263.788 202.472C263.788 202.904 263.572 203.168 263.14 203.264C262.372 203.456 261.472 203.552 260.44 203.552ZM242.62 191.132V190.268H252.916C252.892 189.452 252.868 188.636 252.844 187.82L257.2 188.18C257.464 188.228 257.596 188.36 257.596 188.576C257.596 189.008 257.092 189.38 256.084 189.692V194.372C256.084 196.412 256.108 199.136 256.156 202.544C256.156 202.784 256.108 202.964 256.012 203.084C255.916 203.204 255.748 203.288 255.508 203.336C254.74 203.528 253.84 203.624 252.808 203.624C252.808 203.24 252.844 201.608 252.916 198.728H242.296V197.864H252.916C252.94 197.192 252.952 196.28 252.952 195.128V194.912H243.592V194.048H252.952V192.176V191.132H242.62ZM266.56 182.636H250.108V186.128H266.56V182.636ZM256.732 178.748V175.904V175.652H248.74C247.876 176.684 246.796 177.716 245.5 178.748H256.732ZM281.932 203.696C282.076 199.568 282.148 195.56 282.148 191.672V183.68C282.148 181.016 282.1 178.532 282.004 176.228L286.324 176.588C286.708 176.636 286.9 176.792 286.9 177.056C286.9 177.488 286.372 177.872 285.316 178.208V202.436C285.316 202.964 285.1 203.276 284.668 203.372C283.588 203.588 282.676 203.696 281.932 203.696ZM304.648 203.768C304.552 202.712 304.228 201.992 303.676 201.608C303.1 201.2 301.828 200.792 299.86 200.384L299.932 199.736L305.116 199.988C305.572 200.012 305.908 199.916 306.124 199.7C306.34 199.484 306.448 199.148 306.448 198.692V175.22H295.396V174.248H305.728L306.988 172.124L310.768 173.816C311.128 174.008 311.308 174.212 311.308 174.428C311.308 174.908 310.78 175.412 309.724 175.94V187.784C309.724 191.6 309.76 195.644 309.832 199.916C309.856 201.092 309.52 201.956 308.824 202.508C308.08 203.108 306.688 203.528 304.648 203.768ZM290.464 177.488C289.792 177.488 289.324 177.056 289.06 176.192C288.484 174.344 287.524 172.592 286.18 170.936L286.468 170.612C290.476 171.788 292.48 173.3 292.48 175.148C292.48 175.844 292.288 176.408 291.904 176.84C291.52 177.272 291.04 177.488 290.464 177.488ZM328.048 200.744V198.368H321.676V201.104C321.676 201.56 321.376 201.848 320.776 201.968C320.176 202.112 319.396 202.208 318.436 202.256C318.556 198.944 318.616 195.716 318.616 192.572V183.176C318.616 180.704 318.58 178.496 318.508 176.552L322.036 177.632C322.396 175.304 322.54 172.928 322.468 170.504L327.004 171.044C327.388 171.092 327.58 171.248 327.58 171.512C327.58 171.944 327.016 172.292 325.888 172.556C325.048 174.62 324.172 176.372 323.26 177.812H327.4L328.588 175.904L331.864 177.416C332.224 177.608 332.404 177.812 332.404 178.028C332.404 178.268 332.332 178.472 332.188 178.64C332.02 178.832 331.648 179.108 331.072 179.468V190.16C331.072 192.752 331.12 195.92 331.216 199.664C331.216 200.072 331.012 200.324 330.604 200.42C330.076 200.588 329.224 200.696 328.048 200.744ZM332.548 186.452L331.972 186.128C333.652 182.456 334.924 178.484 335.788 174.212C336.052 172.868 336.196 171.644 336.22 170.54L340.972 171.368C341.308 171.44 341.476 171.596 341.476 171.836C341.476 172.316 340.852 172.676 339.604 172.916C339.076 174.548 338.5 176.108 337.876 177.596H344.356L345.58 175.472L349.18 177.164C349.516 177.332 349.684 177.512 349.684 177.704C349.684 177.968 349.588 178.208 349.396 178.424C349.204 178.64 348.82 178.916 348.244 179.252C348.244 183.404 348.124 189.32 347.884 197C347.788 199.256 347.284 200.828 346.372 201.716C345.436 202.628 343.708 203.216 341.188 203.48C341.092 202.304 340.72 201.5 340.072 201.068C339.424 200.636 337.96 200.192 335.68 199.736L335.788 199.124L341.584 199.448C342.664 199.52 343.42 199.34 343.852 198.908C344.284 198.476 344.524 197.612 344.572 196.316C344.812 191.636 344.968 185.72 345.04 178.568H337.444C336.724 180.176 335.92 181.676 335.032 183.068L335.212 182.888C337.42 184.376 338.98 185.66 339.892 186.74C340.756 187.772 341.188 188.816 341.188 189.872C341.188 190.544 340.996 191.096 340.612 191.528C340.228 191.96 339.724 192.176 339.1 192.176C338.476 192.176 338.056 191.732 337.84 190.844C337.336 188.204 336.352 185.684 334.888 183.284C334.288 184.196 333.508 185.252 332.548 186.452ZM321.676 188.108V197.396H328.048V188.108H321.676ZM328.048 178.784H321.676V187.136H328.048V178.784ZM358.432 203.66C358.552 198.932 358.612 194.48 358.612 190.304V184.544C357.292 186.392 355.78 188.156 354.076 189.836L353.572 189.44C356.62 184.472 358.792 179.612 360.088 174.86C360.52 173.252 360.82 171.776 360.988 170.432L365.704 171.476C366.088 171.548 366.28 171.716 366.28 171.98C366.28 172.484 365.632 172.82 364.336 172.988C363.472 175.556 362.452 177.956 361.276 180.188L362.752 180.332C363.088 180.38 363.256 180.524 363.256 180.764C363.256 180.98 363.148 181.172 362.932 181.34C362.716 181.532 362.32 181.736 361.744 181.952V202.328C361.744 202.664 361.696 202.904 361.6 203.048C361.504 203.192 361.312 203.3 361.024 203.372C360.256 203.564 359.392 203.66 358.432 203.66ZM363.904 201.932V200.96H375.748C378.004 192.944 379.36 186.248 379.816 180.872L384.784 182.096C385.168 182.216 385.36 182.396 385.36 182.636C385.336 183.188 384.676 183.548 383.38 183.716C381.652 190.46 379.552 196.208 377.08 200.96H381.652L383.704 198.08L387.448 200.924C387.64 201.068 387.736 201.212 387.736 201.356C387.712 201.692 387.328 201.884 386.584 201.932H363.904ZM371.104 197.864C370.336 197.864 369.94 197.348 369.916 196.316C369.628 191.228 368.728 186.368 367.216 181.736L367.756 181.484C371.5 186.86 373.372 191.336 373.372 194.912C373.372 195.824 373.144 196.556 372.688 197.108C372.256 197.612 371.728 197.864 371.104 197.864ZM364.696 178.928V177.956H381.04L383.056 175.22L386.728 177.92C386.92 178.088 387.016 178.232 387.016 178.352C386.992 178.688 386.596 178.88 385.828 178.928H364.696ZM374.74 177.344C373.996 177.344 373.54 176.888 373.372 175.976C372.964 173.888 372.292 172.1 371.356 170.612L371.644 170.288C375.196 171.536 376.972 173.12 376.972 175.04C376.972 175.688 376.744 176.24 376.288 176.696C375.856 177.128 375.34 177.344 374.74 177.344ZM391.876 182.564V181.664H406.168C406.168 180.8 406.168 179.924 406.168 179.036L410.308 179.432C410.644 179.48 410.812 179.624 410.812 179.864C410.812 180.272 410.272 180.632 409.192 180.944L409.156 181.664H419.488L421.216 179.54L424.42 181.628C424.612 181.772 424.708 181.928 424.708 182.096C424.708 182.408 424.324 182.564 423.556 182.564H409.084L408.904 185.624H415.276L416.5 183.716L420.1 185.3C420.46 185.444 420.64 185.624 420.64 185.84C420.64 186.272 420.136 186.716 419.128 187.172V201.392H419.956L421.72 198.98L424.924 201.356C425.116 201.524 425.212 201.68 425.212 201.824C425.164 202.136 424.78 202.304 424.06 202.328H391.336V201.392H397.132V191.6C397.132 189.152 397.096 186.74 397.024 184.364L401.272 185.624H405.916L406.096 182.564H391.876ZM394.324 180.08C394.396 178.256 394.432 176.804 394.432 175.724V174.608C394.432 173.84 394.408 172.736 394.36 171.296L398.104 172.412H418.264L419.38 170.648L422.836 172.016C423.172 172.184 423.34 172.376 423.34 172.592C423.34 172.952 422.86 173.384 421.9 173.888V174.932C421.9 175.844 421.936 177.056 422.008 178.568C422.032 179 421.84 179.288 421.432 179.432C420.568 179.648 419.728 179.756 418.912 179.756V178.568H397.384V179C397.384 179.24 397.336 179.42 397.24 179.54C397.144 179.66 396.988 179.756 396.772 179.828C395.932 179.996 395.116 180.08 394.324 180.08ZM400.3 198.368V201.392H415.924V198.368H400.3ZM400.3 194.408V197.432H415.924V194.408H400.3ZM400.3 190.484V193.472H415.924V190.484H400.3ZM415.924 186.56H400.3V189.548H415.924V186.56ZM418.912 173.312H413.62V177.668H418.912V173.312ZM397.384 173.312V177.668H402.64V173.312H397.384ZM405.52 173.312V177.668H410.776V173.312H405.52ZM434.392 203.84L433.708 202.976C435.556 201.92 436.528 200.972 436.624 200.132C436.72 199.508 436.432 199.16 435.76 199.088C435.112 199.016 434.596 198.764 434.212 198.332C433.828 197.9 433.636 197.36 433.636 196.712C433.636 195.992 433.9 195.38 434.428 194.876C434.98 194.348 435.652 194.084 436.444 194.084C437.308 194.084 438.004 194.372 438.532 194.948C439.084 195.548 439.36 196.34 439.36 197.324C439.36 200.228 437.704 202.4 434.392 203.84ZM466.468 203.624L466.072 203.264C467.944 200.096 469.228 197.096 469.924 194.264C470.62 191.408 470.968 187.652 470.968 182.996V179.036C470.968 176.804 470.92 174.572 470.824 172.34L474.856 173.456H490.228L491.452 171.368L495.412 173.06C495.724 173.228 495.88 173.42 495.88 173.636C495.88 173.828 495.772 174.02 495.556 174.212C495.292 174.452 494.86 174.716 494.26 175.004V183.932C494.26 187.604 494.452 190.436 494.836 192.428C495.22 194.396 495.904 196.196 496.888 197.828C497.056 198.068 497.2 198.176 497.32 198.152C497.44 198.128 497.56 197.972 497.68 197.684L499.228 192.896L499.732 193.004L499.336 198.332C499.264 199.196 499.372 199.856 499.66 200.312C499.924 200.768 500.056 201.284 500.056 201.86C500.056 202.268 499.888 202.604 499.552 202.868C499.216 203.132 498.796 203.264 498.292 203.264C497.548 203.264 496.768 202.928 495.952 202.256C495.088 201.56 494.356 200.612 493.756 199.412C492.724 197.588 491.992 195.488 491.56 193.112C491.152 190.832 490.948 187.856 490.948 184.184V174.428H474.28V182.492C474.28 187.82 473.692 192.032 472.516 195.128C471.388 198.104 469.372 200.936 466.468 203.624ZM473.092 200.276L472.768 199.772C476.608 195.764 479.464 191.744 481.336 187.712C479.728 185.144 477.676 182.432 475.18 179.576L475.54 179.18C478.012 181.124 480.292 183.152 482.38 185.264C482.884 183.944 483.328 182.576 483.712 181.16C484.12 179.72 484.384 178.28 484.504 176.84L488.824 177.992C489.16 178.064 489.328 178.232 489.328 178.496C489.328 178.952 488.752 179.252 487.6 179.396C486.76 182.612 485.776 185.372 484.648 187.676C487.912 191.42 489.544 194.324 489.544 196.388C489.4 198.02 488.74 198.884 487.564 198.98C486.988 198.98 486.556 198.56 486.268 197.72C485.284 195.056 484.204 192.656 483.028 190.52C480.652 194.288 477.34 197.54 473.092 200.276ZM93.3641 262.216C93.4841 259.048 93.5441 255.52 93.5441 251.632V246.16C93.5441 243.448 93.5081 240.976 93.4361 238.744L97.3601 240.04H99.9881L101.176 238.096L104.416 239.644C104.776 239.812 104.956 239.992 104.956 240.184C104.956 240.592 104.476 241.048 103.516 241.552V249.868C103.516 251.836 103.564 255.1 103.66 259.66C103.66 259.9 103.612 260.08 103.516 260.2C103.42 260.32 103.264 260.416 103.048 260.488C102.4 260.68 101.584 260.8 100.6 260.848V257.5H96.5321V260.956C96.5321 261.436 96.3041 261.736 95.8481 261.856C94.9121 262.072 94.0841 262.192 93.3641 262.216ZM122.056 268.372C119.704 266.02 117.94 263.584 116.764 261.064C115.492 258.352 114.652 255.04 114.244 251.128C114.004 255.568 112.768 259.132 110.536 261.82C108.328 264.508 104.704 266.884 99.6641 268.948L99.3041 268.336C103.264 265.816 106.144 263.224 107.944 260.56C109.696 257.968 110.68 254.944 110.896 251.488C111.04 249.448 111.028 247.684 110.86 246.196L115.468 246.52C115.804 246.544 115.972 246.688 115.972 246.952C115.972 247.408 115.444 247.804 114.388 248.14C115.468 252.628 116.896 256.192 118.672 258.832C120.52 261.568 122.956 263.632 125.98 265.024L125.656 265.744C124.24 265.744 123.04 266.62 122.056 268.372ZM104.38 252.748L103.84 252.424C106.048 247.888 107.536 243.652 108.304 239.716C108.544 238.276 108.724 236.848 108.844 235.432L113.632 236.26C113.968 236.356 114.136 236.5 114.136 236.692C114.136 237.244 113.5 237.616 112.228 237.808C111.724 239.68 111.196 241.312 110.644 242.704H119.968L121.48 240.652L125.188 243.064C125.5 243.256 125.656 243.46 125.656 243.676C125.656 244.132 125.032 244.408 123.784 244.504C122.176 246.4 120.508 248.14 118.78 249.724L118.24 249.4L120.436 243.676H110.248C108.832 246.988 106.876 250.012 104.38 252.748ZM100.6 240.976H96.5321V256.564H100.6V240.976ZM139.408 243.604V242.632H144.052V241.084C144.052 239.044 144.004 237.16 143.908 235.432L148.228 235.792C148.564 235.84 148.732 235.984 148.732 236.224C148.732 236.68 148.18 237.076 147.076 237.412V242.632H152.728V241.516C152.728 239.5 152.68 237.46 152.584 235.396L156.94 235.684C157.3 235.708 157.48 235.852 157.48 236.116C157.48 236.62 156.916 237.028 155.788 237.34V242.632H156.832L158.488 240.328L161.584 242.668C161.776 242.812 161.872 242.956 161.872 243.1C161.872 243.436 161.5 243.604 160.756 243.604H155.788V250.12V251.38H157.516L159.388 248.86L162.736 251.416C162.904 251.56 162.988 251.692 162.988 251.812C162.988 252.148 162.616 252.328 161.872 252.352H155.788C155.788 256.192 155.836 259.348 155.932 261.82C155.98 262.444 155.74 262.804 155.212 262.9C154.204 263.14 153.328 263.26 152.584 263.26C152.68 258.364 152.728 254.728 152.728 252.352H146.68C146.32 254.872 145.6 256.924 144.52 258.508C143.536 259.948 141.892 261.46 139.588 263.044L139.084 262.648C140.524 260.92 141.592 259.312 142.288 257.824C143.008 256.264 143.488 254.44 143.728 252.352H138.436V251.38H143.836C143.98 249.772 144.052 247.876 144.052 245.692V243.604H139.408ZM131.416 268.588C131.248 268.588 131.092 268.432 130.948 268.12L128.968 264.412C130.6 263.836 132.22 262.936 133.828 261.712V249.976H129.292V249.04H133.108L134.368 246.88L138.04 248.68C138.376 248.824 138.544 248.992 138.544 249.184C138.544 249.568 137.992 250.024 136.888 250.552V261.208C136.888 262.264 137.632 263.056 139.12 263.584C140.776 264.184 143.632 264.532 147.688 264.628C152.608 264.724 157.792 264.424 163.24 263.728V264.304C162.64 264.592 162.208 264.952 161.944 265.384C161.68 265.84 161.512 266.5 161.44 267.364C158.944 267.508 154.984 267.628 149.56 267.724C145.528 267.7 142.504 267.292 140.488 266.5C138.52 265.732 137.008 264.388 135.952 262.468C134.896 263.788 133.6 265.228 132.064 266.788C132.136 267.988 131.92 268.588 131.416 268.588ZM147.076 245.368C147.076 247.792 146.992 249.796 146.824 251.38H152.728V243.604H147.076V245.368ZM135.7 243.784C135.028 243.784 134.584 243.388 134.368 242.596C133.744 240.34 132.664 238.36 131.128 236.656L131.416 236.296C133.648 237.064 135.28 237.88 136.312 238.744C137.296 239.56 137.788 240.472 137.788 241.48C137.788 242.176 137.572 242.74 137.14 243.172C136.732 243.58 136.252 243.784 135.7 243.784ZM197.512 266.248C194.248 264.544 191.704 262.696 189.88 260.704C188.104 258.784 186.604 256.276 185.38 253.18H184.912V253.72C184.912 259.456 184.984 263.992 185.128 267.328C185.152 267.856 184.864 268.204 184.264 268.372C183.304 268.612 182.356 268.708 181.42 268.66C181.492 266.02 181.564 261.508 181.636 255.124C179.788 257.692 177.748 259.852 175.516 261.604C173.188 263.452 170.272 265.168 166.768 266.752L166.372 266.176C169.3 263.992 171.7 261.94 173.572 260.02C175.516 258.004 177.292 255.724 178.9 253.18H167.164V252.208H181.636V243.46V242.308H168.748V241.336H181.636C181.636 239.32 181.6 237.376 181.528 235.504L185.956 235.864C186.292 235.912 186.46 236.056 186.46 236.296C186.46 236.8 185.944 237.208 184.912 237.52V241.336H192.76L194.668 238.744L198.16 241.3C198.376 241.444 198.484 241.6 198.484 241.768C198.46 242.104 198.076 242.284 197.332 242.308H184.912V252.208H187.396L186.928 252.064C188.56 248.896 189.64 246.004 190.168 243.388L194.308 244.936C194.644 245.056 194.8 245.236 194.776 245.476C194.776 245.692 194.632 245.872 194.344 246.016C194.008 246.184 193.528 246.28 192.904 246.304C191.44 248.44 189.76 250.408 187.864 252.208H194.092L196.216 249.4L199.96 252.1C200.176 252.292 200.284 252.46 200.284 252.604C200.26 252.94 199.864 253.132 199.096 253.18H186.316C188.02 255.508 189.976 257.38 192.184 258.796C194.488 260.284 197.332 261.424 200.716 262.216L200.536 262.9C199.144 263.26 198.136 264.376 197.512 266.248ZM176.272 251.488C175.624 251.488 175.192 251.068 174.976 250.228C174.448 247.996 173.536 245.908 172.24 243.964L172.6 243.64C174.568 244.552 176.032 245.512 176.992 246.52C177.856 247.432 178.288 248.32 178.288 249.184C178.288 249.856 178.096 250.408 177.712 250.84C177.328 251.272 176.848 251.488 176.272 251.488ZM204.388 252.064L203.848 251.812C204.712 248.428 205.288 245.452 205.576 242.884C205.768 241.228 205.864 239.764 205.864 238.492L209.644 239.248C210.004 239.32 210.184 239.464 210.184 239.68C210.184 240.16 209.716 240.46 208.78 240.58C208.564 241.612 208.252 242.884 207.844 244.396H210.616V242.92C210.616 240.328 210.592 237.856 210.544 235.504L214.828 235.864C215.188 235.888 215.368 236.032 215.368 236.296C215.368 236.8 214.816 237.208 213.712 237.52V244.396H215.044L216.484 242.38L219.112 244.396C219.304 244.564 219.4 244.72 219.4 244.864C219.4 245.152 219.028 245.32 218.284 245.368H213.712V252.208C215.296 251.728 216.844 251.236 218.356 250.732L218.572 251.236C216.772 252.34 215.152 253.288 213.712 254.08V255.844C213.712 260.044 213.736 263.92 213.784 267.472C213.784 267.952 213.568 268.24 213.136 268.336C212.416 268.504 211.576 268.612 210.616 268.66V255.664C210.016 255.976 208.72 256.588 206.728 257.5C206.728 258.724 206.5 259.336 206.044 259.336C205.828 259.336 205.648 259.144 205.504 258.76L204.064 254.584C204.976 254.488 206.14 254.26 207.556 253.9C208.588 253.636 209.608 253.372 210.616 253.108V245.368H207.52C206.776 247.624 205.732 249.856 204.388 252.064ZM216.484 254.764V253.792H229.192C229.144 252.664 229.108 251.176 229.084 249.328L233.476 249.688C233.836 249.736 234.016 249.88 234.016 250.12C234.016 250.552 233.476 250.936 232.396 251.272V253.792H233.656L235.24 251.704L238.156 253.792C238.372 253.984 238.48 254.14 238.48 254.26C238.48 254.596 238.108 254.764 237.364 254.764H232.396V258.004C232.396 258.484 232.444 260.812 232.54 264.988C232.564 266.14 232.216 266.98 231.496 267.508C230.704 268.084 229.276 268.468 227.212 268.66C227.092 267.628 226.732 266.908 226.132 266.5C225.604 266.116 224.44 265.732 222.64 265.348L222.748 264.808L227.752 265.024C228.28 265.048 228.652 264.952 228.868 264.736C229.084 264.544 229.192 264.184 229.192 263.656V254.764H216.484ZM218.212 242.236V241.264H224.8V240.976C224.8 240.352 224.764 238.564 224.692 235.612L229.084 235.972C229.468 235.996 229.66 236.14 229.66 236.404C229.66 236.86 229.096 237.268 227.968 237.628V241.264H231.604L233.332 238.96L236.5 241.264C236.692 241.432 236.788 241.576 236.788 241.696C236.788 242.008 236.416 242.188 235.672 242.236H227.968V247.78H232.828L234.7 245.26L238.156 247.78C238.348 247.924 238.444 248.068 238.444 248.212C238.444 248.572 238.06 248.752 237.292 248.752H216.376V247.78H224.8V242.236H218.212ZM222.82 262.432C222.508 262.432 222.268 262.348 222.1 262.18C221.908 261.988 221.728 261.64 221.56 261.136C220.888 259.216 219.94 257.488 218.716 255.952L219.004 255.628C220.876 256.276 222.316 257.032 223.324 257.896C224.26 258.688 224.728 259.48 224.728 260.272C224.728 260.92 224.536 261.448 224.152 261.856C223.792 262.24 223.348 262.432 222.82 262.432ZM244.78 249.688C244.852 247.168 244.888 245.284 244.888 244.036V241.156C244.888 240.196 244.864 238.876 244.816 237.196L248.812 238.42H255.832L257.02 236.404L260.512 238.06C260.848 238.228 261.016 238.42 261.016 238.636C261.016 239.02 260.5 239.464 259.468 239.968V242.704C259.492 244.48 259.516 246.256 259.54 248.032C259.564 248.512 259.36 248.812 258.928 248.932C257.968 249.124 257.14 249.22 256.444 249.22V247.492H247.84V248.464C247.84 249.04 247.6 249.364 247.12 249.436C246.472 249.556 245.692 249.64 244.78 249.688ZM253.96 268.264C253.888 267.232 253.624 266.512 253.168 266.104C252.736 265.72 251.776 265.336 250.288 264.952L250.432 264.34L254.248 264.592C255.04 264.64 255.58 264.52 255.868 264.232C256.156 263.944 256.324 263.332 256.372 262.396C256.54 260.116 256.648 257.428 256.696 254.332H251.872C251.56 258.052 250.684 260.92 249.244 262.936C247.828 264.928 245.284 266.884 241.612 268.804L241.252 268.3C243.796 266.14 245.62 263.992 246.724 261.856C247.804 259.792 248.44 257.284 248.632 254.332H242.764V253.396H248.668C248.692 253.108 248.704 252.82 248.704 252.532C248.728 251.332 248.716 250.252 248.668 249.292L253.132 249.652C253.492 249.7 253.672 249.844 253.672 250.084C253.672 250.54 253.12 250.936 252.016 251.272C251.968 252.112 251.932 252.82 251.908 253.396H256.048L257.308 251.272L260.908 253C261.268 253.192 261.448 253.384 261.448 253.576C261.448 254.032 260.92 254.5 259.864 254.98C259.816 257.812 259.72 260.596 259.576 263.332C259.504 264.892 259.072 266.032 258.28 266.752C257.464 267.496 256.024 268 253.96 268.264ZM268.288 268.588C268.192 267.532 267.856 266.788 267.28 266.356C266.752 265.972 265.624 265.564 263.896 265.132L264.004 264.52L268.9 264.772C269.476 264.796 269.872 264.712 270.088 264.52C270.28 264.328 270.376 263.956 270.376 263.404V242.596C270.376 239.62 270.328 237.22 270.232 235.396L274.552 235.756C274.912 235.78 275.092 235.924 275.092 236.188C275.092 236.62 274.552 237.016 273.472 237.376V251.992C273.544 256.24 273.604 260.476 273.652 264.7C273.676 265.924 273.328 266.812 272.608 267.364C271.84 267.94 270.4 268.348 268.288 268.588ZM256.444 239.356H247.84V246.556H256.444V239.356ZM263.428 260.164C263.524 257.212 263.572 253.732 263.572 249.724V246.052C263.572 243.7 263.536 241.852 263.464 240.508L267.532 240.868C267.892 240.892 268.072 241.036 268.072 241.3C268.072 241.756 267.568 242.14 266.56 242.452V258.76C266.56 259.336 266.32 259.696 265.84 259.84C264.88 260.056 264.076 260.164 263.428 260.164ZM305.476 262.468V260.452H294.964V261.424C294.964 261.952 294.724 262.264 294.244 262.36C293.332 262.552 292.456 262.648 291.616 262.648C291.712 260.56 291.76 258.58 291.76 256.708V254.404C291.76 253.612 291.736 252.184 291.688 250.12L295.684 251.272H298.492V246.052H288.556V245.116H298.492V239.932C295.852 240.196 292.972 240.376 289.852 240.472L289.744 239.896C294.616 239.008 298.516 238.096 301.444 237.16C303.532 236.488 305.116 235.876 306.196 235.324L309.256 237.808C309.52 238.048 309.652 238.252 309.652 238.42C309.652 238.78 309.388 238.96 308.86 238.96C308.428 238.96 307.948 238.852 307.42 238.636C305.236 239.044 303.34 239.356 301.732 239.572V245.116H307.132L309.04 242.56L312.424 245.08C312.616 245.248 312.712 245.404 312.712 245.548C312.664 245.836 312.28 246.004 311.56 246.052H301.732V251.272H304.864L306.016 249.256L309.616 250.804C309.976 250.972 310.156 251.152 310.156 251.344C310.156 251.752 309.664 252.22 308.68 252.748V255.376C308.704 257.344 308.728 259.312 308.752 261.28C308.752 261.568 308.716 261.772 308.644 261.892C308.572 262.036 308.416 262.132 308.176 262.18C307.288 262.372 306.388 262.468 305.476 262.468ZM281.356 268.66C281.14 268.66 280.948 268.492 280.78 268.156L278.764 264.484C280.372 263.86 281.98 262.948 283.588 261.748V250.048H279.124V249.112H283.012L284.236 247.06L287.8 248.68C288.16 248.872 288.34 249.064 288.34 249.256C288.34 249.448 288.232 249.652 288.016 249.868C287.776 250.108 287.38 250.384 286.828 250.696V261.244C286.828 262.276 287.56 263.056 289.024 263.584C290.728 264.208 293.572 264.568 297.556 264.664C302.404 264.736 307.54 264.436 312.964 263.764V264.34C311.932 264.724 311.332 265.744 311.164 267.4C307.012 267.664 303.1 267.784 299.428 267.76C295.324 267.76 292.252 267.328 290.212 266.464C288.172 265.624 286.696 264.304 285.784 262.504C284.632 263.92 283.336 265.348 281.896 266.788C282.04 268.036 281.86 268.66 281.356 268.66ZM305.476 252.208H294.964V259.444H305.476V252.208ZM285.676 244.288C285.004 244.288 284.56 243.88 284.344 243.064C283.72 240.712 282.58 238.564 280.924 236.62L281.212 236.296C283.588 237.184 285.292 238.096 286.324 239.032C287.284 239.896 287.764 240.868 287.764 241.948C287.764 242.644 287.548 243.22 287.116 243.676C286.732 244.084 286.252 244.288 285.676 244.288ZM340.792 268.588V265.636H325.096V267.436C325.096 267.988 324.856 268.312 324.376 268.408C323.824 268.528 322.924 268.624 321.676 268.696C321.772 265.912 321.82 263.344 321.82 260.992V258.832C321.82 256.408 321.796 254.632 321.748 253.504L326.248 254.692H340.18L341.476 252.532L345.112 254.26C345.448 254.452 345.616 254.632 345.616 254.8C345.616 255.04 345.508 255.268 345.292 255.484C345.052 255.7 344.644 255.964 344.068 256.276V260.236C344.068 261.052 344.116 263.428 344.212 267.364C344.212 267.652 344.176 267.856 344.104 267.976C344.032 268.12 343.876 268.216 343.636 268.264C342.916 268.432 341.968 268.54 340.792 268.588ZM347.632 250.912C344.08 249.352 341.248 247.672 339.136 245.872C337.048 244.096 335.188 241.792 333.556 238.96C331.084 242.896 327.76 246.148 323.584 248.716H336.112L338.056 246.16L341.512 248.68C341.68 248.848 341.764 248.992 341.764 249.112C341.764 249.448 341.38 249.64 340.612 249.688H323.476V248.788C321.676 249.892 319.432 251.044 316.744 252.244L316.384 251.632C322.24 247.72 326.476 243.568 329.092 239.176C329.836 237.904 330.412 236.656 330.82 235.432L335.536 236.584C335.872 236.656 336.04 236.812 336.04 237.052C336.04 237.604 335.404 237.928 334.132 238.024C336.34 240.376 338.704 242.26 341.224 243.676C343.888 245.188 346.996 246.34 350.548 247.132L350.476 247.744C349.156 248.08 348.208 249.136 347.632 250.912ZM340.792 255.664H325.096V264.664H340.792V255.664ZM382.552 262.576C382.504 261.736 382.348 261.136 382.084 260.776C381.82 260.392 381.352 260.104 380.68 259.912V267.364C380.68 267.916 380.476 268.24 380.068 268.336C379.396 268.528 378.64 268.636 377.8 268.66C377.896 264.628 377.944 260.752 377.944 257.032V245.152C377.944 242.512 377.908 240.328 377.836 238.6C377.74 238.696 377.572 238.744 377.332 238.744C377.044 238.744 376.696 238.708 376.288 238.636C374.8 239.356 372.856 239.992 370.456 240.544V256.42L372.832 255.484C372.952 253.804 373.012 252.04 373.012 250.192V246.916C373.012 245.26 372.976 243.58 372.904 241.876L376.72 242.272C377.056 242.32 377.224 242.452 377.224 242.668C377.224 243.076 376.72 243.448 375.712 243.784V250.156C375.76 255.268 375.172 259.168 373.948 261.856C372.676 264.64 370.456 266.992 367.288 268.912L366.856 268.48C368.704 266.512 370.036 264.736 370.852 263.152C371.764 261.4 372.364 259.324 372.652 256.924C371.428 258.052 370.348 258.964 369.412 259.66C369.412 260.788 369.172 261.352 368.692 261.352C368.572 261.352 368.416 261.208 368.224 260.92L366.532 257.968C365.86 258.304 365.356 258.544 365.02 258.688C365.02 262.216 365.044 265.132 365.092 267.436C365.092 267.724 365.044 267.94 364.948 268.084C364.876 268.204 364.708 268.3 364.444 268.372C363.724 268.588 362.968 268.696 362.176 268.696V259.984C360.376 260.8 358.312 261.664 355.984 262.576C355.96 263.608 355.732 264.124 355.3 264.124C355.084 264.124 354.928 263.956 354.832 263.62L353.716 259.912C354.436 259.84 355.204 259.732 356.02 259.588V239.392H353.932V238.42H362.932L364.552 236.296L367.54 238.42C367.564 238.444 367.588 238.468 367.612 238.492L370.564 239.428C372.484 238.108 373.888 236.848 374.776 235.648L377.656 237.592C377.944 237.784 378.088 237.976 378.088 238.168C378.088 238.24 378.076 238.288 378.052 238.312L381.472 239.356H382.804L383.956 237.484L387.124 239.032C387.412 239.2 387.556 239.356 387.556 239.5C387.556 239.74 387.472 239.944 387.304 240.112C387.112 240.328 386.752 240.58 386.224 240.868V250.084C386.224 252.58 386.248 255.508 386.296 258.868C386.32 260.116 386.092 260.98 385.612 261.46C385.108 261.964 384.088 262.336 382.552 262.576ZM383.38 240.292H380.68V259.084L382.228 259.156C382.66 259.18 382.96 259.108 383.128 258.94C383.296 258.772 383.38 258.472 383.38 258.04V240.292ZM367.684 245.62C367.684 243.724 367.648 241.588 367.576 239.212C367.336 239.332 367.036 239.392 366.676 239.392H365.02V257.428V257.644C365.644 257.476 366.268 257.308 366.892 257.14L367.036 257.536C367.468 257.224 367.684 256.72 367.684 256.024V245.62ZM358.756 246.016V251.92H362.176V246.016H358.756ZM358.756 259.048C359.068 259 360.208 258.76 362.176 258.328V252.82H358.756V259.048ZM358.756 239.392V245.116H362.176V239.392H358.756ZM394.468 239.968V238.996H415.816L417.832 236.332L421.432 238.96C421.648 239.104 421.756 239.26 421.756 239.428C421.732 239.764 421.348 239.944 420.604 239.968H408.832V244.108C408.832 246.124 408.7 248.056 408.436 249.904H418.264L420.496 246.88L424.456 249.832C424.672 250.024 424.78 250.18 424.78 250.3C424.756 250.636 424.36 250.828 423.592 250.876H410.092C411.844 254.38 413.824 257.14 416.032 259.156C418.408 261.316 421.468 263.032 425.212 264.304L424.924 265.132C423.268 265.18 421.996 266.26 421.108 268.372C417.7 266.212 415.108 263.824 413.332 261.208C411.58 258.64 410.164 255.196 409.084 250.876H408.256C407.488 255.028 405.784 258.52 403.144 261.352C400.6 264.088 396.808 266.572 391.768 268.804L391.372 268.264C395.476 265.336 398.536 262.588 400.552 260.02C402.64 257.332 404.032 254.284 404.728 250.876H391.768V249.904H404.908C405.196 248.08 405.34 246.064 405.34 243.856V239.968H394.468ZM436.66 267.472C435.196 267.472 434.008 267.004 433.096 266.068C432.184 265.132 431.728 263.944 431.728 262.504C431.728 261.136 432.196 259.984 433.132 259.048C434.092 258.088 435.268 257.608 436.66 257.608C438.028 257.608 439.192 258.088 440.152 259.048C441.112 260.008 441.592 261.172 441.592 262.54C441.592 263.98 441.1 265.168 440.116 266.104C439.156 267.016 438.004 267.472 436.66 267.472ZM436.66 265.6C437.524 265.6 438.244 265.324 438.82 264.772C439.42 264.196 439.72 263.464 439.72 262.576C439.72 261.664 439.432 260.92 438.856 260.344C438.256 259.744 437.524 259.444 436.66 259.444C435.748 259.444 435.004 259.744 434.428 260.344C433.852 260.944 433.564 261.688 433.564 262.576C433.564 263.44 433.852 264.16 434.428 264.736C435.004 265.312 435.748 265.6 436.66 265.6Z" fill="black"/>
</g>
<defs>
<filter id="filter0_d_400_9" x="0" y="0" width="607.1" height="438.8" filterUnits="userSpaceOnUse" color-interpolation-filters="sRGB">
<feFlood flood-opacity="0" result="BackgroundImageFix"/>
<feColorMatrix in="SourceAlpha" type="matrix" values="0 0 0 0 0 0 0 0 0 0 0 0 0 0 0 0 0 0 127 0" result="hardAlpha"/>
<feOffset/>
<feGaussianBlur stdDeviation="17"/>
<feComposite in2="hardAlpha" operator="out"/>
<feColorMatrix type="matrix" values="0 0 0 0 0 0 0 0 0 0 0 0 0 0 0 0 0 0 0.03 0"/>
<feBlend mode="normal" in2="BackgroundImageFix" result="effect1_dropShadow_400_9"/>
<feBlend mode="normal" in="SourceGraphic" in2="effect1_dropShadow_400_9" result="shape"/>
</filter>
</defs>
</svg>
