<svg width="578" height="419" viewBox="0 0 578 419" fill="none" xmlns="http://www.w3.org/2000/svg">
<g filter="url(#filter0_d_400_21)">
<rect x="34" y="34" width="509.15" height="350.2" rx="3.4" fill="#E9F0F6"/>
<path d="M243.161 312.064C243.834 313.104 244.467 314.247 245.079 315.512L243.814 316.144C243.222 314.838 242.57 313.696 241.876 312.676L243.161 312.064ZM246.119 317.796H239.306V316.389H247.445V311.268H240.101V309.861H247.445V307.515H248.955V309.861H256.462V311.268H248.955V316.389H250.995C251.79 315.002 252.464 313.492 253.035 311.88L254.463 312.39C253.871 313.88 253.198 315.206 252.443 316.389H257.054V317.796H250.24C251.688 320.122 254.157 322.182 257.625 323.998L256.625 325.263C253.014 323.039 250.485 320.55 249.036 317.796H248.955V326.099H247.445V317.796H247.323C246.017 320.693 243.426 323.182 239.55 325.283L238.734 323.978C242.406 322.162 244.875 320.102 246.119 317.796ZM275.454 309.861V326.12H273.965V324.855H263.235V326.12H261.746V309.861H266.111C266.56 309.045 266.907 308.229 267.111 307.372L268.6 307.576C268.376 308.392 268.049 309.167 267.641 309.861H275.454ZM263.235 323.447H273.965V320.122H263.235V323.447ZM263.235 318.776H273.965V315.654H263.235V318.776ZM263.235 314.308H273.965V311.268H263.235V314.308ZM288.51 310.248H289.938V311.942H293.61V313.166H289.938V315.185H294.284V316.47H284.186V315.185H288.51V313.166H284.798V311.942H288.51V310.248ZM296.915 308.249V324.365C296.915 325.446 296.283 325.997 295.059 325.997H292.427L292.04 324.61C292.958 324.651 293.814 324.671 294.61 324.671C295.181 324.671 295.467 324.386 295.467 323.855V309.616H283.104V316.368C283.064 320.367 282.37 323.631 281.024 326.12L279.922 325.12C281.024 322.856 281.595 319.979 281.636 316.491V308.249H296.915ZM285.022 318.021H293.264V323.1H285.022V318.021ZM291.856 321.815V319.265H286.45V321.815H291.856ZM310.216 316.511H310.175V326.222H308.686V316.511H308.645C307.095 319.857 304.484 322.59 300.791 324.712L299.934 323.325C303.321 321.55 305.789 319.286 307.299 316.511H301.179V315.083H308.686V311.738H300.424V310.31H308.686V307.413H310.175V310.31H318.356V311.738H310.175V315.083H317.682V316.511H311.522C312.929 318.98 315.357 321.162 318.804 323.08L317.723 324.447C314.133 322.08 311.644 319.428 310.216 316.511ZM320.722 309.677H323.762V307.596H325.128V309.677H329.004V307.515H330.432V309.677H334.37V307.596H335.757V309.677H338.878V311.085H335.757V313.247H334.37V311.085H330.432V313.329H329.004V311.085H325.128V313.247H323.762V311.085H320.722V309.677ZM338.184 314.512V318.449H336.756V315.899H330.494V318.123H335.777V322.937C335.777 324.141 335.226 324.753 334.125 324.753H332.268L331.901 323.325L333.656 323.406C334.104 323.406 334.349 323.141 334.349 322.631V319.49H330.494V326.16H329.025V319.49H325.332V324.773H323.904V318.123H329.025V315.899H322.823V318.51H321.395V314.512H338.184ZM349.343 309.861H353.097V307.433H354.545V309.861H358.442V311.268H354.545V314.267H359.217V315.695H348.629V314.267H353.097V311.268H349.343V309.861ZM349.2 319.041H353.097V316.674H354.545V319.041H358.523V320.448H354.545V324.161H359.462V325.548H348.242V324.161H353.097V320.448H349.2V319.041ZM343.672 307.331L345.12 307.474C344.916 308.861 344.712 310.146 344.508 311.33H347.956V312.166C347.793 315.471 347.14 318.306 346.018 320.714C347.079 321.672 347.956 322.529 348.629 323.304L347.65 324.426C347.018 323.672 346.242 322.856 345.345 321.999C344.386 323.631 343.182 325.018 341.754 326.201L340.816 325.038C342.244 323.937 343.407 322.59 344.325 321.02C343.448 320.204 342.489 319.367 341.448 318.49C341.958 316.736 342.407 314.818 342.815 312.737H340.938V311.33H343.08C343.284 310.044 343.488 308.718 343.672 307.331ZM344.957 319.775C345.875 317.735 346.426 315.389 346.589 312.737H344.243C343.794 314.879 343.346 316.654 342.897 318.062C343.652 318.674 344.345 319.245 344.957 319.775ZM371.579 310.881L372.824 311.37C371.926 313.308 370.763 314.777 369.315 315.797L368.254 314.879C369.723 313.88 370.845 312.554 371.579 310.881ZM375.19 310.86C376.72 312.39 377.903 313.737 378.719 314.879L377.536 315.695C376.7 314.43 375.557 313.064 374.109 311.554L375.19 310.86ZM363.786 326.058H361.93L361.624 324.651C362.195 324.712 362.746 324.753 363.276 324.753C363.766 324.753 364.031 324.488 364.031 323.978V318.796C363.236 319.102 362.44 319.388 361.624 319.632L361.257 318.164C362.195 317.939 363.113 317.654 364.031 317.327V312.758H361.604V311.35H364.031V307.494H365.5V311.35H367.397V312.758H365.5V316.736C366.132 316.45 366.765 316.144 367.377 315.818V317.286C366.765 317.613 366.132 317.898 365.5 318.184V324.345C365.5 325.487 364.929 326.058 363.786 326.058ZM378.944 308.249V312.044H377.556V309.575H369.641V312.125H368.254V308.249H378.944ZM371.314 318.572H367.846V317.246H372.844V314.961H374.252V317.246H379.29V318.572H375.761C376.598 320.448 377.985 322.121 379.943 323.61L379.025 324.773C376.965 322.917 375.537 320.856 374.721 318.572H374.252V326.058H372.844V318.572H372.375C371.396 321.162 369.764 323.284 367.479 324.957L366.744 323.712C368.825 322.366 370.355 320.652 371.314 318.572ZM391.469 311.717H392.958V314.145H399.69V315.532H392.958V318.51H398.324V326.12H396.875V325.1H388.266V326.12H386.818V318.51H391.469V311.717ZM388.266 323.712H396.875V319.877H388.266V323.712ZM391.592 307.331C391.918 307.943 392.244 308.657 392.571 309.432H400.078V310.86H385.043V315.328C384.982 319.775 384.248 323.345 382.82 326.038L381.718 325.059C382.922 322.733 383.554 319.49 383.595 315.328V309.432H391.082C390.776 308.759 390.429 308.147 390.062 307.576L391.592 307.331ZM409.442 310.962V324.875H408.014V323.712H404.301V325.467H402.873V310.962H404.77C405.178 309.82 405.464 308.637 405.647 307.413L407.116 307.617C406.871 308.82 406.565 309.942 406.157 310.962H409.442ZM404.301 322.346H408.014V317.878H404.301V322.346ZM404.301 316.552H408.014V312.35H404.301V316.552ZM412.991 315.695C414.46 317.388 415.562 318.878 416.337 320.142L415.174 320.958C414.338 319.612 413.216 318.102 411.808 316.43L412.991 315.695ZM419.988 310.983C419.988 317.756 419.886 321.958 419.682 323.549C419.478 325.1 418.54 325.895 416.826 325.895C416.418 325.895 415.725 325.854 414.746 325.814L414.399 324.467C415.256 324.508 415.99 324.528 416.622 324.528C417.581 324.528 418.132 323.998 418.295 322.958C418.418 321.815 418.499 318.286 418.54 312.411H412.93C412.359 313.696 411.686 314.859 410.89 315.899L410.013 314.736C411.441 312.737 412.4 310.289 412.93 307.392L414.378 307.576C414.134 308.78 413.848 309.922 413.481 310.983H419.988ZM429.576 320.306H423.089V318.959H431.106V317.021H432.575V318.959H440.552V320.306H434.105C435.594 322.142 437.94 323.61 441.123 324.671L440.45 326.079C436.859 324.63 434.33 322.713 432.861 320.306H432.575V326.14H431.106V320.306H430.8C429.536 322.529 427.047 324.447 423.375 326.079L422.538 324.712C425.986 323.427 428.332 321.958 429.576 320.306ZM429.944 310.554L431.045 311.024C430.515 312.166 429.882 313.125 429.168 313.941L428.067 313.329C428.883 312.411 429.495 311.493 429.944 310.554ZM439.511 311.024C440.123 312.309 440.694 313.798 441.184 315.471L440.042 315.736C439.593 314.226 439.042 312.778 438.369 311.391L439.511 311.024ZM433.187 309.596H429.066V308.29H438.165C438.083 312.329 437.981 314.696 437.838 315.389C437.716 316.062 437.43 316.532 437.022 316.776C436.614 317.021 435.717 317.144 434.37 317.144H433.881L433.493 315.858C433.922 315.858 434.35 315.879 434.758 315.879C435.492 315.879 435.962 315.777 436.186 315.573C436.39 315.348 436.533 314.981 436.594 314.492C436.635 313.961 436.696 312.329 436.757 309.596H434.472C434.024 311.534 433.412 313.064 432.636 314.206C431.698 315.471 430.311 316.593 428.454 317.572L427.598 316.45C429.291 315.573 430.576 314.614 431.453 313.574C432.228 312.554 432.8 311.228 433.187 309.596ZM426.782 313.696L427.761 314.532C426.618 315.818 425.231 316.94 423.599 317.878L422.742 316.736C424.334 315.858 425.68 314.838 426.782 313.696ZM424.619 307.637C425.884 308.168 427.047 308.8 428.108 309.575L427.394 310.656C426.251 309.8 425.088 309.147 423.905 308.678L424.619 307.637ZM423.599 310.677C424.701 311.126 425.721 311.656 426.639 312.268L425.925 313.37C424.925 312.676 423.905 312.146 422.865 311.758L423.599 310.677ZM446.835 311.962C446.304 313.043 445.713 314.022 445.06 314.92L443.652 314.043C445.142 312.125 446.223 310.024 446.876 307.719L448.365 308.025C448.1 308.922 447.794 309.759 447.467 310.554H451.629V307.454H453.118V310.554H459.85V311.962H453.118V315.818H461.258V317.225H455.688V323.202C455.688 324.018 456.015 324.426 456.688 324.426H458.646C458.973 324.426 459.238 324.304 459.442 324.08C459.707 323.753 459.87 322.631 459.952 320.714L461.36 321.162C461.196 323.406 460.911 324.773 460.544 325.242C460.176 325.61 459.687 325.814 459.034 325.834H456.26C454.872 325.834 454.179 325.038 454.179 323.468V317.225H450.384C450.18 319.632 449.67 321.407 448.854 322.59C447.896 323.978 446.284 325.161 444.04 326.14L443.02 324.834C445.101 324.018 446.57 323.019 447.447 321.876C448.222 320.856 448.691 319.306 448.875 317.225H443.244V315.818H451.629V311.962H446.835ZM467.316 312.656C466.5 314.512 465.46 316.062 464.195 317.327L463.257 316.124C465.174 314.124 466.48 311.411 467.153 308.004L468.642 308.27C468.418 309.33 468.153 310.31 467.847 311.228H472.212V307.596H473.702V311.228H480.413V312.656H473.702V317.368H480.005V318.796H473.702V323.978H481.719V325.446H463.746V323.978H472.212V318.796H466.215V317.368H472.212V312.656H467.316Z" fill="#111111" fill-opacity="0.5"/>
<path d="M88.74 116.868V115.95H95.472V110.612C95.472 107.983 95.4153 105.161 95.302 102.146L99.756 102.486C100.096 102.531 100.266 102.667 100.266 102.894C100.266 103.393 99.722 103.801 98.634 104.118V115.95H114.376L116.552 113.196L120.122 115.916C120.326 116.097 120.428 116.245 120.428 116.358C120.405 116.675 120.043 116.845 119.34 116.868H105.332C107.032 119.815 109.015 122.24 111.282 124.144C113.549 126.071 116.575 127.737 120.36 129.142L120.122 129.788C118.445 129.901 117.164 130.751 116.28 132.338C112.971 130.457 110.409 128.292 108.596 125.844C106.964 123.623 105.559 120.631 104.38 116.868H98.634V128.224L107.134 125.912L107.372 126.422C103.519 128.598 100.051 130.411 96.968 131.862C96.9907 132.995 96.7753 133.562 96.322 133.562C96.1407 133.562 95.9367 133.347 95.71 132.916L93.976 129.516C94.5427 129.289 94.9393 128.995 95.166 128.632C95.37 128.292 95.472 127.816 95.472 127.204V116.868H88.74ZM99.382 113.74L99.11 113.128C103.213 111.043 106.805 108.731 109.888 106.192C111.067 105.24 111.996 104.299 112.676 103.37L116.178 106.022C116.405 106.181 116.518 106.373 116.518 106.6C116.518 106.917 116.189 107.076 115.532 107.076C115.192 107.076 114.795 106.997 114.342 106.838C110.307 109.558 105.321 111.859 99.382 113.74ZM129.846 119.588C128.622 118.931 127.693 118.296 127.058 117.684C126.831 117.435 126.843 117.219 127.092 117.038C127.659 116.743 127.987 116.335 128.078 115.814L129.778 109.184C130.027 107.983 130.209 106.6 130.322 105.036L134.028 106.362C137.745 105.75 141.576 104.945 145.52 103.948C147.129 103.517 148.444 103.03 149.464 102.486L152.32 105.172C152.524 105.376 152.626 105.546 152.626 105.682C152.626 105.999 152.377 106.158 151.878 106.158C151.447 106.158 150.926 106.045 150.314 105.818C145.237 106.566 139.615 107.053 133.45 107.28L130.9 117.446H139.57V115.542C139.57 113.729 139.525 111.745 139.434 109.592L143.786 109.932C144.126 109.932 144.296 110.068 144.296 110.34C144.296 110.771 143.775 111.167 142.732 111.53V117.446H149.77L151.436 115.134L154.496 117.514C154.723 117.673 154.836 117.82 154.836 117.956C154.836 118.296 154.439 118.466 153.646 118.466H142.732V121.39C142.732 122.591 142.777 125.413 142.868 129.856C142.891 130.944 142.528 131.749 141.78 132.27C141.009 132.791 139.627 133.165 137.632 133.392C137.587 132.372 137.281 131.669 136.714 131.284C136.147 130.876 135.059 130.502 133.45 130.162L133.518 129.584L138.142 129.754C138.641 129.777 139.003 129.686 139.23 129.482C139.457 129.278 139.57 128.938 139.57 128.462V118.466H130.832L129.846 119.588ZM125.324 131.556L124.984 131.08C127.455 128.791 129.461 126.456 131.002 124.076C131.75 122.943 132.339 121.787 132.77 120.608L136.782 122.274C137.054 122.387 137.19 122.557 137.19 122.784C137.213 123.26 136.555 123.487 135.218 123.464C132.747 126.615 129.449 129.312 125.324 131.556ZM152.694 130.876C152.105 130.876 151.64 130.479 151.3 129.686C149.963 126.694 147.877 123.917 145.044 121.356L145.316 120.982C148.421 122.274 150.801 123.657 152.456 125.13C153.839 126.377 154.53 127.521 154.53 128.564C154.439 129.992 153.827 130.763 152.694 130.876ZM160.378 132.916C160.174 132.916 160.027 132.757 159.936 132.44L158.916 128.564C159.505 128.519 160.129 128.451 160.786 128.36V122.41C160.786 120.619 160.741 118.817 160.65 117.004L164.05 117.344C164.367 117.389 164.526 117.514 164.526 117.718C164.526 118.126 164.118 118.477 163.302 118.772V127.952C164.141 127.793 164.979 127.635 165.818 127.476V120.098C165.818 118.081 165.784 116.165 165.716 114.352L169.32 114.658C169.637 114.703 169.796 114.839 169.796 115.066C169.751 115.519 169.309 115.882 168.47 116.154V119.486H169.524L170.918 117.684L173.298 119.486C173.434 119.622 173.502 119.735 173.502 119.826C176.041 118.217 178.081 116.619 179.622 115.032C178.489 113.763 177.491 112.187 176.63 110.306C175.542 111.87 174.227 113.389 172.686 114.862L172.244 114.522C173.967 111.53 175.293 108.481 176.222 105.376C176.562 104.333 176.8 103.223 176.936 102.044L181.05 102.996C181.322 103.064 181.458 103.2 181.458 103.404C181.458 103.925 180.891 104.243 179.758 104.356C179.441 105.172 179.157 105.807 178.908 106.26H184.416L185.776 104.526L189.142 106.566C189.437 106.747 189.584 106.929 189.584 107.11C189.584 107.563 188.972 107.915 187.748 108.164C186.343 110.975 184.869 113.196 183.328 114.828C185.436 115.871 188.258 116.664 191.794 117.208L191.658 117.752C191.046 117.911 190.57 118.183 190.23 118.568C189.867 118.976 189.539 119.611 189.244 120.472C185.844 119.407 183.215 118.137 181.356 116.664C179.588 118.115 177.401 119.395 174.794 120.506L178.602 121.526H184.382L185.47 119.826L188.768 121.322C189.108 121.481 189.278 121.651 189.278 121.832C189.278 122.036 189.199 122.217 189.04 122.376C188.859 122.557 188.507 122.761 187.986 122.988V126.014C187.986 127.034 188.02 129.074 188.088 132.134C188.088 132.406 188.054 132.599 187.986 132.712C187.895 132.848 187.737 132.939 187.51 132.984C186.603 133.188 185.776 133.29 185.028 133.29V131.114H177.786V132.202C177.786 132.701 177.559 132.984 177.106 133.052C176.449 133.188 175.644 133.279 174.692 133.324C174.783 131.08 174.828 128.961 174.828 126.966V124.314C174.828 122.795 174.805 121.526 174.76 120.506C173.989 120.846 172.89 121.265 171.462 121.764L171.19 121.254C171.779 120.937 172.301 120.619 172.754 120.302H172.516H168.47V126.966C170.918 126.399 172.403 126.048 172.924 125.912L173.128 126.456C169.501 128.292 165.512 129.947 161.16 131.42C161.024 132.417 160.763 132.916 160.378 132.916ZM160.956 115.202C161.047 113.117 161.092 111.394 161.092 110.034V107.552C161.092 106.532 161.069 105.183 161.024 103.506L164.662 104.56H168.3L169.252 102.894L172.312 104.322C172.584 104.435 172.72 104.594 172.72 104.798C172.72 105.161 172.312 105.557 171.496 105.988V107.96C171.496 109.433 171.53 111.156 171.598 113.128C171.598 113.559 171.428 113.808 171.088 113.876C170.317 114.08 169.558 114.182 168.81 114.182V113.128H163.812V114.148C163.812 114.556 163.597 114.817 163.166 114.93C162.35 115.089 161.613 115.179 160.956 115.202ZM185.028 122.444H177.786V130.196H185.028V122.444ZM168.81 105.41H163.812V112.312H168.81V105.41ZM178.466 107.144C178.081 107.937 177.639 108.731 177.14 109.524C178.477 111.179 179.781 112.471 181.05 113.4C182.478 111.632 183.679 109.547 184.654 107.144H178.466ZM205.632 130.536V128.292H199.614V130.876C199.614 131.307 199.331 131.579 198.764 131.692C198.197 131.828 197.461 131.919 196.554 131.964C196.667 128.836 196.724 125.787 196.724 122.818V113.944C196.724 111.609 196.69 109.524 196.622 107.688L199.954 108.708C200.294 106.509 200.43 104.265 200.362 101.976L204.646 102.486C205.009 102.531 205.19 102.679 205.19 102.928C205.19 103.336 204.657 103.665 203.592 103.914C202.799 105.863 201.971 107.518 201.11 108.878H205.02L206.142 107.076L209.236 108.504C209.576 108.685 209.746 108.878 209.746 109.082C209.746 109.309 209.678 109.501 209.542 109.66C209.383 109.841 209.032 110.102 208.488 110.442V120.54C208.488 122.988 208.533 125.98 208.624 129.516C208.624 129.901 208.431 130.139 208.046 130.23C207.547 130.389 206.743 130.491 205.632 130.536ZM209.882 117.038L209.338 116.732C210.925 113.264 212.126 109.513 212.942 105.478C213.191 104.209 213.327 103.053 213.35 102.01L217.838 102.792C218.155 102.86 218.314 103.007 218.314 103.234C218.314 103.687 217.725 104.027 216.546 104.254C216.047 105.795 215.503 107.269 214.914 108.674H221.034L222.19 106.668L225.59 108.266C225.907 108.425 226.066 108.595 226.066 108.776C226.066 109.025 225.975 109.252 225.794 109.456C225.613 109.66 225.25 109.921 224.706 110.238C224.706 114.159 224.593 119.747 224.366 127C224.275 129.131 223.799 130.615 222.938 131.454C222.054 132.315 220.422 132.871 218.042 133.12C217.951 132.009 217.6 131.25 216.988 130.842C216.376 130.434 214.993 130.015 212.84 129.584L212.942 129.006L218.416 129.312C219.436 129.38 220.15 129.21 220.558 128.802C220.966 128.394 221.193 127.578 221.238 126.354C221.465 121.934 221.612 116.347 221.68 109.592H214.506C213.826 111.111 213.067 112.527 212.228 113.842L212.398 113.672C214.483 115.077 215.957 116.29 216.818 117.31C217.634 118.285 218.042 119.271 218.042 120.268C218.042 120.903 217.861 121.424 217.498 121.832C217.135 122.24 216.659 122.444 216.07 122.444C215.481 122.444 215.084 122.025 214.88 121.186C214.404 118.693 213.475 116.313 212.092 114.046C211.525 114.907 210.789 115.905 209.882 117.038ZM199.614 118.602V127.374H205.632V118.602H199.614ZM205.632 109.796H199.614V117.684H205.632V109.796ZM240.006 122.92C239.575 122.92 239.292 122.637 239.156 122.07C238.725 120.461 238.136 119.078 237.388 117.922V132.032C237.388 132.576 237.161 132.893 236.708 132.984C236.005 133.143 235.291 133.245 234.566 133.29C234.657 129.754 234.702 125.561 234.702 120.71V120.132C233.433 122.852 231.857 125.357 229.976 127.646L229.568 127.34C231.608 123.011 233.093 118.817 234.022 114.76H230.18V113.876H234.702V107.96C234.702 105.671 234.657 103.676 234.566 101.976L238.34 102.282C238.703 102.327 238.884 102.463 238.884 102.69C238.884 103.098 238.385 103.472 237.388 103.812V112.38C238.453 109.615 239.099 107.201 239.326 105.138L242.25 106.158L242.454 106.26C242.454 105.807 242.443 105.342 242.42 104.866L246.194 106.056H250.92C250.716 105.92 250.58 105.693 250.512 105.376C250.24 104.265 249.673 103.166 248.812 102.078L248.982 101.806C251.974 102.305 253.47 103.211 253.47 104.526C253.47 105.229 253.141 105.739 252.484 106.056H256.768L258.468 103.71L261.528 106.022C261.687 106.158 261.766 106.294 261.766 106.43C261.766 106.725 261.415 106.895 260.712 106.94H245.344V114.488H250.172V111.326V111.19H245.786V110.306H250.172C250.127 108.991 250.104 108.051 250.104 107.484L253.912 107.824C254.229 107.869 254.388 108.005 254.388 108.232C254.388 108.595 253.912 108.935 252.96 109.252V110.306H255.952L256.972 108.504L259.862 109.898C260.179 110.057 260.338 110.227 260.338 110.408C260.338 110.635 260.27 110.827 260.134 110.986C259.975 111.167 259.635 111.405 259.114 111.7V114.216V114.488L260.236 112.856L262.276 114.488C262.457 114.624 262.548 114.76 262.548 114.896C262.571 115.191 262.219 115.349 261.494 115.372H259.114C259.114 116.097 259.159 117.593 259.25 119.86C259.25 120.268 259.069 120.517 258.706 120.608C258.026 120.789 257.289 120.88 256.496 120.88V119.554H252.96V121.662C252.96 122.07 252.779 122.319 252.416 122.41C251.759 122.546 251.011 122.637 250.172 122.682V119.554H245.582V118.67H250.172V115.372H245.344C245.321 119.86 244.845 123.373 243.916 125.912C243.032 128.36 241.389 130.819 238.986 133.29L238.476 132.984C240.063 129.924 241.128 127.215 241.672 124.858C242.239 122.433 242.522 119.339 242.522 115.576V111.02C242.522 109.207 242.511 107.869 242.488 107.008C242.284 107.144 241.933 107.212 241.434 107.212C240.527 108.957 239.269 110.805 237.66 112.754L237.388 112.482V113.876H238.578L239.836 112.074L242.012 113.91C242.171 114.046 242.25 114.171 242.25 114.284C242.25 114.601 241.933 114.76 241.298 114.76H237.388V117.106C240.063 118.511 241.4 119.883 241.4 121.22C241.309 122.308 240.845 122.875 240.006 122.92ZM245.276 133.358C245.344 131.114 245.378 129.323 245.378 127.986V122.41L248.982 123.532H255.918L257.074 121.696L260.236 123.158C260.531 123.317 260.678 123.487 260.678 123.668C260.678 123.849 260.587 124.031 260.406 124.212C260.179 124.439 259.817 124.688 259.318 124.96V126.932C259.318 128.179 259.363 129.901 259.454 132.1C259.477 132.599 259.261 132.893 258.808 132.984C258.196 133.143 257.437 133.245 256.53 133.29V130.638H248.166V132.202C248.166 132.723 247.928 133.029 247.452 133.12C246.659 133.279 245.933 133.358 245.276 133.358ZM256.53 124.416H248.166V129.754H256.53V124.416ZM232.56 112.312C232.061 112.312 231.755 111.949 231.642 111.224C231.415 109.229 230.951 107.314 230.248 105.478L230.588 105.24C232.832 107.325 233.954 109.048 233.954 110.408C233.841 111.655 233.376 112.289 232.56 112.312ZM252.96 115.372V118.67H256.496V115.372H252.96ZM256.496 111.19H252.96V114.488H256.496V111.19ZM293.794 129.924C290.802 127.136 288.524 124.257 286.96 121.288C285.396 118.296 284.127 114.386 283.152 109.558V118.466C283.152 120.755 283.209 124.529 283.322 129.788C283.345 130.899 282.993 131.703 282.268 132.202C281.497 132.723 280.069 133.097 277.984 133.324C277.939 132.259 277.587 131.499 276.93 131.046C276.273 130.593 275.026 130.173 273.19 129.788L273.258 129.278L278.664 129.516C279.593 129.584 280.058 129.142 280.058 128.19V109.626C280.058 107.427 280.001 104.934 279.888 102.146L284.274 102.486C284.614 102.531 284.784 102.667 284.784 102.894C284.784 103.325 284.24 103.733 283.152 104.118V106.94C284.308 110.385 285.543 113.287 286.858 115.644C289.51 112.357 291.301 109.501 292.23 107.076L296.038 109.388C296.287 109.569 296.412 109.751 296.412 109.932C296.412 110.159 296.265 110.329 295.97 110.442C295.585 110.578 295.052 110.601 294.372 110.51C292.377 112.754 290.054 114.771 287.402 116.562C289.85 120.687 293.273 124.008 297.67 126.524L297.466 127.068C296.038 127.045 294.814 127.997 293.794 129.924ZM265.472 131.012L265.064 130.536C267.693 127.567 269.733 124.722 271.184 122.002C272.589 119.327 273.745 116.165 274.652 112.516H265.982V111.598H274.074L275.4 109.558L278.97 111.496C279.287 111.677 279.446 111.87 279.446 112.074C279.446 112.255 279.344 112.425 279.14 112.584C278.891 112.765 278.483 112.969 277.916 113.196C276.783 117.299 275.332 120.631 273.564 123.192C271.705 125.889 269.008 128.496 265.472 131.012ZM313.718 108.266V107.382H320.96C320.96 105.07 320.915 103.279 320.824 102.01L324.836 102.35C325.131 102.373 325.278 102.509 325.278 102.758C325.278 103.211 324.791 103.608 323.816 103.948V107.382H329.052L330.48 105.478L332.894 107.382C333.053 107.541 333.132 107.677 333.132 107.79C333.132 108.062 332.769 108.221 332.044 108.266H323.816V112.074H327.488L328.61 110.204L331.704 111.734C331.999 111.915 332.146 112.074 332.146 112.21C332.146 112.414 332.055 112.607 331.874 112.788C331.647 113.015 331.307 113.241 330.854 113.468V119.69C330.854 123.543 330.888 126.875 330.956 129.686C330.979 130.819 330.718 131.635 330.174 132.134C329.63 132.655 328.576 133.029 327.012 133.256C326.921 132.417 326.649 131.794 326.196 131.386C325.765 131.023 324.972 130.683 323.816 130.366V131.216C323.816 131.692 323.635 131.975 323.272 132.066C322.683 132.179 321.912 132.259 320.96 132.304V124.212H316.914V132.066C316.914 132.338 316.88 132.553 316.812 132.712C316.721 132.848 316.551 132.95 316.302 133.018C315.849 133.177 315.078 133.279 313.99 133.324C314.081 129.969 314.126 126.819 314.126 123.872V116.698C314.126 115.043 314.103 113.105 314.058 110.884L317.832 112.074H320.96V108.266H313.718ZM301.172 117.344L300.73 117.106C302.113 113.207 303.087 109.603 303.654 106.294C303.949 104.685 304.119 103.245 304.164 101.976L308.278 102.69C308.573 102.758 308.72 102.905 308.72 103.132C308.743 103.563 308.187 103.914 307.054 104.186C306.782 105.206 306.476 106.249 306.136 107.314H309.23L310.692 105.308L313.208 107.314C313.389 107.473 313.48 107.62 313.48 107.756C313.457 108.005 313.106 108.153 312.426 108.198H305.83C305.263 109.898 304.663 111.383 304.028 112.652H308.754L310.284 110.578L312.8 112.618C312.981 112.777 313.072 112.924 313.072 113.06C313.072 113.332 312.721 113.491 312.018 113.536H308.244V118.704H309.196L310.726 116.562L313.344 118.67C313.525 118.829 313.616 118.976 313.616 119.112C313.616 119.384 313.265 119.543 312.562 119.588H308.244V127.238L313.242 124.722L313.582 125.198C311.565 127.238 309.457 129.097 307.258 130.774C307.281 131.885 307.065 132.44 306.612 132.44C306.453 132.44 306.283 132.293 306.102 131.998L304.402 128.802C304.855 128.53 305.173 128.247 305.354 127.952C305.513 127.68 305.592 127.329 305.592 126.898V119.588H300.764V118.704H305.592V113.536H303.552C302.94 114.669 302.147 115.939 301.172 117.344ZM326.808 129.958C327.261 129.981 327.579 129.901 327.76 129.72C327.964 129.539 328.066 129.233 328.066 128.802V124.212H323.816V129.788L326.808 129.958ZM323.816 118.568V123.26H328.066V118.568H323.816ZM328.066 112.958H323.816V117.616H328.066V112.958ZM316.914 118.568V123.26H320.96V118.568H316.914ZM316.914 112.958V117.616H320.96V112.958H316.914ZM328.168 106.77C327.624 106.77 327.284 106.498 327.148 105.954C326.876 104.934 326.377 103.925 325.652 102.928L325.924 102.588C327.284 102.973 328.247 103.381 328.814 103.812C329.335 104.22 329.596 104.719 329.596 105.308C329.596 105.739 329.46 106.09 329.188 106.362C328.916 106.634 328.576 106.77 328.168 106.77ZM361.93 133.154C361.386 133.154 360.978 132.791 360.706 132.066C360.298 131.046 359.913 130.196 359.55 129.516C353.702 130.513 348.058 131.341 342.618 131.998C342.505 132.95 342.221 133.426 341.768 133.426C341.541 133.426 341.383 133.256 341.292 132.916L340.068 128.87C341.269 128.915 342.289 128.473 343.128 127.544C344.511 125.957 345.916 123.827 347.344 121.152H337.178V120.234H361.012L363.018 117.446L366.588 120.2C366.792 120.381 366.894 120.529 366.894 120.642C366.849 120.959 366.486 121.129 365.806 121.152H351.832C348.885 124.575 346.301 127.136 344.08 128.836C348.319 128.655 353.249 128.451 358.87 128.224C358.077 126.841 356.875 125.221 355.266 123.362L355.572 122.988C361.125 125.889 363.902 128.473 363.902 130.74C363.902 131.42 363.698 131.998 363.29 132.474C362.905 132.927 362.451 133.154 361.93 133.154ZM336.328 116.698L335.988 116.12C341.405 112.539 345.429 108.889 348.058 105.172C348.851 103.993 349.452 102.894 349.86 101.874L354.382 102.928C354.699 103.019 354.858 103.177 354.858 103.404C354.858 103.903 354.235 104.175 352.988 104.22C355.187 106.26 357.453 107.892 359.788 109.116C362.213 110.385 365.035 111.371 368.254 112.074L368.118 112.754C367.393 112.867 366.792 113.151 366.316 113.604C365.863 114.035 365.432 114.703 365.024 115.61C362.032 114.137 359.607 112.607 357.748 111.02C355.935 109.456 354.155 107.405 352.41 104.866C350.075 107.767 347.627 110.147 345.066 112.006C342.618 113.774 339.705 115.338 336.328 116.698ZM343.638 114.998V114.08H354.62L356.388 111.666L359.652 114.08C359.811 114.216 359.89 114.341 359.89 114.454C359.867 114.771 359.516 114.953 358.836 114.998H343.638ZM396.848 133.222V130.57H387.634V132.1C387.634 132.531 387.407 132.814 386.954 132.95C386.138 133.131 385.322 133.222 384.506 133.222C384.597 130.706 384.642 128.564 384.642 126.796V123.702C384.642 123.294 384.619 121.798 384.574 119.214L388.518 120.404H396.27L397.426 118.602L400.724 120.098C401.087 120.257 401.268 120.438 401.268 120.642C401.268 121.005 400.803 121.435 399.874 121.934V125.708C399.874 126.932 399.908 129.051 399.976 132.066C399.976 132.338 399.931 132.542 399.84 132.678C399.772 132.791 399.613 132.882 399.364 132.95C398.571 133.131 397.732 133.222 396.848 133.222ZM374.408 124.348C374.204 124.348 374.045 124.189 373.932 123.872L372.674 120.302C373.694 120.166 374.499 119.645 375.088 118.738C376.267 116.902 377.253 115.168 378.046 113.536C376.867 113.921 375.439 114.363 373.762 114.862C373.649 115.814 373.388 116.29 372.98 116.29C372.821 116.29 372.674 116.131 372.538 115.814L371.348 112.516C372.255 112.335 372.912 111.802 373.32 110.918C374.249 109.014 374.952 107.257 375.428 105.648C375.723 104.651 375.995 103.529 376.244 102.282L380.256 103.54C380.573 103.653 380.732 103.801 380.732 103.982C380.732 104.481 380.143 104.787 378.964 104.9C377.468 107.711 375.881 110.227 374.204 112.448L378.59 112.38C378.703 112.131 378.805 111.881 378.896 111.632C379.44 110.34 379.848 109.082 380.12 107.858L384.03 109.354C384.325 109.467 384.472 109.626 384.472 109.83C384.472 110.306 383.86 110.589 382.636 110.68C380.755 114.08 378.647 117.151 376.312 119.894L383.18 119.112L383.35 119.724C380.539 120.948 377.831 122.013 375.224 122.92C375.088 123.872 374.816 124.348 374.408 124.348ZM381.752 117.208L381.344 116.732C384.563 113.332 386.954 109.887 388.518 106.396C389.198 104.809 389.685 103.291 389.98 101.84L394.332 102.826C394.672 102.939 394.842 103.098 394.842 103.302C394.842 103.755 394.241 104.061 393.04 104.22C396.077 108.572 399.715 111.553 403.954 113.162L403.784 113.74C402.719 113.899 401.835 114.805 401.132 116.46C397.097 113.604 394.253 109.785 392.598 105.002C390.422 110.034 386.807 114.103 381.752 117.208ZM396.848 121.322H387.634V129.652H396.848V121.322ZM373.184 131.386C373.003 131.386 372.867 131.239 372.776 130.944L371.382 127.17C372.289 127.079 373.535 126.887 375.122 126.592C377.525 126.071 380.313 125.391 383.486 124.552L383.724 125.13C380.641 126.83 377.423 128.405 374.068 129.856C373.932 130.876 373.637 131.386 373.184 131.386ZM386.478 115.712V114.794H393.55L395.148 112.72L398.038 114.828C398.197 114.987 398.276 115.123 398.276 115.236C398.276 115.553 397.925 115.712 397.222 115.712H386.478ZM419.39 133.29C419.277 132.225 418.869 131.465 418.166 131.012C417.509 130.581 416.081 130.117 413.882 129.618L413.95 129.074L420.07 129.278C420.569 129.301 420.92 129.21 421.124 129.006C421.351 128.802 421.464 128.462 421.464 127.986V109.286C421.464 106.906 421.407 104.481 421.294 102.01L425.884 102.35C426.247 102.395 426.428 102.531 426.428 102.758C426.428 103.257 425.884 103.665 424.796 103.982V118.5C424.796 120.132 424.853 123.804 424.966 129.516C424.989 130.672 424.615 131.522 423.844 132.066C423.028 132.633 421.543 133.041 419.39 133.29ZM436.186 126.83C435.483 126.83 435.019 126.377 434.792 125.47C433.387 119.985 431.131 114.896 428.026 110.204L428.434 109.796C431.743 112.448 434.293 115.111 436.084 117.786C437.693 120.211 438.498 122.319 438.498 124.11C438.498 124.903 438.26 125.561 437.784 126.082C437.331 126.581 436.798 126.83 436.186 126.83ZM407.048 127.884L406.64 127.476C409.315 123.079 411.332 118.647 412.692 114.182C413.123 112.867 413.429 111.462 413.61 109.966L418.166 111.258C418.529 111.349 418.71 111.53 418.71 111.802C418.71 112.301 418.041 112.618 416.704 112.754C414.959 118.489 411.74 123.532 407.048 127.884ZM466.99 133.222C466.831 132.247 466.446 131.545 465.834 131.114C465.29 130.729 464.168 130.343 462.468 129.958L462.57 129.38L467.534 129.584C468.441 129.652 468.894 129.199 468.894 128.224V121.118H460.938C460.462 123.906 459.51 126.241 458.082 128.122C456.767 129.867 454.648 131.692 451.724 133.596L451.282 133.154C454.229 130.139 456.189 127.204 457.164 124.348C458.048 121.696 458.467 118.081 458.422 113.502V109.762C458.422 107.382 458.388 105.24 458.32 103.336L462.366 104.662H468.248L469.404 102.656L472.838 104.254C473.155 104.435 473.314 104.617 473.314 104.798C473.314 105.229 472.861 105.682 471.954 106.158V116.29C471.954 121.186 471.999 125.651 472.09 129.686C472.113 130.729 471.773 131.511 471.07 132.032C470.322 132.576 468.962 132.973 466.99 133.222ZM451.826 126.49V124.246H447.032V126.66C447.032 127.113 446.805 127.397 446.352 127.51C445.445 127.737 444.652 127.85 443.972 127.85C444.063 125.039 444.108 121.424 444.108 117.004V110.476C444.108 107.144 444.085 105.025 444.04 104.118L447.882 105.41H451.214L452.37 103.472L455.464 105.002C455.827 105.183 456.008 105.376 456.008 105.58C456.008 105.807 455.929 105.999 455.77 106.158C455.589 106.339 455.237 106.566 454.716 106.838V115.542C454.716 118.647 454.75 121.911 454.818 125.334C454.818 125.765 454.614 126.037 454.206 126.15C453.526 126.331 452.733 126.445 451.826 126.49ZM461.448 113.502C461.448 116.222 461.323 118.455 461.074 120.2H468.894V113.332H461.448V113.502ZM468.894 105.58H461.448V112.414H468.894V105.58ZM447.032 115.134V123.362H451.826V115.134H447.032ZM451.826 106.294H447.032V114.25H451.826V106.294ZM89.148 170.422V169.504H98.294C98.3393 169.119 98.3847 168.733 98.43 168.348C98.5887 166.671 98.6113 164.891 98.498 163.01L103.428 163.554C103.791 163.577 103.972 163.724 103.972 163.996C103.972 164.495 103.405 164.891 102.272 165.186C102.113 166.999 101.966 168.439 101.83 169.504H114.172L116.314 166.58L120.122 169.47C120.303 169.629 120.394 169.765 120.394 169.878C120.371 170.218 120.02 170.399 119.34 170.422H101.694C101.354 172.575 100.991 174.389 100.606 175.862H111.452L112.846 173.856L116.586 175.896C116.903 176.032 117.062 176.225 117.062 176.474C117.062 176.927 116.473 177.301 115.294 177.596C113.911 181.087 112.121 183.988 109.922 186.3C112.823 188.181 116.405 189.564 120.666 190.448L120.53 191.026C119.918 191.162 119.419 191.457 119.034 191.91C118.626 192.386 118.252 193.123 117.912 194.12C113.288 192.465 109.797 190.595 107.44 188.51C104.289 190.935 99.8693 192.896 94.18 194.392L93.908 193.814C99.0987 191.366 102.986 188.941 105.57 186.538C103.711 184.271 102.181 181.019 100.98 176.78H100.368C99.3707 180.293 97.9313 183.365 96.05 185.994C94.282 188.442 91.8453 190.89 88.74 193.338L88.264 192.896C91.188 189.383 93.432 185.824 94.996 182.22C96.492 178.752 97.546 174.819 98.158 170.422H89.148ZM101.694 176.78C103.326 179.953 105.275 182.526 107.542 184.498C109.333 182.345 110.783 179.772 111.894 176.78H101.694ZM136.578 174.74C136.102 174.74 135.762 174.423 135.558 173.788C135.127 172.519 134.493 171.385 133.654 170.388C131.637 171.725 129.143 172.961 126.174 174.094L125.902 173.618C131.637 169.855 135.343 166.217 137.02 162.704L141.134 163.792C141.429 163.883 141.576 164.03 141.576 164.234C141.576 164.687 140.941 164.971 139.672 165.084C139.355 165.469 138.856 166.002 138.176 166.682H145.384L147.084 164.778L150.858 167.09C151.153 167.294 151.3 167.487 151.3 167.668C151.3 168.121 150.643 168.439 149.328 168.62C146.812 171.204 144.262 173.312 141.678 174.944L145.146 175.998C145.441 176.089 145.588 176.236 145.588 176.44C145.588 176.916 144.999 177.188 143.82 177.256C143.276 177.868 142.732 178.446 142.188 178.99H149.498L151.164 177.086L154.836 179.364C155.131 179.568 155.278 179.772 155.278 179.976C155.278 180.407 154.609 180.724 153.272 180.928C150.303 185.008 146.631 188.17 142.256 190.414C137.904 192.635 132.226 194.086 125.222 194.766L125.086 194.222C131.591 192.59 136.759 190.641 140.59 188.374C144.239 186.221 147.322 183.399 149.838 179.908H141.236C140.012 181.019 138.777 181.959 137.53 182.73C140.318 183.682 141.712 184.804 141.712 186.096C141.712 186.663 141.542 187.127 141.202 187.49C140.862 187.853 140.454 188.034 139.978 188.034C139.434 188.034 139.06 187.705 138.856 187.048C138.38 185.62 137.666 184.339 136.714 183.206C134.266 184.657 131.138 185.949 127.33 187.082L127.092 186.572C132.169 183.897 136.079 181.109 138.822 178.208C139.661 177.279 140.386 176.327 140.998 175.352C136.827 177.845 131.557 179.704 125.188 180.928L124.984 180.384C130.379 178.412 134.663 176.44 137.836 174.468C140.964 172.541 143.593 170.252 145.724 167.6H137.224C136.272 168.439 135.354 169.175 134.47 169.81C135.762 170.241 136.737 170.728 137.394 171.272C137.983 171.771 138.278 172.292 138.278 172.836C138.278 173.357 138.097 173.811 137.734 174.196C137.394 174.559 137.009 174.74 136.578 174.74ZM186.49 193.032V190.21H180.642V192.42C180.665 192.919 180.427 193.213 179.928 193.304C179.157 193.463 178.353 193.565 177.514 193.61C177.627 189.122 177.684 184.793 177.684 180.622V175.25C177.684 172.167 177.65 169.572 177.582 167.464L181.39 168.722H185.878L187.068 166.784L190.332 168.348C190.672 168.507 190.842 168.688 190.842 168.892C190.842 169.096 190.763 169.289 190.604 169.47C190.4 169.697 190.026 169.957 189.482 170.252V178.548C189.482 181.517 189.55 185.971 189.686 191.91C189.686 192.341 189.482 192.601 189.074 192.692C188.394 192.873 187.533 192.987 186.49 193.032ZM168.674 193.61C168.538 192.658 168.175 191.989 167.586 191.604C167.087 191.264 166.011 190.913 164.356 190.55L164.458 190.04L168.776 190.244C169.683 190.289 170.295 190.131 170.612 189.768C170.952 189.383 171.156 188.589 171.224 187.388C171.519 183.353 171.666 177.981 171.666 171.272H167.654C167.541 176.803 166.861 181.336 165.614 184.872C164.39 188.363 162.384 191.525 159.596 194.358L159.154 194.018C161.103 190.754 162.486 187.479 163.302 184.192C164.163 180.724 164.628 176.417 164.696 171.272H159.664V170.354H164.73V169.402V167.804C164.73 165.9 164.685 164.313 164.594 163.044L168.708 163.418C169.048 163.463 169.218 163.599 169.218 163.826C169.218 164.257 168.708 164.631 167.688 164.948V169.198V170.354H171.088L172.278 168.45L175.474 169.98C175.769 170.139 175.916 170.309 175.916 170.49C175.916 170.875 175.463 171.34 174.556 171.884C174.556 177.596 174.431 182.945 174.182 187.932C174.091 189.972 173.661 191.377 172.89 192.148C172.142 192.896 170.737 193.383 168.674 193.61ZM186.49 169.674H180.642V189.292H186.49V169.674ZM195.194 178.854V177.868H219.504L221.918 174.638L226.1 177.868C226.304 178.004 226.406 178.14 226.406 178.276C226.406 178.616 226.021 178.809 225.25 178.854H195.194ZM230.146 181.574V180.69H236.538V176.882H233.75V177.392C233.75 177.868 233.557 178.151 233.172 178.242C232.583 178.378 231.937 178.446 231.234 178.446C231.325 176.247 231.37 174.173 231.37 172.224V169.028C231.37 167.419 231.336 165.832 231.268 164.268L234.634 165.322H241.366L242.386 163.554L245.174 164.948C245.469 165.084 245.616 165.231 245.616 165.39C245.616 165.753 245.185 166.161 244.324 166.614V170.048C244.324 171.929 244.358 174.173 244.426 176.78C244.449 177.233 244.256 177.517 243.848 177.63C243.213 177.811 242.567 177.902 241.91 177.902V176.882H239.122V180.69H241.502L242.998 178.65L245.65 180.656C245.854 180.837 245.956 180.985 245.956 181.098C245.956 181.415 245.593 181.574 244.868 181.574H239.122V183.41C242.907 184.725 244.8 186.107 244.8 187.558C244.709 188.782 244.199 189.417 243.27 189.462C242.794 189.462 242.443 189.156 242.216 188.544C241.559 187.116 240.527 185.665 239.122 184.192V184.226C239.122 185.835 239.167 188.793 239.258 193.1C239.258 193.621 239.031 193.927 238.578 194.018C237.943 194.177 237.218 194.256 236.402 194.256C236.493 190.539 236.538 187.411 236.538 184.872C235.019 187.479 232.889 189.825 230.146 191.91L229.772 191.502C232.401 188.057 234.283 184.747 235.416 181.574H230.146ZM246.126 165.9V165.05H257.04L258.774 162.772L261.834 164.982C262.015 165.141 262.106 165.277 262.106 165.39C262.106 165.526 262.015 165.639 261.834 165.73C261.63 165.843 261.358 165.9 261.018 165.9H254.626C253.833 167.555 252.881 169.164 251.77 170.728H256.938L258.06 168.824L261.222 170.286C261.562 170.467 261.732 170.637 261.732 170.796C261.732 171.181 261.256 171.601 260.304 172.054V176.066C260.304 178.899 260.349 181.993 260.44 185.348C260.463 185.824 260.236 186.119 259.76 186.232C259.261 186.391 258.525 186.504 257.55 186.572V171.612H249.322V185.858C249.322 186.107 249.277 186.289 249.186 186.402C249.095 186.515 248.937 186.606 248.71 186.674C247.939 186.878 247.237 186.98 246.602 186.98C246.647 185.348 246.67 182.492 246.67 178.412V175.59C246.67 172.621 246.647 170.615 246.602 169.572L250.24 170.728H250.648C250.829 169.141 250.977 167.532 251.09 165.9H246.126ZM259.862 194.12C259.409 194.12 259.023 193.837 258.706 193.27C257.527 191.071 255.839 189.088 253.64 187.32C252.96 188.929 251.838 190.289 250.274 191.4C248.71 192.488 246.477 193.497 243.576 194.426L243.27 193.814C246.761 192.001 249.095 190.187 250.274 188.374C251.453 186.583 252.042 183.954 252.042 180.486V178.582C252.042 176.678 252.019 175.193 251.974 174.128L255.51 174.468C255.805 174.513 255.952 174.649 255.952 174.876C255.952 175.239 255.533 175.579 254.694 175.896V180.452C254.694 183.036 254.433 185.099 253.912 186.64C258.921 188.431 261.426 190.278 261.426 192.182C261.426 192.726 261.267 193.191 260.95 193.576C260.655 193.939 260.293 194.12 259.862 194.12ZM241.91 166.172H239.122V170.694H241.91V166.172ZM233.75 166.172V170.694H236.538V166.172H233.75ZM233.75 171.544V176.032H236.538V171.544H233.75ZM239.122 171.544V176.032H241.91V171.544H239.122ZM289.374 194.426C289.283 193.474 288.989 192.805 288.49 192.42C287.991 192.035 286.971 191.661 285.43 191.298L285.566 190.686L289.884 190.924C290.723 190.969 291.312 190.822 291.652 190.482C291.992 190.142 292.207 189.462 292.298 188.442C292.593 184.294 292.751 180.373 292.774 176.678H290.496C289.657 181.075 288.184 184.543 286.076 187.082C283.9 189.711 280.409 192.148 275.604 194.392L275.23 193.916C279.106 191.037 281.939 188.34 283.73 185.824C285.521 183.308 286.722 180.259 287.334 176.678H284.614C283.617 179.761 282.37 182.186 280.874 183.954C279.401 185.722 277.089 187.547 273.938 189.428L273.564 188.952C275.921 186.595 277.644 184.577 278.732 182.9C279.865 181.177 280.795 179.103 281.52 176.678H280.5L278.664 177.97C277.893 177.313 277.168 176.61 276.488 175.862C276.375 175.703 276.341 175.567 276.386 175.454C276.431 175.363 276.545 175.295 276.726 175.25C277.406 175.137 277.984 174.842 278.46 174.366L288.218 166.376H276.42V165.356H288.252L290.02 163.724L293.284 165.866C293.579 166.07 293.726 166.263 293.726 166.444C293.726 166.875 292.967 167.181 291.448 167.362L280.84 175.794H292.162L293.352 173.788L296.82 175.454C297.115 175.59 297.262 175.749 297.262 175.93C297.262 176.338 296.763 176.78 295.766 177.256C295.675 181.699 295.517 185.722 295.29 189.326C295.177 191.049 294.735 192.25 293.964 192.93C293.148 193.655 291.618 194.154 289.374 194.426ZM269.654 193.814C269.133 193.814 268.691 193.633 268.328 193.27C267.943 192.885 267.75 192.375 267.75 191.74C267.75 191.287 267.875 190.482 268.124 189.326C268.351 188.351 268.464 187.467 268.464 186.674C268.487 185.745 268.351 185.099 268.056 184.736C267.739 184.328 267.059 183.943 266.016 183.58L266.152 182.968C266.9 183.081 267.433 183.138 267.75 183.138C268.113 183.138 268.419 183.047 268.668 182.866C268.917 182.685 269.144 182.39 269.348 181.982L276.012 169.062L276.624 169.3L271.966 181.472C271.399 183.036 271.116 184.419 271.116 185.62C271.116 186.753 271.252 187.921 271.524 189.122C271.728 190.187 271.83 191.049 271.83 191.706C271.83 192.386 271.637 192.907 271.252 193.27C270.867 193.633 270.334 193.814 269.654 193.814ZM269.416 176.78C268.872 176.78 268.487 176.451 268.26 175.794C267.625 174.049 266.707 172.439 265.506 170.966L265.744 170.626C269.348 171.737 271.15 173.085 271.15 174.672C271.127 175.307 270.946 175.817 270.606 176.202C270.243 176.587 269.847 176.78 269.416 176.78ZM272.476 169.198C271.887 169.221 271.479 168.903 271.252 168.246C270.504 166.455 269.507 164.914 268.26 163.622L268.498 163.282C270.425 163.781 271.864 164.37 272.816 165.05C273.7 165.685 274.142 166.365 274.142 167.09C274.119 167.725 273.949 168.235 273.632 168.62C273.292 169.005 272.907 169.198 272.476 169.198ZM302.804 194.256C302.94 190.289 303.008 186.017 303.008 181.438V172.768C303.008 170.139 302.974 167.237 302.906 164.064L306.816 165.254H327.012L328.202 163.316L331.466 164.88C331.806 165.039 331.976 165.22 331.976 165.424C331.976 165.855 331.511 166.297 330.582 166.75V175.726C330.582 180.509 330.661 186.289 330.82 193.066C330.82 193.361 330.775 193.576 330.684 193.712C330.593 193.848 330.435 193.939 330.208 193.984C329.437 194.143 328.553 194.245 327.556 194.29V192.012H306V193.134C306 193.633 305.773 193.927 305.32 194.018C304.368 194.177 303.529 194.256 302.804 194.256ZM327.556 166.138H306V191.128H327.556V166.138ZM320.586 174.74V173.686H313.004V174.06C313.004 174.468 312.777 174.729 312.324 174.842C311.531 175.001 310.851 175.08 310.284 175.08C310.352 173.153 310.386 171.884 310.386 171.272V170.15C310.386 169.651 310.363 168.835 310.318 167.702L313.786 168.62H320.11L321.164 167.022L323.884 168.28C324.224 168.439 324.394 168.609 324.394 168.79C324.394 169.107 323.997 169.515 323.204 170.014V171C323.204 171.453 323.227 172.337 323.272 173.652C323.295 174.128 323.102 174.411 322.694 174.502C321.946 174.661 321.243 174.74 320.586 174.74ZM321.572 184.532V177.426H311.95V184.498C311.95 184.951 311.746 185.212 311.338 185.28C310.567 185.461 309.853 185.552 309.196 185.552C309.264 182.492 309.298 180.826 309.298 180.554V179.024C309.298 177.913 309.264 176.791 309.196 175.658L312.8 176.576H321.028L322.082 174.978L325.006 176.304C325.301 176.417 325.448 176.576 325.448 176.78C325.448 177.12 325.04 177.505 324.224 177.936V179.024C324.224 180.067 324.247 181.563 324.292 183.512C324.315 183.943 324.133 184.203 323.748 184.294C323.113 184.453 322.388 184.532 321.572 184.532ZM323.918 190.04C323.555 190.04 323.181 189.791 322.796 189.292C321.436 187.705 319.589 186.311 317.254 185.11C316.642 186.334 315.599 187.354 314.126 188.17C312.653 188.986 310.556 189.689 307.836 190.278L307.598 189.666C310.703 188.306 312.811 187.014 313.922 185.79C314.965 184.634 315.486 183.093 315.486 181.166C315.486 180.894 315.452 180.01 315.384 178.514L318.92 178.854C319.26 178.899 319.43 179.024 319.43 179.228C319.43 179.636 318.999 179.987 318.138 180.282V180.52C318.138 182.084 317.945 183.399 317.56 184.464C322.751 185.303 325.346 186.572 325.346 188.272C325.346 188.771 325.21 189.19 324.938 189.53C324.666 189.87 324.326 190.04 323.918 190.04ZM320.586 169.47H313.004V172.836H320.586V169.47ZM341.428 194.46L340.782 193.644C342.527 192.647 343.445 191.751 343.536 190.958C343.627 190.369 343.355 190.04 342.72 189.972C342.108 189.904 341.621 189.666 341.258 189.258C340.895 188.85 340.714 188.34 340.714 187.728C340.714 187.048 340.963 186.47 341.462 185.994C341.983 185.495 342.618 185.246 343.366 185.246C344.182 185.246 344.839 185.518 345.338 186.062C345.859 186.629 346.12 187.377 346.12 188.306C346.12 191.049 344.556 193.1 341.428 194.46ZM385.424 194.29C385.56 190.233 385.628 185.835 385.628 181.098V176.27C382.069 180.69 377.513 184.294 371.96 187.082L371.552 186.538C379.009 180.554 384.2 174.185 387.124 167.43H372.232V166.512H397.12L399.126 163.656L402.798 166.444C402.979 166.58 403.07 166.727 403.07 166.886C403.025 167.203 402.639 167.385 401.914 167.43H391.204C390.252 169.311 389.289 171.011 388.314 172.53L389.844 172.666C390.184 172.711 390.354 172.847 390.354 173.074C390.354 173.459 389.833 173.845 388.79 174.23V179.364C388.79 181.336 388.869 185.869 389.028 192.964C389.096 193.576 388.847 193.927 388.28 194.018C387.509 194.199 386.557 194.29 385.424 194.29ZM400.724 185.96C400.157 185.96 399.659 185.597 399.228 184.872C397.573 181.767 394.955 178.786 391.374 175.93L391.68 175.488C395.465 177.075 398.299 178.661 400.18 180.248C401.721 181.495 402.492 182.696 402.492 183.852C402.379 185.212 401.789 185.915 400.724 185.96ZM426.02 194.256C425.929 193.213 425.533 192.465 424.83 192.012C424.173 191.604 422.813 191.185 420.75 190.754L420.852 190.142L426.836 190.448C427.811 190.493 428.491 190.346 428.876 190.006C429.239 189.689 429.499 189.009 429.658 187.966C430.066 184.883 430.338 182.107 430.474 179.636H416.534L415.446 181.098C414.267 180.554 413.247 179.908 412.386 179.16C412.159 178.888 412.182 178.661 412.454 178.48C412.998 178.163 413.349 177.698 413.508 177.086L414.8 171.782C415.095 170.422 415.287 169.221 415.378 168.178L419.39 168.858C419.685 168.881 419.832 169.017 419.832 169.266C419.832 169.697 419.333 170.037 418.336 170.286L417.69 172.904H430.066L431.868 170.524L435.234 172.87C435.393 173.006 435.472 173.142 435.472 173.278C435.449 173.595 435.087 173.777 434.384 173.822H417.452L416.262 178.718H429.828L431.018 176.746L434.52 178.344C434.883 178.525 435.064 178.707 435.064 178.888C435.064 179.296 434.565 179.761 433.568 180.282C433.319 183.455 433.047 186.255 432.752 188.68C432.48 190.697 431.925 192.069 431.086 192.794C430.202 193.565 428.513 194.052 426.02 194.256ZM409.054 171.986C408.578 171.986 408.193 171.827 407.898 171.51C407.603 171.193 407.456 170.796 407.456 170.32C407.456 169.64 407.762 169.028 408.374 168.484C409.598 167.328 410.471 165.787 410.992 163.86L411.4 163.894C411.536 164.733 411.615 165.311 411.638 165.628H433.194L434.724 163.826L438.192 166.376C438.464 166.557 438.6 166.739 438.6 166.92C438.6 167.147 438.475 167.317 438.226 167.43C437.954 167.566 437.489 167.645 436.832 167.668C435.744 168.416 434.305 169.277 432.514 170.252L432.072 169.912L433.636 166.546H411.706C411.729 167.317 411.695 168.076 411.604 168.824C411.513 169.753 411.207 170.524 410.686 171.136C410.21 171.703 409.666 171.986 409.054 171.986ZM406.844 185.586V184.668H422.178L424.082 182.118L427.55 184.634C427.709 184.793 427.788 184.929 427.788 185.042C427.743 185.359 427.38 185.541 426.7 185.586H406.844ZM442.986 169.572V168.654H452.472C452.631 168.269 452.789 167.872 452.948 167.464C453.424 166.127 453.787 164.642 454.036 163.01L458.762 164.03C459.079 164.098 459.238 164.245 459.238 164.472C459.238 164.676 459.091 164.88 458.796 165.084C458.479 165.265 457.98 165.39 457.3 165.458C456.892 166.546 456.45 167.611 455.974 168.654H468.214L470.186 165.934L473.688 168.62C473.847 168.756 473.926 168.903 473.926 169.062C473.903 169.379 473.541 169.549 472.838 169.572H455.566C454.161 172.7 452.585 175.363 450.84 177.562V193.032C450.84 193.621 450.591 193.961 450.092 194.052C449.253 194.233 448.403 194.324 447.542 194.324C447.701 189.201 447.78 185.473 447.78 183.138V180.826C446.239 182.231 444.369 183.671 442.17 185.144L441.83 184.702C444.165 182.231 446.148 179.817 447.78 177.46V175.114L449.14 175.352C450.296 173.471 451.282 171.544 452.098 169.572H442.986ZM453.084 180.35V179.432H460.258V177.528C460.258 175.239 460.224 173.255 460.156 171.578L464.508 171.884C464.848 171.929 465.018 172.065 465.018 172.292C465.018 172.813 464.474 173.221 463.386 173.516V179.432H467.466L469.234 176.984L472.464 179.398C472.645 179.511 472.736 179.636 472.736 179.772C472.713 180.112 472.351 180.305 471.648 180.35H463.386V190.958H468.18L470.288 188.136L473.96 190.924C474.119 191.06 474.198 191.207 474.198 191.366C474.198 191.661 473.835 191.831 473.11 191.876H451.758V190.958H460.258V180.35H453.084ZM117.436 253.726C114.58 252.525 112.347 251.244 110.738 249.884C109.129 248.524 107.655 246.688 106.318 244.376H105.944V247.436C105.944 247.98 105.978 250.258 106.046 254.27C106.046 254.723 105.853 254.995 105.468 255.086C104.629 255.267 103.745 255.358 102.816 255.358C102.907 252.547 102.952 250.224 102.952 248.388V245.906C101.093 247.901 99.0647 249.533 96.866 250.802C94.7807 252.003 92.0493 253.159 88.672 254.27L88.4 253.726C91.2333 252.162 93.5227 250.723 95.268 249.408C97.1947 247.935 98.9287 246.257 100.47 244.376H89.522V243.526H102.952C102.929 242.597 102.895 241.701 102.85 240.84L106.964 241.18C107.304 241.225 107.474 241.35 107.474 241.554C107.474 242.007 106.964 242.381 105.944 242.676V243.526H114.614L116.416 241.146L119.646 243.458C119.827 243.639 119.918 243.775 119.918 243.866C119.873 244.183 119.51 244.353 118.83 244.376H107.236C109.321 246.121 111.293 247.436 113.152 248.32C115.101 249.249 117.583 250.031 120.598 250.666L120.428 251.278C119.113 251.414 118.116 252.23 117.436 253.726ZM107.576 231.32V228.668H100.3V231.048C100.3 231.501 100.085 231.785 99.654 231.898C98.974 232.079 98.2147 232.17 97.376 232.17C97.3987 231.014 97.4213 229.847 97.444 228.668H88.876V227.784H97.444V227.07C97.444 225.778 97.4213 224.735 97.376 223.942L101.184 224.248C101.524 224.293 101.694 224.429 101.694 224.656C101.694 225.041 101.229 225.404 100.3 225.744V227.784H107.576V227.58C107.576 226.288 107.553 225.087 107.508 223.976L111.35 224.282C111.69 224.327 111.86 224.463 111.86 224.69C111.86 225.075 111.384 225.427 110.432 225.744V226.594V227.784H114.818L116.654 225.37L119.952 227.75C120.156 227.931 120.258 228.079 120.258 228.192C120.213 228.487 119.839 228.645 119.136 228.668H110.432C110.455 229.189 110.477 229.711 110.5 230.232C110.523 230.663 110.33 230.935 109.922 231.048C109.129 231.229 108.347 231.32 107.576 231.32ZM90.746 235.06L90.678 234.448C99.8353 233.383 106.171 232.487 109.684 231.762C111.225 231.445 112.597 231.037 113.798 230.538L116.246 232.782C116.518 233.054 116.654 233.292 116.654 233.496C116.654 233.768 116.45 233.904 116.042 233.904C115.611 233.904 115.113 233.768 114.546 233.496C107.406 234.448 99.4727 234.969 90.746 235.06ZM108.936 242.234L108.494 241.86C110.398 239.321 111.667 236.987 112.302 234.856L115.906 236.556C116.223 236.692 116.382 236.873 116.382 237.1C116.382 237.327 116.246 237.485 115.974 237.576C115.657 237.689 115.192 237.701 114.58 237.61C113.084 239.197 111.203 240.738 108.936 242.234ZM96.594 241.758C96.0727 241.758 95.7327 241.429 95.574 240.772C95.1887 239.231 94.452 237.803 93.364 236.488L93.636 236.182C95.3813 236.749 96.6507 237.361 97.444 238.018C98.124 238.585 98.464 239.197 98.464 239.854C98.464 240.421 98.294 240.874 97.954 241.214C97.5913 241.577 97.138 241.758 96.594 241.758ZM104.38 240.364C103.836 240.364 103.496 240.035 103.36 239.378C103.065 237.882 102.419 236.488 101.422 235.196L101.694 234.89C104.754 235.887 106.284 237.066 106.284 238.426C106.284 239.015 106.103 239.491 105.74 239.854C105.4 240.194 104.947 240.364 104.38 240.364ZM124.236 247.572V246.688H138.142V244.308V242.166H131.444V243.084C131.444 243.492 131.251 243.741 130.866 243.832C130.005 244.013 129.166 244.104 128.35 244.104C128.418 241.996 128.452 239.695 128.452 237.202V232.952C128.452 231.003 128.429 229.563 128.384 228.634L132.158 229.926H141.338C142.199 227.75 142.8 225.699 143.14 223.772L147.152 224.996C147.515 225.132 147.696 225.302 147.696 225.506C147.696 226.005 147.095 226.265 145.894 226.288C144.829 227.693 143.775 228.906 142.732 229.926H147.39L148.512 228.056L151.844 229.586C152.229 229.745 152.422 229.949 152.422 230.198C152.422 230.379 152.331 230.549 152.15 230.708C151.923 230.912 151.538 231.15 150.994 231.422V235.57C151.039 237.905 151.073 240.228 151.096 242.54C151.119 242.971 150.949 243.231 150.586 243.322C149.725 243.526 148.863 243.628 148.002 243.628V242.166H141.27V243.526V246.688H149.906L151.912 244.002L155.482 246.654C155.663 246.835 155.754 246.971 155.754 247.062C155.709 247.379 155.346 247.549 154.666 247.572H141.27C141.315 249.771 141.361 251.969 141.406 254.168C141.406 254.689 141.191 254.995 140.76 255.086C139.899 255.267 138.969 255.358 137.972 255.358C138.017 254.043 138.063 251.448 138.108 247.572H124.236ZM141.27 236.454V241.282H148.002V236.454H141.27ZM131.444 236.454V241.282H138.142V236.454H131.444ZM148.002 230.81H141.27V235.57H148.002V230.81ZM131.444 230.81V235.57H138.142V230.81H131.444ZM135.558 229.62C134.969 229.62 134.583 229.291 134.402 228.634C133.994 227.025 133.314 225.54 132.362 224.18L132.634 223.874C134.402 224.441 135.671 225.053 136.442 225.71C137.122 226.277 137.462 226.923 137.462 227.648C137.462 228.192 137.269 228.657 136.884 229.042C136.499 229.427 136.057 229.62 135.558 229.62ZM159.46 253.522V252.57H172.346V231.456C172.346 228.691 172.301 226.209 172.21 224.01L176.868 224.35C177.231 224.373 177.412 224.509 177.412 224.758C177.412 225.279 176.845 225.699 175.712 226.016V236.318H182.886L184.858 233.632L188.292 236.284C188.451 236.443 188.53 236.59 188.53 236.726C188.485 237.021 188.122 237.191 187.442 237.236H175.712V252.57H185.232L187.306 249.748L190.91 252.536C191.091 252.649 191.182 252.797 191.182 252.978C191.137 253.295 190.774 253.477 190.094 253.522H159.46ZM199.988 255.46L199.342 254.644C201.087 253.647 202.005 252.751 202.096 251.958C202.187 251.369 201.915 251.04 201.28 250.972C200.668 250.904 200.181 250.666 199.818 250.258C199.455 249.85 199.274 249.34 199.274 248.728C199.274 248.048 199.523 247.47 200.022 246.994C200.543 246.495 201.178 246.246 201.926 246.246C202.742 246.246 203.399 246.518 203.898 247.062C204.419 247.629 204.68 248.377 204.68 249.306C204.68 252.049 203.116 254.1 199.988 255.46ZM242.08 249.408C242.216 244.467 242.284 240.851 242.284 238.562V233.122C242.284 230.039 242.25 227.557 242.182 225.676L246.33 226.968H255.034L256.224 225.03L259.726 226.56C260.043 226.719 260.202 226.9 260.202 227.104C260.202 227.512 259.726 227.988 258.774 228.532V235.06C258.774 237.463 258.831 241.645 258.944 247.606C258.944 248.105 258.729 248.411 258.298 248.524C257.505 248.751 256.632 248.864 255.68 248.864V246.518H245.344V248.15C245.344 248.671 245.129 248.989 244.698 249.102C243.927 249.306 243.055 249.408 242.08 249.408ZM234.192 255.29C234.305 249.329 234.362 245.124 234.362 242.676V236.726C233.093 238.675 231.687 240.466 230.146 242.098L229.67 241.724C233.274 235.128 235.529 229.178 236.436 223.874L240.516 225.098C240.879 225.189 241.06 225.359 241.06 225.608C241.06 226.084 240.459 226.379 239.258 226.492C238.397 228.917 237.49 231.059 236.538 232.918L238.238 233.156C238.555 233.179 238.714 233.315 238.714 233.564C238.714 233.949 238.238 234.312 237.286 234.652V254.032C237.286 254.576 237.059 254.905 236.606 255.018C235.722 255.245 234.917 255.335 234.192 255.29ZM245.344 237.168V245.6H255.68V237.168H245.344ZM255.68 227.92H245.344V236.25H255.68V227.92ZM239.088 253.556V252.638H256.87L258.74 250.02L262.242 252.638C262.423 252.774 262.514 252.91 262.514 253.046C262.469 253.341 262.106 253.511 261.426 253.556H239.088ZM273.394 249.034L272.136 250.564C271.003 249.929 270.028 249.249 269.212 248.524C268.963 248.297 268.974 248.071 269.246 247.844C269.835 247.481 270.164 247.028 270.232 246.484L270.912 241.316H265.438V240.432H271.014L271.694 235.298C271.853 234.006 271.943 232.907 271.966 232C270.651 233.541 269.087 235.037 267.274 236.488L266.798 236.046C270.017 231.49 272.079 227.353 272.986 223.636L277.236 224.724C277.576 224.837 277.746 224.996 277.746 225.2C277.746 225.744 277.123 226.061 275.876 226.152C275.468 226.877 275.162 227.41 274.958 227.75H289.816L291.618 225.268L295.154 227.716C295.335 227.852 295.426 227.988 295.426 228.124C295.449 228.441 295.097 228.611 294.372 228.634H274.414C273.666 229.813 272.929 230.833 272.204 231.694L275.706 232.782H287.912L289.136 230.776L292.536 232.442C292.876 232.646 293.046 232.827 293.046 232.986C293.046 233.349 292.547 233.768 291.55 234.244C291.505 237.055 291.459 239.117 291.414 240.432H292.604L294.338 238.12L297.296 240.398C297.477 240.579 297.568 240.738 297.568 240.874C297.568 241.169 297.205 241.316 296.48 241.316H291.414C291.346 243.515 291.255 245.793 291.142 248.15H291.89L293.556 246.008L296.276 248.15C296.48 248.286 296.582 248.433 296.582 248.592C296.582 248.887 296.219 249.034 295.494 249.034H291.108C291.063 249.623 291.04 250.02 291.04 250.224C290.927 251.992 290.485 253.227 289.714 253.93C288.921 254.655 287.402 255.143 285.158 255.392C285.09 254.485 284.739 253.839 284.104 253.454C283.469 253.069 282.279 252.672 280.534 252.264L280.636 251.686L285.804 251.958C286.529 252.003 287.051 251.856 287.368 251.516C287.708 251.153 287.901 250.496 287.946 249.544C287.946 249.317 287.957 249.147 287.98 249.034H273.394ZM272.986 248.15H288.048C288.139 246.427 288.241 244.149 288.354 241.316H273.802L272.986 248.15ZM288.524 233.666H274.754L273.904 240.432H288.388C288.433 239.004 288.479 236.749 288.524 233.666ZM281.588 247.538C281.021 247.538 280.647 247.198 280.466 246.518C280.103 245.067 279.469 243.696 278.562 242.404L278.868 242.064C281.86 243.084 283.356 244.263 283.356 245.6C283.288 246.847 282.699 247.493 281.588 247.538ZM281.86 239.786C281.293 239.786 280.919 239.435 280.738 238.732C280.398 237.327 279.741 235.978 278.766 234.686L279.072 234.38C282.064 235.423 283.56 236.601 283.56 237.916C283.56 238.483 283.401 238.936 283.084 239.276C282.767 239.616 282.359 239.786 281.86 239.786ZM329.426 254.984C326.774 252.808 324.757 250.541 323.374 248.184C322.037 245.917 321.051 243.163 320.416 239.922C319.963 244.07 318.614 247.323 316.37 249.68C314.194 251.969 310.692 253.919 305.864 255.528L305.558 254.984C309.661 252.604 312.573 250.224 314.296 247.844C315.928 245.6 316.88 242.801 317.152 239.446C317.311 237.565 317.311 235.876 317.152 234.38L321.708 234.686C322.048 234.731 322.218 234.867 322.218 235.094C322.218 235.57 321.685 235.944 320.62 236.216C320.62 236.647 320.609 236.975 320.586 237.202C321.787 240.761 323.317 243.628 325.176 245.804C327.08 248.048 329.687 249.997 332.996 251.652L332.724 252.332C331.273 252.468 330.174 253.352 329.426 254.984ZM310.08 241.248L309.502 240.908C311.814 236.397 313.412 232.136 314.296 228.124C314.636 226.719 314.874 225.325 315.01 223.942L319.804 224.996C320.144 225.064 320.314 225.223 320.314 225.472C320.337 225.925 319.702 226.254 318.41 226.458C317.866 228.09 317.311 229.575 316.744 230.912H326.536L327.964 228.94L331.908 231.49C332.203 231.671 332.35 231.875 332.35 232.102C332.35 232.51 331.693 232.748 330.378 232.816C328.927 234.607 327.125 236.454 324.972 238.358L324.462 238.052L326.978 231.83H316.336C314.727 235.321 312.641 238.46 310.08 241.248ZM304.844 252.502C303.688 252.479 303.076 251.799 303.008 250.462C303.008 250.009 303.121 249.238 303.348 248.15C303.575 247.198 303.688 246.371 303.688 245.668C303.688 244.807 303.541 244.195 303.246 243.832C302.906 243.424 302.169 243.016 301.036 242.608L301.172 241.928C302.011 242.041 302.589 242.098 302.906 242.098C303.654 242.098 304.209 241.724 304.572 240.976L310.93 228.362L311.542 228.634L307.19 240.5C306.623 241.951 306.351 243.356 306.374 244.716C306.374 245.623 306.499 246.699 306.748 247.946C306.952 248.875 307.054 249.691 307.054 250.394C307.054 251.029 306.85 251.539 306.442 251.924C306.034 252.309 305.501 252.502 304.844 252.502ZM305.592 233.394C304.957 233.394 304.527 232.997 304.3 232.204C303.937 230.98 303.529 229.949 303.076 229.11C302.668 228.339 302.079 227.478 301.308 226.526L301.648 226.118C305.547 227.637 307.496 229.325 307.496 231.184C307.36 232.589 306.725 233.326 305.592 233.394ZM349.588 253.42V251.21H342.754V253.012C342.754 253.511 342.539 253.805 342.108 253.896C341.405 254.077 340.657 254.168 339.864 254.168C339.955 251.697 340 249.317 340 247.028V243.492V243.084C339.161 243.605 337.847 244.342 336.056 245.294L335.75 244.784C337.473 243.537 338.878 242.438 339.966 241.486C339.966 240.829 339.943 239.865 339.898 238.596L342.38 239.378C343.604 238.222 344.726 237.032 345.746 235.808H336.362V234.924H342.924V229.96H337.62V229.076H342.924C342.924 227.489 342.89 225.789 342.822 223.976L346.562 224.316C346.902 224.361 347.072 224.497 347.072 224.724C347.072 225.109 346.596 225.483 345.644 225.846V229.076H346.732L347.99 227.41L350.166 229.042L350.302 229.178C350.823 228.203 351.299 227.127 351.73 225.948L354.96 227.41C355.255 227.546 355.402 227.693 355.402 227.852C355.402 228.328 354.858 228.577 353.77 228.6C352.297 231.071 350.835 233.179 349.384 234.924H351.254L352.886 232.816L355.538 234.89C355.742 235.071 355.844 235.207 355.844 235.298C355.821 235.615 355.459 235.785 354.756 235.808H348.67C347.355 237.327 346.029 238.63 344.692 239.718H349.078L350.132 237.916L353.192 239.378C353.509 239.537 353.668 239.695 353.668 239.854C353.668 240.058 353.589 240.239 353.43 240.398C353.294 240.534 352.943 240.772 352.376 241.112V245.838C352.376 247.719 352.421 249.839 352.512 252.196C352.512 252.468 352.467 252.672 352.376 252.808C352.308 252.921 352.149 253.012 351.9 253.08C351.152 253.307 350.381 253.42 349.588 253.42ZM362.678 250.224C362.61 249.34 362.338 248.717 361.862 248.354C361.409 248.014 360.468 247.651 359.04 247.266L359.142 246.722L362.712 246.926C363.415 246.971 363.913 246.824 364.208 246.484C364.525 246.121 364.684 245.487 364.684 244.58C364.684 243.265 364.423 242.007 363.902 240.806C363.358 239.582 362.451 238.188 361.182 236.624L363.562 227.852H358.802V254.236C358.802 254.712 358.621 254.995 358.258 255.086C357.419 255.267 356.603 255.358 355.81 255.358C355.946 251.459 356.014 247.039 356.014 242.098V232.17C356.014 230.538 355.969 228.43 355.878 225.846L359.584 226.934H363.154L364.48 225.098L367.88 227.036C368.22 227.24 368.39 227.433 368.39 227.614C368.39 228.09 367.835 228.43 366.724 228.634L362.134 236.556C366.055 239.412 367.937 242.143 367.778 244.75C367.778 246.586 367.404 247.901 366.656 248.694C365.931 249.465 364.605 249.975 362.678 250.224ZM342.754 245.838V250.326H349.588V245.838H342.754ZM343.604 240.602C343.559 240.647 343.275 240.863 342.754 241.248V244.988H349.588V240.602H343.604ZM349.69 230.3C349.758 230.187 349.826 230.062 349.894 229.926C349.803 229.949 349.633 229.96 349.384 229.96H345.644V234.924H346.46C347.661 233.451 348.738 231.909 349.69 230.3ZM388.45 253.998C387.181 253.998 386.285 253.76 385.764 253.284C385.22 252.785 384.948 251.89 384.948 250.598V241.248C384.948 239.14 384.914 237.451 384.846 236.182L388.688 237.372H397.46V227.58H383.69V226.696H396.78L397.97 224.622L401.54 226.288C401.835 226.424 401.982 226.594 401.982 226.798C401.982 227.002 401.891 227.195 401.71 227.376C401.506 227.557 401.121 227.807 400.554 228.124V232.578C400.599 234.867 400.633 237.145 400.656 239.412C400.701 239.843 400.531 240.092 400.146 240.16C399.217 240.364 398.321 240.466 397.46 240.466V238.256H388.076V249.612C388.076 250.224 388.167 250.621 388.348 250.802C388.529 250.983 388.903 251.074 389.47 251.074H397.868C398.933 251.074 399.602 250.598 399.874 249.646L401.472 243.934L402.016 244.036V249.17C402.016 249.918 402.231 250.462 402.662 250.802C403.138 251.187 403.376 251.595 403.376 252.026C403.376 252.615 403.059 253.08 402.424 253.42C401.721 253.805 400.769 253.998 399.568 253.998H388.45ZM376.822 253.76C376.595 253.76 376.414 253.601 376.278 253.284L374.408 249.884C375.383 249.34 375.87 248.558 375.87 247.538V236.42H371.45V235.502H375.326L376.414 233.564L379.848 235.128C380.143 235.264 380.29 235.423 380.29 235.604C380.29 235.831 380.211 236.023 380.052 236.182C379.848 236.409 379.451 236.681 378.862 236.998V247.946L383.52 245.566L383.894 246.042C381.741 248.309 379.576 250.281 377.4 251.958C377.468 253.159 377.275 253.76 376.822 253.76ZM378.59 231.15C377.978 231.173 377.547 230.765 377.298 229.926C376.641 228.022 375.609 226.254 374.204 224.622L374.476 224.282C376.561 225.075 378.091 225.869 379.066 226.662C379.95 227.387 380.392 228.169 380.392 229.008C380.392 229.597 380.199 230.107 379.814 230.538C379.451 230.946 379.043 231.15 378.59 231.15ZM431.97 237.27V236.012H422.246V236.726C422.246 237.179 422.031 237.451 421.6 237.542C420.852 237.701 420.059 237.757 419.22 237.712C419.311 234.811 419.356 232.952 419.356 232.136V229.076C419.356 228.985 419.322 227.716 419.254 225.268L423.232 226.424H431.392L432.446 224.724L435.744 226.118C436.039 226.209 436.186 226.356 436.186 226.56C436.186 226.991 435.744 227.421 434.86 227.852V230.436C434.86 231.66 434.894 233.541 434.962 236.08C434.962 236.624 434.747 236.941 434.316 237.032C433.704 237.191 432.922 237.27 431.97 237.27ZM417.35 240.194V239.344H433.16L434.656 237.338L437.41 239.344C437.569 239.48 437.648 239.605 437.648 239.718C437.648 240.035 437.297 240.194 436.594 240.194H432.99V243.832H434.18L435.812 241.622L438.77 243.798C438.929 243.911 439.008 244.036 439.008 244.172C439.008 244.489 438.657 244.659 437.954 244.682H432.99C433.035 247.13 433.081 249.567 433.126 251.992C433.126 252.989 432.797 253.737 432.14 254.236C431.46 254.735 430.27 255.097 428.57 255.324C428.479 254.395 428.185 253.76 427.686 253.42C427.21 253.103 426.099 252.763 424.354 252.4L424.422 251.822L428.706 251.992C429.25 252.015 429.613 251.935 429.794 251.754C429.975 251.573 430.066 251.244 430.066 250.768V244.682H415.854V243.832H430.066V240.194H417.35ZM411.196 255.29C411.332 251.255 411.4 247.504 411.4 244.036V240.058C410.017 241.237 408.51 242.347 406.878 243.39L406.538 242.914C409.258 240.013 411.423 237.191 413.032 234.448C413.757 233.179 414.267 232.068 414.562 231.116L418.234 232.748C418.529 232.861 418.676 233.031 418.676 233.258C418.676 233.462 418.529 233.632 418.234 233.768C417.894 233.927 417.429 234.006 416.84 234.006C415.775 235.457 414.755 236.703 413.78 237.746L415.14 237.882C415.435 237.905 415.582 238.029 415.582 238.256C415.582 238.664 415.151 239.004 414.29 239.276V254.032C414.29 254.576 414.029 254.916 413.508 255.052C412.601 255.256 411.831 255.335 411.196 255.29ZM422.246 231.626V235.162H431.97V231.626H422.246ZM431.97 227.274H422.246V230.776H431.97V227.274ZM407.32 234.278L406.912 233.836C410.516 229.869 412.771 226.571 413.678 223.942L417.248 225.472C417.565 225.585 417.724 225.744 417.724 225.948C417.724 226.424 417.112 226.673 415.888 226.696C413.667 229.643 410.811 232.17 407.32 234.278ZM422.96 251.176C422.393 251.176 422.019 250.836 421.838 250.156C421.317 248.479 420.444 246.881 419.22 245.362L419.526 244.988C421.385 245.691 422.756 246.461 423.64 247.3C424.365 247.98 424.728 248.671 424.728 249.374C424.728 249.873 424.547 250.303 424.184 250.666C423.844 251.006 423.436 251.176 422.96 251.176ZM449.65 254.168C448.267 254.168 447.145 253.726 446.284 252.842C445.423 251.958 444.992 250.836 444.992 249.476C444.992 248.184 445.434 247.096 446.318 246.212C447.225 245.305 448.335 244.852 449.65 244.852C450.942 244.852 452.041 245.305 452.948 246.212C453.855 247.119 454.308 248.218 454.308 249.51C454.308 250.87 453.843 251.992 452.914 252.876C452.007 253.737 450.919 254.168 449.65 254.168ZM449.65 252.4C450.466 252.4 451.146 252.139 451.69 251.618C452.257 251.074 452.54 250.383 452.54 249.544C452.54 248.683 452.268 247.98 451.724 247.436C451.157 246.869 450.466 246.586 449.65 246.586C448.789 246.586 448.086 246.869 447.542 247.436C446.998 248.003 446.726 248.705 446.726 249.544C446.726 250.36 446.998 251.04 447.542 251.584C448.086 252.128 448.789 252.4 449.65 252.4Z" fill="black"/>
</g>
<defs>
<filter id="filter0_d_400_21" x="0" y="0" width="577.15" height="418.2" filterUnits="userSpaceOnUse" color-interpolation-filters="sRGB">
<feFlood flood-opacity="0" result="BackgroundImageFix"/>
<feColorMatrix in="SourceAlpha" type="matrix" values="0 0 0 0 0 0 0 0 0 0 0 0 0 0 0 0 0 0 127 0" result="hardAlpha"/>
<feOffset/>
<feGaussianBlur stdDeviation="17"/>
<feComposite in2="hardAlpha" operator="out"/>
<feColorMatrix type="matrix" values="0 0 0 0 0 0 0 0 0 0 0 0 0 0 0 0 0 0 0.03 0"/>
<feBlend mode="normal" in2="BackgroundImageFix" result="effect1_dropShadow_400_21"/>
<feBlend mode="normal" in="SourceGraphic" in2="effect1_dropShadow_400_21" result="shape"/>
</filter>
</defs>
</svg>
